999
dxflib 3.3.4.0
  0
SECTION
  2
HEADER
  9
$ACADVER
  1
AC1015
  9
$HANDSEED
  5
FFFF
  9
$DIMADEC
 70
0
  9
$DIMASZ
 40
2.5
  9
$DIMAUNIT
 70
0
  9
$DIMAZIN
 70
2
  9
$DIMDEC
 70
4
  9
$DIMEXE
 40
1.25
  9
$DIMEXO
 40
0.625
  9
$DIMGAP
 40
0.625
  9
$DIMLUNIT
 70
2
  9
$DIMTSZ
 40
0.0
  9
$DIMTXT
 40
2.5
  9
$DIMZIN
 70
8
  9
$DWGCODEPAGE
  3
ANSI_1252
  9
$INSUNITS
 70
5
  9
$LTSCALE
 40
1.0
  0
ENDSEC
  0
SECTION
  2
TABLES
  0
TABLE
  2
VPORT
  5
8
100
AcDbSymbolTable
 70
1
  0
VPORT
  5
30
100
AcDbSymbolTableRecord
100
AcDbViewportTableRecord
  2
*Active
 70
0
 10
0.0
 20
0.0
 11
1.0
 21
1.0
 12
286.3055555555554861
 22
148.5
 13
0.0
 23
0.0
 14
10.0
 24
10.0
 15
10.0
 25
10.0
 16
0.0
 26
0.0
 36
1.0
 17
0.0
 27
0.0
 37
0.0
 40
297.0
 41
1.92798353909465
 42
50.0
 43
0.0
 44
0.0
 50
0.0
 51
0.0
 71
0
 72
100
 73
1
 74
3
 75
1
 76
1
 77
0
 78
0
281
0
 65
1
110
0.0
120
0.0
130
0.0
111
1.0
121
0.0
131
0.0
112
0.0
122
1.0
132
0.0
 79
0
146
0.0
  0
ENDTAB
  0
TABLE
  2
LTYPE
  5
5
100
AcDbSymbolTable
 70
21
  0
LTYPE
  5
16
100
AcDbSymbolTableRecord
100
AcDbLinetypeTableRecord
  2
CONTINUOUS
 70
0
  3
Solid line
 72
65
 73
0
 40
0.0
  0
LTYPE
  5
31
100
AcDbSymbolTableRecord
100
AcDbLinetypeTableRecord
  2
CENTER2
 70
0
  3
Center (.5x) ___ _ ___ _ ___ _ ___ _ ___ _ ___
 72
65
 73
4
 40
28.5749999999999993
 49
19.0500000000000007
 74
0
 49
-3.1749999999999998
 74
0
 49
3.1749999999999998
 74
0
 49
-3.1749999999999998
 74
0
  0
LTYPE
  5
32
100
AcDbSymbolTableRecord
100
AcDbLinetypeTableRecord
  2
DIVIDEX2
 70
0
  3
Divide (2x) ________  .  .  ________  .  .  _
 72
65
 73
6
 40
63.5
 49
25.3999999999999986
 74
0
 49
-12.6999999999999993
 74
0
 49
0.0
 74
0
 49
-12.6999999999999993
 74
0
 49
0.0
 74
0
 49
-12.6999999999999993
 74
0
  0
LTYPE
  5
33
100
AcDbSymbolTableRecord
100
AcDbLinetypeTableRecord
  2
DOT2
 70
0
  3
Dot (.5x) .....................................
 72
65
 73
2
 40
3.1749999999999998
 49
0.0
 74
0
 49
-3.1749999999999998
 74
0
  0
LTYPE
  5
34
100
AcDbSymbolTableRecord
100
AcDbLinetypeTableRecord
  2
DASHDOT2
 70
0
  3
Dash dot (.5x) _._._._._._._._._._._._._._._.
 72
65
 73
4
 40
12.6999999999999993
 49
6.3499999999999996
 74
0
 49
-3.1749999999999998
 74
0
 49
0.0
 74
0
 49
-3.1749999999999998
 74
0
  0
LTYPE
  5
35
100
AcDbSymbolTableRecord
100
AcDbLinetypeTableRecord
  2
DIVIDE
 70
0
  3
Divide ____ . . ____ . . ____ . . ____ . . ____
 72
65
 73
6
 40
31.75
 49
12.6999999999999993
 74
0
 49
-6.3499999999999996
 74
0
 49
0.0
 74
0
 49
-6.3499999999999996
 74
0
 49
0.0
 74
0
 49
-6.3499999999999996
 74
0
  0
LTYPE
  5
36
100
AcDbSymbolTableRecord
100
AcDbLinetypeTableRecord
  2
DASHDOT
 70
0
  3
Dash dot __ . __ . __ . __ . __ . __ . __ . __
 72
65
 73
4
 40
25.3999999999999986
 49
12.6999999999999993
 74
0
 49
-6.3499999999999996
 74
0
 49
0.0
 74
0
 49
-6.3499999999999996
 74
0
  0
LTYPE
  5
37
100
AcDbSymbolTableRecord
100
AcDbLinetypeTableRecord
  2
BORDER
 70
0
  3
Border __ __ . __ __ . __ __ . __ __ . __ __ .
 72
65
 73
6
 40
44.4500000000000028
 49
12.6999999999999993
 74
0
 49
-6.3499999999999996
 74
0
 49
12.6999999999999993
 74
0
 49
-6.3499999999999996
 74
0
 49
0.0
 74
0
 49
-6.3499999999999996
 74
0
  0
LTYPE
  5
38
100
AcDbSymbolTableRecord
100
AcDbLinetypeTableRecord
  2
DASHDOTX2
 70
0
  3
Dash dot (2x) ____  .  ____  .  ____  .  ___
 72
65
 73
4
 40
50.7999999999999972
 49
25.3999999999999986
 74
0
 49
-12.6999999999999993
 74
0
 49
0.0
 74
0
 49
-12.6999999999999993
 74
0
  0
LTYPE
  5
39
100
AcDbSymbolTableRecord
100
AcDbLinetypeTableRecord
  2
CENTERX2
 70
0
  3
Center (2x) ________  __  ________  __  _____
 72
65
 73
4
 40
101.5999999999999943
 49
63.5
 74
0
 49
-12.6999999999999993
 74
0
 49
12.6999999999999993
 74
0
 49
-12.6999999999999993
 74
0
  0
LTYPE
  5
3A
100
AcDbSymbolTableRecord
100
AcDbLinetypeTableRecord
  2
BORDER2
 70
0
  3
Border (.5x) __.__.__.__.__.__.__.__.__.__.__.
 72
65
 73
6
 40
22.2250000000000014
 49
6.3499999999999996
 74
0
 49
-3.1749999999999998
 74
0
 49
6.3499999999999996
 74
0
 49
-3.1749999999999998
 74
0
 49
0.0
 74
0
 49
-3.1749999999999998
 74
0
  0
LTYPE
  5
3B
100
AcDbSymbolTableRecord
100
AcDbLinetypeTableRecord
  2
BORDERX2
 70
0
  3
Border (2x) ____  ____  .  ____  ____  .  ___
 72
65
 73
6
 40
88.9000000000000057
 49
25.3999999999999986
 74
0
 49
-12.6999999999999993
 74
0
 49
25.3999999999999986
 74
0
 49
-12.6999999999999993
 74
0
 49
0.0
 74
0
 49
-12.6999999999999993
 74
0
  0
LTYPE
  5
14
100
AcDbSymbolTableRecord
100
AcDbLinetypeTableRecord
  2
BYBLOCK
 70
0
  3

 72
65
 73
0
 40
0.0
  0
LTYPE
  5
15
100
AcDbSymbolTableRecord
100
AcDbLinetypeTableRecord
  2
BYLAYER
 70
0
  3

 72
65
 73
0
 40
0.0
  0
LTYPE
  5
3C
100
AcDbSymbolTableRecord
100
AcDbLinetypeTableRecord
  2
DASHED2
 70
0
  3
Dashed (.5x) _ _ _ _ _ _ _ _ _ _ _ _ _ _ _ _ _
 72
65
 73
2
 40
9.5250000000000004
 49
6.3499999999999996
 74
0
 49
-3.1749999999999998
 74
0
  0
LTYPE
  5
3D
100
AcDbSymbolTableRecord
100
AcDbLinetypeTableRecord
  2
CENTER
 70
0
  3
Center ____ _ ____ _ ____ _ ____ _ ____ _ ____
 72
65
 73
4
 40
50.7999999999999972
 49
31.75
 74
0
 49
-6.3499999999999996
 74
0
 49
6.3499999999999996
 74
0
 49
-6.3499999999999996
 74
0
  0
LTYPE
  5
3E
100
AcDbSymbolTableRecord
100
AcDbLinetypeTableRecord
  2
DIVIDE2
 70
0
  3
Divide (.5x) __..__..__..__..__..__..__..__.._
 72
65
 73
6
 40
15.875
 49
6.3499999999999996
 74
0
 49
-3.1749999999999998
 74
0
 49
0.0
 74
0
 49
-3.1749999999999998
 74
0
 49
0.0
 74
0
 49
-3.1749999999999998
 74
0
  0
LTYPE
  5
3F
100
AcDbSymbolTableRecord
100
AcDbLinetypeTableRecord
  2
DASHED
 70
0
  3
Dashed __ __ __ __ __ __ __ __ __ __ __ __ __ _
 72
65
 73
2
 40
19.0500000000000007
 49
12.6999999999999993
 74
0
 49
-6.3499999999999996
 74
0
  0
LTYPE
  5
40
100
AcDbSymbolTableRecord
100
AcDbLinetypeTableRecord
  2
DOTX2
 70
0
  3
Dot (2x) .  .  .  .  .  .  .  .  .  .  .  .  .
 72
65
 73
2
 40
12.6999999999999993
 49
0.0
 74
0
 49
-12.6999999999999993
 74
0
  0
LTYPE
  5
41
100
AcDbSymbolTableRecord
100
AcDbLinetypeTableRecord
  2
DASHEDX2
 70
0
  3
Dashed (2x) ____  ____  ____  ____  ____  ___
 72
65
 73
2
 40
38.1000000000000014
 49
25.3999999999999986
 74
0
 49
-12.6999999999999993
 74
0
  0
LTYPE
  5
42
100
AcDbSymbolTableRecord
100
AcDbLinetypeTableRecord
  2
DOT
 70
0
  3
Dot . . . . . . . . . . . . . . . . . . . . . .
 72
65
 73
2
 40
6.3499999999999996
 49
0.0
 74
0
 49
-6.3499999999999996
 74
0
  0
ENDTAB
  0
TABLE
  2
LAYER
  5
2
100
AcDbSymbolTable
 70
1
  0
LAYER
  5
10
100
AcDbSymbolTableRecord
100
AcDbLayerTableRecord
  2
0
 70
0
 62
7
420
16777215
  6
CONTINUOUS
370
13
390
F
  0
ENDTAB
  0
TABLE
  2
STYLE
  5
3
100
AcDbSymbolTable
 70
1
  0
STYLE
  5
43
100
AcDbSymbolTableRecord
100
AcDbTextStyleTableRecord
  2
Standard
 70
0
 40
0.0
 41
1.0
 50
0.0
 71
0
 42
2.5
  3

  4

1001
ACAD
1000
txt
1071
0
  0
ENDTAB
  0
TABLE
  2
VIEW
  5
6
100
AcDbSymbolTable
 70
0
  0
ENDTAB
  0
TABLE
  2
UCS
  5
7
100
AcDbSymbolTable
 70
0
  0
ENDTAB
  0
TABLE
  2
APPID
  5
9
100
AcDbSymbolTable
 70
1
  0
APPID
  5
12
100
AcDbSymbolTableRecord
100
AcDbRegAppTableRecord
  2
ACAD
 70
0
  0
APPID
  5
44
100
AcDbSymbolTableRecord
100
AcDbRegAppTableRecord
  2
QCAD
 70
0
  0
ENDTAB
  0
TABLE
  2
DIMSTYLE
  5
A
100
AcDbSymbolTable
 70
1
100
AcDbDimStyleTable
 71
0
  0
DIMSTYLE
105
27
100
AcDbSymbolTableRecord
100
AcDbDimStyleTableRecord
  2
Standard
 41
2.5
 42
0.625
 43
3.75
 44
1.25
 70
0
 73
0
 74
0
 77
1
 78
8
140
2.5
141
2.5
143
0.03937007874016
147
0.625
171
3
172
1
271
2
272
2
274
3
278
44
283
0
284
8
340
43
  0
ENDTAB
  0
TABLE
  2
BLOCK_RECORD
  5
1
100
AcDbSymbolTable
 70
1
  0
BLOCK_RECORD
  5
1F
100
AcDbSymbolTableRecord
100
AcDbBlockTableRecord
  2
*Model_Space
340
22
  0
BLOCK_RECORD
  5
1B
100
AcDbSymbolTableRecord
100
AcDbBlockTableRecord
  2
*Paper_Space
340
1E
  0
BLOCK_RECORD
  5
23
100
AcDbSymbolTableRecord
100
AcDbBlockTableRecord
  2
*Paper_Space0
340
26
  0
ENDTAB
  0
ENDSEC
  0
SECTION
  2
BLOCKS
  0
BLOCK
  5
20
100
AcDbEntity
  8
0
100
AcDbBlockBegin
  2
*Model_Space
 70
0
 10
0.0
 20
0.0
 30
0.0
  3
*Model_Space
  1

  0
ENDBLK
  5
21
100
AcDbEntity
  8
0
100
AcDbBlockEnd
  0
BLOCK
  5
1C
100
AcDbEntity
 67
1
  8
0
100
AcDbBlockBegin
  2
*Paper_Space
 70
0
 10
0.0
 20
0.0
 30
0.0
  3
*Paper_Space
  1

  0
ENDBLK
  5
1D
100
AcDbEntity
 67
1
  8
0
100
AcDbBlockEnd
  0
BLOCK
  5
24
100
AcDbEntity
  8
0
100
AcDbBlockBegin
  2
*Paper_Space0
 70
0
 10
0.0
 20
0.0
 30
0.0
  3
*Paper_Space0
  1

  0
ENDBLK
  5
25
100
AcDbEntity
  8
0
100
AcDbBlockEnd
  0
ENDSEC
  0
SECTION
  2
ENTITIES
  0
LINE
  5
45
100
AcDbEntity
100
AcDbLine
  8
0
 62
256
370
-1
  6
BYLAYER
 10
39.0
 20
35.0749999999999957
 30
0.0
 11
28.0
 21
40.1500000000000057
 31
0.0
  0
LINE
  5
46
100
AcDbEntity
100
AcDbLine
  8
0
 62
256
370
-1
  6
BYLAYER
 10
28.0
 20
40.1500000000000057
 30
0.0
 11
19.2098421515879423
 21
35.0750000000000028
 31
0.0
  0
LINE
  5
47
100
AcDbEntity
100
AcDbLine
  8
0
 62
256
370
-1
  6
BYLAYER
 10
19.2098421515879423
 20
35.0750000000000028
 30
0.0
 11
19.2098421515879423
 21
24.9250000000000007
 31
0.0
  0
LINE
  5
48
100
AcDbEntity
100
AcDbLine
  8
0
 62
256
370
-1
  6
BYLAYER
 10
19.2098421515879423
 20
24.9250000000000007
 30
0.0
 11
27.9999999999999964
 21
19.8499999999999943
 31
0.0
  0
LINE
  5
49
100
AcDbEntity
100
AcDbLine
  8
0
 62
256
370
-1
  6
BYLAYER
 10
27.9999999999999964
 20
19.8499999999999943
 30
0.0
 11
39.0
 21
24.9249999999999936
 31
0.0
  0
LINE
  5
4A
100
AcDbEntity
100
AcDbLine
  8
0
 62
256
370
-1
  6
BYLAYER
 10
39.0
 20
24.9249999999999936
 30
0.0
 11
39.0
 21
35.0750000000000028
 31
0.0
  0
POINT
  5
4B
100
AcDbEntity
100
AcDbPoint
  8
0
 62
1
420
16711680
370
-1
  6
BYLAYER
 10
28.0
 20
30.0
 30
0.0
  0
LINE
  5
4C
100
AcDbEntity
100
AcDbLine
  8
0
 62
256
370
-1
  6
BYLAYER
 10
23.2009778364210355
 20
28.424754809471608
 30
0.0
 11
22.9527903364210388
 21
28.424754809471608
 31
0.0
  0
LINE
  5
4D
100
AcDbEntity
100
AcDbLine
  8
0
 62
256
370
-1
  6
BYLAYER
 10
23.2009778364210462
 20
26.5247548094716095
 30
0.0
 11
22.9527903364210317
 21
26.5247548094716237
 31
0.0
  0
LINE
  5
4E
100
AcDbEntity
100
AcDbLine
  8
0
 62
256
370
-1
  6
BYLAYER
 10
23.2012899047903858
 20
31.5491858428704184
 30
0.0
 11
22.9531024047903855
 21
31.5491858428704184
 31
0.0
  0
LINE
  5
4F
100
AcDbEntity
100
AcDbLine
  8
0
 62
256
370
-1
  6
BYLAYER
 10
23.2012899047903822
 20
33.4491858428704205
 30
0.0
 11
22.953102404790382
 21
33.4491858428704205
 31
0.0
  0
LINE
  5
50
100
AcDbEntity
100
AcDbLine
  8
0
 62
256
370
-1
  6
BYLAYER
 10
29.058970752495803
 20
34.9325628327930389
 30
0.0
 11
29.1830645024958031
 21
35.1474995126947789
 31
0.0
  0
LINE
  5
51
100
AcDbEntity
100
AcDbLine
  8
0
 62
256
370
-1
  6
BYLAYER
 10
27.4135224853053714
 20
35.8825628327930417
 30
0.0
 11
27.5376162353053786
 21
36.097499512694796
 31
0.0
  0
LINE
  5
52
100
AcDbEntity
100
AcDbLine
  8
0
 62
256
370
-1
  6
BYLAYER
 10
31.7428774993676974
 20
33.3838347575247312
 30
0.0
 11
31.8669712493677011
 21
33.5987714374264783
 31
0.0
  0
LINE
  5
53
100
AcDbEntity
100
AcDbLine
  8
0
 62
256
370
-1
  6
BYLAYER
 10
33.3883257665581255
 20
32.4338347575247283
 30
0.0
 11
33.5124195165581327
 21
32.6487714374264613
 31
0.0
  0
LINE
  5
54
100
AcDbEntity
100
AcDbLine
  8
0
 62
256
370
-1
  6
BYLAYER
 10
33.384197110639569
 20
27.5742970464067021
 30
0.0
 11
33.514822110639571
 21
27.3480479096680185
 31
0.0
  0
LINE
  5
55
100
AcDbEntity
100
AcDbLine
  8
0
 62
256
370
-1
  6
BYLAYER
 10
31.7387488434491409
 20
26.6242970464067099
 30
0.0
 11
31.8693738434491358
 21
26.3980479096680227
 31
0.0
  0
LINE
  5
56
100
AcDbEntity
100
AcDbLine
  8
0
 62
256
370
-1
  6
BYLAYER
 10
29.0540700917173744
 20
25.0742970464067056
 30
0.0
 11
29.1846950917173729
 21
24.8480479096680256
 31
0.0
  0
LINE
  5
57
100
AcDbEntity
100
AcDbLine
  8
0
 62
256
370
-1
  6
BYLAYER
 10
27.4086218245269428
 20
24.1242970464067064
 30
0.0
 11
27.5392468245269413
 21
23.8980479096680227
 31
0.0
  0
LINE
  5
58
100
AcDbEntity
100
AcDbLine
  8
0
 62
256
370
-1
  6
BYLAYER
 10
27.4086218245269428
 20
24.1242970464067064
 30
0.0
 11
29.0540700917173744
 21
25.0742970464067056
 31
0.0
  0
LINE
  5
59
100
AcDbEntity
100
AcDbLine
  8
0
 62
256
370
-1
  6
BYLAYER
 10
31.7387488434491409
 20
26.6242970464067099
 30
0.0
 11
33.384197110639569
 21
27.5742970464067021
 31
0.0
  0
LINE
  5
5A
100
AcDbEntity
100
AcDbLine
  8
0
 62
256
370
-1
  6
BYLAYER
 10
33.3883257665581255
 20
32.4338347575247283
 30
0.0
 11
31.7428774993676974
 21
33.3838347575247312
 31
0.0
  0
LINE
  5
5B
100
AcDbEntity
100
AcDbLine
  8
0
 62
256
370
-1
  6
BYLAYER
 10
29.058970752495803
 20
34.9325628327930389
 30
0.0
 11
27.4135224853053714
 21
35.8825628327930417
 31
0.0
  0
LINE
  5
5C
100
AcDbEntity
100
AcDbLine
  8
0
 62
256
370
-1
  6
BYLAYER
 10
23.2012899047903822
 20
33.4491858428704205
 30
0.0
 11
23.2012899047903858
 21
31.5491858428704184
 31
0.0
  0
LINE
  5
5D
100
AcDbEntity
100
AcDbLine
  8
0
 62
256
370
-1
  6
BYLAYER
 10
23.2009778364210355
 20
28.424754809471608
 30
0.0
 11
23.2009778364210462
 21
26.5247548094716095
 31
0.0
  0
LINE
  5
5E
100
AcDbEntity
100
AcDbLine
  8
0
 62
256
370
-1
  6
BYLAYER
 10
28.415834751442393
 20
24.1847530829489799
 30
0.0
 11
28.4981071648019189
 21
24.2322530829489793
 31
0.0
  0
LINE
  5
5F
100
AcDbEntity
100
AcDbLine
  8
0
 62
256
370
-1
  6
BYLAYER
 10
28.4981071648019189
 20
24.2322530829489793
 30
0.0
 11
28.4031071648019164
 21
24.3967979096680239
 31
0.0
  0
LINE
  5
60
100
AcDbEntity
100
AcDbLine
  8
0
 62
256
370
-1
  6
BYLAYER
 10
28.3208347514423977
 20
24.3492979096680244
 30
0.0
 11
28.415834751442393
 21
24.1847530829489799
 31
0.0
  0
LINE
  5
61
100
AcDbEntity
100
AcDbLine
  8
0
 62
256
370
-1
  6
BYLAYER
 10
32.7459617703645947
 20
26.6847530829489799
 30
0.0
 11
32.8282341837241134
 21
26.7322530829489793
 31
0.0
  0
LINE
  5
62
100
AcDbEntity
100
AcDbLine
  8
0
 62
256
370
-1
  6
BYLAYER
 10
32.8282341837241134
 20
26.7322530829489793
 30
0.0
 11
32.7332341837241145
 21
26.8967979096680239
 31
0.0
  0
LINE
  5
63
100
AcDbEntity
100
AcDbLine
  8
0
 62
256
370
-1
  6
BYLAYER
 10
32.6509617703645958
 20
26.8492979096680209
 30
0.0
 11
32.7459617703645947
 21
26.6847530829489799
 31
0.0
  0
LINE
  5
64
100
AcDbEntity
100
AcDbLine
  8
0
 62
256
370
-1
  6
BYLAYER
 10
22.9527903364210388
 20
27.5222548094715975
 30
0.0
 11
22.7722903364210438
 21
27.5222548094716046
 31
0.0
  0
LINE
  5
65
100
AcDbEntity
100
AcDbLine
  8
0
 62
256
370
-1
  6
BYLAYER
 10
22.7722903364210438
 20
27.5222548094716046
 30
0.0
 11
22.7722903364210438
 21
27.4272548094715951
 31
0.0
  0
LINE
  5
66
100
AcDbEntity
100
AcDbLine
  8
0
 62
256
370
-1
  6
BYLAYER
 10
22.7722903364210438
 20
27.4272548094715951
 30
0.0
 11
22.9527903364210353
 21
27.4272548094716058
 31
0.0
  0
LINE
  5
67
100
AcDbEntity
100
AcDbLine
  8
0
 62
256
370
-1
  6
BYLAYER
 10
22.7726024047903834
 20
32.5466858428704171
 30
0.0
 11
22.7726024047903941
 21
32.451685842870404
 31
0.0
  0
LINE
  5
68
100
AcDbEntity
100
AcDbLine
  8
0
 62
256
370
-1
  6
BYLAYER
 10
22.7726024047903941
 20
32.451685842870404
 30
0.0
 11
22.9531024047903855
 21
32.4516858428704111
 31
0.0
  0
LINE
  5
69
100
AcDbEntity
100
AcDbLine
  8
0
 62
256
370
-1
  6
BYLAYER
 10
22.9531024047903784
 20
32.5466858428704029
 30
0.0
 11
22.7726024047903834
 21
32.5466858428704171
 31
0.0
  0
LINE
  5
6A
100
AcDbEntity
100
AcDbLine
  8
0
 62
256
370
-1
  6
BYLAYER
 10
28.4917265755803442
 20
35.7550670980778662
 30
0.0
 11
28.4094541622208219
 21
35.8025670980778585
 31
0.0
  0
LINE
  5
6B
100
AcDbEntity
100
AcDbLine
  8
0
 62
256
370
-1
  6
BYLAYER
 10
28.4094541622208219
 20
35.8025670980778585
 30
0.0
 11
28.3192041622208244
 21
35.64624951269478
 31
0.0
  0
LINE
  5
6C
100
AcDbEntity
100
AcDbLine
  8
0
 62
256
370
-1
  6
BYLAYER
 10
28.4014765755803502
 20
35.5987495126947877
 30
0.0
 11
28.4917265755803442
 21
35.7550670980778662
 31
0.0
  0
LINE
  5
6D
100
AcDbEntity
100
AcDbLine
  8
0
 62
256
370
-1
  6
BYLAYER
 10
32.7308315896426762
 20
33.1000214374264843
 30
0.0
 11
32.8210815896426809
 21
33.2563390228095699
 31
0.0
  0
LINE
  5
6E
100
AcDbEntity
100
AcDbLine
  8
0
 62
256
370
-1
  6
BYLAYER
 10
32.8210815896426809
 20
33.2563390228095699
 30
0.0
 11
32.7388091762831621
 21
33.3038390228095693
 31
0.0
  0
LINE
  5
6F
100
AcDbEntity
100
AcDbLine
  8
0
 62
256
370
-1
  6
BYLAYER
 10
32.7388091762831621
 20
33.3038390228095693
 30
0.0
 11
32.6485591762831575
 21
33.1475214374264766
 31
0.0
  0
CIRCLE
  5
70
100
AcDbEntity
100
AcDbCircle
  8
0
 62
256
370
-1
  6
BYLAYER
 10
28.6949673200287663
 20
27.0962812921102021
 30
0.0
 40
0.1
  0
CIRCLE
  5
71
100
AcDbEntity
100
AcDbCircle
  8
0
 62
256
370
-1
  6
BYLAYER
 10
30.1682516536481202
 20
27.9471278770815275
 30
0.0
 40
0.1
  0
CIRCLE
  5
72
100
AcDbEntity
100
AcDbCircle
  8
0
 62
256
370
-1
  6
BYLAYER
 10
26.4449673200287663
 20
30.9933956091401761
 30
0.0
 40
0.1
  0
CIRCLE
  5
73
100
AcDbEntity
100
AcDbCircle
  8
0
 62
256
370
-1
  6
BYLAYER
 10
27.9182516536481202
 20
31.8442421941115015
 30
0.0
 40
0.1
  0
LINE
  5
74
100
AcDbEntity
100
AcDbLine
  8
0
 62
256
370
-1
  6
BYLAYER
 10
22.9527903364210353
 20
26.5247548094716024
 30
0.0
 11
22.9527903364210353
 21
27.4272548094716058
 31
0.0
  0
LINE
  5
75
100
AcDbEntity
100
AcDbLine
  8
0
 62
256
370
-1
  6
BYLAYER
 10
22.9527903364210353
 20
27.522254809471594
 30
0.0
 11
22.9527903364210388
 21
28.424754809471608
 31
0.0
  0
LINE
  5
76
100
AcDbEntity
100
AcDbLine
  8
0
 62
256
370
-1
  6
BYLAYER
 10
22.9531024047903855
 20
31.5491858428704184
 30
0.0
 11
22.9531024047903855
 21
32.4516858428704111
 31
0.0
  0
LINE
  5
77
100
AcDbEntity
100
AcDbLine
  8
0
 62
256
370
-1
  6
BYLAYER
 10
22.9531024047903784
 20
32.5466858428704029
 30
0.0
 11
22.953102404790382
 21
33.4491858428704205
 31
0.0
  0
LINE
  5
78
100
AcDbEntity
100
AcDbLine
  8
0
 62
256
370
-1
  6
BYLAYER
 10
27.5376162353053786
 20
36.097499512694796
 30
0.0
 11
28.3192041622208315
 21
35.64624951269478
 31
0.0
  0
LINE
  5
79
100
AcDbEntity
100
AcDbLine
  8
0
 62
256
370
-1
  6
BYLAYER
 10
28.4014765755803538
 20
35.5987495126947806
 30
0.0
 11
29.1830645024958031
 21
35.1474995126947789
 31
0.0
  0
LINE
  5
7A
100
AcDbEntity
100
AcDbLine
  8
0
 62
256
370
-1
  6
BYLAYER
 10
31.8669712493677011
 20
33.5987714374264783
 30
0.0
 11
32.6485591762831575
 21
33.1475214374264766
 31
0.0
  0
LINE
  5
7B
100
AcDbEntity
100
AcDbLine
  8
0
 62
256
370
-1
  6
BYLAYER
 10
32.7308315896426762
 20
33.1000214374264843
 30
0.0
 11
33.5124195165581327
 21
32.6487714374264613
 31
0.0
  0
LINE
  5
7C
100
AcDbEntity
100
AcDbLine
  8
0
 62
256
370
-1
  6
BYLAYER
 10
33.514822110639571
 20
27.348047909668022
 30
0.0
 11
32.7332341837241145
 21
26.8967979096680239
 31
0.0
  0
LINE
  5
7D
100
AcDbEntity
100
AcDbLine
  8
0
 62
256
370
-1
  6
BYLAYER
 10
32.6509617703645958
 20
26.8492979096680209
 30
0.0
 11
31.8693738434491358
 21
26.3980479096680227
 31
0.0
  0
LINE
  5
7E
100
AcDbEntity
100
AcDbLine
  8
0
 62
256
370
-1
  6
BYLAYER
 10
29.1846950917173729
 20
24.8480479096680256
 30
0.0
 11
28.4031071648019164
 21
24.3967979096680239
 31
0.0
  0
LINE
  5
7F
100
AcDbEntity
100
AcDbLine
  8
0
 62
256
370
-1
  6
BYLAYER
 10
28.3208347514423977
 20
24.3492979096680244
 30
0.0
 11
27.5392468245269413
 21
23.8980479096680227
 31
0.0
  0
CIRCLE
  5
80
100
AcDbEntity
100
AcDbCircle
  8
0
 62
256
370
-1
  6
BYLAYER
 10
23.0375302647571978
 20
30.0076352170647986
 30
0.0
 40
0.1
  0
CIRCLE
  5
81
100
AcDbEntity
100
AcDbCircle
  8
0
 62
256
370
-1
  6
BYLAYER
 10
30.4878471595629321
 20
34.2938072476992701
 30
0.0
 40
0.1
  0
CIRCLE
  5
82
100
AcDbEntity
100
AcDbCircle
  8
0
 62
256
370
-1
  6
BYLAYER
 10
30.4746225756798523
 20
25.6985575352358921
 30
0.0
 40
0.1
  0
ENDSEC
  0
SECTION
  2
OBJECTS
  0
DICTIONARY
  5
C
100
AcDbDictionary
280
0
281
1
  3
ACAD_GROUP
350
D
  3
ACAD_LAYOUT
350
1A
  3
ACAD_MLINESTYLE
350
17
  3
ACAD_PLOTSETTINGS
350
19
  3
ACAD_PLOTSTYLENAME
350
E
  3
AcDbVariableDictionary
350
83
  3
QCAD_OBJECTS
350
84
  0
DICTIONARY
  5
D
100
AcDbDictionary
280
0
281
1
  0
ACDBDICTIONARYWDFLT
  5
E
100
AcDbDictionary
281
1
  3
Normal
350
F
100
AcDbDictionaryWithDefault
340
F
  0
ACDBPLACEHOLDER
  5
F
  0
DICTIONARY
  5
17
100
AcDbDictionary
280
0
281
1
  3
Standard
350
18
  0
MLINESTYLE
  5
18
100
AcDbMlineStyle
  2
STANDARD
 70
0
  3

 62
256
 51
90.0
 52
90.0
 71
2
 49
0.5
 62
256
  6
BYLAYER
 49
-0.5
 62
256
  6
BYLAYER
  0
DICTIONARY
  5
19
100
AcDbDictionary
280
0
281
1
  0
DICTIONARY
  5
1A
100
AcDbDictionary
281
1
  3
Layout1
350
1E
  3
Layout2
350
26
  3
Model
350
22
  0
LAYOUT
  5
1E
100
AcDbPlotSettings
  1

  2
none_device
  4

  6

 40
0.0
 41
0.0
 42
0.0
 43
0.0
 44
0.0
 45
0.0
 46
0.0
 47
0.0
 48
0.0
 49
0.0
140
0.0
141
0.0
142
1.0
143
1.0
 70
688
 72
0
 73
0
 74
5
  7

 75
16
147
1.0
148
0.0
149
0.0
100
AcDbLayout
  1
Layout1
 70
1
 71
1
 10
0.0
 20
0.0
 11
420.0
 21
297.0
 12
0.0
 22
0.0
 32
0.0
 14
100000000000000000000.0
 24
100000000000000000000.0
 34
100000000000000000000.0
 15
-100000000000000000000.0
 25
-100000000000000000000.0
 35
-100000000000000000000.0
146
0.0
 13
0.0
 23
0.0
 33
0.0
 16
1.0
 26
0.0
 36
0.0
 17
0.0
 27
1.0
 37
0.0
 76
0
330
1B
  0
LAYOUT
  5
22
100
AcDbPlotSettings
  1

  2
none_device
  4

  6

 40
0.0
 41
0.0
 42
0.0
 43
0.0
 44
0.0
 45
0.0
 46
0.0
 47
0.0
 48
0.0
 49
0.0
140
0.0
141
0.0
142
1.0
143
1.0
 70
1712
 72
0
 73
0
 74
0
  7

 75
0
147
1.0
148
0.0
149
0.0
100
AcDbLayout
  1
Model
 70
1
 71
0
 10
0.0
 20
0.0
 11
12.0
 21
9.0
 12
0.0
 22
0.0
 32
0.0
 14
0.0
 24
0.0
 34
0.0
 15
0.0
 25
0.0
 35
0.0
146
0.0
 13
0.0
 23
0.0
 33
0.0
 16
1.0
 26
0.0
 36
0.0
 17
0.0
 27
1.0
 37
0.0
 76
0
330
1F
  0
LAYOUT
  5
26
100
AcDbPlotSettings
  1

  2
none_device
  4

  6

 40
0.0
 41
0.0
 42
0.0
 43
0.0
 44
0.0
 45
0.0
 46
0.0
 47
0.0
 48
0.0
 49
0.0
140
0.0
141
0.0
142
1.0
143
1.0
 70
688
 72
0
 73
0
 74
5
  7

 75
16
147
1.0
148
0.0
149
0.0
100
AcDbLayout
  1
Layout2
 70
1
 71
2
 10
0.0
 20
0.0
 11
12.0
 21
9.0
 12
0.0
 22
0.0
 32
0.0
 14
0.0
 24
0.0
 34
0.0
 15
0.0
 25
0.0
 35
0.0
146
0.0
 13
0.0
 23
0.0
 33
0.0
 16
1.0
 26
0.0
 36
0.0
 17
0.0
 27
1.0
 37
0.0
 76
0
330
23
  0
DICTIONARY
  5
83
100
AcDbDictionary
281
1
  3
DIMASSOC
350
86
  3
HIDETEXT
350
85
  0
DICTIONARYVAR
  5
85
100
DictionaryVariables
280
0
  1
2
  0
DICTIONARYVAR
  5
86
100
DictionaryVariables
280
0
  1
1
  0
DICTIONARY
  5
84
100
AcDbDictionary
281
1
  3
Grid/DisplayGrid00
350
87
  3
Grid/DisplayGrid01
350
88
  3
Grid/DisplayGrid02
350
89
  3
Grid/DisplayGrid03
350
8A
  3
Grid/GridSpacingX00
350
8B
  3
Grid/GridSpacingX01
350
8C
  3
Grid/GridSpacingX02
350
8D
  3
Grid/GridSpacingX03
350
8E
  3
Grid/GridSpacingY00
350
8F
  3
Grid/GridSpacingY01
350
90
  3
Grid/GridSpacingY02
350
91
  3
Grid/GridSpacingY03
350
92
  3
Grid/IsometricGrid00
350
93
  3
Grid/IsometricGrid01
350
94
  3
Grid/IsometricGrid02
350
95
  3
Grid/IsometricGrid03
350
96
  3
Grid/IsometricProjection00
350
97
  3
Grid/IsometricProjection01
350
98
  3
Grid/IsometricProjection02
350
99
  3
Grid/IsometricProjection03
350
9A
  3
Grid/MetaGridSpacingX00
350
9B
  3
Grid/MetaGridSpacingX01
350
9C
  3
Grid/MetaGridSpacingX02
350
9D
  3
Grid/MetaGridSpacingX03
350
9E
  3
Grid/MetaGridSpacingY00
350
9F
  3
Grid/MetaGridSpacingY01
350
A0
  3
Grid/MetaGridSpacingY02
350
A1
  3
Grid/MetaGridSpacingY03
350
A2
  3
MultiPageSettings/Columns
350
A3
  3
MultiPageSettings/GlueMarginsBottom
350
A4
  3
MultiPageSettings/GlueMarginsLeft
350
A5
  3
MultiPageSettings/GlueMarginsRight
350
A6
  3
MultiPageSettings/GlueMarginsTop
350
A7
  3
MultiPageSettings/PrintCropMarks
350
A8
  3
MultiPageSettings/Rows
350
A9
  3
PageSettings/OffsetX
350
AA
  3
PageSettings/OffsetY
350
AB
  3
PageSettings/PageOrientation
350
AC
  3
PageSettings/PaperHeight
350
AD
  3
PageSettings/PaperSizeName
350
AE
  3
PageSettings/PaperWidth
350
AF
  3
PageSettings/Scale
350
B0
  3
PageSettings/ShowPaperBorders
350
B1
  3
UnitSettings/PaperUnit
350
B2
  0
XRECORD
  5
87
330
84
100
AcDbXrecord
280
1
290
1
  0
XRECORD
  5
88
330
84
100
AcDbXrecord
280
1
290
1
  0
XRECORD
  5
89
330
84
100
AcDbXrecord
280
1
290
1
  0
XRECORD
  5
8A
330
84
100
AcDbXrecord
280
1
290
1
  0
XRECORD
  5
8B
330
84
100
AcDbXrecord
280
1
1000
auto
  0
XRECORD
  5
8C
330
84
100
AcDbXrecord
280
1
1000
auto
  0
XRECORD
  5
8D
330
84
100
AcDbXrecord
280
1
1000
auto
  0
XRECORD
  5
8E
330
84
100
AcDbXrecord
280
1
1000
auto
  0
XRECORD
  5
8F
330
84
100
AcDbXrecord
280
1
1000
auto
  0
XRECORD
  5
90
330
84
100
AcDbXrecord
280
1
1000
auto
  0
XRECORD
  5
91
330
84
100
AcDbXrecord
280
1
1000
auto
  0
XRECORD
  5
92
330
84
100
AcDbXrecord
280
1
1000
auto
  0
XRECORD
  5
93
330
84
100
AcDbXrecord
280
1
290
0
  0
XRECORD
  5
94
330
84
100
AcDbXrecord
280
1
290
0
  0
XRECORD
  5
95
330
84
100
AcDbXrecord
280
1
290
0
  0
XRECORD
  5
96
330
84
100
AcDbXrecord
280
1
290
0
  0
XRECORD
  5
97
330
84
100
AcDbXrecord
280
1
 90
0
  0
XRECORD
  5
98
330
84
100
AcDbXrecord
280
1
 90
0
  0
XRECORD
  5
99
330
84
100
AcDbXrecord
280
1
 90
0
  0
XRECORD
  5
9A
330
84
100
AcDbXrecord
280
1
 90
0
  0
XRECORD
  5
9B
330
84
100
AcDbXrecord
280
1
1000
auto
  0
XRECORD
  5
9C
330
84
100
AcDbXrecord
280
1
1000
auto
  0
XRECORD
  5
9D
330
84
100
AcDbXrecord
280
1
1000
auto
  0
XRECORD
  5
9E
330
84
100
AcDbXrecord
280
1
1000
auto
  0
XRECORD
  5
9F
330
84
100
AcDbXrecord
280
1
1000
auto
  0
XRECORD
  5
A0
330
84
100
AcDbXrecord
280
1
1000
auto
  0
XRECORD
  5
A1
330
84
100
AcDbXrecord
280
1
1000
auto
  0
XRECORD
  5
A2
330
84
100
AcDbXrecord
280
1
1000
auto
  0
XRECORD
  5
A3
330
84
100
AcDbXrecord
280
1
 90
1
  0
XRECORD
  5
A4
330
84
100
AcDbXrecord
280
1
 40
10.0
  0
XRECORD
  5
A5
330
84
100
AcDbXrecord
280
1
 40
10.0
  0
XRECORD
  5
A6
330
84
100
AcDbXrecord
280
1
 40
10.0
  0
XRECORD
  5
A7
330
84
100
AcDbXrecord
280
1
 40
10.0
  0
XRECORD
  5
A8
330
84
100
AcDbXrecord
280
1
290
0
  0
XRECORD
  5
A9
330
84
100
AcDbXrecord
280
1
 90
1
  0
XRECORD
  5
AA
330
84
100
AcDbXrecord
280
1
 40
0.0
  0
XRECORD
  5
AB
330
84
100
AcDbXrecord
280
1
 40
0.0
  0
XRECORD
  5
AC
330
84
100
AcDbXrecord
280
1
1000
Portrait
  0
XRECORD
  5
AD
330
84
100
AcDbXrecord
280
1
 40
297.0
  0
XRECORD
  5
AE
330
84
100
AcDbXrecord
280
1
1000
ISO A4
  0
XRECORD
  5
AF
330
84
100
AcDbXrecord
280
1
 40
210.0
  0
XRECORD
  5
B0
330
84
100
AcDbXrecord
280
1
1000
1:1
  0
XRECORD
  5
B1
330
84
100
AcDbXrecord
280
1
290
1
  0
XRECORD
  5
B2
330
84
100
AcDbXrecord
280
1
 90
4
  0
ENDSEC
  0
EOF
