999
dxflib 3.3.4.0
  0
SECTION
  2
HEADER
  9
$ACADVER
  1
AC1015
  9
$HANDSEED
  5
FFFF
  9
$DIMADEC
 70
0
  9
$DIMASZ
 40
2.5
  9
$DIMAUNIT
 70
0
  9
$DIMAZIN
 70
2
  9
$DIMDEC
 70
4
  9
$DIMEXE
 40
1.25
  9
$DIMEXO
 40
0.625
  9
$DIMGAP
 40
0.625
  9
$DIMLUNIT
 70
2
  9
$DIMSCALE
 40
1.0
  9
$DIMTSZ
 40
0.0
  9
$DIMTXT
 40
2.5
  9
$DIMZIN
 70
8
  9
$DWGCODEPAGE
  3
ANSI_1252
  9
$INSUNITS
 70
5
  9
$LTSCALE
 40
1.0
  0
ENDSEC
  0
SECTION
  2
TABLES
  0
TABLE
  2
VPORT
  5
8
100
AcDbSymbolTable
 70
1
  0
VPORT
  5
30
100
AcDbSymbolTableRecord
100
AcDbViewportTableRecord
  2
*Active
 70
0
 10
0.0
 20
0.0
 11
1.0
 21
1.0
 12
286.3055555555554861
 22
148.5
 13
0.0
 23
0.0
 14
10.0
 24
10.0
 15
10.0
 25
10.0
 16
0.0
 26
0.0
 36
1.0
 17
0.0
 27
0.0
 37
0.0
 40
297.0
 41
1.92798353909465
 42
50.0
 43
0.0
 44
0.0
 50
0.0
 51
0.0
 71
0
 72
100
 73
1
 74
3
 75
1
 76
1
 77
0
 78
0
281
0
 65
1
110
0.0
120
0.0
130
0.0
111
1.0
121
0.0
131
0.0
112
0.0
122
1.0
132
0.0
 79
0
146
0.0
  0
ENDTAB
  0
TABLE
  2
LTYPE
  5
5
100
AcDbSymbolTable
 70
21
  0
LTYPE
  5
16
100
AcDbSymbolTableRecord
100
AcDbLinetypeTableRecord
  2
CONTINUOUS
 70
0
  3
Solid line
 72
65
 73
0
 40
0.0
  0
LTYPE
  5
31
100
AcDbSymbolTableRecord
100
AcDbLinetypeTableRecord
  2
CENTER2
 70
0
  3
Center (.5x) ___ _ ___ _ ___ _ ___ _ ___ _ ___
 72
65
 73
4
 40
28.5749999999999993
 49
19.0500000000000007
 74
0
 49
-3.1749999999999998
 74
0
 49
3.1749999999999998
 74
0
 49
-3.1749999999999998
 74
0
  0
LTYPE
  5
32
100
AcDbSymbolTableRecord
100
AcDbLinetypeTableRecord
  2
DIVIDEX2
 70
0
  3
Divide (2x) ________  .  .  ________  .  .  _
 72
65
 73
6
 40
63.5
 49
25.3999999999999986
 74
0
 49
-12.6999999999999993
 74
0
 49
0.0
 74
0
 49
-12.6999999999999993
 74
0
 49
0.0
 74
0
 49
-12.6999999999999993
 74
0
  0
LTYPE
  5
33
100
AcDbSymbolTableRecord
100
AcDbLinetypeTableRecord
  2
DOT2
 70
0
  3
Dot (.5x) .....................................
 72
65
 73
2
 40
3.1749999999999998
 49
0.0
 74
0
 49
-3.1749999999999998
 74
0
  0
LTYPE
  5
34
100
AcDbSymbolTableRecord
100
AcDbLinetypeTableRecord
  2
DASHDOT2
 70
0
  3
Dash dot (.5x) _._._._._._._._._._._._._._._.
 72
65
 73
4
 40
12.6999999999999993
 49
6.3499999999999996
 74
0
 49
-3.1749999999999998
 74
0
 49
0.0
 74
0
 49
-3.1749999999999998
 74
0
  0
LTYPE
  5
35
100
AcDbSymbolTableRecord
100
AcDbLinetypeTableRecord
  2
DIVIDE
 70
0
  3
Divide ____ . . ____ . . ____ . . ____ . . ____
 72
65
 73
6
 40
31.75
 49
12.6999999999999993
 74
0
 49
-6.3499999999999996
 74
0
 49
0.0
 74
0
 49
-6.3499999999999996
 74
0
 49
0.0
 74
0
 49
-6.3499999999999996
 74
0
  0
LTYPE
  5
36
100
AcDbSymbolTableRecord
100
AcDbLinetypeTableRecord
  2
DASHDOT
 70
0
  3
Dash dot __ . __ . __ . __ . __ . __ . __ . __
 72
65
 73
4
 40
25.3999999999999986
 49
12.6999999999999993
 74
0
 49
-6.3499999999999996
 74
0
 49
0.0
 74
0
 49
-6.3499999999999996
 74
0
  0
LTYPE
  5
37
100
AcDbSymbolTableRecord
100
AcDbLinetypeTableRecord
  2
BORDER
 70
0
  3
Border __ __ . __ __ . __ __ . __ __ . __ __ .
 72
65
 73
6
 40
44.4500000000000028
 49
12.6999999999999993
 74
0
 49
-6.3499999999999996
 74
0
 49
12.6999999999999993
 74
0
 49
-6.3499999999999996
 74
0
 49
0.0
 74
0
 49
-6.3499999999999996
 74
0
  0
LTYPE
  5
38
100
AcDbSymbolTableRecord
100
AcDbLinetypeTableRecord
  2
DASHDOTX2
 70
0
  3
Dash dot (2x) ____  .  ____  .  ____  .  ___
 72
65
 73
4
 40
50.7999999999999972
 49
25.3999999999999986
 74
0
 49
-12.6999999999999993
 74
0
 49
0.0
 74
0
 49
-12.6999999999999993
 74
0
  0
LTYPE
  5
39
100
AcDbSymbolTableRecord
100
AcDbLinetypeTableRecord
  2
CENTERX2
 70
0
  3
Center (2x) ________  __  ________  __  _____
 72
65
 73
4
 40
101.5999999999999943
 49
63.5
 74
0
 49
-12.6999999999999993
 74
0
 49
12.6999999999999993
 74
0
 49
-12.6999999999999993
 74
0
  0
LTYPE
  5
3A
100
AcDbSymbolTableRecord
100
AcDbLinetypeTableRecord
  2
BORDER2
 70
0
  3
Border (.5x) __.__.__.__.__.__.__.__.__.__.__.
 72
65
 73
6
 40
22.2250000000000014
 49
6.3499999999999996
 74
0
 49
-3.1749999999999998
 74
0
 49
6.3499999999999996
 74
0
 49
-3.1749999999999998
 74
0
 49
0.0
 74
0
 49
-3.1749999999999998
 74
0
  0
LTYPE
  5
3B
100
AcDbSymbolTableRecord
100
AcDbLinetypeTableRecord
  2
BORDERX2
 70
0
  3
Border (2x) ____  ____  .  ____  ____  .  ___
 72
65
 73
6
 40
88.9000000000000057
 49
25.3999999999999986
 74
0
 49
-12.6999999999999993
 74
0
 49
25.3999999999999986
 74
0
 49
-12.6999999999999993
 74
0
 49
0.0
 74
0
 49
-12.6999999999999993
 74
0
  0
LTYPE
  5
14
100
AcDbSymbolTableRecord
100
AcDbLinetypeTableRecord
  2
BYBLOCK
 70
0
  3

 72
65
 73
0
 40
0.0
  0
LTYPE
  5
15
100
AcDbSymbolTableRecord
100
AcDbLinetypeTableRecord
  2
BYLAYER
 70
0
  3

 72
65
 73
0
 40
0.0
  0
LTYPE
  5
3C
100
AcDbSymbolTableRecord
100
AcDbLinetypeTableRecord
  2
DASHED2
 70
0
  3
Dashed (.5x) _ _ _ _ _ _ _ _ _ _ _ _ _ _ _ _ _
 72
65
 73
2
 40
9.5250000000000004
 49
6.3499999999999996
 74
0
 49
-3.1749999999999998
 74
0
  0
LTYPE
  5
3D
100
AcDbSymbolTableRecord
100
AcDbLinetypeTableRecord
  2
CENTER
 70
0
  3
Center ____ _ ____ _ ____ _ ____ _ ____ _ ____
 72
65
 73
4
 40
50.7999999999999972
 49
31.75
 74
0
 49
-6.3499999999999996
 74
0
 49
6.3499999999999996
 74
0
 49
-6.3499999999999996
 74
0
  0
LTYPE
  5
3E
100
AcDbSymbolTableRecord
100
AcDbLinetypeTableRecord
  2
DIVIDE2
 70
0
  3
Divide (.5x) __..__..__..__..__..__..__..__.._
 72
65
 73
6
 40
15.875
 49
6.3499999999999996
 74
0
 49
-3.1749999999999998
 74
0
 49
0.0
 74
0
 49
-3.1749999999999998
 74
0
 49
0.0
 74
0
 49
-3.1749999999999998
 74
0
  0
LTYPE
  5
3F
100
AcDbSymbolTableRecord
100
AcDbLinetypeTableRecord
  2
DASHED
 70
0
  3
Dashed __ __ __ __ __ __ __ __ __ __ __ __ __ _
 72
65
 73
2
 40
19.0500000000000007
 49
12.6999999999999993
 74
0
 49
-6.3499999999999996
 74
0
  0
LTYPE
  5
40
100
AcDbSymbolTableRecord
100
AcDbLinetypeTableRecord
  2
DOTX2
 70
0
  3
Dot (2x) .  .  .  .  .  .  .  .  .  .  .  .  .
 72
65
 73
2
 40
12.6999999999999993
 49
0.0
 74
0
 49
-12.6999999999999993
 74
0
  0
LTYPE
  5
41
100
AcDbSymbolTableRecord
100
AcDbLinetypeTableRecord
  2
DASHEDX2
 70
0
  3
Dashed (2x) ____  ____  ____  ____  ____  ___
 72
65
 73
2
 40
38.1000000000000014
 49
25.3999999999999986
 74
0
 49
-12.6999999999999993
 74
0
  0
LTYPE
  5
42
100
AcDbSymbolTableRecord
100
AcDbLinetypeTableRecord
  2
DOT
 70
0
  3
Dot . . . . . . . . . . . . . . . . . . . . . .
 72
65
 73
2
 40
6.3499999999999996
 49
0.0
 74
0
 49
-6.3499999999999996
 74
0
  0
ENDTAB
  0
TABLE
  2
LAYER
  5
2
100
AcDbSymbolTable
 70
1
  0
LAYER
  5
10
100
AcDbSymbolTableRecord
100
AcDbLayerTableRecord
  2
0
 70
0
 62
7
420
16777215
  6
CONTINUOUS
370
13
390
F
  0
ENDTAB
  0
TABLE
  2
STYLE
  5
3
100
AcDbSymbolTable
 70
1
  0
STYLE
  5
43
100
AcDbSymbolTableRecord
100
AcDbTextStyleTableRecord
  2
Standard
 70
0
 40
0.0
 41
1.0
 50
0.0
 71
0
 42
2.5
  3

  4

1001
ACAD
1000
txt
1071
0
  0
ENDTAB
  0
TABLE
  2
VIEW
  5
6
100
AcDbSymbolTable
 70
0
  0
ENDTAB
  0
TABLE
  2
UCS
  5
7
100
AcDbSymbolTable
 70
0
  0
ENDTAB
  0
TABLE
  2
APPID
  5
9
100
AcDbSymbolTable
 70
1
  0
APPID
  5
12
100
AcDbSymbolTableRecord
100
AcDbRegAppTableRecord
  2
ACAD
 70
0
  0
APPID
  5
44
100
AcDbSymbolTableRecord
100
AcDbRegAppTableRecord
  2
QCAD
 70
0
  0
ENDTAB
  0
TABLE
  2
DIMSTYLE
  5
A
100
AcDbSymbolTable
 70
1
100
AcDbDimStyleTable
 71
0
  0
DIMSTYLE
105
27
100
AcDbSymbolTableRecord
100
AcDbDimStyleTableRecord
  2
Standard
 41
2.5
 42
0.625
 43
3.75
 44
1.25
 70
0
 73
0
 74
0
 77
1
 78
8
140
2.5
141
2.5
143
0.03937007874016
147
0.625
171
3
172
1
271
2
272
2
274
3
278
44
283
0
284
8
340
43
  0
ENDTAB
  0
TABLE
  2
BLOCK_RECORD
  5
1
100
AcDbSymbolTable
 70
1
  0
BLOCK_RECORD
  5
1F
100
AcDbSymbolTableRecord
100
AcDbBlockTableRecord
  2
*Model_Space
340
22
  0
BLOCK_RECORD
  5
1B
100
AcDbSymbolTableRecord
100
AcDbBlockTableRecord
  2
*Paper_Space
340
1E
  0
BLOCK_RECORD
  5
23
100
AcDbSymbolTableRecord
100
AcDbBlockTableRecord
  2
*Paper_Space0
340
26
  0
ENDTAB
  0
ENDSEC
  0
SECTION
  2
BLOCKS
  0
BLOCK
  5
20
100
AcDbEntity
  8
0
100
AcDbBlockBegin
  2
*Model_Space
 70
0
 10
0.0
 20
0.0
 30
0.0
  3
*Model_Space
  1

  0
ENDBLK
  5
21
100
AcDbEntity
  8
0
100
AcDbBlockEnd
  0
BLOCK
  5
1C
100
AcDbEntity
 67
1
  8
0
100
AcDbBlockBegin
  2
*Paper_Space
 70
0
 10
0.0
 20
0.0
 30
0.0
  3
*Paper_Space
  1

  0
ENDBLK
  5
1D
100
AcDbEntity
 67
1
  8
0
100
AcDbBlockEnd
  0
BLOCK
  5
24
100
AcDbEntity
  8
0
100
AcDbBlockBegin
  2
*Paper_Space0
 70
0
 10
0.0
 20
0.0
 30
0.0
  3
*Paper_Space0
  1

  0
ENDBLK
  5
25
100
AcDbEntity
  8
0
100
AcDbBlockEnd
  0
ENDSEC
  0
SECTION
  2
ENTITIES
  0
LINE
  5
45
100
AcDbEntity
100
AcDbLine
  8
0
 62
256
370
-1
  6
BYLAYER
 10
31.2401923788646698
 20
24.0878221735089291
 30
0.0
 11
34.7401923788646698
 21
30.149999999999995
 31
0.0
  0
LINE
  5
46
100
AcDbEntity
100
AcDbLine
  8
0
 62
256
370
-1
  6
BYLAYER
 10
34.7401923788646769
 20
30.1499999999999915
 30
0.0
 11
31.5000000000000036
 21
35.7621778264910759
 31
0.0
  0
LINE
  5
47
100
AcDbEntity
100
AcDbLine
  8
0
 62
256
370
-1
  6
BYLAYER
 10
31.5000000000000107
 20
35.7621778264910688
 30
0.0
 11
24.4999999999999893
 21
35.7621778264910617
 31
0.0
  0
LINE
  5
48
100
AcDbEntity
100
AcDbLine
  8
0
 62
256
370
-1
  6
BYLAYER
 10
24.4999999999999929
 20
35.7621778264910688
 30
0.0
 11
21.2598076211353231
 21
30.1499999999999879
 31
0.0
  0
LINE
  5
49
100
AcDbEntity
100
AcDbLine
  8
0
 62
256
370
-1
  6
BYLAYER
 10
21.2598076211353195
 20
30.1499999999999915
 30
0.0
 11
24.7598076211353195
 21
24.0878221735089255
 31
0.0
  0
LINE
  5
4A
100
AcDbEntity
100
AcDbLine
  8
0
 62
256
370
-1
  6
BYLAYER
 10
24.7598076211353231
 20
24.0878221735089291
 30
0.0
 11
31.2401923788646663
 21
24.087822173508922
 31
0.0
  0
LINE
  5
4B
100
AcDbEntity
100
AcDbLine
  8
0
 62
256
370
-1
  6
BYLAYER
 10
26.4499999999999886
 20
34.7984600438419704
 30
0.0
 11
26.4499999999999851
 21
35.0459600438419656
 31
0.0
  0
LINE
  5
4C
100
AcDbEntity
100
AcDbLine
  8
0
 62
256
370
-1
  6
BYLAYER
 10
24.5499999999999936
 20
34.7984600438419633
 30
0.0
 11
24.5499999999999865
 21
35.0459600438419585
 31
0.0
  0
LINE
  5
4D
100
AcDbEntity
100
AcDbLine
  8
0
 62
256
370
-1
  6
BYLAYER
 10
29.5499999999999936
 20
34.8084600438419614
 30
0.0
 11
29.5499999999999972
 21
35.0559600438419565
 31
0.0
  0
LINE
  5
4E
100
AcDbEntity
100
AcDbLine
  8
0
 62
256
370
-1
  6
BYLAYER
 10
31.4499999999999957
 20
34.8084600438419614
 30
0.0
 11
31.4499999999999993
 21
35.0559600438419565
 31
0.0
  0
LINE
  5
4F
100
AcDbEntity
100
AcDbLine
  8
0
 62
256
370
-1
  6
BYLAYER
 10
32.9376765014993893
 20
28.939168701602874
 30
0.0
 11
33.1520177889360284
 21
28.8154187016028729
 31
0.0
  0
LINE
  5
50
100
AcDbEntity
100
AcDbLine
  8
0
 62
256
370
-1
  6
BYLAYER
 10
33.8876765014993993
 20
30.584616968793302
 30
0.0
 11
34.1020177889360383
 21
30.460866968793308
 31
0.0
  0
LINE
  5
51
100
AcDbEntity
100
AcDbLine
  8
0
 62
256
370
-1
  6
BYLAYER
 10
31.3876765014993993
 20
26.2544899498710897
 30
0.0
 11
31.6020177889360419
 21
26.1307399498710886
 31
0.0
  0
LINE
  5
52
100
AcDbEntity
100
AcDbLine
  8
0
 62
256
370
-1
  6
BYLAYER
 10
30.4376765014993929
 20
24.6090416826806582
 30
0.0
 11
30.652017788936039
 21
24.485291682680657
 31
0.0
  0
LINE
  5
53
100
AcDbEntity
100
AcDbLine
  8
0
 62
256
370
-1
  6
BYLAYER
 10
25.5623234985005894
 20
24.6090416826806653
 30
0.0
 11
25.3479822110639503
 21
24.4852916826806677
 31
0.0
  0
LINE
  5
54
100
AcDbEntity
100
AcDbLine
  8
0
 62
256
370
-1
  6
BYLAYER
 10
24.6123234985005972
 20
26.2544899498710933
 30
0.0
 11
24.3979822110639475
 21
26.1307399498710922
 31
0.0
  0
LINE
  5
55
100
AcDbEntity
100
AcDbLine
  8
0
 62
256
370
-1
  6
BYLAYER
 10
23.0623234985005965
 20
28.9391687016028634
 30
0.0
 11
22.8479822110639503
 21
28.8154187016028658
 31
0.0
  0
LINE
  5
56
100
AcDbEntity
100
AcDbLine
  8
0
 62
256
370
-1
  6
BYLAYER
 10
22.1123234985005972
 20
30.5846169687932914
 30
0.0
 11
21.8979822110639617
 21
30.4608669687933045
 31
0.0
  0
LINE
  5
57
100
AcDbEntity
100
AcDbLine
  8
0
 62
256
370
-1
  6
BYLAYER
 10
22.1123234985005972
 20
30.5846169687932914
 30
0.0
 11
23.0623234985005965
 21
28.9391687016028634
 31
0.0
  0
LINE
  5
58
100
AcDbEntity
100
AcDbLine
  8
0
 62
256
370
-1
  6
BYLAYER
 10
24.6123234985005972
 20
26.2544899498710933
 30
0.0
 11
25.5623234985005894
 21
24.6090416826806653
 31
0.0
  0
LINE
  5
59
100
AcDbEntity
100
AcDbLine
  8
0
 62
256
370
-1
  6
BYLAYER
 10
30.4376765014993929
 20
24.6090416826806582
 30
0.0
 11
31.3876765014993993
 21
26.2544899498710897
 31
0.0
  0
LINE
  5
5A
100
AcDbEntity
100
AcDbLine
  8
0
 62
256
370
-1
  6
BYLAYER
 10
32.9376765014993893
 20
28.939168701602874
 30
0.0
 11
33.8876765014993993
 21
30.584616968793302
 31
0.0
  0
LINE
  5
5B
100
AcDbEntity
100
AcDbLine
  8
0
 62
256
370
-1
  6
BYLAYER
 10
31.4499999999999957
 20
34.8084600438419614
 30
0.0
 11
29.5499999999999936
 21
34.8084600438419614
 31
0.0
  0
LINE
  5
5C
100
AcDbEntity
100
AcDbLine
  8
0
 62
256
370
-1
  6
BYLAYER
 10
26.4499999999999886
 20
34.7984600438419704
 30
0.0
 11
24.5499999999999936
 21
34.7984600438419633
 31
0.0
  0
LINE
  5
5D
100
AcDbEntity
100
AcDbLine
  8
0
 62
256
370
-1
  6
BYLAYER
 10
22.1933476383827468
 20
29.5892790418778375
 30
0.0
 11
22.2408476383827463
 21
29.5070066285183188
 31
0.0
  0
LINE
  5
5E
100
AcDbEntity
100
AcDbLine
  8
0
 62
256
370
-1
  6
BYLAYER
 10
22.2408476383827463
 20
29.5070066285183188
 30
0.0
 11
22.3967322110639486
 21
29.5970066285183186
 31
0.0
  0
LINE
  5
5F
100
AcDbEntity
100
AcDbLine
  8
0
 62
256
370
-1
  6
BYLAYER
 10
22.3492322110639527
 20
29.6792790418778409
 30
0.0
 11
22.1933476383827468
 21
29.5892790418778375
 31
0.0
  0
LINE
  5
60
100
AcDbEntity
100
AcDbLine
  8
0
 62
256
370
-1
  6
BYLAYER
 10
24.6933476383827397
 20
25.2591520229556394
 30
0.0
 11
24.7408476383827463
 21
25.1768796095961171
 31
0.0
  0
LINE
  5
61
100
AcDbEntity
100
AcDbLine
  8
0
 62
256
370
-1
  6
BYLAYER
 10
24.7408476383827463
 20
25.1768796095961171
 30
0.0
 11
24.8967322110639522
 21
25.2668796095961206
 31
0.0
  0
LINE
  5
62
100
AcDbEntity
100
AcDbLine
  8
0
 62
256
370
-1
  6
BYLAYER
 10
24.8492322110639421
 20
25.3491520229556393
 30
0.0
 11
24.6933476383827397
 21
25.2591520229556394
 31
0.0
  0
LINE
  5
63
100
AcDbEntity
100
AcDbLine
  8
0
 62
256
370
-1
  6
BYLAYER
 10
25.5474999999999852
 20
35.0459600438419585
 30
0.0
 11
25.5474999999999852
 21
35.2259600438419653
 31
0.0
  0
LINE
  5
64
100
AcDbEntity
100
AcDbLine
  8
0
 62
256
370
-1
  6
BYLAYER
 10
25.5474999999999852
 20
35.2259600438419653
 30
0.0
 11
25.4524999999999828
 21
35.2259600438419653
 31
0.0
  0
LINE
  5
65
100
AcDbEntity
100
AcDbLine
  8
0
 62
256
370
-1
  6
BYLAYER
 10
25.4524999999999828
 20
35.2259600438419653
 30
0.0
 11
25.4524999999999757
 21
35.0459600438419656
 31
0.0
  0
LINE
  5
66
100
AcDbEntity
100
AcDbLine
  8
0
 62
256
370
-1
  6
BYLAYER
 10
30.5474999999999852
 20
35.2359600438419633
 30
0.0
 11
30.4524999999999828
 21
35.2359600438419562
 31
0.0
  0
LINE
  5
67
100
AcDbEntity
100
AcDbLine
  8
0
 62
256
370
-1
  6
BYLAYER
 10
30.4524999999999828
 20
35.2359600438419562
 30
0.0
 11
30.4524999999999864
 21
35.0559600438419636
 31
0.0
  0
LINE
  5
68
100
AcDbEntity
100
AcDbLine
  8
0
 62
256
370
-1
  6
BYLAYER
 10
30.5474999999999852
 20
35.0559600438419636
 30
0.0
 11
30.5474999999999852
 21
35.2359600438419633
 31
0.0
  0
LINE
  5
69
100
AcDbEntity
100
AcDbLine
  8
0
 62
256
370
-1
  6
BYLAYER
 10
33.7591523616172253
 20
29.507006628518333
 30
0.0
 11
33.8066523616172319
 21
29.5892790418778517
 31
0.0
  0
LINE
  5
6A
100
AcDbEntity
100
AcDbLine
  8
0
 62
256
370
-1
  6
BYLAYER
 10
33.8066523616172319
 20
29.5892790418778517
 30
0.0
 11
33.6507677889360295
 21
29.6792790418778445
 31
0.0
  0
LINE
  5
6B
100
AcDbEntity
100
AcDbLine
  8
0
 62
256
370
-1
  6
BYLAYER
 10
33.6032677889360372
 20
29.5970066285183258
 30
0.0
 11
33.7591523616172253
 21
29.507006628518333
 31
0.0
  0
LINE
  5
6C
100
AcDbEntity
100
AcDbLine
  8
0
 62
256
370
-1
  6
BYLAYER
 10
31.1032677889360514
 20
25.2668796095961135
 30
0.0
 11
31.2591523616172431
 21
25.17687960959611
 31
0.0
  0
LINE
  5
6D
100
AcDbEntity
100
AcDbLine
  8
0
 62
256
370
-1
  6
BYLAYER
 10
31.2591523616172431
 20
25.17687960959611
 30
0.0
 11
31.3066523616172496
 21
25.2591520229556252
 31
0.0
  0
LINE
  5
6E
100
AcDbEntity
100
AcDbLine
  8
0
 62
256
370
-1
  6
BYLAYER
 10
31.3066523616172496
 20
25.2591520229556252
 30
0.0
 11
31.1507677889360366
 21
25.3491520229556286
 31
0.0
  0
LINE
  5
6F
100
AcDbEntity
100
AcDbLine
  8
0
 62
256
370
-1
  6
BYLAYER
 10
30.0749999999999993
 20
32.0871778264910716
 30
0.0
 11
30.9250000000000043
 21
32.0871778264910716
 31
0.0
  0
LINE
  5
70
100
AcDbEntity
100
AcDbLine
  8
0
 62
256
370
-1
  6
BYLAYER
 10
30.9250000000000043
 20
32.0871778264910716
 30
0.0
 11
30.9250000000000043
 21
32.562177826491066
 31
0.0
  0
LINE
  5
71
100
AcDbEntity
100
AcDbLine
  8
0
 62
256
370
-1
  6
BYLAYER
 10
30.9250000000000043
 20
32.562177826491066
 30
0.0
 11
30.0749999999999957
 21
32.562177826491066
 31
0.0
  0
LINE
  5
72
100
AcDbEntity
100
AcDbLine
  8
0
 62
256
370
-1
  6
BYLAYER
 10
30.0749999999999957
 20
32.562177826491066
 30
0.0
 11
30.0749999999999993
 21
32.0871778264910716
 31
0.0
  0
LINE
  5
73
100
AcDbEntity
100
AcDbLine
  8
0
 62
256
370
-1
  6
BYLAYER
 10
31.2700490199568577
 20
31.4895353928239707
 30
0.0
 11
30.845049019956857
 21
30.7534137996071983
 31
0.0
  0
LINE
  5
74
100
AcDbEntity
100
AcDbLine
  8
0
 62
256
370
-1
  6
BYLAYER
 10
30.845049019956857
 20
30.7534137996071983
 30
0.0
 11
31.2564110867544613
 21
30.5159137996071976
 31
0.0
  0
LINE
  5
75
100
AcDbEntity
100
AcDbLine
  8
0
 62
256
370
-1
  6
BYLAYER
 10
31.2564110867544613
 20
30.5159137996071976
 30
0.0
 11
31.6814110867544585
 21
31.2520353928239736
 31
0.0
  0
LINE
  5
76
100
AcDbEntity
100
AcDbLine
  8
0
 62
256
370
-1
  6
BYLAYER
 10
31.6814110867544585
 20
31.2520353928239736
 30
0.0
 11
31.2700490199568577
 21
31.4895353928239707
 31
0.0
  0
LINE
  5
77
100
AcDbEntity
100
AcDbLine
  8
0
 62
256
370
-1
  6
BYLAYER
 10
25.0749999999999886
 20
32.0871778264910716
 30
0.0
 11
25.9249999999999901
 21
32.0871778264910645
 31
0.0
  0
LINE
  5
78
100
AcDbEntity
100
AcDbLine
  8
0
 62
256
370
-1
  6
BYLAYER
 10
25.9249999999999901
 20
32.0871778264910645
 30
0.0
 11
25.9249999999999901
 21
32.5621778264910731
 31
0.0
  0
LINE
  5
79
100
AcDbEntity
100
AcDbLine
  8
0
 62
256
370
-1
  6
BYLAYER
 10
25.9249999999999901
 20
32.5621778264910731
 30
0.0
 11
25.0749999999999886
 21
32.5621778264910731
 31
0.0
  0
LINE
  5
7A
100
AcDbEntity
100
AcDbLine
  8
0
 62
256
370
-1
  6
BYLAYER
 10
25.0749999999999886
 20
32.5621778264910731
 30
0.0
 11
25.0749999999999886
 21
32.0871778264910716
 31
0.0
  0
LINE
  5
7B
100
AcDbEntity
100
AcDbLine
  8
0
 62
256
370
-1
  6
BYLAYER
 10
25.1549509800431323
 20
30.7534137996071841
 30
0.0
 11
24.7299509800431316
 21
31.4895353928239565
 31
0.0
  0
LINE
  5
7C
100
AcDbEntity
100
AcDbLine
  8
0
 62
256
370
-1
  6
BYLAYER
 10
24.7299509800431316
 20
31.4895353928239565
 30
0.0
 11
24.3185889132455237
 21
31.2520353928239558
 31
0.0
  0
LINE
  5
7D
100
AcDbEntity
100
AcDbLine
  8
0
 62
256
370
-1
  6
BYLAYER
 10
24.3185889132455237
 20
31.2520353928239558
 30
0.0
 11
24.7435889132455245
 21
30.5159137996071799
 31
0.0
  0
LINE
  5
7E
100
AcDbEntity
100
AcDbLine
  8
0
 62
256
370
-1
  6
BYLAYER
 10
24.7435889132455245
 20
30.5159137996071799
 30
0.0
 11
25.1549509800431323
 21
30.7534137996071841
 31
0.0
  0
LINE
  5
7F
100
AcDbEntity
100
AcDbLine
  8
0
 62
256
370
-1
  6
BYLAYER
 10
27.2299509800431281
 20
27.1594083739017549
 30
0.0
 11
26.8185889132455166
 21
26.9219083739017542
 31
0.0
  0
LINE
  5
80
100
AcDbEntity
100
AcDbLine
  8
0
 62
256
370
-1
  6
BYLAYER
 10
26.8185889132455166
 20
26.9219083739017542
 30
0.0
 11
27.2435889132455173
 21
26.1857867806849818
 31
0.0
  0
LINE
  5
81
100
AcDbEntity
100
AcDbLine
  8
0
 62
256
370
-1
  6
BYLAYER
 10
27.2435889132455173
 20
26.1857867806849818
 30
0.0
 11
27.6549509800431288
 21
26.4232867806849825
 31
0.0
  0
LINE
  5
82
100
AcDbEntity
100
AcDbLine
  8
0
 62
256
370
-1
  6
BYLAYER
 10
28.7700490199568648
 20
27.1594083739017513
 30
0.0
 11
28.3450490199568605
 21
26.4232867806849754
 31
0.0
  0
LINE
  5
83
100
AcDbEntity
100
AcDbLine
  8
0
 62
256
370
-1
  6
BYLAYER
 10
28.3450490199568605
 20
26.4232867806849754
 30
0.0
 11
28.7564110867544684
 21
26.1857867806849747
 31
0.0
  0
LINE
  5
84
100
AcDbEntity
100
AcDbLine
  8
0
 62
256
370
-1
  6
BYLAYER
 10
28.7564110867544684
 20
26.1857867806849747
 30
0.0
 11
29.1814110867544656
 21
26.9219083739017506
 31
0.0
  0
LINE
  5
85
100
AcDbEntity
100
AcDbLine
  8
0
 62
256
370
-1
  6
BYLAYER
 10
29.1814110867544656
 20
26.9219083739017506
 30
0.0
 11
28.7700490199568648
 21
27.1594083739017513
 31
0.0
  0
LINE
  5
86
100
AcDbEntity
100
AcDbLine
  8
0
 62
256
370
-1
  6
BYLAYER
 10
27.2299509800431316
 20
27.1594083739017584
 30
0.0
 11
27.6549509800431288
 21
26.4232867806849825
 31
0.0
  0
LINE
  5
87
100
AcDbEntity
100
AcDbLine
  8
0
 62
256
370
-1
  6
BYLAYER
 10
22.8479822110639503
 20
28.8154187016028658
 30
0.0
 11
22.3967322110639486
 21
29.5970066285183186
 31
0.0
  0
LINE
  5
88
100
AcDbEntity
100
AcDbLine
  8
0
 62
256
370
-1
  6
BYLAYER
 10
22.3492322110639527
 20
29.6792790418778409
 30
0.0
 11
21.8979822110639617
 21
30.4608669687933045
 31
0.0
  0
LINE
  5
89
100
AcDbEntity
100
AcDbLine
  8
0
 62
256
370
-1
  6
BYLAYER
 10
25.3479822110639503
 20
24.4852916826806677
 30
0.0
 11
24.8967322110639522
 21
25.2668796095961206
 31
0.0
  0
LINE
  5
8A
100
AcDbEntity
100
AcDbLine
  8
0
 62
256
370
-1
  6
BYLAYER
 10
24.8492322110639421
 20
25.3491520229556393
 30
0.0
 11
24.3979822110639475
 21
26.1307399498710922
 31
0.0
  0
LINE
  5
8B
100
AcDbEntity
100
AcDbLine
  8
0
 62
256
370
-1
  6
BYLAYER
 10
31.6020177889360419
 20
26.1307399498710886
 30
0.0
 11
31.1507677889360366
 21
25.3491520229556286
 31
0.0
  0
LINE
  5
8C
100
AcDbEntity
100
AcDbLine
  8
0
 62
256
370
-1
  6
BYLAYER
 10
31.1032677889360514
 20
25.2668796095961135
 30
0.0
 11
30.652017788936039
 21
24.485291682680657
 31
0.0
  0
LINE
  5
8D
100
AcDbEntity
100
AcDbLine
  8
0
 62
256
370
-1
  6
BYLAYER
 10
34.1020177889360383
 20
30.460866968793308
 30
0.0
 11
33.6507677889360295
 21
29.6792790418778445
 31
0.0
  0
LINE
  5
8E
100
AcDbEntity
100
AcDbLine
  8
0
 62
256
370
-1
  6
BYLAYER
 10
33.6032677889360443
 20
29.5970066285183222
 30
0.0
 11
33.1520177889360284
 21
28.8154187016028729
 31
0.0
  0
LINE
  5
8F
100
AcDbEntity
100
AcDbLine
  8
0
 62
256
370
-1
  6
BYLAYER
 10
29.5499999999999972
 20
35.0559600438419565
 30
0.0
 11
30.4524999999999864
 21
35.0559600438419565
 31
0.0
  0
LINE
  5
90
100
AcDbEntity
100
AcDbLine
  8
0
 62
256
370
-1
  6
BYLAYER
 10
30.5474999999999781
 20
35.0559600438419636
 30
0.0
 11
31.4499999999999993
 21
35.0559600438419636
 31
0.0
  0
LINE
  5
91
100
AcDbEntity
100
AcDbLine
  8
0
 62
256
370
-1
  6
BYLAYER
 10
24.5499999999999901
 20
35.0459600438419656
 30
0.0
 11
25.4524999999999793
 21
35.0459600438419585
 31
0.0
  0
LINE
  5
92
100
AcDbEntity
100
AcDbLine
  8
0
 62
256
370
-1
  6
BYLAYER
 10
25.5474999999999852
 20
35.0459600438419656
 30
0.0
 11
26.4499999999999851
 21
35.0459600438419656
 31
0.0
  0
CIRCLE
  5
93
100
AcDbEntity
100
AcDbCircle
  8
0
 62
256
370
-1
  6
BYLAYER
 10
27.9999999999999929
 20
25.3378221735089255
 30
0.0
 40
0.2
  0
CIRCLE
  5
94
100
AcDbEntity
100
AcDbCircle
  8
0
 62
256
370
-1
  6
BYLAYER
 10
27.2260343171004244
 20
24.4388972359444772
 30
0.0
 40
0.15
  0
CIRCLE
  5
95
100
AcDbEntity
100
AcDbCircle
  8
0
 62
256
370
-1
  6
BYLAYER
 10
28.7760343171004216
 20
24.4388972359444772
 30
0.0
 40
0.15
  0
CIRCLE
  5
96
100
AcDbEntity
100
AcDbCircle
  8
0
 62
256
370
-1
  6
BYLAYER
 10
24.2499999999999893
 20
28.4378221735089269
 30
0.0
 40
0.1
  0
CIRCLE
  5
97
100
AcDbEntity
100
AcDbCircle
  8
0
 62
256
370
-1
  6
BYLAYER
 10
31.75
 20
28.4378221735089305
 30
0.0
 40
0.1
  0
CIRCLE
  5
98
100
AcDbEntity
100
AcDbCircle
  8
0
 62
256
370
-1
  6
BYLAYER
 10
26.7750492284114117
 20
33.838236946085388
 30
0.0
 40
0.075
  0
CIRCLE
  5
99
100
AcDbEntity
100
AcDbCircle
  8
0
 62
256
370
-1
  6
BYLAYER
 10
26.6999999999999886
 20
28.9378221735089305
 30
0.0
 40
0.075
  0
CIRCLE
  5
9A
100
AcDbEntity
100
AcDbCircle
  8
0
 62
256
370
-1
  6
BYLAYER
 10
31.8999999999999844
 20
29.4378221735089269
 30
0.0
 40
0.075
  0
CIRCLE
  5
9B
100
AcDbEntity
100
AcDbCircle
  8
0
 62
256
370
-1
  6
BYLAYER
 10
31.8999999999999844
 20
32.2378221735089312
 30
0.0
 40
0.075
  0
LINE
  5
9C
100
AcDbEntity
100
AcDbLine
  8
0
 62
256
370
-1
  6
BYLAYER
 10
27.9800000000000004
 20
26.7100000000000009
 30
0.0
 11
27.8323990489831168
 21
27.5470865900603847
 31
0.0
  0
LINE
  5
9D
100
AcDbEntity
100
AcDbLine
  8
0
 62
256
370
-1
  6
BYLAYER
 10
27.8323990489831168
 20
27.5470865900603847
 30
0.0
 11
27.5369567230794594
 21
27.4949921367603025
 31
0.0
  0
LINE
  5
9E
100
AcDbEntity
100
AcDbLine
  8
0
 62
256
370
-1
  6
BYLAYER
 10
27.5369567230794594
 20
27.4949921367603025
 30
0.0
 11
27.6845576740963537
 21
26.6579055466999257
 31
0.0
  0
LINE
  5
9F
100
AcDbEntity
100
AcDbLine
  8
0
 62
256
370
-1
  6
BYLAYER
 10
27.6845576740963537
 20
26.6579055466999257
 30
0.0
 11
27.9800000000000004
 21
26.7100000000000009
 31
0.0
  0
LINE
  5
A0
100
AcDbEntity
100
AcDbLine
  8
0
 62
256
370
-1
  6
BYLAYER
 10
28.1676009510168974
 20
27.5470865900603812
 30
0.0
 11
28.0199999999999996
 21
26.7100000000000009
 31
0.0
  0
LINE
  5
A1
100
AcDbEntity
100
AcDbLine
  8
0
 62
256
370
-1
  6
BYLAYER
 10
28.0199999999999996
 20
26.7100000000000009
 30
0.0
 11
28.3154423259036605
 21
26.6579055466999222
 31
0.0
  0
LINE
  5
A2
100
AcDbEntity
100
AcDbLine
  8
0
 62
256
370
-1
  6
BYLAYER
 10
28.3154423259036605
 20
26.6579055466999222
 30
0.0
 11
28.4630432769205548
 21
27.494992136760299
 31
0.0
  0
LINE
  5
A3
100
AcDbEntity
100
AcDbLine
  8
0
 62
256
370
-1
  6
BYLAYER
 10
28.4630432769205548
 20
27.494992136760299
 30
0.0
 11
28.1676009510168974
 21
27.5470865900603812
 31
0.0
  0
LINE
  5
A4
100
AcDbEntity
100
AcDbLine
  8
0
 62
256
370
-1
  6
BYLAYER
 10
30.8136808057330285
 20
31.5624122951685528
 30
0.0
 11
30.0775592125162561
 21
31.1374122951685592
 31
0.0
  0
LINE
  5
A5
100
AcDbEntity
100
AcDbLine
  8
0
 62
256
370
-1
  6
BYLAYER
 10
30.0775592125162561
 20
31.1374122951685592
 30
0.0
 11
30.2275592125162547
 21
30.8776046740332326
 31
0.0
  0
LINE
  5
A6
100
AcDbEntity
100
AcDbLine
  8
0
 62
256
370
-1
  6
BYLAYER
 10
30.2275592125162547
 20
30.8776046740332326
 30
0.0
 11
30.9636808057330271
 21
31.3026046740332369
 31
0.0
  0
LINE
  5
A7
100
AcDbEntity
100
AcDbLine
  8
0
 62
256
370
-1
  6
BYLAYER
 10
30.9636808057330271
 20
31.3026046740332369
 30
0.0
 11
30.8136808057330285
 21
31.5624122951685528
 31
0.0
  0
LINE
  5
A8
100
AcDbEntity
100
AcDbLine
  8
0
 62
256
370
-1
  6
BYLAYER
 10
29.9629134099396275
 20
31.4523990489831036
 30
0.0
 11
30.7999999999999972
 21
31.5999999999999979
 31
0.0
  0
LINE
  5
A9
100
AcDbEntity
100
AcDbLine
  8
0
 62
256
370
-1
  6
BYLAYER
 10
30.7999999999999972
 20
31.5999999999999979
 30
0.0
 11
30.7479055466999291
 21
31.8954423259036517
 31
0.0
  0
LINE
  5
AA
100
AcDbEntity
100
AcDbLine
  8
0
 62
256
370
-1
  6
BYLAYER
 10
30.7479055466999291
 20
31.8954423259036517
 30
0.0
 11
29.9108189566395559
 21
31.7478413748867645
 31
0.0
  0
LINE
  5
AB
100
AcDbEntity
100
AcDbLine
  8
0
 62
256
370
-1
  6
BYLAYER
 10
29.9108189566395559
 20
31.7478413748867645
 30
0.0
 11
29.9629134099396275
 21
31.4523990489831036
 31
0.0
  0
LINE
  5
AC
100
AcDbEntity
100
AcDbLine
  8
0
 62
256
370
-1
  6
BYLAYER
 10
25.190708010262572
 20
31.6160436254022699
 30
0.0
 11
26.0277946003229523
 21
31.468442674385372
 31
0.0
  0
LINE
  5
AD
100
AcDbEntity
100
AcDbLine
  8
0
 62
256
370
-1
  6
BYLAYER
 10
26.0277946003229523
 20
31.468442674385372
 30
0.0
 11
26.0798890536230203
 21
31.7638850002890294
 31
0.0
  0
LINE
  5
AE
100
AcDbEntity
100
AcDbLine
  8
0
 62
256
370
-1
  6
BYLAYER
 10
26.0798890536230203
 20
31.7638850002890294
 30
0.0
 11
25.2428024635626436
 21
31.9114859513059201
 31
0.0
  0
LINE
  5
AF
100
AcDbEntity
100
AcDbLine
  8
0
 62
256
370
-1
  6
BYLAYER
 10
25.2428024635626436
 20
31.9114859513059201
 30
0.0
 11
25.190708010262572
 21
31.6160436254022699
 31
0.0
  0
LINE
  5
B0
100
AcDbEntity
100
AcDbLine
  8
0
 62
256
370
-1
  6
BYLAYER
 10
25.9131487977463131
 20
31.1534559205708277
 30
0.0
 11
25.1770272045295478
 21
31.5784559205708355
 31
0.0
  0
LINE
  5
B1
100
AcDbEntity
100
AcDbLine
  8
0
 62
256
370
-1
  6
BYLAYER
 10
25.1770272045295478
 20
31.5784559205708355
 30
0.0
 11
25.0270272045295421
 21
31.3186482994355053
 31
0.0
  0
LINE
  5
B2
100
AcDbEntity
100
AcDbLine
  8
0
 62
256
370
-1
  6
BYLAYER
 10
25.0270272045295421
 20
31.3186482994355053
 30
0.0
 11
25.7631487977463181
 21
30.8936482994355011
 31
0.0
  0
LINE
  5
B3
100
AcDbEntity
100
AcDbLine
  8
0
 62
256
370
-1
  6
BYLAYER
 10
25.7631487977463181
 20
30.8936482994355011
 30
0.0
 11
25.9131487977463131
 21
31.1534559205708277
 31
0.0
  0
LINE
  5
B4
100
AcDbEntity
100
AcDbLine
  8
0
 62
256
370
-1
  6
BYLAYER
 10
27.0
 20
34.0
 30
0.0
 11
29.0
 21
34.0
 31
0.0
  0
LINE
  5
B5
100
AcDbEntity
100
AcDbLine
  8
0
 62
256
370
-1
  6
BYLAYER
 10
29.0
 20
34.0
 30
0.0
 11
29.0
 21
34.2999999999999972
 31
0.0
  0
LINE
  5
B6
100
AcDbEntity
100
AcDbLine
  8
0
 62
256
370
-1
  6
BYLAYER
 10
29.0
 20
34.2999999999999972
 30
0.0
 11
27.0
 21
34.2999999999999972
 31
0.0
  0
LINE
  5
B7
100
AcDbEntity
100
AcDbLine
  8
0
 62
256
370
-1
  6
BYLAYER
 10
27.0
 20
34.2999999999999972
 30
0.0
 11
27.0
 21
34.0
 31
0.0
  0
LINE
  5
B8
100
AcDbEntity
100
AcDbLine
  8
0
 62
256
370
-1
  6
BYLAYER
 10
28.6230303561100357
 20
28.5770994591901939
 30
0.0
 11
30.6230303561100357
 21
28.5770994591901939
 31
0.0
  0
LINE
  5
B9
100
AcDbEntity
100
AcDbLine
  8
0
 62
256
370
-1
  6
BYLAYER
 10
30.6230303561100357
 20
28.5770994591901939
 30
0.0
 11
30.6230303561100357
 21
28.8770994591901911
 31
0.0
  0
LINE
  5
BA
100
AcDbEntity
100
AcDbLine
  8
0
 62
256
370
-1
  6
BYLAYER
 10
30.6230303561100357
 20
28.8770994591901911
 30
0.0
 11
28.6230303561100357
 21
28.8770994591901911
 31
0.0
  0
LINE
  5
BB
100
AcDbEntity
100
AcDbLine
  8
0
 62
256
370
-1
  6
BYLAYER
 10
28.6230303561100357
 20
28.8770994591901911
 30
0.0
 11
28.6230303561100357
 21
28.5770994591901939
 31
0.0
  0
CIRCLE
  5
BC
100
AcDbEntity
100
AcDbCircle
  8
0
 62
256
370
-1
  6
BYLAYER
 10
27.9999999999999893
 20
34.9621778264910716
 30
0.0
 40
0.1
  0
CIRCLE
  5
BD
100
AcDbEntity
100
AcDbCircle
  8
0
 62
256
370
-1
  6
BYLAYER
 10
23.7026279441628738
 20
27.5189110867544713
 30
0.0
 40
0.1
  0
CIRCLE
  5
BE
100
AcDbEntity
100
AcDbCircle
  8
0
 62
256
370
-1
  6
BYLAYER
 10
32.2973720558371085
 20
27.5189110867544784
 30
0.0
 40
0.1
  0
CIRCLE
  5
BF
100
AcDbEntity
100
AcDbCircle
  8
0
 62
256
370
-1
  6
BYLAYER
 10
32.6159646676660344
 20
32.6362840761221236
 30
0.0
 40
0.26
  0
ENDSEC
  0
SECTION
  2
OBJECTS
  0
DICTIONARY
  5
C
100
AcDbDictionary
280
0
281
1
  3
ACAD_GROUP
350
D
  3
ACAD_LAYOUT
350
1A
  3
ACAD_MLINESTYLE
350
17
  3
ACAD_PLOTSETTINGS
350
19
  3
ACAD_PLOTSTYLENAME
350
E
  3
AcDbVariableDictionary
350
C0
  3
QCAD_OBJECTS
350
C1
  0
DICTIONARY
  5
D
100
AcDbDictionary
280
0
281
1
  0
ACDBDICTIONARYWDFLT
  5
E
100
AcDbDictionary
281
1
  3
Normal
350
F
100
AcDbDictionaryWithDefault
340
F
  0
ACDBPLACEHOLDER
  5
F
  0
DICTIONARY
  5
17
100
AcDbDictionary
280
0
281
1
  3
Standard
350
18
  0
MLINESTYLE
  5
18
100
AcDbMlineStyle
  2
STANDARD
 70
0
  3

 62
256
 51
90.0
 52
90.0
 71
2
 49
0.5
 62
256
  6
BYLAYER
 49
-0.5
 62
256
  6
BYLAYER
  0
DICTIONARY
  5
19
100
AcDbDictionary
280
0
281
1
  0
DICTIONARY
  5
1A
100
AcDbDictionary
281
1
  3
Layout1
350
1E
  3
Layout2
350
26
  3
Model
350
22
  0
LAYOUT
  5
1E
100
AcDbPlotSettings
  1

  2
none_device
  4

  6

 40
0.0
 41
0.0
 42
0.0
 43
0.0
 44
0.0
 45
0.0
 46
0.0
 47
0.0
 48
0.0
 49
0.0
140
0.0
141
0.0
142
1.0
143
1.0
 70
688
 72
0
 73
0
 74
5
  7

 75
16
147
1.0
148
0.0
149
0.0
100
AcDbLayout
  1
Layout1
 70
1
 71
1
 10
0.0
 20
0.0
 11
420.0
 21
297.0
 12
0.0
 22
0.0
 32
0.0
 14
100000000000000000000.0
 24
100000000000000000000.0
 34
100000000000000000000.0
 15
-100000000000000000000.0
 25
-100000000000000000000.0
 35
-100000000000000000000.0
146
0.0
 13
0.0
 23
0.0
 33
0.0
 16
1.0
 26
0.0
 36
0.0
 17
0.0
 27
1.0
 37
0.0
 76
0
330
1B
  0
LAYOUT
  5
22
100
AcDbPlotSettings
  1

  2
none_device
  4

  6

 40
0.0
 41
0.0
 42
0.0
 43
0.0
 44
0.0
 45
0.0
 46
0.0
 47
0.0
 48
0.0
 49
0.0
140
0.0
141
0.0
142
1.0
143
1.0
 70
1712
 72
0
 73
0
 74
0
  7

 75
0
147
1.0
148
0.0
149
0.0
100
AcDbLayout
  1
Model
 70
1
 71
0
 10
0.0
 20
0.0
 11
12.0
 21
9.0
 12
0.0
 22
0.0
 32
0.0
 14
0.0
 24
0.0
 34
0.0
 15
0.0
 25
0.0
 35
0.0
146
0.0
 13
0.0
 23
0.0
 33
0.0
 16
1.0
 26
0.0
 36
0.0
 17
0.0
 27
1.0
 37
0.0
 76
0
330
1F
  0
LAYOUT
  5
26
100
AcDbPlotSettings
  1

  2
none_device
  4

  6

 40
0.0
 41
0.0
 42
0.0
 43
0.0
 44
0.0
 45
0.0
 46
0.0
 47
0.0
 48
0.0
 49
0.0
140
0.0
141
0.0
142
1.0
143
1.0
 70
688
 72
0
 73
0
 74
5
  7

 75
16
147
1.0
148
0.0
149
0.0
100
AcDbLayout
  1
Layout2
 70
1
 71
2
 10
0.0
 20
0.0
 11
12.0
 21
9.0
 12
0.0
 22
0.0
 32
0.0
 14
0.0
 24
0.0
 34
0.0
 15
0.0
 25
0.0
 35
0.0
146
0.0
 13
0.0
 23
0.0
 33
0.0
 16
1.0
 26
0.0
 36
0.0
 17
0.0
 27
1.0
 37
0.0
 76
0
330
23
  0
DICTIONARY
  5
C0
100
AcDbDictionary
281
1
  3
DIMASSOC
350
C3
  3
HIDETEXT
350
C2
  0
DICTIONARYVAR
  5
C2
100
DictionaryVariables
280
0
  1
2
  0
DICTIONARYVAR
  5
C3
100
DictionaryVariables
280
0
  1
1
  0
DICTIONARY
  5
C1
100
AcDbDictionary
281
1
  3
Grid/DisplayGrid00
350
C4
  3
Grid/DisplayGrid01
350
C5
  3
Grid/DisplayGrid02
350
C6
  3
Grid/DisplayGrid03
350
C7
  3
Grid/GridSpacingX00
350
C8
  3
Grid/GridSpacingX01
350
C9
  3
Grid/GridSpacingX02
350
CA
  3
Grid/GridSpacingX03
350
CB
  3
Grid/GridSpacingY00
350
CC
  3
Grid/GridSpacingY01
350
CD
  3
Grid/GridSpacingY02
350
CE
  3
Grid/GridSpacingY03
350
CF
  3
Grid/IsometricGrid00
350
D0
  3
Grid/IsometricGrid01
350
D1
  3
Grid/IsometricGrid02
350
D2
  3
Grid/IsometricGrid03
350
D3
  3
Grid/IsometricProjection00
350
D4
  3
Grid/IsometricProjection01
350
D5
  3
Grid/IsometricProjection02
350
D6
  3
Grid/IsometricProjection03
350
D7
  3
Grid/MetaGridSpacingX00
350
D8
  3
Grid/MetaGridSpacingX01
350
D9
  3
Grid/MetaGridSpacingX02
350
DA
  3
Grid/MetaGridSpacingX03
350
DB
  3
Grid/MetaGridSpacingY00
350
DC
  3
Grid/MetaGridSpacingY01
350
DD
  3
Grid/MetaGridSpacingY02
350
DE
  3
Grid/MetaGridSpacingY03
350
DF
  3
MultiPageSettings/Columns
350
E0
  3
MultiPageSettings/GlueMarginsBottom
350
E1
  3
MultiPageSettings/GlueMarginsLeft
350
E2
  3
MultiPageSettings/GlueMarginsRight
350
E3
  3
MultiPageSettings/GlueMarginsTop
350
E4
  3
MultiPageSettings/PrintCropMarks
350
E5
  3
MultiPageSettings/Rows
350
E6
  3
PageSettings/OffsetX
350
E7
  3
PageSettings/OffsetY
350
E8
  3
PageSettings/PageOrientation
350
E9
  3
PageSettings/PaperHeight
350
EA
  3
PageSettings/PaperWidth
350
EB
  3
PageSettings/Scale
350
EC
  3
PageSettings/ShowPaperBorders
350
ED
  3
UnitSettings/PaperUnit
350
EE
  0
XRECORD
  5
C4
330
C1
100
AcDbXrecord
280
1
290
1
  0
XRECORD
  5
C5
330
C1
100
AcDbXrecord
280
1
290
1
  0
XRECORD
  5
C6
330
C1
100
AcDbXrecord
280
1
290
1
  0
XRECORD
  5
C7
330
C1
100
AcDbXrecord
280
1
290
1
  0
XRECORD
  5
C8
330
C1
100
AcDbXrecord
280
1
1000
auto
  0
XRECORD
  5
C9
330
C1
100
AcDbXrecord
280
1
1000
auto
  0
XRECORD
  5
CA
330
C1
100
AcDbXrecord
280
1
1000
auto
  0
XRECORD
  5
CB
330
C1
100
AcDbXrecord
280
1
1000
auto
  0
XRECORD
  5
CC
330
C1
100
AcDbXrecord
280
1
1000
auto
  0
XRECORD
  5
CD
330
C1
100
AcDbXrecord
280
1
1000
auto
  0
XRECORD
  5
CE
330
C1
100
AcDbXrecord
280
1
1000
auto
  0
XRECORD
  5
CF
330
C1
100
AcDbXrecord
280
1
1000
auto
  0
XRECORD
  5
D0
330
C1
100
AcDbXrecord
280
1
290
0
  0
XRECORD
  5
D1
330
C1
100
AcDbXrecord
280
1
290
0
  0
XRECORD
  5
D2
330
C1
100
AcDbXrecord
280
1
290
0
  0
XRECORD
  5
D3
330
C1
100
AcDbXrecord
280
1
290
0
  0
XRECORD
  5
D4
330
C1
100
AcDbXrecord
280
1
 90
0
  0
XRECORD
  5
D5
330
C1
100
AcDbXrecord
280
1
 90
0
  0
XRECORD
  5
D6
330
C1
100
AcDbXrecord
280
1
 90
0
  0
XRECORD
  5
D7
330
C1
100
AcDbXrecord
280
1
 90
0
  0
XRECORD
  5
D8
330
C1
100
AcDbXrecord
280
1
1000
auto
  0
XRECORD
  5
D9
330
C1
100
AcDbXrecord
280
1
1000
auto
  0
XRECORD
  5
DA
330
C1
100
AcDbXrecord
280
1
1000
auto
  0
XRECORD
  5
DB
330
C1
100
AcDbXrecord
280
1
1000
auto
  0
XRECORD
  5
DC
330
C1
100
AcDbXrecord
280
1
1000
auto
  0
XRECORD
  5
DD
330
C1
100
AcDbXrecord
280
1
1000
auto
  0
XRECORD
  5
DE
330
C1
100
AcDbXrecord
280
1
1000
auto
  0
XRECORD
  5
DF
330
C1
100
AcDbXrecord
280
1
1000
auto
  0
XRECORD
  5
E0
330
C1
100
AcDbXrecord
280
1
 90
1
  0
XRECORD
  5
E1
330
C1
100
AcDbXrecord
280
1
 40
10.0
  0
XRECORD
  5
E2
330
C1
100
AcDbXrecord
280
1
 40
10.0
  0
XRECORD
  5
E3
330
C1
100
AcDbXrecord
280
1
 40
10.0
  0
XRECORD
  5
E4
330
C1
100
AcDbXrecord
280
1
 40
10.0
  0
XRECORD
  5
E5
330
C1
100
AcDbXrecord
280
1
290
0
  0
XRECORD
  5
E6
330
C1
100
AcDbXrecord
280
1
 90
1
  0
XRECORD
  5
E7
330
C1
100
AcDbXrecord
280
1
 40
0.0
  0
XRECORD
  5
E8
330
C1
100
AcDbXrecord
280
1
 40
0.0
  0
XRECORD
  5
E9
330
C1
100
AcDbXrecord
280
1
1000
Portrait
  0
XRECORD
  5
EA
330
C1
100
AcDbXrecord
280
1
 40
297.0
  0
XRECORD
  5
EB
330
C1
100
AcDbXrecord
280
1
 40
210.0
  0
XRECORD
  5
EC
330
C1
100
AcDbXrecord
280
1
1000
1:1
  0
XRECORD
  5
ED
330
C1
100
AcDbXrecord
280
1
290
1
  0
XRECORD
  5
EE
330
C1
100
AcDbXrecord
280
1
 90
4
  0
ENDSEC
  0
EOF
