999
dxflib 3.3.4.0
  0
SECTION
  2
HEADER
  9
$ACADVER
  1
AC1015
  9
$HANDSEED
  5
FFFF
  9
$DIMADEC
 70
0
  9
$DIMASZ
 40
2.5
  9
$DIMAUNIT
 70
0
  9
$DIMAZIN
 70
2
  9
$DIMDEC
 70
4
  9
$DIMEXE
 40
1.25
  9
$DIMEXO
 40
0.625
  9
$DIMGAP
 40
0.625
  9
$DIMLUNIT
 70
2
  9
$DIMSCALE
 40
1.0
  9
$DIMTSZ
 40
0.0
  9
$DIMTXT
 40
2.5
  9
$DIMZIN
 70
8
  9
$DWGCODEPAGE
  3
ANSI_1252
  9
$INSUNITS
 70
5
  9
$LTSCALE
 40
1.0
  0
ENDSEC
  0
SECTION
  2
TABLES
  0
TABLE
  2
VPORT
  5
8
100
AcDbSymbolTable
 70
1
  0
VPORT
  5
30
100
AcDbSymbolTableRecord
100
AcDbViewportTableRecord
  2
*Active
 70
0
 10
0.0
 20
0.0
 11
1.0
 21
1.0
 12
286.3055555555554861
 22
148.5
 13
0.0
 23
0.0
 14
10.0
 24
10.0
 15
10.0
 25
10.0
 16
0.0
 26
0.0
 36
1.0
 17
0.0
 27
0.0
 37
0.0
 40
297.0
 41
1.92798353909465
 42
50.0
 43
0.0
 44
0.0
 50
0.0
 51
0.0
 71
0
 72
100
 73
1
 74
3
 75
1
 76
1
 77
0
 78
0
281
0
 65
1
110
0.0
120
0.0
130
0.0
111
1.0
121
0.0
131
0.0
112
0.0
122
1.0
132
0.0
 79
0
146
0.0
  0
ENDTAB
  0
TABLE
  2
LTYPE
  5
5
100
AcDbSymbolTable
 70
21
  0
LTYPE
  5
16
100
AcDbSymbolTableRecord
100
AcDbLinetypeTableRecord
  2
CONTINUOUS
 70
0
  3
Solid line
 72
65
 73
0
 40
0.0
  0
LTYPE
  5
31
100
AcDbSymbolTableRecord
100
AcDbLinetypeTableRecord
  2
CENTER2
 70
0
  3
Center (.5x) ___ _ ___ _ ___ _ ___ _ ___ _ ___
 72
65
 73
4
 40
28.5749999999999993
 49
19.0500000000000007
 74
0
 49
-3.1749999999999998
 74
0
 49
3.1749999999999998
 74
0
 49
-3.1749999999999998
 74
0
  0
LTYPE
  5
32
100
AcDbSymbolTableRecord
100
AcDbLinetypeTableRecord
  2
DIVIDEX2
 70
0
  3
Divide (2x) ________  .  .  ________  .  .  _
 72
65
 73
6
 40
63.5
 49
25.3999999999999986
 74
0
 49
-12.6999999999999993
 74
0
 49
0.0
 74
0
 49
-12.6999999999999993
 74
0
 49
0.0
 74
0
 49
-12.6999999999999993
 74
0
  0
LTYPE
  5
33
100
AcDbSymbolTableRecord
100
AcDbLinetypeTableRecord
  2
DOT2
 70
0
  3
Dot (.5x) .....................................
 72
65
 73
2
 40
3.1749999999999998
 49
0.0
 74
0
 49
-3.1749999999999998
 74
0
  0
LTYPE
  5
34
100
AcDbSymbolTableRecord
100
AcDbLinetypeTableRecord
  2
DASHDOT2
 70
0
  3
Dash dot (.5x) _._._._._._._._._._._._._._._.
 72
65
 73
4
 40
12.6999999999999993
 49
6.3499999999999996
 74
0
 49
-3.1749999999999998
 74
0
 49
0.0
 74
0
 49
-3.1749999999999998
 74
0
  0
LTYPE
  5
35
100
AcDbSymbolTableRecord
100
AcDbLinetypeTableRecord
  2
DIVIDE
 70
0
  3
Divide ____ . . ____ . . ____ . . ____ . . ____
 72
65
 73
6
 40
31.75
 49
12.6999999999999993
 74
0
 49
-6.3499999999999996
 74
0
 49
0.0
 74
0
 49
-6.3499999999999996
 74
0
 49
0.0
 74
0
 49
-6.3499999999999996
 74
0
  0
LTYPE
  5
36
100
AcDbSymbolTableRecord
100
AcDbLinetypeTableRecord
  2
DASHDOT
 70
0
  3
Dash dot __ . __ . __ . __ . __ . __ . __ . __
 72
65
 73
4
 40
25.3999999999999986
 49
12.6999999999999993
 74
0
 49
-6.3499999999999996
 74
0
 49
0.0
 74
0
 49
-6.3499999999999996
 74
0
  0
LTYPE
  5
37
100
AcDbSymbolTableRecord
100
AcDbLinetypeTableRecord
  2
BORDER
 70
0
  3
Border __ __ . __ __ . __ __ . __ __ . __ __ .
 72
65
 73
6
 40
44.4500000000000028
 49
12.6999999999999993
 74
0
 49
-6.3499999999999996
 74
0
 49
12.6999999999999993
 74
0
 49
-6.3499999999999996
 74
0
 49
0.0
 74
0
 49
-6.3499999999999996
 74
0
  0
LTYPE
  5
38
100
AcDbSymbolTableRecord
100
AcDbLinetypeTableRecord
  2
DASHDOTX2
 70
0
  3
Dash dot (2x) ____  .  ____  .  ____  .  ___
 72
65
 73
4
 40
50.7999999999999972
 49
25.3999999999999986
 74
0
 49
-12.6999999999999993
 74
0
 49
0.0
 74
0
 49
-12.6999999999999993
 74
0
  0
LTYPE
  5
39
100
AcDbSymbolTableRecord
100
AcDbLinetypeTableRecord
  2
CENTERX2
 70
0
  3
Center (2x) ________  __  ________  __  _____
 72
65
 73
4
 40
101.5999999999999943
 49
63.5
 74
0
 49
-12.6999999999999993
 74
0
 49
12.6999999999999993
 74
0
 49
-12.6999999999999993
 74
0
  0
LTYPE
  5
3A
100
AcDbSymbolTableRecord
100
AcDbLinetypeTableRecord
  2
BORDER2
 70
0
  3
Border (.5x) __.__.__.__.__.__.__.__.__.__.__.
 72
65
 73
6
 40
22.2250000000000014
 49
6.3499999999999996
 74
0
 49
-3.1749999999999998
 74
0
 49
6.3499999999999996
 74
0
 49
-3.1749999999999998
 74
0
 49
0.0
 74
0
 49
-3.1749999999999998
 74
0
  0
LTYPE
  5
3B
100
AcDbSymbolTableRecord
100
AcDbLinetypeTableRecord
  2
BORDERX2
 70
0
  3
Border (2x) ____  ____  .  ____  ____  .  ___
 72
65
 73
6
 40
88.9000000000000057
 49
25.3999999999999986
 74
0
 49
-12.6999999999999993
 74
0
 49
25.3999999999999986
 74
0
 49
-12.6999999999999993
 74
0
 49
0.0
 74
0
 49
-12.6999999999999993
 74
0
  0
LTYPE
  5
14
100
AcDbSymbolTableRecord
100
AcDbLinetypeTableRecord
  2
BYBLOCK
 70
0
  3

 72
65
 73
0
 40
0.0
  0
LTYPE
  5
15
100
AcDbSymbolTableRecord
100
AcDbLinetypeTableRecord
  2
BYLAYER
 70
0
  3

 72
65
 73
0
 40
0.0
  0
LTYPE
  5
3C
100
AcDbSymbolTableRecord
100
AcDbLinetypeTableRecord
  2
DASHED2
 70
0
  3
Dashed (.5x) _ _ _ _ _ _ _ _ _ _ _ _ _ _ _ _ _
 72
65
 73
2
 40
9.5250000000000004
 49
6.3499999999999996
 74
0
 49
-3.1749999999999998
 74
0
  0
LTYPE
  5
3D
100
AcDbSymbolTableRecord
100
AcDbLinetypeTableRecord
  2
CENTER
 70
0
  3
Center ____ _ ____ _ ____ _ ____ _ ____ _ ____
 72
65
 73
4
 40
50.7999999999999972
 49
31.75
 74
0
 49
-6.3499999999999996
 74
0
 49
6.3499999999999996
 74
0
 49
-6.3499999999999996
 74
0
  0
LTYPE
  5
3E
100
AcDbSymbolTableRecord
100
AcDbLinetypeTableRecord
  2
DIVIDE2
 70
0
  3
Divide (.5x) __..__..__..__..__..__..__..__.._
 72
65
 73
6
 40
15.875
 49
6.3499999999999996
 74
0
 49
-3.1749999999999998
 74
0
 49
0.0
 74
0
 49
-3.1749999999999998
 74
0
 49
0.0
 74
0
 49
-3.1749999999999998
 74
0
  0
LTYPE
  5
3F
100
AcDbSymbolTableRecord
100
AcDbLinetypeTableRecord
  2
DASHED
 70
0
  3
Dashed __ __ __ __ __ __ __ __ __ __ __ __ __ _
 72
65
 73
2
 40
19.0500000000000007
 49
12.6999999999999993
 74
0
 49
-6.3499999999999996
 74
0
  0
LTYPE
  5
40
100
AcDbSymbolTableRecord
100
AcDbLinetypeTableRecord
  2
DOTX2
 70
0
  3
Dot (2x) .  .  .  .  .  .  .  .  .  .  .  .  .
 72
65
 73
2
 40
12.6999999999999993
 49
0.0
 74
0
 49
-12.6999999999999993
 74
0
  0
LTYPE
  5
41
100
AcDbSymbolTableRecord
100
AcDbLinetypeTableRecord
  2
DASHEDX2
 70
0
  3
Dashed (2x) ____  ____  ____  ____  ____  ___
 72
65
 73
2
 40
38.1000000000000014
 49
25.3999999999999986
 74
0
 49
-12.6999999999999993
 74
0
  0
LTYPE
  5
42
100
AcDbSymbolTableRecord
100
AcDbLinetypeTableRecord
  2
DOT
 70
0
  3
Dot . . . . . . . . . . . . . . . . . . . . . .
 72
65
 73
2
 40
6.3499999999999996
 49
0.0
 74
0
 49
-6.3499999999999996
 74
0
  0
ENDTAB
  0
TABLE
  2
LAYER
  5
2
100
AcDbSymbolTable
 70
1
  0
LAYER
  5
10
100
AcDbSymbolTableRecord
100
AcDbLayerTableRecord
  2
0
 70
0
 62
7
420
16777215
  6
CONTINUOUS
370
25
390
F
  0
ENDTAB
  0
TABLE
  2
STYLE
  5
3
100
AcDbSymbolTable
 70
25
  0
STYLE
  5
43
100
AcDbSymbolTableRecord
100
AcDbTextStyleTableRecord
  2
Standard
 70
0
 40
0.0
 41
1.0
 50
0.0
 71
0
 42
2.5
  3

  4

1001
ACAD
1000
txt
1071
0
  0
STYLE
  5
44
100
AcDbSymbolTableRecord
100
AcDbTextStyleTableRecord
  2
textstyle0
 70
0
 40
0.0
 41
1.0
 50
0.0
 71
0
 42
0.4
  3

  4

1001
ACAD
1000
Arial
1071
0
  0
STYLE
  5
45
100
AcDbSymbolTableRecord
100
AcDbTextStyleTableRecord
  2
textstyle1
 70
0
 40
0.0
 41
1.0
 50
0.0
 71
0
 42
0.3
  3

  4

1001
ACAD
1000
Arial
1071
0
  0
STYLE
  5
46
100
AcDbSymbolTableRecord
100
AcDbTextStyleTableRecord
  2
textstyle2
 70
0
 40
0.0
 41
1.0
 50
0.0
 71
0
 42
0.3
  3

  4

1001
ACAD
1000
Arial
1071
0
  0
STYLE
  5
47
100
AcDbSymbolTableRecord
100
AcDbTextStyleTableRecord
  2
textstyle3
 70
0
 40
0.0
 41
1.0
 50
0.0
 71
0
 42
0.3
  3

  4

1001
ACAD
1000
Arial
1071
0
  0
STYLE
  5
48
100
AcDbSymbolTableRecord
100
AcDbTextStyleTableRecord
  2
textstyle4
 70
0
 40
0.0
 41
1.0
 50
0.0
 71
0
 42
0.3
  3

  4

1001
ACAD
1000
Arial
1071
0
  0
STYLE
  5
49
100
AcDbSymbolTableRecord
100
AcDbTextStyleTableRecord
  2
textstyle5
 70
0
 40
0.0
 41
1.0
 50
0.0
 71
0
 42
0.4
  3

  4

1001
ACAD
1000
Arial
1071
0
  0
STYLE
  5
4A
100
AcDbSymbolTableRecord
100
AcDbTextStyleTableRecord
  2
textstyle6
 70
0
 40
0.0
 41
1.0
 50
0.0
 71
0
 42
0.4
  3

  4

1001
ACAD
1000
Arial
1071
0
  0
STYLE
  5
4B
100
AcDbSymbolTableRecord
100
AcDbTextStyleTableRecord
  2
textstyle7
 70
0
 40
0.0
 41
1.0
 50
0.0
 71
0
 42
0.4
  3

  4

1001
ACAD
1000
Arial
1071
0
  0
STYLE
  5
4C
100
AcDbSymbolTableRecord
100
AcDbTextStyleTableRecord
  2
textstyle8
 70
0
 40
0.0
 41
1.0
 50
0.0
 71
0
 42
0.4
  3

  4

1001
ACAD
1000
Arial
1071
0
  0
STYLE
  5
4D
100
AcDbSymbolTableRecord
100
AcDbTextStyleTableRecord
  2
textstyle9
 70
0
 40
0.0
 41
1.0
 50
0.0
 71
0
 42
0.4
  3

  4

1001
ACAD
1000
Arial
1071
0
  0
STYLE
  5
4E
100
AcDbSymbolTableRecord
100
AcDbTextStyleTableRecord
  2
textstyle10
 70
0
 40
0.0
 41
1.0
 50
0.0
 71
0
 42
0.4
  3

  4

1001
ACAD
1000
Arial
1071
0
  0
STYLE
  5
4F
100
AcDbSymbolTableRecord
100
AcDbTextStyleTableRecord
  2
textstyle11
 70
0
 40
0.0
 41
1.0
 50
0.0
 71
0
 42
0.4
  3

  4

1001
ACAD
1000
Arial
1071
0
  0
STYLE
  5
50
100
AcDbSymbolTableRecord
100
AcDbTextStyleTableRecord
  2
textstyle12
 70
0
 40
0.0
 41
1.0
 50
0.0
 71
0
 42
0.4
  3

  4

1001
ACAD
1000
Arial
1071
0
  0
STYLE
  5
51
100
AcDbSymbolTableRecord
100
AcDbTextStyleTableRecord
  2
textstyle13
 70
0
 40
0.0
 41
1.0
 50
0.0
 71
0
 42
0.4
  3

  4

1001
ACAD
1000
Arial
1071
0
  0
STYLE
  5
52
100
AcDbSymbolTableRecord
100
AcDbTextStyleTableRecord
  2
textstyle14
 70
0
 40
0.0
 41
1.0
 50
0.0
 71
0
 42
0.4
  3

  4

1001
ACAD
1000
Arial
1071
0
  0
STYLE
  5
53
100
AcDbSymbolTableRecord
100
AcDbTextStyleTableRecord
  2
textstyle15
 70
0
 40
0.0
 41
1.0
 50
0.0
 71
0
 42
0.4
  3

  4

1001
ACAD
1000
Arial
1071
0
  0
STYLE
  5
54
100
AcDbSymbolTableRecord
100
AcDbTextStyleTableRecord
  2
textstyle16
 70
0
 40
0.0
 41
1.0
 50
0.0
 71
0
 42
0.4
  3

  4

1001
ACAD
1000
Arial
1071
0
  0
STYLE
  5
55
100
AcDbSymbolTableRecord
100
AcDbTextStyleTableRecord
  2
textstyle17
 70
0
 40
0.0
 41
1.0
 50
0.0
 71
0
 42
0.4
  3

  4

1001
ACAD
1000
Arial
1071
0
  0
STYLE
  5
56
100
AcDbSymbolTableRecord
100
AcDbTextStyleTableRecord
  2
textstyle18
 70
0
 40
0.0
 41
1.0
 50
0.0
 71
0
 42
0.6
  3

  4

1001
ACAD
1000
Arial
1071
0
  0
STYLE
  5
57
100
AcDbSymbolTableRecord
100
AcDbTextStyleTableRecord
  2
textstyle19
 70
0
 40
0.0
 41
1.0
 50
0.0
 71
0
 42
0.6
  3

  4

1001
ACAD
1000
Arial
1071
0
  0
STYLE
  5
58
100
AcDbSymbolTableRecord
100
AcDbTextStyleTableRecord
  2
textstyle20
 70
0
 40
0.0
 41
1.0
 50
0.0
 71
0
 42
0.6
  3

  4

1001
ACAD
1000
Arial
1071
0
  0
STYLE
  5
59
100
AcDbSymbolTableRecord
100
AcDbTextStyleTableRecord
  2
textstyle21
 70
0
 40
0.0
 41
1.0
 50
0.0
 71
0
 42
0.4
  3

  4

1001
ACAD
1000
Arial
1071
0
  0
STYLE
  5
5A
100
AcDbSymbolTableRecord
100
AcDbTextStyleTableRecord
  2
textstyle22
 70
0
 40
0.0
 41
1.0
 50
0.0
 71
0
 42
0.4
  3

  4

1001
ACAD
1000
Arial
1071
0
  0
STYLE
  5
5B
100
AcDbSymbolTableRecord
100
AcDbTextStyleTableRecord
  2
textstyle23
 70
0
 40
0.0
 41
1.0
 50
0.0
 71
0
 42
0.4
  3

  4

1001
ACAD
1000
Arial
1071
0
  0
ENDTAB
  0
TABLE
  2
VIEW
  5
6
100
AcDbSymbolTable
 70
0
  0
ENDTAB
  0
TABLE
  2
UCS
  5
7
100
AcDbSymbolTable
 70
0
  0
ENDTAB
  0
TABLE
  2
APPID
  5
9
100
AcDbSymbolTable
 70
1
  0
APPID
  5
12
100
AcDbSymbolTableRecord
100
AcDbRegAppTableRecord
  2
ACAD
 70
0
  0
APPID
  5
5C
100
AcDbSymbolTableRecord
100
AcDbRegAppTableRecord
  2
QCAD
 70
0
  0
ENDTAB
  0
TABLE
  2
DIMSTYLE
  5
A
100
AcDbSymbolTable
 70
1
100
AcDbDimStyleTable
 71
0
  0
DIMSTYLE
105
27
100
AcDbSymbolTableRecord
100
AcDbDimStyleTableRecord
  2
Standard
 41
2.5
 42
0.625
 43
3.75
 44
1.25
 70
0
 73
0
 74
0
 77
1
 78
8
140
2.5
141
2.5
143
0.03937007874016
147
0.625
171
3
172
1
271
2
272
2
274
3
278
44
283
0
284
8
340
43
  0
ENDTAB
  0
TABLE
  2
BLOCK_RECORD
  5
1
100
AcDbSymbolTable
 70
1
  0
BLOCK_RECORD
  5
1F
100
AcDbSymbolTableRecord
100
AcDbBlockTableRecord
  2
*Model_Space
340
22
  0
BLOCK_RECORD
  5
1B
100
AcDbSymbolTableRecord
100
AcDbBlockTableRecord
  2
*Paper_Space
340
1E
  0
BLOCK_RECORD
  5
23
100
AcDbSymbolTableRecord
100
AcDbBlockTableRecord
  2
*Paper_Space0
340
26
  0
BLOCK_RECORD
  5
5D
100
AcDbSymbolTableRecord
100
AcDbBlockTableRecord
  2
basebot
340
0
  0
BLOCK_RECORD
  5
5E
100
AcDbSymbolTableRecord
100
AcDbBlockTableRecord
  2
homePos
340
0
  0
BLOCK_RECORD
  5
5F
100
AcDbSymbolTableRecord
100
AcDbBlockTableRecord
  2
base
340
0
  0
BLOCK_RECORD
  5
60
100
AcDbSymbolTableRecord
100
AcDbBlockTableRecord
  2
platform
340
0
  0
BLOCK_RECORD
  5
61
100
AcDbSymbolTableRecord
100
AcDbBlockTableRecord
  2
platformUp
340
0
  0
BLOCK_RECORD
  5
62
100
AcDbSymbolTableRecord
100
AcDbBlockTableRecord
  2
plat_top
340
0
  0
ENDTAB
  0
ENDSEC
  0
SECTION
  2
BLOCKS
  0
BLOCK
  5
20
100
AcDbEntity
  8
0
100
AcDbBlockBegin
  2
*Model_Space
 70
0
 10
0.0
 20
0.0
 30
0.0
  3
*Model_Space
  1

  0
ENDBLK
  5
21
100
AcDbEntity
  8
0
100
AcDbBlockEnd
  0
BLOCK
  5
1C
100
AcDbEntity
 67
1
  8
0
100
AcDbBlockBegin
  2
*Paper_Space
 70
0
 10
0.0
 20
0.0
 30
0.0
  3
*Paper_Space
  1

  0
ENDBLK
  5
1D
100
AcDbEntity
 67
1
  8
0
100
AcDbBlockEnd
  0
BLOCK
  5
24
100
AcDbEntity
  8
0
100
AcDbBlockBegin
  2
*Paper_Space0
 70
0
 10
0.0
 20
0.0
 30
0.0
  3
*Paper_Space0
  1

  0
ENDBLK
  5
25
100
AcDbEntity
  8
0
100
AcDbBlockEnd
  0
BLOCK
  5
63
100
AcDbEntity
  8
0
100
AcDbBlockBegin
  2
basebot
 70
0
 10
0.0
 20
0.0
 30
0.0
  3
basebot
  1

  0
LINE
  5
64
100
AcDbEntity
100
AcDbLine
  8
0
 62
256
370
-1
  6
BYLAYER
 10
32.7388091762831621
 20
33.3038390228095693
 30
0.0
 11
32.6485591762831575
 21
33.1475214374264766
 31
0.0
  0
CIRCLE
  5
65
100
AcDbEntity
100
AcDbCircle
  8
0
 62
256
370
-1
  6
BYLAYER
 10
28.6949673200287663
 20
27.0962812921102021
 30
0.0
 40
0.1
  0
CIRCLE
  5
66
100
AcDbEntity
100
AcDbCircle
  8
0
 62
256
370
-1
  6
BYLAYER
 10
30.1682516536481202
 20
27.9471278770815275
 30
0.0
 40
0.1
  0
CIRCLE
  5
67
100
AcDbEntity
100
AcDbCircle
  8
0
 62
256
370
-1
  6
BYLAYER
 10
26.4449673200287663
 20
30.9933956091401761
 30
0.0
 40
0.1
  0
CIRCLE
  5
68
100
AcDbEntity
100
AcDbCircle
  8
0
 62
256
370
-1
  6
BYLAYER
 10
27.9182516536481202
 20
31.8442421941115015
 30
0.0
 40
0.1
  0
LINE
  5
69
100
AcDbEntity
100
AcDbLine
  8
0
 62
256
370
-1
  6
BYLAYER
 10
22.9527903364210353
 20
26.5247548094716024
 30
0.0
 11
22.9527903364210353
 21
27.4272548094716058
 31
0.0
  0
LINE
  5
6A
100
AcDbEntity
100
AcDbLine
  8
0
 62
256
370
-1
  6
BYLAYER
 10
22.9527903364210353
 20
27.522254809471594
 30
0.0
 11
22.9527903364210388
 21
28.424754809471608
 31
0.0
  0
LINE
  5
6B
100
AcDbEntity
100
AcDbLine
  8
0
 62
256
370
-1
  6
BYLAYER
 10
22.9531024047903855
 20
31.5491858428704184
 30
0.0
 11
22.9531024047903855
 21
32.4516858428704111
 31
0.0
  0
LINE
  5
6C
100
AcDbEntity
100
AcDbLine
  8
0
 62
256
370
-1
  6
BYLAYER
 10
22.9531024047903784
 20
32.5466858428704029
 30
0.0
 11
22.953102404790382
 21
33.4491858428704205
 31
0.0
  0
LINE
  5
6D
100
AcDbEntity
100
AcDbLine
  8
0
 62
256
370
-1
  6
BYLAYER
 10
27.5376162353053786
 20
36.097499512694796
 30
0.0
 11
28.3192041622208315
 21
35.64624951269478
 31
0.0
  0
LINE
  5
6E
100
AcDbEntity
100
AcDbLine
  8
0
 62
256
370
-1
  6
BYLAYER
 10
28.4014765755803538
 20
35.5987495126947806
 30
0.0
 11
29.1830645024958031
 21
35.1474995126947789
 31
0.0
  0
LINE
  5
6F
100
AcDbEntity
100
AcDbLine
  8
0
 62
256
370
-1
  6
BYLAYER
 10
31.8669712493677011
 20
33.5987714374264783
 30
0.0
 11
32.6485591762831575
 21
33.1475214374264766
 31
0.0
  0
LINE
  5
70
100
AcDbEntity
100
AcDbLine
  8
0
 62
256
370
-1
  6
BYLAYER
 10
32.7308315896426762
 20
33.1000214374264843
 30
0.0
 11
33.5124195165581327
 21
32.6487714374264613
 31
0.0
  0
LINE
  5
71
100
AcDbEntity
100
AcDbLine
  8
0
 62
256
370
-1
  6
BYLAYER
 10
33.514822110639571
 20
27.348047909668022
 30
0.0
 11
32.7332341837241145
 21
26.8967979096680239
 31
0.0
  0
LINE
  5
72
100
AcDbEntity
100
AcDbLine
  8
0
 62
256
370
-1
  6
BYLAYER
 10
32.6509617703645958
 20
26.8492979096680209
 30
0.0
 11
31.8693738434491358
 21
26.3980479096680227
 31
0.0
  0
LINE
  5
73
100
AcDbEntity
100
AcDbLine
  8
0
 62
256
370
-1
  6
BYLAYER
 10
29.1846950917173729
 20
24.8480479096680256
 30
0.0
 11
28.4031071648019164
 21
24.3967979096680239
 31
0.0
  0
LINE
  5
74
100
AcDbEntity
100
AcDbLine
  8
0
 62
256
370
-1
  6
BYLAYER
 10
28.3208347514423977
 20
24.3492979096680244
 30
0.0
 11
27.5392468245269413
 21
23.8980479096680227
 31
0.0
  0
CIRCLE
  5
75
100
AcDbEntity
100
AcDbCircle
  8
0
 62
256
370
-1
  6
BYLAYER
 10
23.0375302647571978
 20
30.0076352170647986
 30
0.0
 40
0.1
  0
CIRCLE
  5
76
100
AcDbEntity
100
AcDbCircle
  8
0
 62
256
370
-1
  6
BYLAYER
 10
30.4878471595629321
 20
34.2938072476992701
 30
0.0
 40
0.1
  0
CIRCLE
  5
77
100
AcDbEntity
100
AcDbCircle
  8
0
 62
256
370
-1
  6
BYLAYER
 10
30.4746225756798523
 20
25.6985575352358921
 30
0.0
 40
0.1
  0
LINE
  5
78
100
AcDbEntity
100
AcDbLine
  8
0
 62
256
370
-1
  6
BYLAYER
 10
39.0
 20
35.0749999999999957
 30
0.0
 11
28.0
 21
40.1500000000000057
 31
0.0
  0
LINE
  5
79
100
AcDbEntity
100
AcDbLine
  8
0
 62
256
370
-1
  6
BYLAYER
 10
28.0
 20
40.1500000000000057
 30
0.0
 11
19.2098421515879423
 21
35.0750000000000028
 31
0.0
  0
LINE
  5
7A
100
AcDbEntity
100
AcDbLine
  8
0
 62
256
370
-1
  6
BYLAYER
 10
19.2098421515879423
 20
35.0750000000000028
 30
0.0
 11
19.2098421515879423
 21
24.9250000000000007
 31
0.0
  0
LINE
  5
7B
100
AcDbEntity
100
AcDbLine
  8
0
 62
256
370
-1
  6
BYLAYER
 10
19.2098421515879423
 20
24.9250000000000007
 30
0.0
 11
27.9999999999999964
 21
19.8499999999999943
 31
0.0
  0
LINE
  5
7C
100
AcDbEntity
100
AcDbLine
  8
0
 62
256
370
-1
  6
BYLAYER
 10
27.9999999999999964
 20
19.8499999999999943
 30
0.0
 11
39.0
 21
24.9249999999999936
 31
0.0
  0
LINE
  5
7D
100
AcDbEntity
100
AcDbLine
  8
0
 62
256
370
-1
  6
BYLAYER
 10
39.0
 20
24.9249999999999936
 30
0.0
 11
39.0
 21
35.0750000000000028
 31
0.0
  0
POINT
  5
7E
100
AcDbEntity
100
AcDbPoint
  8
0
 62
1
420
16711680
370
-1
  6
BYLAYER
 10
28.0
 20
30.0
 30
0.0
  0
LINE
  5
7F
100
AcDbEntity
100
AcDbLine
  8
0
 62
256
370
-1
  6
BYLAYER
 10
23.2009778364210355
 20
28.424754809471608
 30
0.0
 11
22.9527903364210388
 21
28.424754809471608
 31
0.0
  0
LINE
  5
80
100
AcDbEntity
100
AcDbLine
  8
0
 62
256
370
-1
  6
BYLAYER
 10
23.2009778364210462
 20
26.5247548094716095
 30
0.0
 11
22.9527903364210317
 21
26.5247548094716237
 31
0.0
  0
LINE
  5
81
100
AcDbEntity
100
AcDbLine
  8
0
 62
256
370
-1
  6
BYLAYER
 10
23.2012899047903858
 20
31.5491858428704184
 30
0.0
 11
22.9531024047903855
 21
31.5491858428704184
 31
0.0
  0
LINE
  5
82
100
AcDbEntity
100
AcDbLine
  8
0
 62
256
370
-1
  6
BYLAYER
 10
23.2012899047903822
 20
33.4491858428704205
 30
0.0
 11
22.953102404790382
 21
33.4491858428704205
 31
0.0
  0
LINE
  5
83
100
AcDbEntity
100
AcDbLine
  8
0
 62
256
370
-1
  6
BYLAYER
 10
29.058970752495803
 20
34.9325628327930389
 30
0.0
 11
29.1830645024958031
 21
35.1474995126947789
 31
0.0
  0
LINE
  5
84
100
AcDbEntity
100
AcDbLine
  8
0
 62
256
370
-1
  6
BYLAYER
 10
27.4135224853053714
 20
35.8825628327930417
 30
0.0
 11
27.5376162353053786
 21
36.097499512694796
 31
0.0
  0
LINE
  5
85
100
AcDbEntity
100
AcDbLine
  8
0
 62
256
370
-1
  6
BYLAYER
 10
31.7428774993676974
 20
33.3838347575247312
 30
0.0
 11
31.8669712493677011
 21
33.5987714374264783
 31
0.0
  0
LINE
  5
86
100
AcDbEntity
100
AcDbLine
  8
0
 62
256
370
-1
  6
BYLAYER
 10
33.3883257665581255
 20
32.4338347575247283
 30
0.0
 11
33.5124195165581327
 21
32.6487714374264613
 31
0.0
  0
LINE
  5
87
100
AcDbEntity
100
AcDbLine
  8
0
 62
256
370
-1
  6
BYLAYER
 10
33.384197110639569
 20
27.5742970464067021
 30
0.0
 11
33.514822110639571
 21
27.3480479096680185
 31
0.0
  0
LINE
  5
88
100
AcDbEntity
100
AcDbLine
  8
0
 62
256
370
-1
  6
BYLAYER
 10
31.7387488434491409
 20
26.6242970464067099
 30
0.0
 11
31.8693738434491358
 21
26.3980479096680227
 31
0.0
  0
LINE
  5
89
100
AcDbEntity
100
AcDbLine
  8
0
 62
256
370
-1
  6
BYLAYER
 10
29.0540700917173744
 20
25.0742970464067056
 30
0.0
 11
29.1846950917173729
 21
24.8480479096680256
 31
0.0
  0
LINE
  5
8A
100
AcDbEntity
100
AcDbLine
  8
0
 62
256
370
-1
  6
BYLAYER
 10
27.4086218245269428
 20
24.1242970464067064
 30
0.0
 11
27.5392468245269413
 21
23.8980479096680227
 31
0.0
  0
LINE
  5
8B
100
AcDbEntity
100
AcDbLine
  8
0
 62
256
370
-1
  6
BYLAYER
 10
27.4086218245269428
 20
24.1242970464067064
 30
0.0
 11
29.0540700917173744
 21
25.0742970464067056
 31
0.0
  0
LINE
  5
8C
100
AcDbEntity
100
AcDbLine
  8
0
 62
256
370
-1
  6
BYLAYER
 10
31.7387488434491409
 20
26.6242970464067099
 30
0.0
 11
33.384197110639569
 21
27.5742970464067021
 31
0.0
  0
LINE
  5
8D
100
AcDbEntity
100
AcDbLine
  8
0
 62
256
370
-1
  6
BYLAYER
 10
33.3883257665581255
 20
32.4338347575247283
 30
0.0
 11
31.7428774993676974
 21
33.3838347575247312
 31
0.0
  0
LINE
  5
8E
100
AcDbEntity
100
AcDbLine
  8
0
 62
256
370
-1
  6
BYLAYER
 10
29.058970752495803
 20
34.9325628327930389
 30
0.0
 11
27.4135224853053714
 21
35.8825628327930417
 31
0.0
  0
LINE
  5
8F
100
AcDbEntity
100
AcDbLine
  8
0
 62
256
370
-1
  6
BYLAYER
 10
23.2012899047903822
 20
33.4491858428704205
 30
0.0
 11
23.2012899047903858
 21
31.5491858428704184
 31
0.0
  0
LINE
  5
90
100
AcDbEntity
100
AcDbLine
  8
0
 62
256
370
-1
  6
BYLAYER
 10
23.2009778364210355
 20
28.424754809471608
 30
0.0
 11
23.2009778364210462
 21
26.5247548094716095
 31
0.0
  0
LINE
  5
91
100
AcDbEntity
100
AcDbLine
  8
0
 62
256
370
-1
  6
BYLAYER
 10
28.415834751442393
 20
24.1847530829489799
 30
0.0
 11
28.4981071648019189
 21
24.2322530829489793
 31
0.0
  0
LINE
  5
92
100
AcDbEntity
100
AcDbLine
  8
0
 62
256
370
-1
  6
BYLAYER
 10
28.4981071648019189
 20
24.2322530829489793
 30
0.0
 11
28.4031071648019164
 21
24.3967979096680239
 31
0.0
  0
LINE
  5
93
100
AcDbEntity
100
AcDbLine
  8
0
 62
256
370
-1
  6
BYLAYER
 10
28.3208347514423977
 20
24.3492979096680244
 30
0.0
 11
28.415834751442393
 21
24.1847530829489799
 31
0.0
  0
LINE
  5
94
100
AcDbEntity
100
AcDbLine
  8
0
 62
256
370
-1
  6
BYLAYER
 10
32.7459617703645947
 20
26.6847530829489799
 30
0.0
 11
32.8282341837241134
 21
26.7322530829489793
 31
0.0
  0
LINE
  5
95
100
AcDbEntity
100
AcDbLine
  8
0
 62
256
370
-1
  6
BYLAYER
 10
32.8282341837241134
 20
26.7322530829489793
 30
0.0
 11
32.7332341837241145
 21
26.8967979096680239
 31
0.0
  0
LINE
  5
96
100
AcDbEntity
100
AcDbLine
  8
0
 62
256
370
-1
  6
BYLAYER
 10
32.6509617703645958
 20
26.8492979096680209
 30
0.0
 11
32.7459617703645947
 21
26.6847530829489799
 31
0.0
  0
LINE
  5
97
100
AcDbEntity
100
AcDbLine
  8
0
 62
256
370
-1
  6
BYLAYER
 10
22.9527903364210388
 20
27.5222548094715975
 30
0.0
 11
22.7722903364210438
 21
27.5222548094716046
 31
0.0
  0
LINE
  5
98
100
AcDbEntity
100
AcDbLine
  8
0
 62
256
370
-1
  6
BYLAYER
 10
22.7722903364210438
 20
27.5222548094716046
 30
0.0
 11
22.7722903364210438
 21
27.4272548094715951
 31
0.0
  0
LINE
  5
99
100
AcDbEntity
100
AcDbLine
  8
0
 62
256
370
-1
  6
BYLAYER
 10
22.7722903364210438
 20
27.4272548094715951
 30
0.0
 11
22.9527903364210353
 21
27.4272548094716058
 31
0.0
  0
LINE
  5
9A
100
AcDbEntity
100
AcDbLine
  8
0
 62
256
370
-1
  6
BYLAYER
 10
22.7726024047903834
 20
32.5466858428704171
 30
0.0
 11
22.7726024047903941
 21
32.451685842870404
 31
0.0
  0
LINE
  5
9B
100
AcDbEntity
100
AcDbLine
  8
0
 62
256
370
-1
  6
BYLAYER
 10
22.7726024047903941
 20
32.451685842870404
 30
0.0
 11
22.9531024047903855
 21
32.4516858428704111
 31
0.0
  0
LINE
  5
9C
100
AcDbEntity
100
AcDbLine
  8
0
 62
256
370
-1
  6
BYLAYER
 10
22.9531024047903784
 20
32.5466858428704029
 30
0.0
 11
22.7726024047903834
 21
32.5466858428704171
 31
0.0
  0
LINE
  5
9D
100
AcDbEntity
100
AcDbLine
  8
0
 62
256
370
-1
  6
BYLAYER
 10
28.4917265755803442
 20
35.7550670980778662
 30
0.0
 11
28.4094541622208219
 21
35.8025670980778585
 31
0.0
  0
LINE
  5
9E
100
AcDbEntity
100
AcDbLine
  8
0
 62
256
370
-1
  6
BYLAYER
 10
28.4094541622208219
 20
35.8025670980778585
 30
0.0
 11
28.3192041622208244
 21
35.64624951269478
 31
0.0
  0
LINE
  5
9F
100
AcDbEntity
100
AcDbLine
  8
0
 62
256
370
-1
  6
BYLAYER
 10
28.4014765755803502
 20
35.5987495126947877
 30
0.0
 11
28.4917265755803442
 21
35.7550670980778662
 31
0.0
  0
LINE
  5
A0
100
AcDbEntity
100
AcDbLine
  8
0
 62
256
370
-1
  6
BYLAYER
 10
32.7308315896426762
 20
33.1000214374264843
 30
0.0
 11
32.8210815896426809
 21
33.2563390228095699
 31
0.0
  0
LINE
  5
A1
100
AcDbEntity
100
AcDbLine
  8
0
 62
256
370
-1
  6
BYLAYER
 10
32.8210815896426809
 20
33.2563390228095699
 30
0.0
 11
32.7388091762831621
 21
33.3038390228095693
 31
0.0
  0
ENDBLK
  5
A2
100
AcDbEntity
  8
0
100
AcDbBlockEnd
  0
BLOCK
  5
A3
100
AcDbEntity
  8
0
100
AcDbBlockBegin
  2
homePos
 70
0
 10
0.0
 20
0.0
 30
0.0
  3
homePos
  1

  0
LINE
  5
A4
100
AcDbEntity
100
AcDbLine
  8
0
 62
256
370
-1
  6
BYLAYER
 10
14.968911086754467
 20
3.0538475772933662
 30
0.0
 11
21.031088913245533
 21
6.5538475772933644
 31
0.0
  0
LINE
  5
A5
100
AcDbEntity
100
AcDbLine
  8
0
 62
256
370
-1
  6
BYLAYER
 10
21.031088913245533
 20
6.5538475772933644
 30
0.0
 11
21.0310889132455543
 21
13.5538475772933289
 31
0.0
  0
LINE
  5
A6
100
AcDbEntity
100
AcDbLine
  8
0
 62
256
370
-1
  6
BYLAYER
 10
21.0310889132455543
 20
13.5538475772933289
 30
0.0
 11
14.968911086754467
 21
17.0538475772933644
 31
0.0
  0
LINE
  5
A7
100
AcDbEntity
100
AcDbLine
  8
0
 62
256
370
-1
  6
BYLAYER
 10
14.968911086754467
 20
17.0538475772933644
 30
0.0
 11
8.9067332602633975
 21
13.5538475772933644
 31
0.0
  0
LINE
  5
A8
100
AcDbEntity
100
AcDbLine
  8
0
 62
256
370
-1
  6
BYLAYER
 10
8.9067332602633975
 20
13.5538475772933644
 30
0.0
 11
8.9067332602634135
 21
6.5538475772933324
 31
0.0
  0
LINE
  5
A9
100
AcDbEntity
100
AcDbLine
  8
0
 62
256
370
-1
  6
BYLAYER
 10
8.9067332602634135
 20
6.5538475772933324
 30
0.0
 11
14.9689110867544599
 21
3.0538475772933626
 31
0.0
  0
LINE
  5
AA
100
AcDbEntity
100
AcDbLine
  8
0
 62
256
370
-1
  6
DASHEDX2
 10
7.2000000000000002
 20
9.9999999999999964
 30
0.0
 11
23.5
 21
9.9999999999999964
 31
0.0
  0
POINT
  5
AB
100
AcDbEntity
100
AcDbPoint
  8
0
 62
256
370
-1
  6
BYLAYER
 10
14.9999999999999982
 20
10.0621778264910695
 30
0.0
  0
LINE
  5
AC
100
AcDbEntity
100
AcDbLine
  8
0
 62
256
370
-1
  6
DASHEDX2
 10
14.9999999999999982
 20
2.5621778264910695
 30
0.0
 11
15.0
 21
17.5621778264910695
 31
0.0
  0
MTEXT
  5
AD
100
AcDbEntity
100
AcDbMText
  8
0
 62
256
370
-1
  6
BYLAYER
 10
23.1656128543667137
 20
9.8607145919067243
 30
0.0
 40
0.4
 41
0.0
 71
1
 72
1
  1
X
  7
textstyle0
 50
0.0
 73
2
 44
1.0
  0
LINE
  5
AE
100
AcDbEntity
100
AcDbLine
  8
0
 62
256
370
-1
  6
DOT
 10
14.9999999999999982
 20
9.9999999999999982
 30
0.0
 11
21.031088913245533
 21
6.5538475772933644
 31
0.0
  0
LINE
  5
AF
100
AcDbEntity
100
AcDbLine
  8
0
 62
256
370
-1
  6
DOT
 10
15.0
 20
10.0
 30
0.0
 11
21.0310889132455578
 21
13.5538475772933324
 31
0.0
  0
LINE
  5
B0
100
AcDbEntity
100
AcDbLine
  8
0
 62
256
370
-1
  6
DOT
 10
8.9067332602633975
 20
13.5538475772933644
 30
0.0
 11
14.9999999999999982
 21
9.9999999999999982
 31
0.0
  0
LINE
  5
B1
100
AcDbEntity
100
AcDbLine
  8
0
 62
256
370
-1
  6
DOT
 10
8.9067332602634135
 20
6.5538475772933324
 30
0.0
 11
15.0
 21
10.0
 31
0.0
  0
MTEXT
  5
B2
100
AcDbEntity
100
AcDbMText
  8
0
 62
256
370
-1
  6
BYLAYER
 10
20.200875935366561
 20
12.7343634763091433
 30
0.0
 40
0.3
 41
0.0
 71
1
 72
1
  1
PI/6
  7
textstyle1
 50
0.0
 73
2
 44
1.0
  0
MTEXT
  5
B3
100
AcDbEntity
100
AcDbMText
  8
0
 62
256
370
-1
  6
BYLAYER
 10
19.9101658861648438
 20
7.695389290145954
 30
0.0
 40
0.3
 41
0.0
 71
1
 72
1
  1
-PI/6
  7
textstyle2
 50
0.0
 73
2
 44
1.0
  0
MTEXT
  5
B4
100
AcDbEntity
100
AcDbMText
  8
0
 62
256
370
-1
  6
BYLAYER
 10
10.1035468930934105
 20
6.9201624922746907
 30
0.0
 40
0.3
 41
0.0
 71
1
 72
1
  1
-5*PI/6
  7
textstyle3
 50
0.0
 73
2
 44
1.0
  0
MTEXT
  5
B5
100
AcDbEntity
100
AcDbMText
  8
0
 62
256
370
-1
  6
BYLAYER
 10
9.8515981837852493
 20
13.528970944127181
 30
0.0
 40
0.3
 41
0.0
 71
1
 72
1
  1
5*PI/6
  7
textstyle4
 50
0.0
 73
2
 44
1.0
  0
LINE
  5
B6
100
AcDbEntity
100
AcDbLine
  8
0
 62
256
370
-1
  6
DASHDOT
 10
7.7760440325980209
 20
12.6654193255541045
 30
0.0
 11
14.9999999999999982
 21
9.9999999999999893
 31
0.0
  0
LINE
  5
B7
100
AcDbEntity
100
AcDbLine
  8
0
 62
256
370
-1
  6
DASHDOT
 10
7.7528301567503384
 20
7.3983602741555075
 30
0.0
 11
15.0000000000000426
 21
9.9999999999999734
 31
0.0
  0
LINE
  5
B8
100
AcDbEntity
100
AcDbLine
  8
0
 62
256
370
-1
  6
DASHDOT
 10
15.0
 20
10.0
 30
0.0
 11
20.8543474135226603
 21
15.0016613601662918
 31
0.0
  0
LINE
  5
B9
100
AcDbEntity
100
AcDbLine
  8
0
 62
256
370
-1
  6
DASHDOT
 10
15.0
 20
10.0
 30
0.0
 11
16.2696843540541778
 21
17.5945968715311025
 31
0.0
  0
LINE
  5
BA
100
AcDbEntity
100
AcDbLine
  8
0
 62
256
370
-1
  6
DASHDOT
 10
14.9999999999999982
 20
9.9999999999999982
 30
0.0
 11
16.371016577898974
 21
2.4230406136019047
 31
0.0
  0
LINE
  5
BB
100
AcDbEntity
100
AcDbLine
  8
0
 62
256
370
-1
  6
DASHDOT
 10
15.0
 20
9.9999999999999964
 30
0.0
 11
20.9206352435983263
 21
5.0769848352598581
 31
0.0
  0
POINT
  5
BC
100
AcDbEntity
100
AcDbPoint
  8
0
 62
256
370
-1
  6
BYLAYER
 10
16.2696843540541778
 20
17.5945968715311025
 30
0.0
  0
POINT
  5
BD
100
AcDbEntity
100
AcDbPoint
  8
0
 62
256
370
-1
  6
BYLAYER
 10
20.8543474135226603
 20
15.0016613601662918
 30
0.0
  0
POINT
  5
BE
100
AcDbEntity
100
AcDbPoint
  8
0
 62
256
370
-1
  6
BYLAYER
 10
20.9206352435983263
 20
5.0769848352598581
 30
0.0
  0
POINT
  5
BF
100
AcDbEntity
100
AcDbPoint
  8
0
 62
256
370
-1
  6
BYLAYER
 10
16.371016577898974
 20
2.4230406136019047
 30
0.0
  0
POINT
  5
C0
100
AcDbEntity
100
AcDbPoint
  8
0
 62
256
370
-1
  6
BYLAYER
 10
7.7528301567503384
 20
7.3983602741555075
 30
0.0
  0
POINT
  5
C1
100
AcDbEntity
100
AcDbPoint
  8
0
 62
256
370
-1
  6
BYLAYER
 10
7.7760440325980209
 20
12.6654193255541045
 30
0.0
  0
MTEXT
  5
C2
100
AcDbEntity
100
AcDbMText
  8
0
 62
256
370
-1
  6
BYLAYER
 10
14.5
 20
2.9999999999999938
 30
0.0
 40
0.4
 41
0.0
 71
1
 72
1
  1
-y
  7
textstyle5
 50
0.0
 73
2
 44
1.0
  0
LINE
  5
C3
100
AcDbEntity
100
AcDbLine
  8
0
 62
256
370
-1
  6
CENTER
 10
11.5108350371631918
 20
15.1250100353181764
 30
0.0
 11
14.9999999999999964
 21
9.9999999999999964
 31
0.0
  0
LINE
  5
C4
100
AcDbEntity
100
AcDbLine
  8
0
 62
256
370
-1
  6
CENTER
 10
12.3555206509938387
 20
15.6077383117153339
 30
0.0
 11
15.0
 21
10.0
 31
0.0
  0
MTEXT
  5
C5
100
AcDbEntity
100
AcDbMText
  8
0
 62
256
370
-1
  6
BYLAYER
 10
6.7999999999999998
 20
7.1000000000000005
 30
0.0
 40
0.4
 41
0.0
 71
1
 72
1
  1
P0
  7
textstyle6
 50
0.0
 73
2
 44
1.0
  0
MTEXT
  5
C6
100
AcDbEntity
100
AcDbMText
  8
0
 62
256
370
-1
  6
BYLAYER
 10
7.1000000000000005
 20
13.1999999999999993
 30
0.0
 40
0.4
 41
0.0
 71
1
 72
1
  1
P1
  7
textstyle7
 50
0.0
 73
2
 44
1.0
  0
MTEXT
  5
C7
100
AcDbEntity
100
AcDbMText
  8
0
 62
256
370
-1
  6
BYLAYER
 10
15.8565049600960215
 20
18.3447966678097885
 30
0.0
 40
0.4
 41
0.0
 71
1
 72
1
  1
P2
  7
textstyle8
 50
0.0
 73
2
 44
1.0
  0
MTEXT
  5
C8
100
AcDbEntity
100
AcDbMText
  8
0
 62
256
370
-1
  6
BYLAYER
 10
21.2706889164288988
 20
15.2469903835162306
 30
0.0
 40
0.4
 41
0.0
 71
1
 72
1
  1
P3
  7
textstyle9
 50
0.0
 73
2
 44
1.0
  0
MTEXT
  5
C9
100
AcDbEntity
100
AcDbMText
  8
0
 62
256
370
-1
  6
BYLAYER
 10
21.2706889164288988
 20
5.3675000714448879
 30
0.0
 40
0.4
 41
0.0
 71
1
 72
1
  1
P4
  7
textstyle10
 50
0.0
 73
2
 44
1.0
  0
MTEXT
  5
CA
100
AcDbEntity
100
AcDbMText
  8
0
 62
256
370
-1
  6
BYLAYER
 10
16.6937499017969841
 20
2.5208672696616303
 30
0.0
 40
0.4
 41
0.0
 71
1
 72
1
  1
P5
  7
textstyle11
 50
0.0
 73
2
 44
1.0
  0
POINT
  5
CB
100
AcDbEntity
100
AcDbPoint
  8
0
 62
256
370
-1
  6
BYLAYER
 10
11.5439129672210594
 20
15.0764239910067914
 30
0.0
  0
POINT
  5
CC
100
AcDbEntity
100
AcDbPoint
  8
0
 62
256
370
-1
  6
BYLAYER
 10
12.3787729985713852
 20
15.5584306548425602
 30
0.0
  0
MTEXT
  5
CD
100
AcDbEntity
100
AcDbMText
  8
0
 62
256
370
-1
  6
BYLAYER
 10
10.079514862359396
 20
15.5818883601966132
 30
0.0
 40
0.4
 41
0.0
 71
1
 72
1
  1
RE0
  7
textstyle12
 50
0.0
 73
2
 44
1.0
  0
MTEXT
  5
CE
100
AcDbEntity
100
AcDbMText
  8
0
 62
256
370
-1
  6
BYLAYER
 10
12.1447190518884351
 20
16.6144904549611319
 30
0.0
 40
0.4
 41
0.0
 71
1
 72
1
  1
RE1
  7
textstyle13
 50
0.0
 73
2
 44
1.0
  0
LINE
  5
CF
100
AcDbEntity
100
AcDbLine
  8
0
 62
256
370
-1
  6
CENTER
 10
15.0
 20
9.9999999999999964
 30
0.0
 11
21.180887469145393
 21
10.4864463935126331
 31
0.0
  0
LINE
  5
D0
100
AcDbEntity
100
AcDbLine
  8
0
 62
256
370
-1
  6
CENTER
 10
15.0
 20
10.0
 30
0.0
 11
21.180887469145393
 21
9.5135536064873598
 31
0.0
  0
POINT
  5
D1
100
AcDbEntity
100
AcDbPoint
  8
0
 62
256
370
-1
  6
BYLAYER
 10
21.180887469145393
 20
10.4864463935126331
 30
0.0
  0
POINT
  5
D2
100
AcDbEntity
100
AcDbPoint
  8
0
 62
256
370
-1
  6
BYLAYER
 10
21.180887469145393
 20
9.5135536064873598
 30
0.0
  0
LINE
  5
D3
100
AcDbEntity
100
AcDbLine
  8
0
 62
256
370
-1
  6
CENTER
 10
11.4430355461807203
 20
4.9218109650911313
 30
0.0
 11
14.999999999999801
 21
9.9999999999998863
 31
0.0
  0
LINE
  5
D4
100
AcDbEntity
100
AcDbLine
  8
0
 62
256
370
-1
  6
CENTER
 10
12.2812314661006567
 20
4.4279000673822368
 30
0.0
 11
15.0
 21
9.9999999999999964
 31
0.0
  0
POINT
  5
D5
100
AcDbEntity
100
AcDbPoint
  8
0
 62
256
370
-1
  6
BYLAYER
 10
11.4430355461807203
 20
4.9218109650911313
 30
0.0
  0
POINT
  5
D6
100
AcDbEntity
100
AcDbPoint
  8
0
 62
256
370
-1
  6
BYLAYER
 10
12.2812314661006567
 20
4.4279000673822368
 30
0.0
  0
MTEXT
  5
D7
100
AcDbEntity
100
AcDbMText
  8
0
 62
256
370
-1
  6
BYLAYER
 10
21.5
 20
11.0
 30
0.0
 40
0.4
 41
0.0
 71
1
 72
1
  1
RE2
  7
textstyle14
 50
0.0
 73
2
 44
1.0
  0
MTEXT
  5
D8
100
AcDbEntity
100
AcDbMText
  8
0
 62
256
370
-1
  6
BYLAYER
 10
21.5469393004115233
 20
9.6374492741197955
 30
0.0
 40
0.4
 41
0.0
 71
1
 72
1
  1
RE3
  7
textstyle15
 50
0.0
 73
2
 44
1.0
  0
MTEXT
  5
D9
100
AcDbEntity
100
AcDbMText
  8
0
 62
256
370
-1
  6
BYLAYER
 10
12.1697959533607687
 20
3.74882651748971
 30
0.0
 40
0.4
 41
0.0
 71
1
 72
1
  1
RE4
  7
textstyle16
 50
0.0
 73
2
 44
1.0
  0
MTEXT
  5
DA
100
AcDbEntity
100
AcDbMText
  8
0
 62
256
370
-1
  6
BYLAYER
 10
10.0208672696616361
 20
4.9209694358710534
 30
0.0
 40
0.4
 41
0.0
 71
1
 72
1
  1
RE5
  7
textstyle17
 50
0.0
 73
2
 44
1.0
  0
ARC
  5
DB
100
AcDbEntity
  8
0
 62
256
370
-1
  6
BYLAYER
100
AcDbCircle
 10
15.0
 20
9.9999999999999964
 30
0.0
 40
3.8499999999999983
100
AcDbArc
 50
149.7474779592827474
 51
159.7474779592828895
  0
ARC
  5
DC
100
AcDbEntity
  8
0
 62
256
370
-1
  6
BYLAYER
100
AcDbCircle
 10
14.9999999999999964
 20
9.9999999999999964
 30
0.0
 40
3.7944635982937815
100
AcDbArc
 50
199.7474779592833443
 51
209.4910809503370785
  0
LINE
  5
DD
100
AcDbEntity
100
AcDbLine
  8
0
 62
256
370
-1
  6
DOT
 10
11.4999999999999982
 20
3.9378221735089287
 30
0.0
 11
15.0
 21
10.0
 31
0.0
  0
LINE
  5
DE
100
AcDbEntity
100
AcDbLine
  8
0
 62
256
370
-1
  6
DOT
 10
11.4999999999999982
 20
16.0621778264910695
 30
0.0
 11
15.0
 21
10.0
 31
0.0
  0
LINE
  5
DF
100
AcDbEntity
100
AcDbLine
  8
0
 62
256
370
-1
  6
DOT
 10
15.0
 20
9.9999999999999964
 30
0.0
 11
22.0
 21
9.9999999999999964
 31
0.0
  0
ARC
  5
E0
100
AcDbEntity
  8
0
 62
256
370
-1
  6
BYLAYER
100
AcDbCircle
 10
14.999999999999801
 20
9.9999999999998863
 30
0.0
 40
4.2752607629932067
100
AcDbArc
 50
240.0000000000015348
 51
243.9910809503388123
  0
MTEXT
  5
E1
100
AcDbEntity
100
AcDbMText
  8
0
 62
256
370
-1
  6
BYLAYER
 10
12.0860714591906717
 20
12.5398984053497902
 30
0.0
 40
0.6
 41
0.0
 71
1
 72
1
  1
\U+03b8\S^angle;
  7
textstyle18
 50
330.0
 73
2
 44
1.0
  0
MTEXT
  5
E2
100
AcDbEntity
100
AcDbMText
  8
0
 62
256
370
-1
  6
BYLAYER
 10
10.9976530349794235
 20
9.3304594621627803
 30
0.0
 40
0.6
 41
0.0
 71
1
 72
1
  1
\U+03b8\S^angle;
  7
textstyle19
 50
20.0
 73
2
 44
1.0
  0
MTEXT
  5
E3
100
AcDbEntity
100
AcDbMText
  8
0
 62
256
370
-1
  6
BYLAYER
 10
13.2303062128486513
 20
5.8419388717421104
 30
0.0
 40
0.6
 41
0.0
 71
1
 72
1
  1
\U+03b8\S^r;/2
  7
textstyle20
 50
65.0
 73
2
 44
1.0
  0
MTEXT
  5
E4
100
AcDbEntity
100
AcDbMText
  8
0
 62
256
370
-1
  6
BYLAYER
 10
7.2579589620484679
 20
9.7211737682898942
 30
0.0
 40
0.4
 41
0.0
 71
1
 72
1
  1
-X
  7
textstyle21
 50
0.0
 73
2
 44
1.0
  0
MTEXT
  5
E5
100
AcDbEntity
100
AcDbMText
  8
0
 62
256
370
-1
  6
BYLAYER
 10
14.6505217065487976
 20
17.8571790119487623
 30
0.0
 40
0.4
 41
0.0
 71
1
 72
1
  1
y
  7
textstyle22
 50
0.0
 73
2
 44
1.0
  0
LINE
  5
E6
100
AcDbEntity
100
AcDbLine
  8
0
 62
256
370
-1
  6
DOT
 10
7.8015359477124155
 20
13.6746078431372791
 30
0.0
 11
7.8015359477124315
 21
6.6746078431372471
 31
0.0
  0
ARC
  5
E7
100
AcDbEntity
  8
0
 62
256
370
-1
  6
BYLAYER
100
AcDbCircle
 10
7.8015359477124235
 20
9.9999999999999964
 30
0.0
 40
1.4045537172898901
100
AcDbArc
 50
0.0
 51
89.8860869349845899
  0
MTEXT
  5
E8
100
AcDbEntity
100
AcDbMText
  8
0
 62
256
370
-1
  6
BYLAYER
 10
8.1657681128995367
 20
11.1719794047752661
 30
0.0
 40
0.4
 41
0.0
 71
1
 72
1
  1
\U+03b2\S^1;
  7
textstyle23
 50
0.0
 73
2
 44
1.0
  0
ENDBLK
  5
E9
100
AcDbEntity
  8
0
100
AcDbBlockEnd
  0
BLOCK
  5
EA
100
AcDbEntity
  8
0
100
AcDbBlockBegin
  2
base
 70
0
 10
0.0
 20
0.0
 30
0.0
  3
base
  1

  0
LINE
  5
EB
100
AcDbEntity
100
AcDbLine
  8
0
 62
256
370
-1
  6
BYLAYER
 10
3.1435105122018161
 20
7.2925660439130766
 30
0.0
 11
3.3549486728632756
 21
7.6587510688562244
 31
0.0
  0
LINE
  5
EC
100
AcDbEntity
100
AcDbLine
  8
0
 62
256
370
-1
  6
BYLAYER
 10
9.7637817427825286
 20
7.2946425388674321
 30
0.0
 11
9.5523120021287635
 21
7.6603076729097612
 31
0.0
  0
LINE
  5
ED
100
AcDbEntity
100
AcDbLine
  8
0
 62
256
370
-1
  6
BYLAYER
 10
3.1434127225673145
 20
6.7926979882164815
 30
0.0
 11
5.8062179361471644
 21
2.176875534427265
 31
0.0
  0
LINE
  5
EE
100
AcDbEntity
100
AcDbLine
  8
0
 62
256
370
-1
  6
BYLAYER
 10
6.2393176041488827
 20
1.926724844165759
 30
0.0
 11
6.6620116926174981
 21
1.926724844165759
 31
0.0
  0
LINE
  5
EF
100
AcDbEntity
100
AcDbLine
  8
0
 62
256
370
-1
  6
BYLAYER
 10
7.0949040583805845
 20
2.1765165316259085
 30
0.0
 11
9.7638423870920334
 21
6.7941210207160374
 31
0.0
  0
LINE
  5
F0
100
AcDbEntity
100
AcDbLine
  8
0
 62
256
370
-1
  6
BYLAYER
 10
9.1193619146124618
 20
7.9099944532876894
 30
0.0
 11
3.7878321851677725
 21
7.9087323088875987
 31
0.0
  0
ARC
  5
F1
100
AcDbEntity
  8
0
 62
256
370
-1
  6
BYLAYER
100
AcDbCircle
 10
6.2393176041488827
 20
2.4267248441657587
 30
0.0
 40
0.5
100
AcDbArc
 50
209.9800628273858081
 51
270.0
  0
ARC
  5
F2
100
AcDbEntity
  8
0
 62
256
370
-1
  6
BYLAYER
100
AcDbCircle
 10
6.6620116926174981
 20
2.4267248441657583
 30
0.0
 40
0.5
100
AcDbArc
 50
270.0
 51
329.9724324765645065
  0
ARC
  5
F3
100
AcDbEntity
  8
0
 62
256
370
-1
  6
BYLAYER
100
AcDbCircle
 10
9.3309500213289489
 20
7.0443293332558854
 30
0.0
 40
0.5
100
AcDbArc
 50
329.9724324765645065
 51
30.0414516936182068
  0
ARC
  5
F4
100
AcDbEntity
  8
0
 62
256
370
-1
  6
BYLAYER
100
AcDbCircle
 10
9.1194802806751838
 20
7.4099944672982145
 30
0.0
 40
0.5
100
AcDbArc
 50
30.0414516936182068
 51
90.0135637517897891
  0
ARC
  5
F5
100
AcDbEntity
  8
0
 62
256
370
-1
  6
BYLAYER
100
AcDbCircle
 10
3.7879505512304941
 20
7.4087323228981239
 30
0.0
 40
0.5
100
AcDbArc
 50
90.0135637517897322
 51
149.9975195237900607
  0
ARC
  5
F6
100
AcDbEntity
  8
0
 62
256
370
-1
  6
BYLAYER
100
AcDbCircle
 10
3.5765123905690337
 20
7.0425472979549761
 30
0.0
 40
0.5
100
AcDbArc
 50
149.9975195237900039
 51
209.9800628273858649
  0
CIRCLE
  5
F7
100
AcDbEntity
100
AcDbCircle
  8
0
 62
256
370
-1
  6
BYLAYER
 10
2.3829756558466677
 20
7.975978663968804
 30
0.0
 40
0.125
  0
CIRCLE
  5
F8
100
AcDbEntity
100
AcDbCircle
  8
0
 62
256
370
-1
  6
BYLAYER
 10
6.4500000000000002
 20
0.9254436228214977
 30
0.0
 40
0.125
  0
CIRCLE
  5
F9
100
AcDbEntity
100
AcDbCircle
  8
0
 62
256
370
-1
  6
BYLAYER
 10
10.5194995266538136
 20
7.9766124622956918
 30
0.0
 40
0.125
  0
LINE
  5
FA
100
AcDbEntity
100
AcDbLine
  8
0
 62
256
370
-1
  6
BYLAYER
 10
1.2203229497145254
 20
7.828166604727997
 30
0.0
 11
1.9307115103232433
 21
9.058472676120374
 31
0.0
  0
LINE
  5
FB
100
AcDbEntity
100
AcDbLine
  8
0
 62
256
370
-1
  6
BYLAYER
 10
10.9691423157677743
 20
9.0593324433892111
 30
0.0
 11
11.6817457342646769
 21
7.8271267210096509
 31
0.0
  0
LINE
  5
FC
100
AcDbEntity
100
AcDbLine
  8
0
 62
256
370
-1
  6
BYLAYER
 10
2.3636788031358447
 20
9.308453928966113
 30
0.0
 11
10.5362760087595753
 21
9.3090192365815003
 31
0.0
  0
LINE
  5
FD
100
AcDbEntity
100
AcDbLine
  8
0
 62
256
370
-1
  6
BYLAYER
 10
5.7387411363952294
 20
-0.0012374203387435
 30
0.0
 11
7.1613615202908836
 21
-0.0012374203387435
 31
0.0
  0
LINE
  5
FE
100
AcDbEntity
100
AcDbLine
  8
0
 62
256
370
-1
  6
BYLAYER
 10
1.2202626361564015
 20
7.3282335976225594
 30
0.0
 11
5.3056789444698884
 21
0.248848318513919
 31
0.0
  0
LINE
  5
FF
100
AcDbEntity
100
AcDbLine
  8
0
 62
256
370
-1
  6
BYLAYER
 10
11.681899220048205
 20
7.3267658993050171
 30
0.0
 11
7.594346727527995
 21
0.2487149635681716
 31
0.0
  0
ARC
  5
100
100
AcDbEntity
  8
0
 62
256
370
-1
  6
BYLAYER
100
AcDbCircle
 10
7.1613615202908836
 20
0.4987625796612565
 30
0.0
 40
0.5
100
AcDbArc
 50
270.0
 51
329.993699289249605
  0
ARC
  5
101
100
AcDbEntity
  8
0
 62
256
370
-1
  6
BYLAYER
100
AcDbCircle
 10
5.7387411363952294
 20
0.4987625796612565
 30
0.0
 40
0.5
100
AcDbArc
 50
209.9886557746520737
 51
270.0
  0
ARC
  5
102
100
AcDbEntity
  8
0
 62
256
370
-1
  6
BYLAYER
100
AcDbCircle
 10
11.2489140128110954
 20
7.5768135153981024
 30
0.0
 40
0.5
100
AcDbArc
 50
329.9936992892494345
 51
30.0414516936182814
  0
ARC
  5
103
100
AcDbEntity
  8
0
 62
256
370
-1
  6
BYLAYER
100
AcDbCircle
 10
10.536310594314191
 20
8.8090192377776617
 30
0.0
 40
0.5
100
AcDbArc
 50
30.0414516936182672
 51
90.003963212626374
  0
ARC
  5
104
100
AcDbEntity
  8
0
 62
256
370
-1
  6
BYLAYER
100
AcDbCircle
 10
2.3637133886904618
 20
8.8084539301622726
 30
0.0
 40
0.5
100
AcDbArc
 50
90.0039632126265161
 51
149.9975195237899754
  0
ARC
  5
105
100
AcDbEntity
  8
0
 62
256
370
-1
  6
BYLAYER
100
AcDbCircle
 10
1.6533248280817427
 20
7.5781478587698965
 30
0.0
 40
0.5
100
AcDbArc
 50
149.9975195237900039
 51
209.9886557746520452
  0
ENDBLK
  5
106
100
AcDbEntity
  8
0
100
AcDbBlockEnd
  0
BLOCK
  5
107
100
AcDbEntity
  8
0
100
AcDbBlockBegin
  2
platform
 70
0
 10
0.0
 20
0.0
 30
0.0
  3
platform
  1

  0
LINE
  5
108
100
AcDbEntity
100
AcDbLine
  8
0
 62
256
370
-1
  6
BYLAYER
 10
1.6781137469504597
 20
1.1794531417507201
 30
0.0
 11
1.7279565125602097
 21
1.1502356946918564
 31
0.0
  0
LINE
  5
109
100
AcDbEntity
100
AcDbLine
  8
0
 62
256
370
-1
  6
BYLAYER
 10
1.7251976362490495
 20
1.0975931986941621
 30
0.0
 11
1.7778401322467516
 21
1.0948343223830097
 31
0.0
  0
LINE
  5
10A
100
AcDbEntity
100
AcDbLine
  8
0
 62
256
370
-1
  6
BYLAYER
 10
1.7279565125602019
 20
1.1502356946918564
 30
0.0
 11
1.7251976362490495
 21
1.0975931986941621
 31
0.0
  0
LINE
  5
10B
100
AcDbEntity
100
AcDbLine
  8
0
 62
256
370
-1
  6
BYLAYER
 10
1.711625692989923
 20
1.4862428034037294
 30
0.0
 11
1.7180500037069351
 21
1.433920991363431
 31
0.0
  0
LINE
  5
10C
100
AcDbEntity
100
AcDbLine
  8
0
 62
256
370
-1
  6
BYLAYER
 10
1.7180500037069311
 20
1.4339209913634388
 30
0.0
 11
1.6695258299495037
 21
1.3994531417507232
 31
0.0
  0
LINE
  5
10D
100
AcDbEntity
100
AcDbLine
  8
0
 62
256
370
-1
  6
BYLAYER
 10
1.7639475050302018
 20
1.4926671141207375
 30
0.0
 11
1.711625692989923
 21
1.4862428034037294
 31
0.0
  0
LINE
  5
10E
100
AcDbEntity
100
AcDbLine
  8
0
 62
256
370
-1
  6
BYLAYER
 10
1.8465378525999436
 20
1.5842622249054568
 30
0.0
 11
1.8242596409328797
 21
1.5364864458088612
 31
0.0
  0
LINE
  5
10F
100
AcDbEntity
100
AcDbLine
  8
0
 62
256
370
-1
  6
BYLAYER
 10
1.7721939071374848
 20
1.5447328479161364
 30
0.0
 11
1.7639475050302174
 21
1.4926671141207337
 31
0.0
  0
LINE
  5
110
100
AcDbEntity
100
AcDbLine
  8
0
 62
256
370
-1
  6
BYLAYER
 10
1.8242596409328797
 20
1.536486445808869
 30
0.0
 11
1.7721939071374848
 21
1.5447328479161364
 31
0.0
  0
LINE
  5
111
100
AcDbEntity
100
AcDbLine
  8
0
 62
256
370
-1
  6
BYLAYER
 10
1.8943136316965199
 20
1.5619840132383966
 30
0.0
 11
1.8465378525999436
 21
1.5842622249054568
 31
0.0
  0
LINE
  5
112
100
AcDbEntity
100
AcDbLine
  8
0
 62
256
370
-1
  6
BYLAYER
 10
2.012892232428332
 20
1.5958948563396962
 30
0.0
 11
1.9686819317312705
 21
1.5671843513694792
 31
0.0
  0
LINE
  5
113
100
AcDbEntity
100
AcDbLine
  8
0
 62
256
370
-1
  6
BYLAYER
 10
1.9288976126483557
 20
1.6017683323213152
 30
0.0
 11
1.8943136316965277
 21
1.5619840132383889
 31
0.0
  0
LINE
  5
114
100
AcDbEntity
100
AcDbLine
  8
0
 62
256
370
-1
  6
BYLAYER
 10
1.9686819317312743
 20
1.567184351369487
 30
0.0
 11
1.9288976126483557
 21
1.6017683323213152
 31
0.0
  0
LINE
  5
115
100
AcDbEntity
100
AcDbLine
  8
0
 62
256
370
-1
  6
BYLAYER
 10
2.0416027373985335
 20
1.5516845556426542
 30
0.0
 11
2.012892232428332
 21
1.5958948563396962
 31
0.0
  0
LINE
  5
116
100
AcDbEntity
100
AcDbLine
  8
0
 62
256
370
-1
  6
BYLAYER
 10
2.160133103019807
 20
1.5176054967201604
 30
0.0
 11
2.1074263920135792
 21
1.5166854976573974
 31
0.0
  0
LINE
  5
117
100
AcDbEntity
100
AcDbLine
  8
0
 62
256
370
-1
  6
BYLAYER
 10
2.0920140936986886
 20
1.5670968539575409
 30
0.0
 11
2.0416027373985335
 21
1.5516845556426386
 31
0.0
  0
LINE
  5
118
100
AcDbEntity
100
AcDbLine
  8
0
 62
256
370
-1
  6
BYLAYER
 10
2.1074263920135872
 20
1.5166854976574011
 30
0.0
 11
2.0920140936986886
 21
1.5670968539575409
 31
0.0
  0
LINE
  5
119
100
AcDbEntity
100
AcDbLine
  8
0
 62
256
370
-1
  6
BYLAYER
 10
2.2435134031544512
 20
1.373186580536619
 30
0.0
 11
2.1983280520045154
 21
1.4003366785995475
 31
0.0
  0
POINT
  5
11A
100
AcDbEntity
100
AcDbPoint
  8
0
 62
256
370
-1
  6
BYLAYER
 10
1.9499989459559579
 20
1.3000052071177173
 30
0.0
  0
LINE
  5
11B
100
AcDbEntity
100
AcDbLine
  8
0
 62
256
370
-1
  6
BYLAYER
 10
2.2119716306007513
 20
1.4512552071177165
 30
0.0
 11
2.1610531020825627
 21
1.4648987857139442
 31
0.0
  0
LINE
  5
11C
100
AcDbEntity
100
AcDbLine
  8
0
 62
256
370
-1
  6
BYLAYER
 10
2.1983280520045234
 20
1.4003366785995475
 30
0.0
 11
2.2119716306007513
 21
1.4512552071177165
 31
0.0
  0
LINE
  5
11D
100
AcDbEntity
100
AcDbLine
  8
0
 62
256
370
-1
  6
BYLAYER
 10
2.1610531020825703
 20
1.4648987857139559
 30
0.0
 11
2.160133103019807
 21
1.5176054967201604
 31
0.0
  0
LINE
  5
11E
100
AcDbEntity
100
AcDbLine
  8
0
 62
256
370
-1
  6
BYLAYER
 10
2.2376935421352444
 20
1.2065275663192974
 30
0.0
 11
2.2137615511077473
 21
1.2534967433275113
 31
0.0
  0
LINE
  5
11F
100
AcDbEntity
100
AcDbLine
  8
0
 62
256
370
-1
  6
BYLAYER
 10
2.252314671129235
 20
1.2894481093652117
 30
0.0
 11
2.2163633050915186
 21
1.3280012293866992
 31
0.0
  0
LINE
  5
120
100
AcDbEntity
100
AcDbLine
  8
0
 62
256
370
-1
  6
BYLAYER
 10
2.2137615511077593
 20
1.2534967433275075
 30
0.0
 11
2.252314671129235
 21
1.2894481093652117
 31
0.0
  0
LINE
  5
121
100
AcDbEntity
100
AcDbLine
  8
0
 62
256
370
-1
  6
BYLAYER
 10
2.2163633050915306
 20
1.3280012293867032
 30
0.0
 11
2.2435134031544512
 21
1.373186580536619
 31
0.0
  0
LINE
  5
122
100
AcDbEntity
100
AcDbLine
  8
0
 62
256
370
-1
  6
BYLAYER
 10
2.1444421978861414
 20
1.0682767630742245
 30
0.0
 11
2.1490365901798696
 21
1.1207909072910041
 31
0.0
  0
LINE
  5
123
100
AcDbEntity
100
AcDbLine
  8
0
 62
256
370
-1
  6
BYLAYER
 10
2.2007828116538617
 20
1.1308493538178161
 30
0.0
 11
2.1907243651270303
 21
1.1825955752918162
 31
0.0
  0
LINE
  5
124
100
AcDbEntity
100
AcDbLine
  8
0
 62
256
370
-1
  6
BYLAYER
 10
2.1490365901798736
 20
1.1207909072909963
 30
0.0
 11
2.2007828116538617
 21
1.1308493538178161
 31
0.0
  0
LINE
  5
125
100
AcDbEntity
100
AcDbLine
  8
0
 62
256
370
-1
  6
BYLAYER
 10
2.1907243651270418
 20
1.1825955752918123
 30
0.0
 11
2.2376935421352444
 21
1.2065275663192974
 31
0.0
  0
LINE
  5
126
100
AcDbEntity
100
AcDbLine
  8
0
 62
256
370
-1
  6
BYLAYER
 10
1.9920988089963771
 20
1.0004491163233862
 30
0.0
 11
2.0238233312992651
 21
1.042548979363821
 31
0.0
  0
LINE
  5
127
100
AcDbEntity
100
AcDbLine
  8
0
 62
256
370
-1
  6
BYLAYER
 10
2.0730367804863872
 20
1.0236577061808307
 30
0.0
 11
2.0919280536693696
 21
1.0728711553679724
 31
0.0
  0
LINE
  5
128
100
AcDbEntity
100
AcDbLine
  8
0
 62
256
370
-1
  6
BYLAYER
 10
2.0238233312992651
 20
1.0425489793638132
 30
0.0
 11
2.0730367804863872
 21
1.0236577061808307
 31
0.0
  0
LINE
  5
129
100
AcDbEntity
100
AcDbLine
  8
0
 62
256
370
-1
  6
BYLAYER
 10
2.0919280536693772
 20
1.0728711553679606
 30
0.0
 11
2.1444421978861414
 21
1.0682767630742245
 31
0.0
  0
LINE
  5
12A
100
AcDbEntity
100
AcDbLine
  8
0
 62
256
370
-1
  6
BYLAYER
 10
1.9499989459559657
 20
1.0321736386262703
 30
0.0
 11
1.9920988089963771
 21
1.0004491163233862
 31
0.0
  0
LINE
  5
12B
100
AcDbEntity
100
AcDbLine
  8
0
 62
256
370
-1
  6
BYLAYER
 10
1.9127239960340088
 20
1.034780157039664
 30
0.0
 11
1.9298327087418976
 21
0.9944364446505318
 31
0.0
  0
LINE
  5
12C
100
AcDbEntity
100
AcDbLine
  8
0
 62
256
370
-1
  6
BYLAYER
 10
1.9499989459559657
 20
1.0321736386262703
 30
0.0
 11
1.9298327087418976
 21
0.9944364446505318
 31
0.0
  0
LINE
  5
12D
100
AcDbEntity
100
AcDbLine
  8
0
 62
256
370
-1
  6
BYLAYER
 10
1.7896983685254155
 20
1.0434706580303952
 30
0.0
 11
1.8410620328780301
 21
1.0553288943090631
 31
0.0
  0
LINE
  5
12E
100
AcDbEntity
100
AcDbLine
  8
0
 62
256
370
-1
  6
BYLAYER
 10
1.8666186458213179
 20
1.0092235440963762
 30
0.0
 11
1.9127239960340088
 21
1.0347801570396757
 31
0.0
  0
LINE
  5
12F
100
AcDbEntity
100
AcDbLine
  8
0
 62
256
370
-1
  6
BYLAYER
 10
1.8410620328780261
 20
1.0553288943090593
 30
0.0
 11
1.8666186458213179
 21
1.0092235440963762
 31
0.0
  0
ARC
  5
130
100
AcDbEntity
  8
0
 62
256
370
-1
  6
BYLAYER
100
AcDbCircle
 10
4.0
 20
1.3000000000000007
 30
0.0
 40
0.3
100
AcDbArc
 50
269.9999999999986358
 51
89.99999999999865
  0
LINE
  5
131
100
AcDbEntity
100
AcDbLine
  8
0
 62
256
370
-1
  6
BYLAYER
 10
1.7778401322467476
 20
1.0948343223829979
 30
0.0
 11
1.7896983685254155
 21
1.0434706580303952
 31
0.0
  0
POINT
  5
132
100
AcDbEntity
100
AcDbPoint
  8
0
 62
256
370
-1
  6
BYLAYER
 10
4.0
 20
1.3000000000000007
 30
0.0
  0
LINE
  5
133
100
AcDbEntity
100
AcDbLine
  8
0
 62
256
370
-1
  6
BYLAYER
 10
1.0695258299495038
 20
1.3994531417507232
 30
0.0
 11
1.6695258299495037
 21
1.3994531417507232
 31
0.0
  0
LINE
  5
134
100
AcDbEntity
100
AcDbLine
  8
0
 62
256
370
-1
  6
BYLAYER
 10
1.0695258299495038
 20
1.1794531417507201
 30
0.0
 11
1.6781137469504597
 21
1.1794531417507201
 31
0.0
  0
LINE
  5
135
100
AcDbEntity
100
AcDbLine
  8
0
 62
256
370
-1
  6
BYLAYER
 10
1.0695258299495038
 20
0.8794531417507201
 30
0.0
 11
1.0695258299495038
 21
1.1794531417507201
 31
0.0
  0
LINE
  5
136
100
AcDbEntity
100
AcDbLine
  8
0
 62
256
370
-1
  6
BYLAYER
 10
1.0695258299495038
 20
1.3994531417507232
 30
0.0
 11
1.0695258299495038
 21
1.6994531417507233
 31
0.0
  0
LINE
  5
137
100
AcDbEntity
100
AcDbLine
  8
0
 62
256
370
-1
  6
BYLAYER
 10
1.0695258299495038
 20
1.6994531417507233
 30
0.0
 11
1.1747005877563979
 21
1.6994531417507233
 31
0.0
  0
LINE
  5
138
100
AcDbEntity
100
AcDbLine
  8
0
 62
256
370
-1
  6
BYLAYER
 10
1.0695258299495038
 20
0.8794531417507201
 30
0.0
 11
1.1869858931522799
 21
0.8794531417507201
 31
0.0
  0
LINE
  5
139
100
AcDbEntity
100
AcDbLine
  8
0
 62
256
370
-1
  6
BYLAYER
 10
1.5339989502293443
 20
0.8002734648673968
 30
0.0
 11
1.7105798791766098
 21
0.7152649183400814
 31
0.0
  0
LINE
  5
13A
100
AcDbEntity
100
AcDbLine
  8
0
 62
256
370
-1
  6
BYLAYER
 10
2.2107992266176462
 20
0.6508923781467877
 30
0.0
 11
3.9999999999999929
 21
1.0000000000000007
 31
0.0
  0
LINE
  5
13B
100
AcDbEntity
100
AcDbLine
  8
0
 62
256
370
-1
  6
BYLAYER
 10
4.0000000000000071
 20
1.6000000000000008
 30
0.0
 11
2.223546093033689
 21
1.9466294866479967
 31
0.0
  0
LINE
  5
13C
100
AcDbEntity
100
AcDbLine
  8
0
 62
256
370
-1
  6
BYLAYER
 10
1.7025008968318391
 20
1.8718579289968671
 30
0.0
 11
1.5425356510246824
 21
1.7890325858611735
 31
0.0
  0
ARC
  5
13D
100
AcDbEntity
  8
0
 62
256
370
-1
  6
BYLAYER
100
AcDbCircle
 10
2.0575929362536742
 20
1.4360852414567586
 30
0.0
 40
0.8
100
AcDbArc
 50
244.2931810605280987
 51
281.0407944460133649
  0
ARC
  5
13E
100
AcDbEntity
  8
0
 62
256
370
-1
  6
BYLAYER
100
AcDbCircle
 10
2.0703359601001239
 20
1.1614373731073171
 30
0.0
 40
0.8
100
AcDbArc
 50
78.9589251602954221
 51
117.3738044715262987
  0
ARC
  5
13F
100
AcDbEntity
  8
0
 62
256
370
-1
  6
BYLAYER
100
AcDbCircle
 10
1.1747005877563979
 20
2.4994531417507231
 30
0.0
 40
0.8
100
AcDbArc
 50
270.0
 51
297.3738044715262845
  0
ARC
  5
140
100
AcDbEntity
  8
0
 62
256
370
-1
  6
BYLAYER
100
AcDbCircle
 10
1.1869858931522799
 20
0.07945314175072
 30
0.0
 40
0.8
100
AcDbArc
 50
64.2931810605281129
 51
90.0
  0
LINE
  5
141
100
AcDbEntity
100
AcDbLine
  8
0
 62
256
370
-1
  6
BYLAYER
 10
2.1108390487245536
 20
3.0007121079818937
 30
0.0
 11
2.1244826273207815
 21
3.0516306365000627
 31
0.0
  0
LINE
  5
142
100
AcDbEntity
100
AcDbLine
  8
0
 62
256
370
-1
  6
BYLAYER
 10
2.0735640988026005
 20
3.0652742150963022
 30
0.0
 11
2.0726440997398372
 21
3.1179809261025069
 31
0.0
  0
LINE
  5
143
100
AcDbEntity
100
AcDbLine
  8
0
 62
256
370
-1
  6
BYLAYER
 10
2.1502045388552746
 20
2.8069029957016438
 30
0.0
 11
2.1262725478277775
 21
2.8538721727098575
 31
0.0
  0
LINE
  5
144
100
AcDbEntity
100
AcDbLine
  8
0
 62
256
370
-1
  6
BYLAYER
 10
2.1648256678492652
 20
2.8898235387475579
 30
0.0
 11
2.1288743018115488
 21
2.9283766587690456
 31
0.0
  0
LINE
  5
145
100
AcDbEntity
100
AcDbLine
  8
0
 62
256
370
-1
  6
BYLAYER
 10
2.1262725478277895
 20
2.8538721727098535
 30
0.0
 11
2.1648256678492652
 21
2.8898235387475579
 31
0.0
  0
LINE
  5
146
100
AcDbEntity
100
AcDbLine
  8
0
 62
256
370
-1
  6
BYLAYER
 10
2.1288743018115608
 20
2.9283766587690492
 30
0.0
 11
2.1560243998744815
 21
2.9735620099189655
 31
0.0
  0
LINE
  5
147
100
AcDbEntity
100
AcDbLine
  8
0
 62
256
370
-1
  6
BYLAYER
 10
2.0569531946061717
 20
2.6686521924565705
 30
0.0
 11
2.0615475868998998
 21
2.7211663366733503
 31
0.0
  0
LINE
  5
148
100
AcDbEntity
100
AcDbLine
  8
0
 62
256
370
-1
  6
BYLAYER
 10
2.1132938083738919
 20
2.7312247832001626
 30
0.0
 11
2.1032353618470605
 21
2.7829710046741623
 31
0.0
  0
LINE
  5
149
100
AcDbEntity
100
AcDbLine
  8
0
 62
256
370
-1
  6
BYLAYER
 10
2.0615475868999038
 20
2.7211663366733427
 30
0.0
 11
2.1132938083738919
 21
2.7312247832001626
 31
0.0
  0
LINE
  5
14A
100
AcDbEntity
100
AcDbLine
  8
0
 62
256
370
-1
  6
BYLAYER
 10
2.103235361847072
 20
2.7829710046741587
 30
0.0
 11
2.1502045388552746
 21
2.8069029957016438
 31
0.0
  0
LINE
  5
14B
100
AcDbEntity
100
AcDbLine
  8
0
 62
256
370
-1
  6
BYLAYER
 10
1.9046098057164074
 20
2.6008245457057324
 30
0.0
 11
1.9363343280192953
 21
2.6429244087461674
 31
0.0
  0
LINE
  5
14C
100
AcDbEntity
100
AcDbLine
  8
0
 62
256
370
-1
  6
BYLAYER
 10
1.9855477772064174
 20
2.624033135563177
 30
0.0
 11
2.0044390503893998
 21
2.6732465847503186
 31
0.0
  0
LINE
  5
14D
100
AcDbEntity
100
AcDbLine
  8
0
 62
256
370
-1
  6
BYLAYER
 10
1.9363343280192953
 20
2.6429244087461594
 30
0.0
 11
1.9855477772064174
 21
2.624033135563177
 31
0.0
  0
LINE
  5
14E
100
AcDbEntity
100
AcDbLine
  8
0
 62
256
370
-1
  6
BYLAYER
 10
2.0044390503894074
 20
2.6732465847503066
 30
0.0
 11
2.0569531946061717
 21
2.6686521924565705
 31
0.0
  0
LINE
  5
14F
100
AcDbEntity
100
AcDbLine
  8
0
 62
256
370
-1
  6
BYLAYER
 10
1.8625099426759959
 20
2.6325490680086165
 30
0.0
 11
1.9046098057164074
 21
2.6008245457057324
 31
0.0
  0
LINE
  5
150
100
AcDbEntity
100
AcDbLine
  8
0
 62
256
370
-1
  6
BYLAYER
 10
1.825234992754039
 20
2.6351555864220102
 30
0.0
 11
1.8423437054619278
 21
2.5948118740328781
 31
0.0
  0
LINE
  5
151
100
AcDbEntity
100
AcDbLine
  8
0
 62
256
370
-1
  6
BYLAYER
 10
1.8625099426759959
 20
2.6325490680086165
 30
0.0
 11
1.8423437054619278
 21
2.5948118740328781
 31
0.0
  0
LINE
  5
152
100
AcDbEntity
100
AcDbLine
  8
0
 62
256
370
-1
  6
BYLAYER
 10
1.7022093652454457
 20
2.6438460874127414
 30
0.0
 11
1.7535730295980603
 21
2.6557043236914093
 31
0.0
  0
LINE
  5
153
100
AcDbEntity
100
AcDbLine
  8
0
 62
256
370
-1
  6
BYLAYER
 10
1.7791296425413481
 20
2.6095989734787226
 30
0.0
 11
1.825234992754039
 21
2.6351555864220222
 31
0.0
  0
LINE
  5
154
100
AcDbEntity
100
AcDbLine
  8
0
 62
256
370
-1
  6
BYLAYER
 10
1.7535730295980563
 20
2.6557043236914053
 30
0.0
 11
1.7791296425413481
 21
2.6095989734787226
 31
0.0
  0
ARC
  5
155
100
AcDbEntity
  8
0
 62
256
370
-1
  6
BYLAYER
100
AcDbCircle
 10
3.9125109967200302
 20
2.9003754293823469
 30
0.0
 40
0.3
100
AcDbArc
 50
269.9999999999986358
 51
89.99999999999865
  0
LINE
  5
156
100
AcDbEntity
100
AcDbLine
  8
0
 62
256
370
-1
  6
BYLAYER
 10
1.6903511289667779
 20
2.6952097517653444
 30
0.0
 11
1.7022093652454457
 21
2.6438460874127414
 31
0.0
  0
POINT
  5
157
100
AcDbEntity
100
AcDbPoint
  8
0
 62
256
370
-1
  6
BYLAYER
 10
3.9125109967200302
 20
2.9003754293823469
 30
0.0
  0
LINE
  5
158
100
AcDbEntity
100
AcDbLine
  8
0
 62
256
370
-1
  6
BYLAYER
 10
0.9820368266695341
 20
2.9998285711330697
 30
0.0
 11
1.5820368266695339
 21
2.9998285711330697
 31
0.0
  0
LINE
  5
159
100
AcDbEntity
100
AcDbLine
  8
0
 62
256
370
-1
  6
BYLAYER
 10
0.9820368266695341
 20
2.7798285711330664
 30
0.0
 11
1.5906247436704899
 21
2.7798285711330664
 31
0.0
  0
LINE
  5
15A
100
AcDbEntity
100
AcDbLine
  8
0
 62
256
370
-1
  6
BYLAYER
 10
1.5906247436704899
 20
2.7798285711330664
 30
0.0
 11
1.6404675092802399
 21
2.7506111240742026
 31
0.0
  0
LINE
  5
15B
100
AcDbEntity
100
AcDbLine
  8
0
 62
256
370
-1
  6
BYLAYER
 10
1.6377086329690798
 20
2.6979686280765085
 30
0.0
 11
1.6903511289667819
 21
2.6952097517653559
 31
0.0
  0
LINE
  5
15C
100
AcDbEntity
100
AcDbLine
  8
0
 62
256
370
-1
  6
BYLAYER
 10
1.6404675092802321
 20
2.7506111240742026
 30
0.0
 11
1.6377086329690798
 21
2.6979686280765085
 31
0.0
  0
LINE
  5
15D
100
AcDbEntity
100
AcDbLine
  8
0
 62
256
370
-1
  6
BYLAYER
 10
1.6241366897099532
 20
3.0866182327860754
 30
0.0
 11
1.6305610004269653
 21
3.0342964207457772
 31
0.0
  0
LINE
  5
15E
100
AcDbEntity
100
AcDbLine
  8
0
 62
256
370
-1
  6
BYLAYER
 10
1.6305610004269613
 20
3.0342964207457852
 30
0.0
 11
1.5820368266695339
 21
2.9998285711330697
 31
0.0
  0
LINE
  5
15F
100
AcDbEntity
100
AcDbLine
  8
0
 62
256
370
-1
  6
BYLAYER
 10
1.676458501750232
 20
3.0930425435030839
 30
0.0
 11
1.6241366897099532
 21
3.0866182327860754
 31
0.0
  0
LINE
  5
160
100
AcDbEntity
100
AcDbLine
  8
0
 62
256
370
-1
  6
BYLAYER
 10
1.7590488493199739
 20
3.184637654287803
 30
0.0
 11
1.73677063765291
 21
3.1368618751912072
 31
0.0
  0
LINE
  5
161
100
AcDbEntity
100
AcDbLine
  8
0
 62
256
370
-1
  6
BYLAYER
 10
0.9820368266695341
 20
2.4798285711330665
 30
0.0
 11
0.9820368266695341
 21
2.7798285711330664
 31
0.0
  0
LINE
  5
162
100
AcDbEntity
100
AcDbLine
  8
0
 62
256
370
-1
  6
BYLAYER
 10
1.684704903857515
 20
3.1451082772984824
 30
0.0
 11
1.6764585017502476
 21
3.0930425435030799
 31
0.0
  0
LINE
  5
163
100
AcDbEntity
100
AcDbLine
  8
0
 62
256
370
-1
  6
BYLAYER
 10
0.9820368266695341
 20
2.9998285711330697
 30
0.0
 11
0.9820368266695341
 21
3.2998285711330695
 31
0.0
  0
LINE
  5
164
100
AcDbEntity
100
AcDbLine
  8
0
 62
256
370
-1
  6
BYLAYER
 10
1.73677063765291
 20
3.1368618751912152
 30
0.0
 11
1.684704903857515
 21
3.1451082772984824
 31
0.0
  0
LINE
  5
165
100
AcDbEntity
100
AcDbLine
  8
0
 62
256
370
-1
  6
BYLAYER
 10
0.9820368266695341
 20
3.2998285711330695
 30
0.0
 11
1.0872115844764281
 21
3.2998285711330695
 31
0.0
  0
LINE
  5
166
100
AcDbEntity
100
AcDbLine
  8
0
 62
256
370
-1
  6
BYLAYER
 10
1.8068246284165501
 20
3.1623594426207431
 30
0.0
 11
1.7590488493199739
 21
3.184637654287803
 31
0.0
  0
LINE
  5
167
100
AcDbEntity
100
AcDbLine
  8
0
 62
256
370
-1
  6
BYLAYER
 10
0.9820368266695341
 20
2.4798285711330665
 30
0.0
 11
1.0994968898723101
 21
2.4798285711330665
 31
0.0
  0
LINE
  5
168
100
AcDbEntity
100
AcDbLine
  8
0
 62
256
370
-1
  6
BYLAYER
 10
1.9254032291483623
 20
3.1962702857220426
 30
0.0
 11
1.8811929284513007
 21
3.1675597807518256
 31
0.0
  0
LINE
  5
169
100
AcDbEntity
100
AcDbLine
  8
0
 62
256
370
-1
  6
BYLAYER
 10
1.4465099469493745
 20
2.400648894249743
 30
0.0
 11
1.62309087589664
 21
2.3156403477224279
 31
0.0
  0
LINE
  5
16A
100
AcDbEntity
100
AcDbLine
  8
0
 62
256
370
-1
  6
BYLAYER
 10
1.8414086093683859
 20
3.2021437617036614
 30
0.0
 11
1.8068246284165579
 21
3.1623594426207351
 31
0.0
  0
LINE
  5
16B
100
AcDbEntity
100
AcDbLine
  8
0
 62
256
370
-1
  6
BYLAYER
 10
2.1233102233376764
 20
2.2512678075291337
 30
0.0
 11
3.9125109967200231
 21
2.6003754293823471
 31
0.0
  0
LINE
  5
16C
100
AcDbEntity
100
AcDbLine
  8
0
 62
256
370
-1
  6
BYLAYER
 10
1.8811929284513045
 20
3.1675597807518332
 30
0.0
 11
1.8414086093683859
 21
3.2021437617036614
 31
0.0
  0
LINE
  5
16D
100
AcDbEntity
100
AcDbLine
  8
0
 62
256
370
-1
  6
BYLAYER
 10
3.9125109967200373
 20
3.2003754293823468
 30
0.0
 11
2.1360570897537192
 21
3.547004916030343
 31
0.0
  0
LINE
  5
16E
100
AcDbEntity
100
AcDbLine
  8
0
 62
256
370
-1
  6
BYLAYER
 10
1.9541137341185637
 20
3.1520599850250006
 30
0.0
 11
1.9254032291483623
 21
3.1962702857220426
 31
0.0
  0
LINE
  5
16F
100
AcDbEntity
100
AcDbLine
  8
0
 62
256
370
-1
  6
BYLAYER
 10
1.6150118935518694
 20
3.4722333583792135
 30
0.0
 11
1.4550466477447126
 21
3.3894080152435198
 31
0.0
  0
LINE
  5
170
100
AcDbEntity
100
AcDbLine
  8
0
 62
256
370
-1
  6
BYLAYER
 10
2.0726440997398372
 20
3.1179809261025069
 30
0.0
 11
2.0199373887336094
 21
3.1170609270397436
 31
0.0
  0
ARC
  5
171
100
AcDbEntity
  8
0
 62
256
370
-1
  6
BYLAYER
100
AcDbCircle
 10
1.9701039329737045
 20
3.0364606708391051
 30
0.0
 40
0.8
100
AcDbArc
 50
244.2931810605280987
 51
281.0407944460133649
  0
LINE
  5
172
100
AcDbEntity
100
AcDbLine
  8
0
 62
256
370
-1
  6
BYLAYER
 10
2.0045250904187188
 20
3.1674722833398872
 30
0.0
 11
1.9541137341185637
 21
3.1520599850249846
 31
0.0
  0
ARC
  5
173
100
AcDbEntity
  8
0
 62
256
370
-1
  6
BYLAYER
100
AcDbCircle
 10
1.9828469568201541
 20
2.7618128024896631
 30
0.0
 40
0.8
100
AcDbArc
 50
78.9589251602954221
 51
117.3738044715262987
  0
LINE
  5
174
100
AcDbEntity
100
AcDbLine
  8
0
 62
256
370
-1
  6
BYLAYER
 10
2.0199373887336174
 20
3.1170609270397476
 30
0.0
 11
2.0045250904187188
 21
3.1674722833398872
 31
0.0
  0
ARC
  5
175
100
AcDbEntity
  8
0
 62
256
370
-1
  6
BYLAYER
100
AcDbCircle
 10
1.0872115844764281
 20
4.0998285711330693
 30
0.0
 40
0.8
100
AcDbArc
 50
270.0
 51
297.3738044715262845
  0
ARC
  5
176
100
AcDbEntity
  8
0
 62
256
370
-1
  6
BYLAYER
100
AcDbCircle
 10
1.0994968898723101
 20
1.6798285711330663
 30
0.0
 40
0.8
100
AcDbArc
 50
64.2931810605281129
 51
90.0
  0
LINE
  5
177
100
AcDbEntity
100
AcDbLine
  8
0
 62
256
370
-1
  6
BYLAYER
 10
2.1560243998744815
 20
2.9735620099189655
 30
0.0
 11
2.1108390487245456
 21
3.0007121079818937
 31
0.0
  0
POINT
  5
178
100
AcDbEntity
100
AcDbPoint
  8
0
 62
256
370
-1
  6
BYLAYER
 10
1.8625099426759881
 20
2.9003806365000635
 30
0.0
  0
LINE
  5
179
100
AcDbEntity
100
AcDbLine
  8
0
 62
256
370
-1
  6
BYLAYER
 10
2.1244826273207815
 20
3.0516306365000627
 30
0.0
 11
2.073564098802593
 21
3.0652742150962906
 31
0.0
  0
LINE
  5
17A
100
AcDbEntity
100
AcDbLine
  8
0
 62
256
370
-1
  6
BYLAYER
 10
5.662699082149496
 20
1.4652726143659036
 30
0.0
 11
5.6763426607457239
 21
1.5161911428840726
 31
0.0
  0
LINE
  5
17B
100
AcDbEntity
100
AcDbLine
  8
0
 62
256
370
-1
  6
BYLAYER
 10
5.6254241322275433
 20
1.5298347214803121
 30
0.0
 11
5.6245041331647796
 21
1.5825414324865166
 31
0.0
  0
LINE
  5
17C
100
AcDbEntity
100
AcDbLine
  8
0
 62
256
370
-1
  6
BYLAYER
 10
5.702064572280217
 20
1.2714635020856535
 30
0.0
 11
5.6781325812527204
 21
1.3184326790938674
 31
0.0
  0
LINE
  5
17D
100
AcDbEntity
100
AcDbLine
  8
0
 62
256
370
-1
  6
BYLAYER
 10
5.7166857012742076
 20
1.3543840451315678
 30
0.0
 11
5.6807343352364912
 21
1.3929371651530553
 31
0.0
  0
LINE
  5
17E
100
AcDbEntity
100
AcDbLine
  8
0
 62
256
370
-1
  6
BYLAYER
 10
5.6781325812527319
 20
1.3184326790938636
 30
0.0
 11
5.7166857012742076
 21
1.3543840451315678
 31
0.0
  0
LINE
  5
17F
100
AcDbEntity
100
AcDbLine
  8
0
 62
256
370
-1
  6
BYLAYER
 10
5.6807343352365027
 20
1.3929371651530593
 30
0.0
 11
5.7078844332994239
 21
1.4381225163029752
 31
0.0
  0
LINE
  5
180
100
AcDbEntity
100
AcDbLine
  8
0
 62
256
370
-1
  6
BYLAYER
 10
5.6088132280311136
 20
1.1332126988405806
 30
0.0
 11
5.6134076203248426
 21
1.1857268430573602
 31
0.0
  0
LINE
  5
181
100
AcDbEntity
100
AcDbLine
  8
0
 62
256
370
-1
  6
BYLAYER
 10
5.6651538417988343
 20
1.1957852895841723
 30
0.0
 11
5.6550953952720029
 21
1.2475315110581724
 31
0.0
  0
LINE
  5
182
100
AcDbEntity
100
AcDbLine
  8
0
 62
256
370
-1
  6
BYLAYER
 10
5.6134076203248462
 20
1.1857268430573524
 30
0.0
 11
5.6651538417988343
 21
1.1957852895841723
 31
0.0
  0
LINE
  5
183
100
AcDbEntity
100
AcDbLine
  8
0
 62
256
370
-1
  6
BYLAYER
 10
5.6550953952720144
 20
1.2475315110581684
 30
0.0
 11
5.702064572280217
 21
1.2714635020856535
 31
0.0
  0
LINE
  5
184
100
AcDbEntity
100
AcDbLine
  8
0
 62
256
370
-1
  6
BYLAYER
 10
5.4564698391413495
 20
1.0653850520897423
 30
0.0
 11
5.4881943614442381
 21
1.1074849151301771
 31
0.0
  0
LINE
  5
185
100
AcDbEntity
100
AcDbLine
  8
0
 62
256
370
-1
  6
BYLAYER
 10
5.5374078106313593
 20
1.0885936419471869
 30
0.0
 11
5.5562990838143422
 21
1.1378070911343285
 31
0.0
  0
LINE
  5
186
100
AcDbEntity
100
AcDbLine
  8
0
 62
256
370
-1
  6
BYLAYER
 10
5.4881943614442381
 20
1.1074849151301693
 30
0.0
 11
5.5374078106313593
 21
1.0885936419471869
 31
0.0
  0
LINE
  5
187
100
AcDbEntity
100
AcDbLine
  8
0
 62
256
370
-1
  6
BYLAYER
 10
5.5562990838143502
 20
1.1378070911343168
 30
0.0
 11
5.6088132280311136
 21
1.1332126988405806
 31
0.0
  0
LINE
  5
188
100
AcDbEntity
100
AcDbLine
  8
0
 62
256
370
-1
  6
BYLAYER
 10
5.4143699761009385
 20
1.0971095743926265
 30
0.0
 11
5.4564698391413495
 21
1.0653850520897423
 31
0.0
  0
LINE
  5
189
100
AcDbEntity
100
AcDbLine
  8
0
 62
256
370
-1
  6
BYLAYER
 10
5.3770950261789814
 20
1.0997160928060201
 30
0.0
 11
5.39420373888687
 21
1.059372380416888
 31
0.0
  0
LINE
  5
18A
100
AcDbEntity
100
AcDbLine
  8
0
 62
256
370
-1
  6
BYLAYER
 10
5.4143699761009385
 20
1.0971095743926265
 30
0.0
 11
5.39420373888687
 21
1.059372380416888
 31
0.0
  0
LINE
  5
18B
100
AcDbEntity
100
AcDbLine
  8
0
 62
256
370
-1
  6
BYLAYER
 10
5.2540693986703886
 20
1.1084065937967513
 30
0.0
 11
5.3054330630230027
 21
1.1202648300754192
 31
0.0
  0
LINE
  5
18C
100
AcDbEntity
100
AcDbLine
  8
0
 62
256
370
-1
  6
BYLAYER
 10
5.3309896759662907
 20
1.0741594798627323
 30
0.0
 11
5.3770950261789814
 21
1.0997160928060319
 31
0.0
  0
LINE
  5
18D
100
AcDbEntity
100
AcDbLine
  8
0
 62
256
370
-1
  6
BYLAYER
 10
5.3054330630229991
 20
1.1202648300754154
 30
0.0
 11
5.3309896759662907
 21
1.0741594798627323
 31
0.0
  0
ARC
  5
18E
100
AcDbEntity
  8
0
 62
256
370
-1
  6
BYLAYER
100
AcDbCircle
 10
7.4643710301449726
 20
1.3649359357663569
 30
0.0
 40
0.3
100
AcDbArc
 50
269.9999999999986358
 51
89.99999999999865
  0
LINE
  5
18F
100
AcDbEntity
100
AcDbLine
  8
0
 62
256
370
-1
  6
BYLAYER
 10
5.2422111623917207
 20
1.1597702581493541
 30
0.0
 11
5.2540693986703886
 21
1.1084065937967513
 31
0.0
  0
POINT
  5
190
100
AcDbEntity
100
AcDbPoint
  8
0
 62
256
370
-1
  6
BYLAYER
 10
7.4643710301449726
 20
1.3649359357663569
 30
0.0
  0
LINE
  5
191
100
AcDbEntity
100
AcDbLine
  8
0
 62
256
370
-1
  6
BYLAYER
 10
4.533896860094476
 20
1.4643890775170794
 30
0.0
 11
5.1338968600944765
 21
1.4643890775170794
 31
0.0
  0
LINE
  5
192
100
AcDbEntity
100
AcDbLine
  8
0
 62
256
370
-1
  6
BYLAYER
 10
4.533896860094476
 20
1.2443890775170763
 30
0.0
 11
5.1424847770954321
 21
1.2443890775170763
 31
0.0
  0
LINE
  5
193
100
AcDbEntity
100
AcDbLine
  8
0
 62
256
370
-1
  6
BYLAYER
 10
5.1424847770954321
 20
1.2443890775170763
 30
0.0
 11
5.1923275427051827
 21
1.2151716304582125
 31
0.0
  0
LINE
  5
194
100
AcDbEntity
100
AcDbLine
  8
0
 62
256
370
-1
  6
BYLAYER
 10
5.1895686663940221
 20
1.1625291344605182
 30
0.0
 11
5.2422111623917242
 21
1.1597702581493659
 31
0.0
  0
LINE
  5
195
100
AcDbEntity
100
AcDbLine
  8
0
 62
256
370
-1
  6
BYLAYER
 10
5.1923275427051747
 20
1.2151716304582125
 30
0.0
 11
5.1895686663940221
 21
1.1625291344605182
 31
0.0
  0
LINE
  5
196
100
AcDbEntity
100
AcDbLine
  8
0
 62
256
370
-1
  6
BYLAYER
 10
5.1759967231348956
 20
1.5511787391700855
 30
0.0
 11
5.1824210338519077
 21
1.4988569271297871
 31
0.0
  0
LINE
  5
197
100
AcDbEntity
100
AcDbLine
  8
0
 62
256
370
-1
  6
BYLAYER
 10
5.1824210338519041
 20
1.4988569271297949
 30
0.0
 11
5.1338968600944765
 21
1.4643890775170794
 31
0.0
  0
LINE
  5
198
100
AcDbEntity
100
AcDbLine
  8
0
 62
256
370
-1
  6
BYLAYER
 10
5.2283185351751742
 20
1.5576030498870936
 30
0.0
 11
5.1759967231348956
 21
1.5511787391700855
 31
0.0
  0
LINE
  5
199
100
AcDbEntity
100
AcDbLine
  8
0
 62
256
370
-1
  6
BYLAYER
 10
5.3109088827449167
 20
1.6491981606718129
 30
0.0
 11
5.2886306710778523
 21
1.6014223815752173
 31
0.0
  0
LINE
  5
19A
100
AcDbEntity
100
AcDbLine
  8
0
 62
256
370
-1
  6
BYLAYER
 10
4.533896860094476
 20
0.9443890775170762
 30
0.0
 11
4.533896860094476
 21
1.2443890775170763
 31
0.0
  0
LINE
  5
19B
100
AcDbEntity
100
AcDbLine
  8
0
 62
256
370
-1
  6
BYLAYER
 10
5.2365649372824574
 20
1.6096687836824926
 30
0.0
 11
5.2283185351751902
 21
1.5576030498870899
 31
0.0
  0
LINE
  5
19C
100
AcDbEntity
100
AcDbLine
  8
0
 62
256
370
-1
  6
BYLAYER
 10
4.533896860094476
 20
1.4643890775170794
 30
0.0
 11
4.533896860094476
 21
1.7643890775170794
 31
0.0
  0
LINE
  5
19D
100
AcDbEntity
100
AcDbLine
  8
0
 62
256
370
-1
  6
BYLAYER
 10
5.2886306710778523
 20
1.6014223815752251
 30
0.0
 11
5.2365649372824574
 21
1.6096687836824926
 31
0.0
  0
LINE
  5
19E
100
AcDbEntity
100
AcDbLine
  8
0
 62
256
370
-1
  6
BYLAYER
 10
4.533896860094476
 20
1.7643890775170794
 30
0.0
 11
4.6390716179013705
 21
1.7643890775170794
 31
0.0
  0
LINE
  5
19F
100
AcDbEntity
100
AcDbLine
  8
0
 62
256
370
-1
  6
BYLAYER
 10
5.3586846618414921
 20
1.6269199490047528
 30
0.0
 11
5.3109088827449167
 21
1.6491981606718129
 31
0.0
  0
LINE
  5
1A0
100
AcDbEntity
100
AcDbLine
  8
0
 62
256
370
-1
  6
BYLAYER
 10
4.533896860094476
 20
0.9443890775170762
 30
0.0
 11
4.6513569232972527
 21
0.9443890775170762
 31
0.0
  0
LINE
  5
1A1
100
AcDbEntity
100
AcDbLine
  8
0
 62
256
370
-1
  6
BYLAYER
 10
5.4772632625733042
 20
1.6608307921060523
 30
0.0
 11
5.4330529618762426
 21
1.6321202871358353
 31
0.0
  0
LINE
  5
1A2
100
AcDbEntity
100
AcDbLine
  8
0
 62
256
370
-1
  6
BYLAYER
 10
4.9983699803743171
 20
0.865209400633753
 30
0.0
 11
5.1749509093215824
 21
0.7802008541064376
 31
0.0
  0
LINE
  5
1A3
100
AcDbEntity
100
AcDbLine
  8
0
 62
256
370
-1
  6
BYLAYER
 10
5.3932686427933287
 20
1.6667042680876714
 30
0.0
 11
5.3586846618415001
 21
1.626919949004745
 31
0.0
  0
LINE
  5
1A4
100
AcDbEntity
100
AcDbLine
  8
0
 62
256
370
-1
  6
BYLAYER
 10
5.6751702567626188
 20
0.7158283139131438
 30
0.0
 11
7.4643710301449655
 21
1.0649359357663568
 31
0.0
  0
LINE
  5
1A5
100
AcDbEntity
100
AcDbLine
  8
0
 62
256
370
-1
  6
BYLAYER
 10
5.4330529618762471
 20
1.6321202871358431
 30
0.0
 11
5.3932686427933287
 21
1.6667042680876714
 31
0.0
  0
LINE
  5
1A6
100
AcDbEntity
100
AcDbLine
  8
0
 62
256
370
-1
  6
BYLAYER
 10
7.4643710301449797
 20
1.6649359357663569
 30
0.0
 11
5.6879171231786616
 21
2.0115654224143529
 31
0.0
  0
LINE
  5
1A7
100
AcDbEntity
100
AcDbLine
  8
0
 62
256
370
-1
  6
BYLAYER
 10
5.5059737675435061
 20
1.6166204914090103
 30
0.0
 11
5.4772632625733042
 21
1.6608307921060523
 31
0.0
  0
LINE
  5
1A8
100
AcDbEntity
100
AcDbLine
  8
0
 62
256
370
-1
  6
BYLAYER
 10
5.1668719269768122
 20
1.9367938647632232
 30
0.0
 11
5.0069066811696548
 21
1.8539685216275297
 31
0.0
  0
LINE
  5
1A9
100
AcDbEntity
100
AcDbLine
  8
0
 62
256
370
-1
  6
BYLAYER
 10
5.6245041331647796
 20
1.5825414324865166
 30
0.0
 11
5.5717974221585518
 21
1.5816214334237535
 31
0.0
  0
ARC
  5
1AA
100
AcDbEntity
  8
0
 62
256
370
-1
  6
BYLAYER
100
AcDbCircle
 10
5.5219639663986468
 20
1.5010211772231148
 30
0.0
 40
0.8
100
AcDbArc
 50
244.2931810605280987
 51
281.0407944460133649
  0
LINE
  5
1AB
100
AcDbEntity
100
AcDbLine
  8
0
 62
256
370
-1
  6
BYLAYER
 10
5.5563851238436612
 20
1.6320327897238971
 30
0.0
 11
5.5059737675435061
 21
1.6166204914089948
 31
0.0
  0
ARC
  5
1AC
100
AcDbEntity
  8
0
 62
256
370
-1
  6
BYLAYER
100
AcDbCircle
 10
5.5347069902450965
 20
1.2263733088736732
 30
0.0
 40
0.8
100
AcDbArc
 50
78.9589251602954221
 51
117.3738044715262987
  0
LINE
  5
1AD
100
AcDbEntity
100
AcDbLine
  8
0
 62
256
370
-1
  6
BYLAYER
 10
5.5717974221585598
 20
1.5816214334237573
 30
0.0
 11
5.5563851238436612
 21
1.6320327897238971
 31
0.0
  0
ARC
  5
1AE
100
AcDbEntity
  8
0
 62
256
370
-1
  6
BYLAYER
100
AcDbCircle
 10
4.6390716179013705
 20
2.5643890775170792
 30
0.0
 40
0.8
100
AcDbArc
 50
270.0
 51
297.3738044715262845
  0
ARC
  5
1AF
100
AcDbEntity
  8
0
 62
256
370
-1
  6
BYLAYER
100
AcDbCircle
 10
4.6513569232972527
 20
0.1443890775170762
 30
0.0
 40
0.8
100
AcDbArc
 50
64.2931810605281129
 51
90.0
  0
LINE
  5
1B0
100
AcDbEntity
100
AcDbLine
  8
0
 62
256
370
-1
  6
BYLAYER
 10
5.7078844332994239
 20
1.4381225163029752
 30
0.0
 11
5.662699082149488
 21
1.4652726143659036
 31
0.0
  0
POINT
  5
1B1
100
AcDbEntity
100
AcDbPoint
  8
0
 62
256
370
-1
  6
BYLAYER
 10
5.4143699761009305
 20
1.3649411428840734
 30
0.0
  0
LINE
  5
1B2
100
AcDbEntity
100
AcDbLine
  8
0
 62
256
370
-1
  6
BYLAYER
 10
5.6763426607457239
 20
1.5161911428840726
 30
0.0
 11
5.6254241322275353
 21
1.5298347214803003
 31
0.0
  0
LINE
  5
1B3
100
AcDbEntity
100
AcDbLine
  8
0
 62
256
370
-1
  6
BYLAYER
 10
5.7181968951717597
 20
3.1302070050338449
 30
0.0
 11
5.7318404737679876
 21
3.1811255335520139
 31
0.0
  0
LINE
  5
1B4
100
AcDbEntity
100
AcDbLine
  8
0
 62
256
370
-1
  6
BYLAYER
 10
5.680921945249807
 20
3.1947691121482533
 30
0.0
 11
5.6800019461870432
 21
3.247475823154458
 31
0.0
  0
LINE
  5
1B5
100
AcDbEntity
100
AcDbLine
  8
0
 62
256
370
-1
  6
BYLAYER
 10
5.7575623853024807
 20
2.936397892753595
 30
0.0
 11
5.733630394274984
 21
2.9833670697618087
 31
0.0
  0
LINE
  5
1B6
100
AcDbEntity
100
AcDbLine
  8
0
 62
256
370
-1
  6
BYLAYER
 10
5.7721835142964713
 20
3.0193184357995091
 30
0.0
 11
5.7362321482587548
 21
3.0578715558209968
 31
0.0
  0
LINE
  5
1B7
100
AcDbEntity
100
AcDbLine
  8
0
 62
256
370
-1
  6
BYLAYER
 10
5.7336303942749955
 20
2.9833670697618047
 30
0.0
 11
5.7721835142964713
 21
3.0193184357995091
 31
0.0
  0
LINE
  5
1B8
100
AcDbEntity
100
AcDbLine
  8
0
 62
256
370
-1
  6
BYLAYER
 10
5.7362321482587664
 20
3.0578715558210003
 30
0.0
 11
5.7633822463216875
 21
3.1030569069709166
 31
0.0
  0
LINE
  5
1B9
100
AcDbEntity
100
AcDbLine
  8
0
 62
256
370
-1
  6
BYLAYER
 10
5.6643110410533772
 20
2.7981470895085216
 30
0.0
 11
5.6689054333471063
 21
2.8506612337253014
 31
0.0
  0
LINE
  5
1BA
100
AcDbEntity
100
AcDbLine
  8
0
 62
256
370
-1
  6
BYLAYER
 10
5.7206516548210979
 20
2.8607196802521138
 30
0.0
 11
5.7105932082942665
 21
2.9124659017261134
 31
0.0
  0
LINE
  5
1BB
100
AcDbEntity
100
AcDbLine
  8
0
 62
256
370
-1
  6
BYLAYER
 10
5.6689054333471098
 20
2.8506612337252939
 30
0.0
 11
5.7206516548210979
 21
2.8607196802521138
 31
0.0
  0
LINE
  5
1BC
100
AcDbEntity
100
AcDbLine
  8
0
 62
256
370
-1
  6
BYLAYER
 10
5.7105932082942781
 20
2.9124659017261099
 30
0.0
 11
5.7575623853024807
 21
2.936397892753595
 31
0.0
  0
LINE
  5
1BD
100
AcDbEntity
100
AcDbLine
  8
0
 62
256
370
-1
  6
BYLAYER
 10
5.5119676521636132
 20
2.7303194427576836
 30
0.0
 11
5.5436921744665018
 21
2.7724193057981186
 31
0.0
  0
LINE
  5
1BE
100
AcDbEntity
100
AcDbLine
  8
0
 62
256
370
-1
  6
BYLAYER
 10
5.592905623653623
 20
2.7535280326151281
 30
0.0
 11
5.6117968968366059
 21
2.8027414818022698
 31
0.0
  0
LINE
  5
1BF
100
AcDbEntity
100
AcDbLine
  8
0
 62
256
370
-1
  6
BYLAYER
 10
5.5436921744665018
 20
2.7724193057981106
 30
0.0
 11
5.592905623653623
 21
2.7535280326151281
 31
0.0
  0
LINE
  5
1C0
100
AcDbEntity
100
AcDbLine
  8
0
 62
256
370
-1
  6
BYLAYER
 10
5.6117968968366139
 20
2.8027414818022578
 30
0.0
 11
5.6643110410533772
 21
2.7981470895085216
 31
0.0
  0
LINE
  5
1C1
100
AcDbEntity
100
AcDbLine
  8
0
 62
256
370
-1
  6
BYLAYER
 10
5.4698677891232022
 20
2.7620439650605677
 30
0.0
 11
5.5119676521636132
 21
2.7303194427576836
 31
0.0
  0
LINE
  5
1C2
100
AcDbEntity
100
AcDbLine
  8
0
 62
256
370
-1
  6
BYLAYER
 10
5.432592839201245
 20
2.7646504834739614
 30
0.0
 11
5.4497015519091336
 21
2.7243067710848292
 31
0.0
  0
LINE
  5
1C3
100
AcDbEntity
100
AcDbLine
  8
0
 62
256
370
-1
  6
BYLAYER
 10
5.4698677891232022
 20
2.7620439650605677
 30
0.0
 11
5.4497015519091336
 21
2.7243067710848292
 31
0.0
  0
LINE
  5
1C4
100
AcDbEntity
100
AcDbLine
  8
0
 62
256
370
-1
  6
BYLAYER
 10
5.3095672116926522
 20
2.7733409844646926
 30
0.0
 11
5.3609308760452663
 21
2.7851992207433605
 31
0.0
  0
LINE
  5
1C5
100
AcDbEntity
100
AcDbLine
  8
0
 62
256
370
-1
  6
BYLAYER
 10
5.3864874889885543
 20
2.7390938705306738
 30
0.0
 11
5.432592839201245
 21
2.7646504834739734
 31
0.0
  0
LINE
  5
1C6
100
AcDbEntity
100
AcDbLine
  8
0
 62
256
370
-1
  6
BYLAYER
 10
5.3609308760452627
 20
2.7851992207433565
 30
0.0
 11
5.3864874889885543
 21
2.7390938705306738
 31
0.0
  0
ARC
  5
1C7
100
AcDbEntity
  8
0
 62
256
370
-1
  6
BYLAYER
100
AcDbCircle
 10
7.5198688431672362
 20
3.0298703264342981
 30
0.0
 40
0.3
100
AcDbArc
 50
269.9999999999986358
 51
89.99999999999865
  0
LINE
  5
1C8
100
AcDbEntity
100
AcDbLine
  8
0
 62
256
370
-1
  6
BYLAYER
 10
5.2977089754139843
 20
2.8247046488172955
 30
0.0
 11
5.3095672116926522
 21
2.7733409844646926
 31
0.0
  0
POINT
  5
1C9
100
AcDbEntity
100
AcDbPoint
  8
0
 62
256
370
-1
  6
BYLAYER
 10
7.5198688431672362
 20
3.0298703264342981
 30
0.0
  0
LINE
  5
1CA
100
AcDbEntity
100
AcDbLine
  8
0
 62
256
370
-1
  6
BYLAYER
 10
4.5893946731167397
 20
3.1293234681850208
 30
0.0
 11
5.1893946731167402
 21
3.1293234681850208
 31
0.0
  0
LINE
  5
1CB
100
AcDbEntity
100
AcDbLine
  8
0
 62
256
370
-1
  6
BYLAYER
 10
4.5893946731167397
 20
2.9093234681850175
 30
0.0
 11
5.1979825901176957
 21
2.9093234681850175
 31
0.0
  0
LINE
  5
1CC
100
AcDbEntity
100
AcDbLine
  8
0
 62
256
370
-1
  6
BYLAYER
 10
5.1979825901176957
 20
2.9093234681850175
 30
0.0
 11
5.2478253557274464
 21
2.8801060211261538
 31
0.0
  0
LINE
  5
1CD
100
AcDbEntity
100
AcDbLine
  8
0
 62
256
370
-1
  6
BYLAYER
 10
5.2450664794162858
 20
2.8274635251284597
 30
0.0
 11
5.2977089754139879
 21
2.8247046488173071
 31
0.0
  0
LINE
  5
1CE
100
AcDbEntity
100
AcDbLine
  8
0
 62
256
370
-1
  6
BYLAYER
 10
5.2478253557274384
 20
2.8801060211261538
 30
0.0
 11
5.2450664794162858
 21
2.8274635251284597
 31
0.0
  0
LINE
  5
1CF
100
AcDbEntity
100
AcDbLine
  8
0
 62
256
370
-1
  6
BYLAYER
 10
5.2314945361571592
 20
3.2161131298380266
 30
0.0
 11
5.2379188468741713
 21
3.1637913177977284
 31
0.0
  0
LINE
  5
1D0
100
AcDbEntity
100
AcDbLine
  8
0
 62
256
370
-1
  6
BYLAYER
 10
5.2379188468741678
 20
3.1637913177977364
 30
0.0
 11
5.1893946731167402
 21
3.1293234681850208
 31
0.0
  0
LINE
  5
1D1
100
AcDbEntity
100
AcDbLine
  8
0
 62
256
370
-1
  6
BYLAYER
 10
5.2838163481974378
 20
3.2225374405550351
 30
0.0
 11
5.2314945361571592
 21
3.2161131298380266
 31
0.0
  0
LINE
  5
1D2
100
AcDbEntity
100
AcDbLine
  8
0
 62
256
370
-1
  6
BYLAYER
 10
5.3664066957671803
 20
3.3141325513397542
 30
0.0
 11
5.344128484100116
 21
3.2663567722431583
 31
0.0
  0
LINE
  5
1D3
100
AcDbEntity
100
AcDbLine
  8
0
 62
256
370
-1
  6
BYLAYER
 10
4.5893946731167397
 20
2.6093234681850177
 30
0.0
 11
4.5893946731167397
 21
2.9093234681850175
 31
0.0
  0
LINE
  5
1D4
100
AcDbEntity
100
AcDbLine
  8
0
 62
256
370
-1
  6
BYLAYER
 10
5.2920627503047211
 20
3.2746031743504336
 30
0.0
 11
5.2838163481974538
 21
3.2225374405550311
 31
0.0
  0
LINE
  5
1D5
100
AcDbEntity
100
AcDbLine
  8
0
 62
256
370
-1
  6
BYLAYER
 10
4.5893946731167397
 20
3.1293234681850208
 30
0.0
 11
4.5893946731167397
 21
3.4293234681850207
 31
0.0
  0
LINE
  5
1D6
100
AcDbEntity
100
AcDbLine
  8
0
 62
256
370
-1
  6
BYLAYER
 10
5.344128484100116
 20
3.2663567722431663
 30
0.0
 11
5.2920627503047211
 21
3.2746031743504336
 31
0.0
  0
LINE
  5
1D7
100
AcDbEntity
100
AcDbLine
  8
0
 62
256
370
-1
  6
BYLAYER
 10
4.5893946731167397
 20
3.4293234681850207
 30
0.0
 11
4.6945694309236341
 21
3.4293234681850207
 31
0.0
  0
LINE
  5
1D8
100
AcDbEntity
100
AcDbLine
  8
0
 62
256
370
-1
  6
BYLAYER
 10
5.4141824748637557
 20
3.2918543396726943
 30
0.0
 11
5.3664066957671803
 21
3.3141325513397542
 31
0.0
  0
LINE
  5
1D9
100
AcDbEntity
100
AcDbLine
  8
0
 62
256
370
-1
  6
BYLAYER
 10
4.5893946731167397
 20
2.6093234681850177
 30
0.0
 11
4.7068547363195163
 21
2.6093234681850177
 31
0.0
  0
LINE
  5
1DA
100
AcDbEntity
100
AcDbLine
  8
0
 62
256
370
-1
  6
BYLAYER
 10
5.5327610755955678
 20
3.3257651827739938
 30
0.0
 11
5.4885507748985063
 21
3.2970546778037768
 31
0.0
  0
LINE
  5
1DB
100
AcDbEntity
100
AcDbLine
  8
0
 62
256
370
-1
  6
BYLAYER
 10
5.0538677933965808
 20
2.5301437913016942
 30
0.0
 11
5.2304487223438461
 21
2.445135244774379
 31
0.0
  0
LINE
  5
1DC
100
AcDbEntity
100
AcDbLine
  8
0
 62
256
370
-1
  6
BYLAYER
 10
5.4487664558155924
 20
3.3316386587556126
 30
0.0
 11
5.4141824748637637
 21
3.2918543396726863
 31
0.0
  0
LINE
  5
1DD
100
AcDbEntity
100
AcDbLine
  8
0
 62
256
370
-1
  6
BYLAYER
 10
5.7306680697848824
 20
2.3807627045810849
 30
0.0
 11
7.5198688431672291
 21
2.7298703264342983
 31
0.0
  0
LINE
  5
1DE
100
AcDbEntity
100
AcDbLine
  8
0
 62
256
370
-1
  6
BYLAYER
 10
5.4885507748985107
 20
3.2970546778037844
 30
0.0
 11
5.4487664558155924
 21
3.3316386587556126
 31
0.0
  0
LINE
  5
1DF
100
AcDbEntity
100
AcDbLine
  8
0
 62
256
370
-1
  6
BYLAYER
 10
7.5198688431672434
 20
3.3298703264342979
 30
0.0
 11
5.7434149362009252
 21
3.6764998130822941
 31
0.0
  0
LINE
  5
1E0
100
AcDbEntity
100
AcDbLine
  8
0
 62
256
370
-1
  6
BYLAYER
 10
5.5614715805657697
 20
3.2815548820769518
 30
0.0
 11
5.5327610755955678
 21
3.3257651827739938
 31
0.0
  0
LINE
  5
1E1
100
AcDbEntity
100
AcDbLine
  8
0
 62
256
370
-1
  6
BYLAYER
 10
5.2223697399990758
 20
3.6017282554311647
 30
0.0
 11
5.0624044941919184
 21
3.5189029122954709
 31
0.0
  0
LINE
  5
1E2
100
AcDbEntity
100
AcDbLine
  8
0
 62
256
370
-1
  6
BYLAYER
 10
5.6800019461870432
 20
3.247475823154458
 30
0.0
 11
5.6272952351808154
 21
3.2465558240916947
 31
0.0
  0
ARC
  5
1E3
100
AcDbEntity
  8
0
 62
256
370
-1
  6
BYLAYER
100
AcDbCircle
 10
5.5774617794209105
 20
3.1659555678910563
 30
0.0
 40
0.8
100
AcDbArc
 50
244.2931810605280987
 51
281.0407944460133649
  0
LINE
  5
1E4
100
AcDbEntity
100
AcDbLine
  8
0
 62
256
370
-1
  6
BYLAYER
 10
5.6118829368659249
 20
3.2969671803918383
 30
0.0
 11
5.5614715805657697
 21
3.2815548820769358
 31
0.0
  0
ARC
  5
1E5
100
AcDbEntity
  8
0
 62
256
370
-1
  6
BYLAYER
100
AcDbCircle
 10
5.5902048032673601
 20
2.8913076995416143
 30
0.0
 40
0.8
100
AcDbArc
 50
78.9589251602954221
 51
117.3738044715262987
  0
LINE
  5
1E6
100
AcDbEntity
100
AcDbLine
  8
0
 62
256
370
-1
  6
BYLAYER
 10
5.6272952351808234
 20
3.2465558240916987
 30
0.0
 11
5.6118829368659249
 21
3.2969671803918383
 31
0.0
  0
ARC
  5
1E7
100
AcDbEntity
  8
0
 62
256
370
-1
  6
BYLAYER
100
AcDbCircle
 10
4.6945694309236341
 20
4.2293234681850205
 30
0.0
 40
0.8
100
AcDbArc
 50
270.0
 51
297.3738044715262845
  0
ARC
  5
1E8
100
AcDbEntity
  8
0
 62
256
370
-1
  6
BYLAYER
100
AcDbCircle
 10
4.7068547363195163
 20
1.8093234681850174
 30
0.0
 40
0.8
100
AcDbArc
 50
64.2931810605281129
 51
90.0
  0
LINE
  5
1E9
100
AcDbEntity
100
AcDbLine
  8
0
 62
256
370
-1
  6
BYLAYER
 10
5.7633822463216875
 20
3.1030569069709166
 30
0.0
 11
5.7181968951717517
 21
3.1302070050338449
 31
0.0
  0
POINT
  5
1EA
100
AcDbEntity
100
AcDbPoint
  8
0
 62
256
370
-1
  6
BYLAYER
 10
5.4698677891231942
 20
3.0298755335520147
 30
0.0
  0
LINE
  5
1EB
100
AcDbEntity
100
AcDbLine
  8
0
 62
256
370
-1
  6
BYLAYER
 10
5.7318404737679876
 20
3.1811255335520139
 30
0.0
 11
5.680921945249799
 21
3.1947691121482418
 31
0.0
  0
LINE
  5
1EC
100
AcDbEntity
100
AcDbLine
  8
0
 62
256
370
-1
  6
BYLAYER
 10
2.1478375907393961
 20
4.7951413957017861
 30
0.0
 11
2.161481169335624
 21
4.8460599242199551
 31
0.0
  0
LINE
  5
1ED
100
AcDbEntity
100
AcDbLine
  8
0
 62
256
370
-1
  6
BYLAYER
 10
2.1105626408174429
 20
4.8597035028161946
 30
0.0
 11
2.1096426417546796
 21
4.9124102138223993
 31
0.0
  0
LINE
  5
1EE
100
AcDbEntity
100
AcDbLine
  8
0
 62
256
370
-1
  6
BYLAYER
 10
2.1872030808701171
 20
4.6013322834215362
 30
0.0
 11
2.16327108984262
 21
4.6483014604297495
 31
0.0
  0
LINE
  5
1EF
100
AcDbEntity
100
AcDbLine
  8
0
 62
256
370
-1
  6
BYLAYER
 10
2.2018242098641077
 20
4.6842528264674499
 30
0.0
 11
2.1658728438263912
 21
4.722805946488938
 31
0.0
  0
LINE
  5
1F0
100
AcDbEntity
100
AcDbLine
  8
0
 62
256
370
-1
  6
BYLAYER
 10
2.1632710898426319
 20
4.6483014604297459
 30
0.0
 11
2.2018242098641077
 21
4.6842528264674499
 31
0.0
  0
LINE
  5
1F1
100
AcDbEntity
100
AcDbLine
  8
0
 62
256
370
-1
  6
BYLAYER
 10
2.1658728438264032
 20
4.7228059464889416
 30
0.0
 11
2.1930229418893239
 21
4.7679912976388579
 31
0.0
  0
LINE
  5
1F2
100
AcDbEntity
100
AcDbLine
  8
0
 62
256
370
-1
  6
BYLAYER
 10
2.0939517366210141
 20
4.4630814801764629
 30
0.0
 11
2.0985461289147422
 21
4.5155956243932422
 31
0.0
  0
LINE
  5
1F3
100
AcDbEntity
100
AcDbLine
  8
0
 62
256
370
-1
  6
BYLAYER
 10
2.1502923503887343
 20
4.525654070920055
 30
0.0
 11
2.1402339038619029
 21
4.5774002923940547
 31
0.0
  0
LINE
  5
1F4
100
AcDbEntity
100
AcDbLine
  8
0
 62
256
370
-1
  6
BYLAYER
 10
2.0985461289147462
 20
4.5155956243932351
 30
0.0
 11
2.1502923503887343
 21
4.525654070920055
 31
0.0
  0
LINE
  5
1F5
100
AcDbEntity
100
AcDbLine
  8
0
 62
256
370
-1
  6
BYLAYER
 10
2.1402339038619145
 20
4.5774002923940511
 30
0.0
 11
2.1872030808701171
 21
4.6013322834215362
 31
0.0
  0
LINE
  5
1F6
100
AcDbEntity
100
AcDbLine
  8
0
 62
256
370
-1
  6
BYLAYER
 10
1.9416083477312498
 20
4.3952538334256248
 30
0.0
 11
1.9733328700341377
 21
4.4373536964660598
 31
0.0
  0
LINE
  5
1F7
100
AcDbEntity
100
AcDbLine
  8
0
 62
256
370
-1
  6
BYLAYER
 10
2.0225463192212598
 20
4.4184624232830689
 30
0.0
 11
2.0414375924042423
 21
4.4676758724702115
 31
0.0
  0
LINE
  5
1F8
100
AcDbEntity
100
AcDbLine
  8
0
 62
256
370
-1
  6
BYLAYER
 10
1.9733328700341377
 20
4.4373536964660518
 30
0.0
 11
2.0225463192212598
 21
4.4184624232830689
 31
0.0
  0
LINE
  5
1F9
100
AcDbEntity
100
AcDbLine
  8
0
 62
256
370
-1
  6
BYLAYER
 10
2.0414375924042498
 20
4.467675872470199
 30
0.0
 11
2.0939517366210141
 21
4.4630814801764629
 31
0.0
  0
LINE
  5
1FA
100
AcDbEntity
100
AcDbLine
  8
0
 62
256
370
-1
  6
BYLAYER
 10
1.8995084846908383
 20
4.426978355728509
 30
0.0
 11
1.9416083477312498
 21
4.3952538334256248
 31
0.0
  0
LINE
  5
1FB
100
AcDbEntity
100
AcDbLine
  8
0
 62
256
370
-1
  6
BYLAYER
 10
1.8622335347688814
 20
4.4295848741419022
 30
0.0
 11
1.8793422474767703
 21
4.3892411617527705
 31
0.0
  0
LINE
  5
1FC
100
AcDbEntity
100
AcDbLine
  8
0
 62
256
370
-1
  6
BYLAYER
 10
1.8995084846908383
 20
4.426978355728509
 30
0.0
 11
1.8793422474767703
 21
4.3892411617527705
 31
0.0
  0
LINE
  5
1FD
100
AcDbEntity
100
AcDbLine
  8
0
 62
256
370
-1
  6
BYLAYER
 10
1.7392079072602882
 20
4.4382753751326334
 30
0.0
 11
1.7905715716129027
 21
4.4501336114113013
 31
0.0
  0
LINE
  5
1FE
100
AcDbEntity
100
AcDbLine
  8
0
 62
256
370
-1
  6
BYLAYER
 10
1.8161281845561905
 20
4.404028261198615
 30
0.0
 11
1.8622335347688814
 21
4.4295848741419146
 31
0.0
  0
LINE
  5
1FF
100
AcDbEntity
100
AcDbLine
  8
0
 62
256
370
-1
  6
BYLAYER
 10
1.7905715716128987
 20
4.4501336114112977
 30
0.0
 11
1.8161281845561905
 21
4.404028261198615
 31
0.0
  0
ARC
  5
200
100
AcDbEntity
  8
0
 62
256
370
-1
  6
BYLAYER
100
AcDbCircle
 10
3.9495095387348726
 20
4.6948047171022393
 30
0.0
 40
0.3
100
AcDbArc
 50
269.9999999999986358
 51
89.99999999999865
  0
LINE
  5
201
100
AcDbEntity
100
AcDbLine
  8
0
 62
256
370
-1
  6
BYLAYER
 10
1.7273496709816203
 20
4.4896390394852368
 30
0.0
 11
1.7392079072602882
 21
4.4382753751326334
 31
0.0
  0
POINT
  5
202
100
AcDbEntity
100
AcDbPoint
  8
0
 62
256
370
-1
  6
BYLAYER
 10
3.9495095387348726
 20
4.6948047171022393
 30
0.0
  0
LINE
  5
203
100
AcDbEntity
100
AcDbLine
  8
0
 62
256
370
-1
  6
BYLAYER
 10
1.0190353686843765
 20
4.7942578588529621
 30
0.0
 11
1.6190353686843764
 21
4.7942578588529621
 31
0.0
  0
LINE
  5
204
100
AcDbEntity
100
AcDbLine
  8
0
 62
256
370
-1
  6
BYLAYER
 10
1.0190353686843765
 20
4.5742578588529588
 30
0.0
 11
1.6276232856853323
 21
4.5742578588529588
 31
0.0
  0
LINE
  5
205
100
AcDbEntity
100
AcDbLine
  8
0
 62
256
370
-1
  6
BYLAYER
 10
1.6276232856853323
 20
4.5742578588529588
 30
0.0
 11
1.6774660512950823
 21
4.545040411794095
 31
0.0
  0
LINE
  5
206
100
AcDbEntity
100
AcDbLine
  8
0
 62
256
370
-1
  6
BYLAYER
 10
1.6747071749839222
 20
4.4923979157964009
 30
0.0
 11
1.7273496709816243
 21
4.4896390394852483
 31
0.0
  0
LINE
  5
207
100
AcDbEntity
100
AcDbLine
  8
0
 62
256
370
-1
  6
BYLAYER
 10
1.6774660512950745
 20
4.545040411794095
 30
0.0
 11
1.6747071749839222
 21
4.4923979157964009
 31
0.0
  0
LINE
  5
208
100
AcDbEntity
100
AcDbLine
  8
0
 62
256
370
-1
  6
BYLAYER
 10
1.6611352317247956
 20
4.8810475205059678
 30
0.0
 11
1.6675595424418077
 21
4.8287257084656696
 31
0.0
  0
LINE
  5
209
100
AcDbEntity
100
AcDbLine
  8
0
 62
256
370
-1
  6
BYLAYER
 10
1.6675595424418037
 20
4.8287257084656776
 30
0.0
 11
1.6190353686843764
 21
4.7942578588529621
 31
0.0
  0
LINE
  5
20A
100
AcDbEntity
100
AcDbLine
  8
0
 62
256
370
-1
  6
BYLAYER
 10
1.7134570437650745
 20
4.8874718312229763
 30
0.0
 11
1.6611352317247956
 21
4.8810475205059678
 31
0.0
  0
LINE
  5
20B
100
AcDbEntity
100
AcDbLine
  8
0
 62
256
370
-1
  6
BYLAYER
 10
1.7960473913348163
 20
4.9790669420076954
 30
0.0
 11
1.7737691796677524
 21
4.9312911629110996
 31
0.0
  0
LINE
  5
20C
100
AcDbEntity
100
AcDbLine
  8
0
 62
256
370
-1
  6
BYLAYER
 10
1.0190353686843765
 20
4.2742578588529589
 30
0.0
 11
1.0190353686843765
 21
4.5742578588529588
 31
0.0
  0
LINE
  5
20D
100
AcDbEntity
100
AcDbLine
  8
0
 62
256
370
-1
  6
BYLAYER
 10
1.7217034458723575
 20
4.9395375650183748
 30
0.0
 11
1.71345704376509
 21
4.8874718312229728
 31
0.0
  0
LINE
  5
20E
100
AcDbEntity
100
AcDbLine
  8
0
 62
256
370
-1
  6
BYLAYER
 10
1.0190353686843765
 20
4.7942578588529621
 30
0.0
 11
1.0190353686843765
 21
5.0942578588529619
 31
0.0
  0
LINE
  5
20F
100
AcDbEntity
100
AcDbLine
  8
0
 62
256
370
-1
  6
BYLAYER
 10
1.7737691796677524
 20
4.9312911629111076
 30
0.0
 11
1.7217034458723575
 21
4.9395375650183748
 31
0.0
  0
LINE
  5
210
100
AcDbEntity
100
AcDbLine
  8
0
 62
256
370
-1
  6
BYLAYER
 10
1.0190353686843765
 20
5.0942578588529619
 30
0.0
 11
1.1242101264912705
 21
5.0942578588529619
 31
0.0
  0
LINE
  5
211
100
AcDbEntity
100
AcDbLine
  8
0
 62
256
370
-1
  6
BYLAYER
 10
1.8438231704313925
 20
4.9567887303406355
 30
0.0
 11
1.7960473913348163
 21
4.9790669420076954
 31
0.0
  0
LINE
  5
212
100
AcDbEntity
100
AcDbLine
  8
0
 62
256
370
-1
  6
BYLAYER
 10
1.0190353686843765
 20
4.2742578588529589
 30
0.0
 11
1.1364954318871525
 21
4.2742578588529589
 31
0.0
  0
LINE
  5
213
100
AcDbEntity
100
AcDbLine
  8
0
 62
256
370
-1
  6
BYLAYER
 10
1.9624017711632047
 20
4.990699573441935
 30
0.0
 11
1.9181914704661431
 21
4.9619890684717181
 31
0.0
  0
LINE
  5
214
100
AcDbEntity
100
AcDbLine
  8
0
 62
256
370
-1
  6
BYLAYER
 10
1.4835084889642169
 20
4.1950781819696354
 30
0.0
 11
1.6600894179114825
 21
4.1100696354423203
 31
0.0
  0
LINE
  5
215
100
AcDbEntity
100
AcDbLine
  8
0
 62
256
370
-1
  6
BYLAYER
 10
1.8784071513832283
 20
4.9965730494235538
 30
0.0
 11
1.8438231704314003
 21
4.9567887303406275
 31
0.0
  0
LINE
  5
216
100
AcDbEntity
100
AcDbLine
  8
0
 62
256
370
-1
  6
BYLAYER
 10
2.1603087653525188
 20
4.0456970952490261
 30
0.0
 11
3.9495095387348655
 21
4.3948047171022395
 31
0.0
  0
LINE
  5
217
100
AcDbEntity
100
AcDbLine
  8
0
 62
256
370
-1
  6
BYLAYER
 10
1.9181914704661469
 20
4.9619890684717252
 30
0.0
 11
1.8784071513832283
 21
4.9965730494235538
 31
0.0
  0
LINE
  5
218
100
AcDbEntity
100
AcDbLine
  8
0
 62
256
370
-1
  6
BYLAYER
 10
3.9495095387348798
 20
4.9948047171022392
 30
0.0
 11
2.1730556317685616
 21
5.3414342037502358
 31
0.0
  0
LINE
  5
219
100
AcDbEntity
100
AcDbLine
  8
0
 62
256
370
-1
  6
BYLAYER
 10
1.9911122761334061
 20
4.946489272744893
 30
0.0
 11
1.9624017711632047
 21
4.990699573441935
 31
0.0
  0
LINE
  5
21A
100
AcDbEntity
100
AcDbLine
  8
0
 62
256
370
-1
  6
BYLAYER
 10
1.6520104355667118
 20
5.2666626460991059
 30
0.0
 11
1.492045189759555
 21
5.1838373029634122
 31
0.0
  0
LINE
  5
21B
100
AcDbEntity
100
AcDbLine
  8
0
 62
256
370
-1
  6
BYLAYER
 10
2.1096426417546796
 20
4.9124102138223993
 30
0.0
 11
2.0569359307484518
 21
4.9114902147596364
 31
0.0
  0
ARC
  5
21C
100
AcDbEntity
  8
0
 62
256
370
-1
  6
BYLAYER
100
AcDbCircle
 10
2.0071024749885469
 20
4.8308899585589975
 30
0.0
 40
0.8
100
AcDbArc
 50
244.2931810605280987
 51
281.0407944460133649
  0
LINE
  5
21D
100
AcDbEntity
100
AcDbLine
  8
0
 62
256
370
-1
  6
BYLAYER
 10
2.0415236324335613
 20
4.96190157105978
 30
0.0
 11
1.9911122761334061
 21
4.946489272744877
 31
0.0
  0
ARC
  5
21E
100
AcDbEntity
  8
0
 62
256
370
-1
  6
BYLAYER
100
AcDbCircle
 10
2.0198454988349965
 20
4.5562420902095555
 30
0.0
 40
0.8
100
AcDbArc
 50
78.9589251602954221
 51
117.3738044715262987
  0
LINE
  5
21F
100
AcDbEntity
100
AcDbLine
  8
0
 62
256
370
-1
  6
BYLAYER
 10
2.0569359307484598
 20
4.91149021475964
 30
0.0
 11
2.0415236324335613
 21
4.96190157105978
 31
0.0
  0
ARC
  5
220
100
AcDbEntity
  8
0
 62
256
370
-1
  6
BYLAYER
100
AcDbCircle
 10
1.1242101264912705
 20
5.8942578588529617
 30
0.0
 40
0.8
100
AcDbArc
 50
270.0
 51
297.3738044715262845
  0
ARC
  5
221
100
AcDbEntity
  8
0
 62
256
370
-1
  6
BYLAYER
100
AcDbCircle
 10
1.1364954318871525
 20
3.4742578588529587
 30
0.0
 40
0.8
100
AcDbArc
 50
64.2931810605281129
 51
90.0
  0
LINE
  5
222
100
AcDbEntity
100
AcDbLine
  8
0
 62
256
370
-1
  6
BYLAYER
 10
2.1930229418893239
 20
4.7679912976388579
 30
0.0
 11
2.1478375907393881
 21
4.7951413957017861
 31
0.0
  0
POINT
  5
223
100
AcDbEntity
100
AcDbPoint
  8
0
 62
256
370
-1
  6
BYLAYER
 10
1.8995084846908306
 20
4.6948099242199559
 30
0.0
  0
LINE
  5
224
100
AcDbEntity
100
AcDbLine
  8
0
 62
256
370
-1
  6
BYLAYER
 10
2.161481169335624
 20
4.8460599242199551
 30
0.0
 11
2.1105626408174354
 21
4.859703502816183
 31
0.0
  0
LINE
  5
225
100
AcDbEntity
100
AcDbLine
  8
0
 62
256
370
-1
  6
BYLAYER
 10
5.8846903342385541
 20
4.8691384797314727
 30
0.0
 11
5.898333912834782
 21
4.9200570082496418
 31
0.0
  0
LINE
  5
226
100
AcDbEntity
100
AcDbLine
  8
0
 62
256
370
-1
  6
BYLAYER
 10
5.8474153843166015
 20
4.9337005868458812
 30
0.0
 11
5.8464953852538377
 21
4.9864072978520859
 31
0.0
  0
LINE
  5
227
100
AcDbEntity
100
AcDbLine
  8
0
 62
256
370
-1
  6
BYLAYER
 10
5.9240558243692751
 20
4.6753293674512229
 30
0.0
 11
5.9001238333417785
 21
4.7222985444594361
 31
0.0
  0
LINE
  5
228
100
AcDbEntity
100
AcDbLine
  8
0
 62
256
370
-1
  6
BYLAYER
 10
5.9386769533632657
 20
4.7582499104971365
 30
0.0
 11
5.9027255873255493
 21
4.7968030305186247
 31
0.0
  0
LINE
  5
229
100
AcDbEntity
100
AcDbLine
  8
0
 62
256
370
-1
  6
BYLAYER
 10
5.90012383334179
 20
4.7222985444594325
 30
0.0
 11
5.9386769533632657
 21
4.7582499104971365
 31
0.0
  0
LINE
  5
22A
100
AcDbEntity
100
AcDbLine
  8
0
 62
256
370
-1
  6
BYLAYER
 10
5.9027255873255609
 20
4.7968030305186282
 30
0.0
 11
5.929875685388482
 21
4.8419883816685445
 31
0.0
  0
LINE
  5
22B
100
AcDbEntity
100
AcDbLine
  8
0
 62
256
370
-1
  6
BYLAYER
 10
5.8308044801201717
 20
4.5370785642061495
 30
0.0
 11
5.8353988724139008
 21
4.5895927084229289
 31
0.0
  0
LINE
  5
22C
100
AcDbEntity
100
AcDbLine
  8
0
 62
256
370
-1
  6
BYLAYER
 10
5.8871450938878924
 20
4.5996511549497416
 30
0.0
 11
5.877086647361061
 21
4.6513973764237413
 31
0.0
  0
LINE
  5
22D
100
AcDbEntity
100
AcDbLine
  8
0
 62
256
370
-1
  6
BYLAYER
 10
5.8353988724139043
 20
4.5895927084229218
 30
0.0
 11
5.8871450938878924
 21
4.5996511549497416
 31
0.0
  0
LINE
  5
22E
100
AcDbEntity
100
AcDbLine
  8
0
 62
256
370
-1
  6
BYLAYER
 10
5.8770866473610726
 20
4.6513973764237377
 30
0.0
 11
5.9240558243692751
 21
4.6753293674512229
 31
0.0
  0
LINE
  5
22F
100
AcDbEntity
100
AcDbLine
  8
0
 62
256
370
-1
  6
BYLAYER
 10
5.6784610912304077
 20
4.4692509174553114
 30
0.0
 11
5.7101856135332962
 21
4.5113507804957464
 31
0.0
  0
LINE
  5
230
100
AcDbEntity
100
AcDbLine
  8
0
 62
256
370
-1
  6
BYLAYER
 10
5.7593990627204175
 20
4.4924595073127556
 30
0.0
 11
5.7782903359034004
 21
4.5416729564998981
 31
0.0
  0
LINE
  5
231
100
AcDbEntity
100
AcDbLine
  8
0
 62
256
370
-1
  6
BYLAYER
 10
5.7101856135332962
 20
4.5113507804957385
 30
0.0
 11
5.7593990627204175
 21
4.4924595073127556
 31
0.0
  0
LINE
  5
232
100
AcDbEntity
100
AcDbLine
  8
0
 62
256
370
-1
  6
BYLAYER
 10
5.7782903359034083
 20
4.5416729564998857
 30
0.0
 11
5.8308044801201717
 21
4.5370785642061495
 31
0.0
  0
LINE
  5
233
100
AcDbEntity
100
AcDbLine
  8
0
 62
256
370
-1
  6
BYLAYER
 10
5.6363612281899966
 20
4.5009754397581956
 30
0.0
 11
5.6784610912304077
 21
4.4692509174553114
 31
0.0
  0
LINE
  5
234
100
AcDbEntity
100
AcDbLine
  8
0
 62
256
370
-1
  6
BYLAYER
 10
5.5990862782680395
 20
4.5035819581715888
 30
0.0
 11
5.6161949909759281
 21
4.4632382457824571
 31
0.0
  0
LINE
  5
235
100
AcDbEntity
100
AcDbLine
  8
0
 62
256
370
-1
  6
BYLAYER
 10
5.6363612281899966
 20
4.5009754397581956
 30
0.0
 11
5.6161949909759281
 21
4.4632382457824571
 31
0.0
  0
LINE
  5
236
100
AcDbEntity
100
AcDbLine
  8
0
 62
256
370
-1
  6
BYLAYER
 10
5.4760606507594467
 20
4.51227245916232
 30
0.0
 11
5.5274243151120608
 21
4.5241306954409879
 31
0.0
  0
LINE
  5
237
100
AcDbEntity
100
AcDbLine
  8
0
 62
256
370
-1
  6
BYLAYER
 10
5.5529809280553488
 20
4.4780253452283016
 30
0.0
 11
5.5990862782680395
 21
4.5035819581716012
 31
0.0
  0
LINE
  5
238
100
AcDbEntity
100
AcDbLine
  8
0
 62
256
370
-1
  6
BYLAYER
 10
5.5274243151120572
 20
4.5241306954409843
 30
0.0
 11
5.5529809280553488
 21
4.4780253452283016
 31
0.0
  0
ARC
  5
239
100
AcDbEntity
  8
0
 62
256
370
-1
  6
BYLAYER
100
AcDbCircle
 10
7.6863622822340307
 20
4.768801801131926
 30
0.0
 40
0.3
100
AcDbArc
 50
269.9999999999986358
 51
89.99999999999865
  0
LINE
  5
23A
100
AcDbEntity
100
AcDbLine
  8
0
 62
256
370
-1
  6
BYLAYER
 10
5.4642024144807788
 20
4.5636361235149234
 30
0.0
 11
5.4760606507594467
 21
4.51227245916232
 31
0.0
  0
POINT
  5
23B
100
AcDbEntity
100
AcDbPoint
  8
0
 62
256
370
-1
  6
BYLAYER
 10
7.6863622822340307
 20
4.768801801131926
 30
0.0
  0
LINE
  5
23C
100
AcDbEntity
100
AcDbLine
  8
0
 62
256
370
-1
  6
BYLAYER
 10
4.7558881121835341
 20
4.8682549428826487
 30
0.0
 11
5.3558881121835347
 21
4.8682549428826487
 31
0.0
  0
LINE
  5
23D
100
AcDbEntity
100
AcDbLine
  8
0
 62
256
370
-1
  6
BYLAYER
 10
4.7558881121835341
 20
4.6482549428826454
 30
0.0
 11
5.3644760291844902
 21
4.6482549428826454
 31
0.0
  0
LINE
  5
23E
100
AcDbEntity
100
AcDbLine
  8
0
 62
256
370
-1
  6
BYLAYER
 10
5.3644760291844902
 20
4.6482549428826454
 30
0.0
 11
5.4143187947942408
 21
4.6190374958237816
 31
0.0
  0
LINE
  5
23F
100
AcDbEntity
100
AcDbLine
  8
0
 62
256
370
-1
  6
BYLAYER
 10
5.4115599184830803
 20
4.5663949998260875
 30
0.0
 11
5.4642024144807824
 21
4.563636123514935
 31
0.0
  0
LINE
  5
240
100
AcDbEntity
100
AcDbLine
  8
0
 62
256
370
-1
  6
BYLAYER
 10
5.4143187947942328
 20
4.6190374958237816
 30
0.0
 11
5.4115599184830803
 21
4.5663949998260875
 31
0.0
  0
LINE
  5
241
100
AcDbEntity
100
AcDbLine
  8
0
 62
256
370
-1
  6
BYLAYER
 10
5.3979879752239537
 20
4.9550446045356544
 30
0.0
 11
5.4044122859409658
 21
4.9027227924953563
 31
0.0
  0
LINE
  5
242
100
AcDbEntity
100
AcDbLine
  8
0
 62
256
370
-1
  6
BYLAYER
 10
5.4044122859409622
 20
4.9027227924953642
 30
0.0
 11
5.3558881121835347
 21
4.8682549428826487
 31
0.0
  0
LINE
  5
243
100
AcDbEntity
100
AcDbLine
  8
0
 62
256
370
-1
  6
BYLAYER
 10
5.4503097872642323
 20
4.961468915252663
 30
0.0
 11
5.3979879752239537
 21
4.9550446045356544
 31
0.0
  0
LINE
  5
244
100
AcDbEntity
100
AcDbLine
  8
0
 62
256
370
-1
  6
BYLAYER
 10
5.5329001348339748
 20
5.053064026037382
 30
0.0
 11
5.5106219231669105
 21
5.0052882469407862
 31
0.0
  0
LINE
  5
245
100
AcDbEntity
100
AcDbLine
  8
0
 62
256
370
-1
  6
BYLAYER
 10
4.7558881121835341
 20
4.3482549428826456
 30
0.0
 11
4.7558881121835341
 21
4.6482549428826454
 31
0.0
  0
LINE
  5
246
100
AcDbEntity
100
AcDbLine
  8
0
 62
256
370
-1
  6
BYLAYER
 10
5.4585561893715155
 20
5.0135346490480615
 30
0.0
 11
5.4503097872642483
 21
4.9614689152526594
 31
0.0
  0
LINE
  5
247
100
AcDbEntity
100
AcDbLine
  8
0
 62
256
370
-1
  6
BYLAYER
 10
4.7558881121835341
 20
4.8682549428826487
 30
0.0
 11
4.7558881121835341
 21
5.1682549428826485
 31
0.0
  0
LINE
  5
248
100
AcDbEntity
100
AcDbLine
  8
0
 62
256
370
-1
  6
BYLAYER
 10
5.5106219231669105
 20
5.0052882469407942
 30
0.0
 11
5.4585561893715155
 21
5.0135346490480615
 31
0.0
  0
LINE
  5
249
100
AcDbEntity
100
AcDbLine
  8
0
 62
256
370
-1
  6
BYLAYER
 10
4.7558881121835341
 20
5.1682549428826485
 30
0.0
 11
4.8610628699904286
 21
5.1682549428826485
 31
0.0
  0
LINE
  5
24A
100
AcDbEntity
100
AcDbLine
  8
0
 62
256
370
-1
  6
BYLAYER
 10
5.5806759139305502
 20
5.0307858143703221
 30
0.0
 11
5.5329001348339748
 21
5.053064026037382
 31
0.0
  0
LINE
  5
24B
100
AcDbEntity
100
AcDbLine
  8
0
 62
256
370
-1
  6
BYLAYER
 10
4.7558881121835341
 20
4.3482549428826456
 30
0.0
 11
4.8733481753863108
 21
4.3482549428826456
 31
0.0
  0
LINE
  5
24C
100
AcDbEntity
100
AcDbLine
  8
0
 62
256
370
-1
  6
BYLAYER
 10
5.6992545146623623
 20
5.0646966574716217
 30
0.0
 11
5.6550442139653008
 21
5.0359861525014047
 31
0.0
  0
LINE
  5
24D
100
AcDbEntity
100
AcDbLine
  8
0
 62
256
370
-1
  6
BYLAYER
 10
5.2203612324633752
 20
4.2690752659993221
 30
0.0
 11
5.3969421614106405
 21
4.1840667194720069
 31
0.0
  0
LINE
  5
24E
100
AcDbEntity
100
AcDbLine
  8
0
 62
256
370
-1
  6
BYLAYER
 10
5.6152598948823869
 20
5.0705701334532405
 30
0.0
 11
5.5806759139305582
 21
5.0307858143703141
 31
0.0
  0
LINE
  5
24F
100
AcDbEntity
100
AcDbLine
  8
0
 62
256
370
-1
  6
BYLAYER
 10
5.8971615088516769
 20
4.1196941792787127
 30
0.0
 11
7.6863622822340236
 21
4.4688018011319262
 31
0.0
  0
LINE
  5
250
100
AcDbEntity
100
AcDbLine
  8
0
 62
256
370
-1
  6
BYLAYER
 10
5.6550442139653052
 20
5.0359861525014118
 30
0.0
 11
5.6152598948823869
 21
5.0705701334532405
 31
0.0
  0
LINE
  5
251
100
AcDbEntity
100
AcDbLine
  8
0
 62
256
370
-1
  6
BYLAYER
 10
7.6863622822340378
 20
5.0688018011319258
 30
0.0
 11
5.9099083752677197
 21
5.4154312877799224
 31
0.0
  0
LINE
  5
252
100
AcDbEntity
100
AcDbLine
  8
0
 62
256
370
-1
  6
BYLAYER
 10
5.7279650196325642
 20
5.0204863567745797
 30
0.0
 11
5.6992545146623623
 21
5.0646966574716217
 31
0.0
  0
LINE
  5
253
100
AcDbEntity
100
AcDbLine
  8
0
 62
256
370
-1
  6
BYLAYER
 10
5.3888631790658703
 20
5.3406597301287926
 30
0.0
 11
5.2288979332587129
 21
5.2578343869930988
 31
0.0
  0
LINE
  5
254
100
AcDbEntity
100
AcDbLine
  8
0
 62
256
370
-1
  6
BYLAYER
 10
5.8464953852538377
 20
4.9864072978520859
 30
0.0
 11
5.7937886742476099
 21
4.9854872987893231
 31
0.0
  0
ARC
  5
255
100
AcDbEntity
  8
0
 62
256
370
-1
  6
BYLAYER
100
AcDbCircle
 10
5.743955218487705
 20
4.9048870425886841
 30
0.0
 40
0.8
100
AcDbArc
 50
244.2931810605280987
 51
281.0407944460133649
  0
LINE
  5
256
100
AcDbEntity
100
AcDbLine
  8
0
 62
256
370
-1
  6
BYLAYER
 10
5.7783763759327194
 20
5.0358986550894667
 30
0.0
 11
5.7279650196325642
 21
5.0204863567745637
 31
0.0
  0
ARC
  5
257
100
AcDbEntity
  8
0
 62
256
370
-1
  6
BYLAYER
100
AcDbCircle
 10
5.7566982423341546
 20
4.6302391742392421
 30
0.0
 40
0.8
100
AcDbArc
 50
78.9589251602954221
 51
117.3738044715262987
  0
LINE
  5
258
100
AcDbEntity
100
AcDbLine
  8
0
 62
256
370
-1
  6
BYLAYER
 10
5.7937886742476179
 20
4.9854872987893266
 30
0.0
 11
5.7783763759327194
 21
5.0358986550894667
 31
0.0
  0
ARC
  5
259
100
AcDbEntity
  8
0
 62
256
370
-1
  6
BYLAYER
100
AcDbCircle
 10
4.8610628699904286
 20
5.9682549428826484
 30
0.0
 40
0.8
100
AcDbArc
 50
270.0
 51
297.3738044715262845
  0
ARC
  5
25A
100
AcDbEntity
  8
0
 62
256
370
-1
  6
BYLAYER
100
AcDbCircle
 10
4.8733481753863108
 20
3.5482549428826453
 30
0.0
 40
0.8
100
AcDbArc
 50
64.2931810605281129
 51
90.0
  0
LINE
  5
25B
100
AcDbEntity
100
AcDbLine
  8
0
 62
256
370
-1
  6
BYLAYER
 10
5.929875685388482
 20
4.8419883816685445
 30
0.0
 11
5.8846903342385461
 21
4.8691384797314727
 31
0.0
  0
POINT
  5
25C
100
AcDbEntity
100
AcDbPoint
  8
0
 62
256
370
-1
  6
BYLAYER
 10
5.6363612281899886
 20
4.7688070082496425
 30
0.0
  0
LINE
  5
25D
100
AcDbEntity
100
AcDbLine
  8
0
 62
256
370
-1
  6
BYLAYER
 10
5.898333912834782
 20
4.9200570082496418
 30
0.0
 11
5.8474153843165935
 21
4.9337005868458697
 31
0.0
  0
LINE
  5
25E
100
AcDbEntity
100
AcDbLine
  8
0
 62
256
370
-1
  6
BYLAYER
 10
2.1293383197319757
 20
6.5340728703994131
 30
0.0
 11
2.1429818983282036
 21
6.5849913989175821
 31
0.0
  0
LINE
  5
25F
100
AcDbEntity
100
AcDbLine
  8
0
 62
256
370
-1
  6
BYLAYER
 10
2.0920633698100226
 20
6.5986349775138216
 30
0.0
 11
2.0911433707472593
 21
6.6513416885200263
 31
0.0
  0
LINE
  5
260
100
AcDbEntity
100
AcDbLine
  8
0
 62
256
370
-1
  6
BYLAYER
 10
2.1687038098626967
 20
6.3402637581191632
 30
0.0
 11
2.1447718188351996
 21
6.3872329351273773
 31
0.0
  0
LINE
  5
261
100
AcDbEntity
100
AcDbLine
  8
0
 62
256
370
-1
  6
BYLAYER
 10
2.1833249388566873
 20
6.4231843011650778
 30
0.0
 11
2.1473735728189709
 21
6.461737421186565
 31
0.0
  0
LINE
  5
262
100
AcDbEntity
100
AcDbLine
  8
0
 62
256
370
-1
  6
BYLAYER
 10
2.1447718188352116
 20
6.3872329351273729
 30
0.0
 11
2.1833249388566873
 21
6.4231843011650778
 31
0.0
  0
LINE
  5
263
100
AcDbEntity
100
AcDbLine
  8
0
 62
256
370
-1
  6
BYLAYER
 10
2.1473735728189829
 20
6.4617374211865686
 30
0.0
 11
2.1745236708819036
 21
6.5069227723364849
 31
0.0
  0
LINE
  5
264
100
AcDbEntity
100
AcDbLine
  8
0
 62
256
370
-1
  6
BYLAYER
 10
2.0754524656135938
 20
6.2020129548740899
 30
0.0
 11
2.0800468579073219
 21
6.2545270990908701
 31
0.0
  0
LINE
  5
265
100
AcDbEntity
100
AcDbLine
  8
0
 62
256
370
-1
  6
BYLAYER
 10
2.131793079381314
 20
6.264585545617682
 30
0.0
 11
2.1217346328544826
 21
6.3163317670916816
 31
0.0
  0
LINE
  5
266
100
AcDbEntity
100
AcDbLine
  8
0
 62
256
370
-1
  6
BYLAYER
 10
2.0800468579073259
 20
6.2545270990908621
 30
0.0
 11
2.131793079381314
 21
6.264585545617682
 31
0.0
  0
LINE
  5
267
100
AcDbEntity
100
AcDbLine
  8
0
 62
256
370
-1
  6
BYLAYER
 10
2.1217346328544942
 20
6.3163317670916781
 30
0.0
 11
2.1687038098626967
 21
6.3402637581191632
 31
0.0
  0
LINE
  5
268
100
AcDbEntity
100
AcDbLine
  8
0
 62
256
370
-1
  6
BYLAYER
 10
1.9231090767238295
 20
6.1341853081232518
 30
0.0
 11
1.9548335990267174
 21
6.1762851711636868
 31
0.0
  0
LINE
  5
269
100
AcDbEntity
100
AcDbLine
  8
0
 62
256
370
-1
  6
BYLAYER
 10
2.0040470482138395
 20
6.1573938979806968
 30
0.0
 11
2.0229383213968219
 21
6.2066073471678376
 31
0.0
  0
LINE
  5
26A
100
AcDbEntity
100
AcDbLine
  8
0
 62
256
370
-1
  6
BYLAYER
 10
1.9548335990267174
 20
6.1762851711636788
 30
0.0
 11
2.0040470482138395
 21
6.1573938979806968
 31
0.0
  0
LINE
  5
26B
100
AcDbEntity
100
AcDbLine
  8
0
 62
256
370
-1
  6
BYLAYER
 10
2.0229383213968295
 20
6.206607347167826
 30
0.0
 11
2.0754524656135938
 21
6.2020129548740899
 31
0.0
  0
LINE
  5
26C
100
AcDbEntity
100
AcDbLine
  8
0
 62
256
370
-1
  6
BYLAYER
 10
1.881009213683418
 20
6.1659098304261359
 30
0.0
 11
1.9231090767238295
 21
6.1341853081232518
 31
0.0
  0
LINE
  5
26D
100
AcDbEntity
100
AcDbLine
  8
0
 62
256
370
-1
  6
BYLAYER
 10
1.8437342637614611
 20
6.16851634883953
 30
0.0
 11
1.8608429764693499
 21
6.1281726364503974
 31
0.0
  0
LINE
  5
26E
100
AcDbEntity
100
AcDbLine
  8
0
 62
256
370
-1
  6
BYLAYER
 10
1.881009213683418
 20
6.1659098304261359
 30
0.0
 11
1.8608429764693499
 21
6.1281726364503974
 31
0.0
  0
LINE
  5
26F
100
AcDbEntity
100
AcDbLine
  8
0
 62
256
370
-1
  6
BYLAYER
 10
1.7207086362528679
 20
6.1772068498302612
 30
0.0
 11
1.7720723006054824
 21
6.1890650861089291
 31
0.0
  0
LINE
  5
270
100
AcDbEntity
100
AcDbLine
  8
0
 62
256
370
-1
  6
BYLAYER
 10
1.7976289135487702
 20
6.142959735896242
 30
0.0
 11
1.8437342637614611
 21
6.1685163488395416
 31
0.0
  0
LINE
  5
271
100
AcDbEntity
100
AcDbLine
  8
0
 62
256
370
-1
  6
BYLAYER
 10
1.7720723006054784
 20
6.1890650861089247
 30
0.0
 11
1.7976289135487702
 21
6.142959735896242
 31
0.0
  0
ARC
  5
272
100
AcDbEntity
  8
0
 62
256
370
-1
  6
BYLAYER
100
AcDbCircle
 10
3.9310102677274523
 20
6.4337361917998663
 30
0.0
 40
0.3
100
AcDbArc
 50
269.9999999999986358
 51
89.99999999999865
  0
LINE
  5
273
100
AcDbEntity
100
AcDbLine
  8
0
 62
256
370
-1
  6
BYLAYER
 10
1.7088503999742
 20
6.2285705141828638
 30
0.0
 11
1.7207086362528679
 21
6.1772068498302612
 31
0.0
  0
POINT
  5
274
100
AcDbEntity
100
AcDbPoint
  8
0
 62
256
370
-1
  6
BYLAYER
 10
3.9310102677274523
 20
6.4337361917998663
 30
0.0
  0
LINE
  5
275
100
AcDbEntity
100
AcDbLine
  8
0
 62
256
370
-1
  6
BYLAYER
 10
1.0005360976769562
 20
6.5331893335505891
 30
0.0
 11
1.600536097676956
 21
6.5331893335505891
 31
0.0
  0
LINE
  5
276
100
AcDbEntity
100
AcDbLine
  8
0
 62
256
370
-1
  6
BYLAYER
 10
1.0005360976769562
 20
6.3131893335505858
 30
0.0
 11
1.609124014677912
 21
6.3131893335505858
 31
0.0
  0
LINE
  5
277
100
AcDbEntity
100
AcDbLine
  8
0
 62
256
370
-1
  6
BYLAYER
 10
1.609124014677912
 20
6.3131893335505858
 30
0.0
 11
1.658966780287662
 21
6.283971886491722
 31
0.0
  0
LINE
  5
278
100
AcDbEntity
100
AcDbLine
  8
0
 62
256
370
-1
  6
BYLAYER
 10
1.6562079039765019
 20
6.2313293904940279
 30
0.0
 11
1.708850399974204
 21
6.2285705141828753
 31
0.0
  0
LINE
  5
279
100
AcDbEntity
100
AcDbLine
  8
0
 62
256
370
-1
  6
BYLAYER
 10
1.6589667802876542
 20
6.283971886491722
 30
0.0
 11
1.6562079039765019
 21
6.2313293904940279
 31
0.0
  0
LINE
  5
27A
100
AcDbEntity
100
AcDbLine
  8
0
 62
256
370
-1
  6
BYLAYER
 10
1.6426359607173753
 20
6.6199789952035948
 30
0.0
 11
1.6490602714343874
 21
6.5676571831632966
 31
0.0
  0
LINE
  5
27B
100
AcDbEntity
100
AcDbLine
  8
0
 62
256
370
-1
  6
BYLAYER
 10
1.6490602714343834
 20
6.5676571831633046
 30
0.0
 11
1.600536097676956
 21
6.5331893335505891
 31
0.0
  0
LINE
  5
27C
100
AcDbEntity
100
AcDbLine
  8
0
 62
256
370
-1
  6
BYLAYER
 10
1.6949577727576541
 20
6.6264033059206033
 30
0.0
 11
1.6426359607173753
 21
6.6199789952035948
 31
0.0
  0
LINE
  5
27D
100
AcDbEntity
100
AcDbLine
  8
0
 62
256
370
-1
  6
BYLAYER
 10
1.777548120327396
 20
6.7179984167053224
 30
0.0
 11
1.7552699086603321
 21
6.6702226376087266
 31
0.0
  0
LINE
  5
27E
100
AcDbEntity
100
AcDbLine
  8
0
 62
256
370
-1
  6
BYLAYER
 10
1.0005360976769562
 20
6.0131893335505859
 30
0.0
 11
1.0005360976769562
 21
6.3131893335505858
 31
0.0
  0
LINE
  5
27F
100
AcDbEntity
100
AcDbLine
  8
0
 62
256
370
-1
  6
BYLAYER
 10
1.7032041748649371
 20
6.6784690397160018
 30
0.0
 11
1.6949577727576697
 21
6.6264033059205989
 31
0.0
  0
LINE
  5
280
100
AcDbEntity
100
AcDbLine
  8
0
 62
256
370
-1
  6
BYLAYER
 10
1.0005360976769562
 20
6.5331893335505891
 30
0.0
 11
1.0005360976769562
 21
6.8331893335505889
 31
0.0
  0
LINE
  5
281
100
AcDbEntity
100
AcDbLine
  8
0
 62
256
370
-1
  6
BYLAYER
 10
1.7552699086603321
 20
6.6702226376087346
 30
0.0
 11
1.7032041748649371
 21
6.6784690397160018
 31
0.0
  0
LINE
  5
282
100
AcDbEntity
100
AcDbLine
  8
0
 62
256
370
-1
  6
BYLAYER
 10
1.0005360976769562
 20
6.8331893335505889
 30
0.0
 11
1.1057108554838502
 21
6.8331893335505889
 31
0.0
  0
LINE
  5
283
100
AcDbEntity
100
AcDbLine
  8
0
 62
256
370
-1
  6
BYLAYER
 10
1.8253238994239722
 20
6.6957202050382625
 30
0.0
 11
1.777548120327396
 21
6.7179984167053224
 31
0.0
  0
LINE
  5
284
100
AcDbEntity
100
AcDbLine
  8
0
 62
256
370
-1
  6
BYLAYER
 10
1.0005360976769562
 20
6.0131893335505859
 30
0.0
 11
1.1179961608797322
 21
6.0131893335505859
 31
0.0
  0
LINE
  5
285
100
AcDbEntity
100
AcDbLine
  8
0
 62
256
370
-1
  6
BYLAYER
 10
1.9439025001557844
 20
6.729631048139562
 30
0.0
 11
1.8996921994587228
 21
6.700920543169345
 31
0.0
  0
LINE
  5
286
100
AcDbEntity
100
AcDbLine
  8
0
 62
256
370
-1
  6
BYLAYER
 10
1.4650092179567966
 20
5.9340096566672624
 30
0.0
 11
1.6415901469040621
 21
5.8490011101399473
 31
0.0
  0
LINE
  5
287
100
AcDbEntity
100
AcDbLine
  8
0
 62
256
370
-1
  6
BYLAYER
 10
1.859907880375808
 20
6.7355045241211808
 30
0.0
 11
1.82532389942398
 21
6.6957202050382545
 31
0.0
  0
LINE
  5
288
100
AcDbEntity
100
AcDbLine
  8
0
 62
256
370
-1
  6
BYLAYER
 10
2.1418094943450985
 20
5.7846285699466531
 30
0.0
 11
3.9310102677274452
 21
6.1337361917998665
 31
0.0
  0
LINE
  5
289
100
AcDbEntity
100
AcDbLine
  8
0
 62
256
370
-1
  6
BYLAYER
 10
1.8996921994587266
 20
6.700920543169353
 30
0.0
 11
1.859907880375808
 21
6.7355045241211808
 31
0.0
  0
LINE
  5
28A
100
AcDbEntity
100
AcDbLine
  8
0
 62
256
370
-1
  6
BYLAYER
 10
3.9310102677274594
 20
6.7337361917998662
 30
0.0
 11
2.1545563607611413
 21
7.0803656784478619
 31
0.0
  0
LINE
  5
28B
100
AcDbEntity
100
AcDbLine
  8
0
 62
256
370
-1
  6
BYLAYER
 10
1.9726130051259858
 20
6.68542074744252
 30
0.0
 11
1.9439025001557844
 21
6.729631048139562
 31
0.0
  0
LINE
  5
28C
100
AcDbEntity
100
AcDbLine
  8
0
 62
256
370
-1
  6
BYLAYER
 10
1.6335111645592915
 20
7.0055941207967329
 30
0.0
 11
1.4735459187521347
 21
6.9227687776610392
 31
0.0
  0
LINE
  5
28D
100
AcDbEntity
100
AcDbLine
  8
0
 62
256
370
-1
  6
BYLAYER
 10
2.0911433707472593
 20
6.6513416885200263
 30
0.0
 11
2.0384366597410315
 21
6.6504216894572625
 31
0.0
  0
ARC
  5
28E
100
AcDbEntity
  8
0
 62
256
370
-1
  6
BYLAYER
100
AcDbCircle
 10
1.9886032039811266
 20
6.5698214332566245
 30
0.0
 40
0.8
100
AcDbArc
 50
244.2931810605280987
 51
281.0407944460133649
  0
LINE
  5
28F
100
AcDbEntity
100
AcDbLine
  8
0
 62
256
370
-1
  6
BYLAYER
 10
2.0230243614261409
 20
6.7008330457574061
 30
0.0
 11
1.9726130051259858
 21
6.685420747442504
 31
0.0
  0
ARC
  5
290
100
AcDbEntity
  8
0
 62
256
370
-1
  6
BYLAYER
100
AcDbCircle
 10
2.0013462278275762
 20
6.2951735649071825
 30
0.0
 40
0.8
100
AcDbArc
 50
78.9589251602954221
 51
117.3738044715262987
  0
LINE
  5
291
100
AcDbEntity
100
AcDbLine
  8
0
 62
256
370
-1
  6
BYLAYER
 10
2.0384366597410395
 20
6.650421689457267
 30
0.0
 11
2.0230243614261409
 21
6.7008330457574061
 31
0.0
  0
ARC
  5
292
100
AcDbEntity
  8
0
 62
256
370
-1
  6
BYLAYER
100
AcDbCircle
 10
1.1057108554838502
 20
7.6331893335505887
 30
0.0
 40
0.8
100
AcDbArc
 50
270.0
 51
297.3738044715262845
  0
ARC
  5
293
100
AcDbEntity
  8
0
 62
256
370
-1
  6
BYLAYER
100
AcDbCircle
 10
1.1179961608797322
 20
5.2131893335505861
 30
0.0
 40
0.8
100
AcDbArc
 50
64.2931810605281129
 51
90.0
  0
LINE
  5
294
100
AcDbEntity
100
AcDbLine
  8
0
 62
256
370
-1
  6
BYLAYER
 10
2.1745236708819036
 20
6.5069227723364849
 30
0.0
 11
2.1293383197319677
 21
6.5340728703994131
 31
0.0
  0
POINT
  5
295
100
AcDbEntity
100
AcDbPoint
  8
0
 62
256
370
-1
  6
BYLAYER
 10
1.8810092136834102
 20
6.4337413989175829
 30
0.0
  0
LINE
  5
296
100
AcDbEntity
100
AcDbLine
  8
0
 62
256
370
-1
  6
BYLAYER
 10
2.1429818983282036
 20
6.5849913989175821
 30
0.0
 11
2.0920633698100151
 21
6.59863497751381
 31
0.0
  0
LINE
  5
297
100
AcDbEntity
100
AcDbLine
  8
0
 62
256
370
-1
  6
BYLAYER
 10
5.7921939792014472
 20
6.645068496443943
 30
0.0
 11
5.8058375577976751
 21
6.6959870249621121
 31
0.0
  0
LINE
  5
298
100
AcDbEntity
100
AcDbLine
  8
0
 62
256
370
-1
  6
BYLAYER
 10
5.7549190292794936
 20
6.7096306035583515
 30
0.0
 11
5.7539990302167308
 21
6.7623373145645562
 31
0.0
  0
LINE
  5
299
100
AcDbEntity
100
AcDbLine
  8
0
 62
256
370
-1
  6
BYLAYER
 10
5.8315594693321682
 20
6.4512593841636932
 30
0.0
 11
5.8076274783046706
 21
6.4982285611719064
 31
0.0
  0
LINE
  5
29A
100
AcDbEntity
100
AcDbLine
  8
0
 62
256
370
-1
  6
BYLAYER
 10
5.8461805983261588
 20
6.5341799272096068
 30
0.0
 11
5.8102292322884423
 21
6.572733047231095
 31
0.0
  0
LINE
  5
29B
100
AcDbEntity
100
AcDbLine
  8
0
 62
256
370
-1
  6
BYLAYER
 10
5.8076274783046831
 20
6.4982285611719028
 30
0.0
 11
5.8461805983261588
 21
6.5341799272096068
 31
0.0
  0
LINE
  5
29C
100
AcDbEntity
100
AcDbLine
  8
0
 62
256
370
-1
  6
BYLAYER
 10
5.8102292322884548
 20
6.5727330472310985
 30
0.0
 11
5.837379330351375
 21
6.6179183983810148
 31
0.0
  0
LINE
  5
29D
100
AcDbEntity
100
AcDbLine
  8
0
 62
256
370
-1
  6
BYLAYER
 10
5.7383081250830656
 20
6.3130085809186198
 30
0.0
 11
5.7429025173767929
 21
6.3655227251353992
 31
0.0
  0
LINE
  5
29E
100
AcDbEntity
100
AcDbLine
  8
0
 62
256
370
-1
  6
BYLAYER
 10
5.7946487388507855
 20
6.3755811716622119
 30
0.0
 11
5.7845902923239541
 21
6.4273273931362116
 31
0.0
  0
LINE
  5
29F
100
AcDbEntity
100
AcDbLine
  8
0
 62
256
370
-1
  6
BYLAYER
 10
5.7429025173767974
 20
6.3655227251353921
 30
0.0
 11
5.7946487388507855
 21
6.3755811716622119
 31
0.0
  0
LINE
  5
2A0
100
AcDbEntity
100
AcDbLine
  8
0
 62
256
370
-1
  6
BYLAYER
 10
5.7845902923239656
 20
6.427327393136208
 30
0.0
 11
5.8315594693321682
 21
6.4512593841636932
 31
0.0
  0
LINE
  5
2A1
100
AcDbEntity
100
AcDbLine
  8
0
 62
256
370
-1
  6
BYLAYER
 10
5.5859647361933007
 20
6.2451809341677817
 30
0.0
 11
5.6176892584961884
 21
6.2872807972082168
 31
0.0
  0
LINE
  5
2A2
100
AcDbEntity
100
AcDbLine
  8
0
 62
256
370
-1
  6
BYLAYER
 10
5.6669027076833114
 20
6.2683895240252259
 30
0.0
 11
5.6857939808662934
 21
6.3176029732123684
 31
0.0
  0
LINE
  5
2A3
100
AcDbEntity
100
AcDbLine
  8
0
 62
256
370
-1
  6
BYLAYER
 10
5.6176892584961884
 20
6.2872807972082088
 30
0.0
 11
5.6669027076833114
 21
6.2683895240252259
 31
0.0
  0
LINE
  5
2A4
100
AcDbEntity
100
AcDbLine
  8
0
 62
256
370
-1
  6
BYLAYER
 10
5.6857939808663005
 20
6.317602973212356
 30
0.0
 11
5.7383081250830656
 21
6.3130085809186198
 31
0.0
  0
LINE
  5
2A5
100
AcDbEntity
100
AcDbLine
  8
0
 62
256
370
-1
  6
BYLAYER
 10
5.5438648731528897
 20
6.2769054564706659
 30
0.0
 11
5.5859647361933007
 21
6.2451809341677817
 31
0.0
  0
LINE
  5
2A6
100
AcDbEntity
100
AcDbLine
  8
0
 62
256
370
-1
  6
BYLAYER
 10
5.5065899232309325
 20
6.2795119748840591
 30
0.0
 11
5.5236986359388212
 21
6.2391682624949274
 31
0.0
  0
LINE
  5
2A7
100
AcDbEntity
100
AcDbLine
  8
0
 62
256
370
-1
  6
BYLAYER
 10
5.5438648731528897
 20
6.2769054564706659
 30
0.0
 11
5.5236986359388212
 21
6.2391682624949274
 31
0.0
  0
LINE
  5
2A8
100
AcDbEntity
100
AcDbLine
  8
0
 62
256
370
-1
  6
BYLAYER
 10
5.3835642957223389
 20
6.2882024758747903
 30
0.0
 11
5.4349279600749538
 21
6.3000607121534582
 31
0.0
  0
LINE
  5
2A9
100
AcDbEntity
100
AcDbLine
  8
0
 62
256
370
-1
  6
BYLAYER
 10
5.4604845730182419
 20
6.253955361940772
 30
0.0
 11
5.5065899232309325
 21
6.2795119748840715
 31
0.0
  0
LINE
  5
2AA
100
AcDbEntity
100
AcDbLine
  8
0
 62
256
370
-1
  6
BYLAYER
 10
5.4349279600749494
 20
6.3000607121534546
 30
0.0
 11
5.4604845730182419
 21
6.253955361940772
 31
0.0
  0
ARC
  5
2AB
100
AcDbEntity
  8
0
 62
256
370
-1
  6
BYLAYER
100
AcDbCircle
 10
7.5938659271969238
 20
6.5447318178443963
 30
0.0
 40
0.3
100
AcDbArc
 50
269.9999999999986358
 51
89.99999999999865
  0
LINE
  5
2AC
100
AcDbEntity
100
AcDbLine
  8
0
 62
256
370
-1
  6
BYLAYER
 10
5.371706059443671
 20
6.3395661402273937
 30
0.0
 11
5.3835642957223389
 21
6.2882024758747903
 31
0.0
  0
POINT
  5
2AD
100
AcDbEntity
100
AcDbPoint
  8
0
 62
256
370
-1
  6
BYLAYER
 10
7.5938659271969238
 20
6.5447318178443963
 30
0.0
  0
LINE
  5
2AE
100
AcDbEntity
100
AcDbLine
  8
0
 62
256
370
-1
  6
BYLAYER
 10
4.6633917571464281
 20
6.644184959595119
 30
0.0
 11
5.2633917571464277
 21
6.644184959595119
 31
0.0
  0
LINE
  5
2AF
100
AcDbEntity
100
AcDbLine
  8
0
 62
256
370
-1
  6
BYLAYER
 10
4.6633917571464281
 20
6.4241849595951157
 30
0.0
 11
5.2719796741473832
 21
6.4241849595951157
 31
0.0
  0
LINE
  5
2B0
100
AcDbEntity
100
AcDbLine
  8
0
 62
256
370
-1
  6
BYLAYER
 10
5.2719796741473832
 20
6.4241849595951157
 30
0.0
 11
5.321822439757133
 21
6.394967512536252
 31
0.0
  0
LINE
  5
2B1
100
AcDbEntity
100
AcDbLine
  8
0
 62
256
370
-1
  6
BYLAYER
 10
5.3190635634459733
 20
6.3423250165385578
 30
0.0
 11
5.3717060594436754
 21
6.3395661402274053
 31
0.0
  0
LINE
  5
2B2
100
AcDbEntity
100
AcDbLine
  8
0
 62
256
370
-1
  6
BYLAYER
 10
5.3218224397571259
 20
6.394967512536252
 30
0.0
 11
5.3190635634459733
 21
6.3423250165385578
 31
0.0
  0
LINE
  5
2B3
100
AcDbEntity
100
AcDbLine
  8
0
 62
256
370
-1
  6
BYLAYER
 10
5.3054916201868467
 20
6.7309746212481247
 30
0.0
 11
5.3119159309038588
 21
6.6786528092078266
 31
0.0
  0
LINE
  5
2B4
100
AcDbEntity
100
AcDbLine
  8
0
 62
256
370
-1
  6
BYLAYER
 10
5.3119159309038544
 20
6.6786528092078346
 30
0.0
 11
5.2633917571464277
 21
6.644184959595119
 31
0.0
  0
LINE
  5
2B5
100
AcDbEntity
100
AcDbLine
  8
0
 62
256
370
-1
  6
BYLAYER
 10
5.3578134322271254
 20
6.7373989319651333
 30
0.0
 11
5.3054916201868467
 21
6.7309746212481247
 31
0.0
  0
LINE
  5
2B6
100
AcDbEntity
100
AcDbLine
  8
0
 62
256
370
-1
  6
BYLAYER
 10
5.440403779796867
 20
6.8289940427498523
 30
0.0
 11
5.4181255681298035
 21
6.7812182636532565
 31
0.0
  0
LINE
  5
2B7
100
AcDbEntity
100
AcDbLine
  8
0
 62
256
370
-1
  6
BYLAYER
 10
4.6633917571464281
 20
6.1241849595951159
 30
0.0
 11
4.6633917571464281
 21
6.4241849595951157
 31
0.0
  0
LINE
  5
2B8
100
AcDbEntity
100
AcDbLine
  8
0
 62
256
370
-1
  6
BYLAYER
 10
5.3660598343344086
 20
6.7894646657605318
 30
0.0
 11
5.3578134322271413
 21
6.7373989319651297
 31
0.0
  0
LINE
  5
2B9
100
AcDbEntity
100
AcDbLine
  8
0
 62
256
370
-1
  6
BYLAYER
 10
4.6633917571464281
 20
6.644184959595119
 30
0.0
 11
4.6633917571464281
 21
6.9441849595951188
 31
0.0
  0
LINE
  5
2BA
100
AcDbEntity
100
AcDbLine
  8
0
 62
256
370
-1
  6
BYLAYER
 10
5.4181255681298035
 20
6.7812182636532645
 30
0.0
 11
5.3660598343344086
 21
6.7894646657605318
 31
0.0
  0
LINE
  5
2BB
100
AcDbEntity
100
AcDbLine
  8
0
 62
256
370
-1
  6
BYLAYER
 10
4.6633917571464281
 20
6.9441849595951188
 30
0.0
 11
4.7685665149533216
 21
6.9441849595951188
 31
0.0
  0
LINE
  5
2BC
100
AcDbEntity
100
AcDbLine
  8
0
 62
256
370
-1
  6
BYLAYER
 10
5.4881795588934441
 20
6.8067158310827924
 30
0.0
 11
5.440403779796867
 21
6.8289940427498523
 31
0.0
  0
LINE
  5
2BD
100
AcDbEntity
100
AcDbLine
  8
0
 62
256
370
-1
  6
BYLAYER
 10
4.6633917571464281
 20
6.1241849595951159
 30
0.0
 11
4.7808518203492039
 21
6.1241849595951159
 31
0.0
  0
LINE
  5
2BE
100
AcDbEntity
100
AcDbLine
  8
0
 62
256
370
-1
  6
BYLAYER
 10
5.6067581596252563
 20
6.840626674184092
 30
0.0
 11
5.5625478589281947
 21
6.811916169213875
 31
0.0
  0
LINE
  5
2BF
100
AcDbEntity
100
AcDbLine
  8
0
 62
256
370
-1
  6
BYLAYER
 10
5.1278648774262683
 20
6.0450052827117924
 30
0.0
 11
5.3044458063735336
 21
5.9599967361844772
 31
0.0
  0
LINE
  5
2C0
100
AcDbEntity
100
AcDbLine
  8
0
 62
256
370
-1
  6
BYLAYER
 10
5.522763539845279
 20
6.8465001501657108
 30
0.0
 11
5.4881795588934512
 21
6.8067158310827844
 31
0.0
  0
LINE
  5
2C1
100
AcDbEntity
100
AcDbLine
  8
0
 62
256
370
-1
  6
BYLAYER
 10
5.8046651538145699
 20
5.895624195991183
 30
0.0
 11
7.5938659271969167
 21
6.2447318178443965
 31
0.0
  0
LINE
  5
2C2
100
AcDbEntity
100
AcDbLine
  8
0
 62
256
370
-1
  6
BYLAYER
 10
5.5625478589281983
 20
6.8119161692138821
 30
0.0
 11
5.522763539845279
 21
6.8465001501657108
 31
0.0
  0
LINE
  5
2C3
100
AcDbEntity
100
AcDbLine
  8
0
 62
256
370
-1
  6
BYLAYER
 10
7.5938659271969309
 20
6.8447318178443961
 30
0.0
 11
5.8174120202306128
 21
7.1913613044923927
 31
0.0
  0
LINE
  5
2C4
100
AcDbEntity
100
AcDbLine
  8
0
 62
256
370
-1
  6
BYLAYER
 10
5.6354686645954573
 20
6.79641637348705
 30
0.0
 11
5.6067581596252563
 21
6.840626674184092
 31
0.0
  0
LINE
  5
2C5
100
AcDbEntity
100
AcDbLine
  8
0
 62
256
370
-1
  6
BYLAYER
 10
5.2963668240287625
 20
7.1165897468412629
 30
0.0
 11
5.1364015782216059
 21
7.0337644037055691
 31
0.0
  0
LINE
  5
2C6
100
AcDbEntity
100
AcDbLine
  8
0
 62
256
370
-1
  6
BYLAYER
 10
5.7539990302167308
 20
6.7623373145645562
 30
0.0
 11
5.7012923192105029
 21
6.7614173155017934
 31
0.0
  0
ARC
  5
2C7
100
AcDbEntity
  8
0
 62
256
370
-1
  6
BYLAYER
100
AcDbCircle
 10
5.651458863450598
 20
6.6808170593011544
 30
0.0
 40
0.8
100
AcDbArc
 50
244.2931810605280987
 51
281.0407944460133649
  0
LINE
  5
2C8
100
AcDbEntity
100
AcDbLine
  8
0
 62
256
370
-1
  6
BYLAYER
 10
5.6858800208956124
 20
6.811828671801937
 30
0.0
 11
5.6354686645954573
 21
6.796416373487034
 31
0.0
  0
ARC
  5
2C9
100
AcDbEntity
  8
0
 62
256
370
-1
  6
BYLAYER
100
AcDbCircle
 10
5.6642018872970477
 20
6.4061691909517124
 30
0.0
 40
0.8
100
AcDbArc
 50
78.9589251602954221
 51
117.3738044715262987
  0
LINE
  5
2CA
100
AcDbEntity
100
AcDbLine
  8
0
 62
256
370
-1
  6
BYLAYER
 10
5.7012923192105109
 20
6.7614173155017969
 30
0.0
 11
5.6858800208956124
 21
6.811828671801937
 31
0.0
  0
ARC
  5
2CB
100
AcDbEntity
  8
0
 62
256
370
-1
  6
BYLAYER
100
AcDbCircle
 10
4.7685665149533216
 20
7.7441849595951187
 30
0.0
 40
0.8
100
AcDbArc
 50
270.0
 51
297.3738044715262845
  0
ARC
  5
2CC
100
AcDbEntity
  8
0
 62
256
370
-1
  6
BYLAYER
100
AcDbCircle
 10
4.7808518203492039
 20
5.3241849595951152
 30
0.0
 40
0.8
100
AcDbArc
 50
64.2931810605281129
 51
90.0
  0
LINE
  5
2CD
100
AcDbEntity
100
AcDbLine
  8
0
 62
256
370
-1
  6
BYLAYER
 10
5.837379330351375
 20
6.6179183983810148
 30
0.0
 11
5.7921939792014392
 21
6.645068496443943
 31
0.0
  0
POINT
  5
2CE
100
AcDbEntity
100
AcDbPoint
  8
0
 62
256
370
-1
  6
BYLAYER
 10
5.5438648731528817
 20
6.5447370249621128
 30
0.0
  0
LINE
  5
2CF
100
AcDbEntity
100
AcDbLine
  8
0
 62
256
370
-1
  6
BYLAYER
 10
5.8058375577976751
 20
6.6959870249621121
 30
0.0
 11
5.7549190292794865
 21
6.70963060355834
 31
0.0
  0
ENDBLK
  5
2D0
100
AcDbEntity
  8
0
100
AcDbBlockEnd
  0
BLOCK
  5
2D1
100
AcDbEntity
  8
0
100
AcDbBlockBegin
  2
platformUp
 70
0
 10
0.0
 20
0.0
 30
0.0
  3
platformUp
  1

  0
CIRCLE
  5
2D2
100
AcDbEntity
100
AcDbCircle
  8
0
 62
256
370
-1
  6
BYLAYER
 10
6.4538271299393228
 20
5.6254364807056456
 30
0.0
 40
0.3
  0
CIRCLE
  5
2D3
100
AcDbEntity
100
AcDbCircle
  8
0
 62
256
370
-1
  6
BYLAYER
 10
2.3829756558466677
 20
7.975978663968804
 30
0.0
 40
0.125
  0
CIRCLE
  5
2D4
100
AcDbEntity
100
AcDbCircle
  8
0
 62
256
370
-1
  6
BYLAYER
 10
6.4500000000000002
 20
0.9254436228214977
 30
0.0
 40
0.125
  0
CIRCLE
  5
2D5
100
AcDbEntity
100
AcDbCircle
  8
0
 62
256
370
-1
  6
BYLAYER
 10
10.5194995266538136
 20
7.9766124622956918
 30
0.0
 40
0.125
  0
LINE
  5
2D6
100
AcDbEntity
100
AcDbLine
  8
0
 62
256
370
-1
  6
BYLAYER
 10
2.4538271299393251
 20
12.5536397109811553
 30
0.0
 11
-1.5461728700606763
 21
5.6254364807056501
 31
0.0
  0
LINE
  5
2D7
100
AcDbEntity
100
AcDbLine
  8
0
 62
256
370
-1
  6
BYLAYER
 10
-1.5461728700606763
 20
5.6254364807056501
 30
0.0
 11
2.453827129939314
 21
-1.3027667495698569
 31
0.0
  0
LINE
  5
2D8
100
AcDbEntity
100
AcDbLine
  8
0
 62
256
370
-1
  6
BYLAYER
 10
2.453827129939314
 20
-1.3027667495698569
 30
0.0
 11
10.4538271299393166
 21
-1.3027667495698658
 31
0.0
  0
LINE
  5
2D9
100
AcDbEntity
100
AcDbLine
  8
0
 62
256
370
-1
  6
BYLAYER
 10
10.4538271299393166
 20
-1.3027667495698658
 30
0.0
 11
14.4538271299393202
 21
5.6254364807056367
 31
0.0
  0
LINE
  5
2DA
100
AcDbEntity
100
AcDbLine
  8
0
 62
256
370
-1
  6
BYLAYER
 10
14.4538271299393202
 20
5.6254364807056367
 30
0.0
 11
10.4538271299393362
 21
12.5536397109811446
 31
0.0
  0
LINE
  5
2DB
100
AcDbEntity
100
AcDbLine
  8
0
 62
256
370
-1
  6
BYLAYER
 10
10.4538271299393362
 20
12.5536397109811446
 30
0.0
 11
2.453827129939337
 21
12.5536397109811624
 31
0.0
  0
ENDBLK
  5
2DC
100
AcDbEntity
  8
0
100
AcDbBlockEnd
  0
BLOCK
  5
2DD
100
AcDbEntity
  8
0
100
AcDbBlockBegin
  2
plat_top
 70
0
 10
0.0
 20
0.0
 30
0.0
  3
plat_top
  1

  0
LINE
  5
2DE
100
AcDbEntity
100
AcDbLine
  8
0
 62
256
370
-1
  6
BYLAYER
 10
25.2428024635626436
 20
31.9114859513059201
 30
0.0
 11
25.190708010262572
 21
31.6160436254022699
 31
0.0
  0
LINE
  5
2DF
100
AcDbEntity
100
AcDbLine
  8
0
 62
256
370
-1
  6
BYLAYER
 10
25.9131487977463131
 20
31.1534559205708277
 30
0.0
 11
25.1770272045295478
 21
31.5784559205708355
 31
0.0
  0
LINE
  5
2E0
100
AcDbEntity
100
AcDbLine
  8
0
 62
256
370
-1
  6
BYLAYER
 10
25.1770272045295478
 20
31.5784559205708355
 30
0.0
 11
25.0270272045295421
 21
31.3186482994355053
 31
0.0
  0
LINE
  5
2E1
100
AcDbEntity
100
AcDbLine
  8
0
 62
256
370
-1
  6
BYLAYER
 10
25.0270272045295421
 20
31.3186482994355053
 30
0.0
 11
25.7631487977463181
 21
30.8936482994355011
 31
0.0
  0
LINE
  5
2E2
100
AcDbEntity
100
AcDbLine
  8
0
 62
256
370
-1
  6
BYLAYER
 10
25.7631487977463181
 20
30.8936482994355011
 30
0.0
 11
25.9131487977463131
 21
31.1534559205708277
 31
0.0
  0
LINE
  5
2E3
100
AcDbEntity
100
AcDbLine
  8
0
 62
256
370
-1
  6
BYLAYER
 10
27.0
 20
34.0
 30
0.0
 11
29.0
 21
34.0
 31
0.0
  0
LINE
  5
2E4
100
AcDbEntity
100
AcDbLine
  8
0
 62
256
370
-1
  6
BYLAYER
 10
29.0
 20
34.0
 30
0.0
 11
29.0
 21
34.2999999999999972
 31
0.0
  0
LINE
  5
2E5
100
AcDbEntity
100
AcDbLine
  8
0
 62
256
370
-1
  6
BYLAYER
 10
29.0
 20
34.2999999999999972
 30
0.0
 11
27.0
 21
34.2999999999999972
 31
0.0
  0
LINE
  5
2E6
100
AcDbEntity
100
AcDbLine
  8
0
 62
256
370
-1
  6
BYLAYER
 10
27.0
 20
34.2999999999999972
 30
0.0
 11
27.0
 21
34.0
 31
0.0
  0
LINE
  5
2E7
100
AcDbEntity
100
AcDbLine
  8
0
 62
256
370
-1
  6
BYLAYER
 10
28.6230303561100357
 20
28.5770994591901939
 30
0.0
 11
30.6230303561100357
 21
28.5770994591901939
 31
0.0
  0
LINE
  5
2E8
100
AcDbEntity
100
AcDbLine
  8
0
 62
256
370
-1
  6
BYLAYER
 10
30.6230303561100357
 20
28.5770994591901939
 30
0.0
 11
30.6230303561100357
 21
28.8770994591901911
 31
0.0
  0
LINE
  5
2E9
100
AcDbEntity
100
AcDbLine
  8
0
 62
256
370
-1
  6
BYLAYER
 10
30.6230303561100357
 20
28.8770994591901911
 30
0.0
 11
28.6230303561100357
 21
28.8770994591901911
 31
0.0
  0
LINE
  5
2EA
100
AcDbEntity
100
AcDbLine
  8
0
 62
256
370
-1
  6
BYLAYER
 10
28.6230303561100357
 20
28.8770994591901911
 30
0.0
 11
28.6230303561100357
 21
28.5770994591901939
 31
0.0
  0
CIRCLE
  5
2EB
100
AcDbEntity
100
AcDbCircle
  8
0
 62
256
370
-1
  6
BYLAYER
 10
27.9999999999999893
 20
34.9621778264910716
 30
0.0
 40
0.1
  0
CIRCLE
  5
2EC
100
AcDbEntity
100
AcDbCircle
  8
0
 62
256
370
-1
  6
BYLAYER
 10
23.7026279441628738
 20
27.5189110867544713
 30
0.0
 40
0.1
  0
CIRCLE
  5
2ED
100
AcDbEntity
100
AcDbCircle
  8
0
 62
256
370
-1
  6
BYLAYER
 10
32.2973720558371085
 20
27.5189110867544784
 30
0.0
 40
0.1
  0
CIRCLE
  5
2EE
100
AcDbEntity
100
AcDbCircle
  8
0
 62
256
370
-1
  6
BYLAYER
 10
32.6159646676660344
 20
32.6362840761221236
 30
0.0
 40
0.26
  0
LINE
  5
2EF
100
AcDbEntity
100
AcDbLine
  8
0
 62
256
370
-1
  6
BYLAYER
 10
31.2401923788646698
 20
24.0878221735089291
 30
0.0
 11
34.7401923788646698
 21
30.149999999999995
 31
0.0
  0
LINE
  5
2F0
100
AcDbEntity
100
AcDbLine
  8
0
 62
256
370
-1
  6
BYLAYER
 10
34.7401923788646769
 20
30.1499999999999915
 30
0.0
 11
31.5000000000000036
 21
35.7621778264910759
 31
0.0
  0
LINE
  5
2F1
100
AcDbEntity
100
AcDbLine
  8
0
 62
256
370
-1
  6
BYLAYER
 10
31.5000000000000107
 20
35.7621778264910688
 30
0.0
 11
24.4999999999999893
 21
35.7621778264910617
 31
0.0
  0
LINE
  5
2F2
100
AcDbEntity
100
AcDbLine
  8
0
 62
256
370
-1
  6
BYLAYER
 10
24.4999999999999929
 20
35.7621778264910688
 30
0.0
 11
21.2598076211353231
 21
30.1499999999999879
 31
0.0
  0
LINE
  5
2F3
100
AcDbEntity
100
AcDbLine
  8
0
 62
256
370
-1
  6
BYLAYER
 10
21.2598076211353195
 20
30.1499999999999915
 30
0.0
 11
24.7598076211353195
 21
24.0878221735089255
 31
0.0
  0
LINE
  5
2F4
100
AcDbEntity
100
AcDbLine
  8
0
 62
256
370
-1
  6
BYLAYER
 10
24.7598076211353231
 20
24.0878221735089291
 30
0.0
 11
31.2401923788646663
 21
24.087822173508922
 31
0.0
  0
LINE
  5
2F5
100
AcDbEntity
100
AcDbLine
  8
0
 62
256
370
-1
  6
BYLAYER
 10
26.4499999999999886
 20
34.7984600438419704
 30
0.0
 11
26.4499999999999851
 21
35.0459600438419656
 31
0.0
  0
LINE
  5
2F6
100
AcDbEntity
100
AcDbLine
  8
0
 62
256
370
-1
  6
BYLAYER
 10
24.5499999999999936
 20
34.7984600438419633
 30
0.0
 11
24.5499999999999865
 21
35.0459600438419585
 31
0.0
  0
LINE
  5
2F7
100
AcDbEntity
100
AcDbLine
  8
0
 62
256
370
-1
  6
BYLAYER
 10
29.5499999999999936
 20
34.8084600438419614
 30
0.0
 11
29.5499999999999972
 21
35.0559600438419565
 31
0.0
  0
LINE
  5
2F8
100
AcDbEntity
100
AcDbLine
  8
0
 62
256
370
-1
  6
BYLAYER
 10
31.4499999999999957
 20
34.8084600438419614
 30
0.0
 11
31.4499999999999993
 21
35.0559600438419565
 31
0.0
  0
LINE
  5
2F9
100
AcDbEntity
100
AcDbLine
  8
0
 62
256
370
-1
  6
BYLAYER
 10
32.9376765014993893
 20
28.939168701602874
 30
0.0
 11
33.1520177889360284
 21
28.8154187016028729
 31
0.0
  0
LINE
  5
2FA
100
AcDbEntity
100
AcDbLine
  8
0
 62
256
370
-1
  6
BYLAYER
 10
33.8876765014993993
 20
30.584616968793302
 30
0.0
 11
34.1020177889360383
 21
30.460866968793308
 31
0.0
  0
LINE
  5
2FB
100
AcDbEntity
100
AcDbLine
  8
0
 62
256
370
-1
  6
BYLAYER
 10
31.3876765014993993
 20
26.2544899498710897
 30
0.0
 11
31.6020177889360419
 21
26.1307399498710886
 31
0.0
  0
LINE
  5
2FC
100
AcDbEntity
100
AcDbLine
  8
0
 62
256
370
-1
  6
BYLAYER
 10
30.4376765014993929
 20
24.6090416826806582
 30
0.0
 11
30.652017788936039
 21
24.485291682680657
 31
0.0
  0
LINE
  5
2FD
100
AcDbEntity
100
AcDbLine
  8
0
 62
256
370
-1
  6
BYLAYER
 10
25.5623234985005894
 20
24.6090416826806653
 30
0.0
 11
25.3479822110639503
 21
24.4852916826806677
 31
0.0
  0
LINE
  5
2FE
100
AcDbEntity
100
AcDbLine
  8
0
 62
256
370
-1
  6
BYLAYER
 10
24.6123234985005972
 20
26.2544899498710933
 30
0.0
 11
24.3979822110639475
 21
26.1307399498710922
 31
0.0
  0
LINE
  5
2FF
100
AcDbEntity
100
AcDbLine
  8
0
 62
256
370
-1
  6
BYLAYER
 10
23.0623234985005965
 20
28.9391687016028634
 30
0.0
 11
22.8479822110639503
 21
28.8154187016028658
 31
0.0
  0
LINE
  5
300
100
AcDbEntity
100
AcDbLine
  8
0
 62
256
370
-1
  6
BYLAYER
 10
22.1123234985005972
 20
30.5846169687932914
 30
0.0
 11
21.8979822110639617
 21
30.4608669687933045
 31
0.0
  0
LINE
  5
301
100
AcDbEntity
100
AcDbLine
  8
0
 62
256
370
-1
  6
BYLAYER
 10
22.1123234985005972
 20
30.5846169687932914
 30
0.0
 11
23.0623234985005965
 21
28.9391687016028634
 31
0.0
  0
LINE
  5
302
100
AcDbEntity
100
AcDbLine
  8
0
 62
256
370
-1
  6
BYLAYER
 10
24.6123234985005972
 20
26.2544899498710933
 30
0.0
 11
25.5623234985005894
 21
24.6090416826806653
 31
0.0
  0
LINE
  5
303
100
AcDbEntity
100
AcDbLine
  8
0
 62
256
370
-1
  6
BYLAYER
 10
30.4376765014993929
 20
24.6090416826806582
 30
0.0
 11
31.3876765014993993
 21
26.2544899498710897
 31
0.0
  0
LINE
  5
304
100
AcDbEntity
100
AcDbLine
  8
0
 62
256
370
-1
  6
BYLAYER
 10
32.9376765014993893
 20
28.939168701602874
 30
0.0
 11
33.8876765014993993
 21
30.584616968793302
 31
0.0
  0
LINE
  5
305
100
AcDbEntity
100
AcDbLine
  8
0
 62
256
370
-1
  6
BYLAYER
 10
31.4499999999999957
 20
34.8084600438419614
 30
0.0
 11
29.5499999999999936
 21
34.8084600438419614
 31
0.0
  0
LINE
  5
306
100
AcDbEntity
100
AcDbLine
  8
0
 62
256
370
-1
  6
BYLAYER
 10
26.4499999999999886
 20
34.7984600438419704
 30
0.0
 11
24.5499999999999936
 21
34.7984600438419633
 31
0.0
  0
LINE
  5
307
100
AcDbEntity
100
AcDbLine
  8
0
 62
256
370
-1
  6
BYLAYER
 10
22.1933476383827468
 20
29.5892790418778375
 30
0.0
 11
22.2408476383827463
 21
29.5070066285183188
 31
0.0
  0
LINE
  5
308
100
AcDbEntity
100
AcDbLine
  8
0
 62
256
370
-1
  6
BYLAYER
 10
22.2408476383827463
 20
29.5070066285183188
 30
0.0
 11
22.3967322110639486
 21
29.5970066285183186
 31
0.0
  0
LINE
  5
309
100
AcDbEntity
100
AcDbLine
  8
0
 62
256
370
-1
  6
BYLAYER
 10
22.3492322110639527
 20
29.6792790418778409
 30
0.0
 11
22.1933476383827468
 21
29.5892790418778375
 31
0.0
  0
LINE
  5
30A
100
AcDbEntity
100
AcDbLine
  8
0
 62
256
370
-1
  6
BYLAYER
 10
24.6933476383827397
 20
25.2591520229556394
 30
0.0
 11
24.7408476383827463
 21
25.1768796095961171
 31
0.0
  0
LINE
  5
30B
100
AcDbEntity
100
AcDbLine
  8
0
 62
256
370
-1
  6
BYLAYER
 10
24.7408476383827463
 20
25.1768796095961171
 30
0.0
 11
24.8967322110639522
 21
25.2668796095961206
 31
0.0
  0
LINE
  5
30C
100
AcDbEntity
100
AcDbLine
  8
0
 62
256
370
-1
  6
BYLAYER
 10
24.8492322110639421
 20
25.3491520229556393
 30
0.0
 11
24.6933476383827397
 21
25.2591520229556394
 31
0.0
  0
LINE
  5
30D
100
AcDbEntity
100
AcDbLine
  8
0
 62
256
370
-1
  6
BYLAYER
 10
25.5474999999999852
 20
35.0459600438419585
 30
0.0
 11
25.5474999999999852
 21
35.2259600438419653
 31
0.0
  0
LINE
  5
30E
100
AcDbEntity
100
AcDbLine
  8
0
 62
256
370
-1
  6
BYLAYER
 10
25.5474999999999852
 20
35.2259600438419653
 30
0.0
 11
25.4524999999999828
 21
35.2259600438419653
 31
0.0
  0
LINE
  5
30F
100
AcDbEntity
100
AcDbLine
  8
0
 62
256
370
-1
  6
BYLAYER
 10
25.4524999999999828
 20
35.2259600438419653
 30
0.0
 11
25.4524999999999757
 21
35.0459600438419656
 31
0.0
  0
LINE
  5
310
100
AcDbEntity
100
AcDbLine
  8
0
 62
256
370
-1
  6
BYLAYER
 10
30.5474999999999852
 20
35.2359600438419633
 30
0.0
 11
30.4524999999999828
 21
35.2359600438419562
 31
0.0
  0
LINE
  5
311
100
AcDbEntity
100
AcDbLine
  8
0
 62
256
370
-1
  6
BYLAYER
 10
30.4524999999999828
 20
35.2359600438419562
 30
0.0
 11
30.4524999999999864
 21
35.0559600438419636
 31
0.0
  0
LINE
  5
312
100
AcDbEntity
100
AcDbLine
  8
0
 62
256
370
-1
  6
BYLAYER
 10
30.5474999999999852
 20
35.0559600438419636
 30
0.0
 11
30.5474999999999852
 21
35.2359600438419633
 31
0.0
  0
LINE
  5
313
100
AcDbEntity
100
AcDbLine
  8
0
 62
256
370
-1
  6
BYLAYER
 10
33.7591523616172253
 20
29.507006628518333
 30
0.0
 11
33.8066523616172319
 21
29.5892790418778517
 31
0.0
  0
LINE
  5
314
100
AcDbEntity
100
AcDbLine
  8
0
 62
256
370
-1
  6
BYLAYER
 10
33.8066523616172319
 20
29.5892790418778517
 30
0.0
 11
33.6507677889360295
 21
29.6792790418778445
 31
0.0
  0
LINE
  5
315
100
AcDbEntity
100
AcDbLine
  8
0
 62
256
370
-1
  6
BYLAYER
 10
33.6032677889360372
 20
29.5970066285183258
 30
0.0
 11
33.7591523616172253
 21
29.507006628518333
 31
0.0
  0
LINE
  5
316
100
AcDbEntity
100
AcDbLine
  8
0
 62
256
370
-1
  6
BYLAYER
 10
31.1032677889360514
 20
25.2668796095961135
 30
0.0
 11
31.2591523616172431
 21
25.17687960959611
 31
0.0
  0
LINE
  5
317
100
AcDbEntity
100
AcDbLine
  8
0
 62
256
370
-1
  6
BYLAYER
 10
31.2591523616172431
 20
25.17687960959611
 30
0.0
 11
31.3066523616172496
 21
25.2591520229556252
 31
0.0
  0
LINE
  5
318
100
AcDbEntity
100
AcDbLine
  8
0
 62
256
370
-1
  6
BYLAYER
 10
31.3066523616172496
 20
25.2591520229556252
 30
0.0
 11
31.1507677889360366
 21
25.3491520229556286
 31
0.0
  0
LINE
  5
319
100
AcDbEntity
100
AcDbLine
  8
0
 62
256
370
-1
  6
BYLAYER
 10
30.0749999999999993
 20
32.0871778264910716
 30
0.0
 11
30.9250000000000043
 21
32.0871778264910716
 31
0.0
  0
LINE
  5
31A
100
AcDbEntity
100
AcDbLine
  8
0
 62
256
370
-1
  6
BYLAYER
 10
30.9250000000000043
 20
32.0871778264910716
 30
0.0
 11
30.9250000000000043
 21
32.562177826491066
 31
0.0
  0
LINE
  5
31B
100
AcDbEntity
100
AcDbLine
  8
0
 62
256
370
-1
  6
BYLAYER
 10
30.9250000000000043
 20
32.562177826491066
 30
0.0
 11
30.0749999999999957
 21
32.562177826491066
 31
0.0
  0
LINE
  5
31C
100
AcDbEntity
100
AcDbLine
  8
0
 62
256
370
-1
  6
BYLAYER
 10
30.0749999999999957
 20
32.562177826491066
 30
0.0
 11
30.0749999999999993
 21
32.0871778264910716
 31
0.0
  0
LINE
  5
31D
100
AcDbEntity
100
AcDbLine
  8
0
 62
256
370
-1
  6
BYLAYER
 10
31.2700490199568577
 20
31.4895353928239707
 30
0.0
 11
30.845049019956857
 21
30.7534137996071983
 31
0.0
  0
LINE
  5
31E
100
AcDbEntity
100
AcDbLine
  8
0
 62
256
370
-1
  6
BYLAYER
 10
30.845049019956857
 20
30.7534137996071983
 30
0.0
 11
31.2564110867544613
 21
30.5159137996071976
 31
0.0
  0
LINE
  5
31F
100
AcDbEntity
100
AcDbLine
  8
0
 62
256
370
-1
  6
BYLAYER
 10
31.2564110867544613
 20
30.5159137996071976
 30
0.0
 11
31.6814110867544585
 21
31.2520353928239736
 31
0.0
  0
LINE
  5
320
100
AcDbEntity
100
AcDbLine
  8
0
 62
256
370
-1
  6
BYLAYER
 10
31.6814110867544585
 20
31.2520353928239736
 30
0.0
 11
31.2700490199568577
 21
31.4895353928239707
 31
0.0
  0
LINE
  5
321
100
AcDbEntity
100
AcDbLine
  8
0
 62
256
370
-1
  6
BYLAYER
 10
25.0749999999999886
 20
32.0871778264910716
 30
0.0
 11
25.9249999999999901
 21
32.0871778264910645
 31
0.0
  0
LINE
  5
322
100
AcDbEntity
100
AcDbLine
  8
0
 62
256
370
-1
  6
BYLAYER
 10
25.9249999999999901
 20
32.0871778264910645
 30
0.0
 11
25.9249999999999901
 21
32.5621778264910731
 31
0.0
  0
LINE
  5
323
100
AcDbEntity
100
AcDbLine
  8
0
 62
256
370
-1
  6
BYLAYER
 10
25.9249999999999901
 20
32.5621778264910731
 30
0.0
 11
25.0749999999999886
 21
32.5621778264910731
 31
0.0
  0
LINE
  5
324
100
AcDbEntity
100
AcDbLine
  8
0
 62
256
370
-1
  6
BYLAYER
 10
25.0749999999999886
 20
32.5621778264910731
 30
0.0
 11
25.0749999999999886
 21
32.0871778264910716
 31
0.0
  0
LINE
  5
325
100
AcDbEntity
100
AcDbLine
  8
0
 62
256
370
-1
  6
BYLAYER
 10
25.1549509800431323
 20
30.7534137996071841
 30
0.0
 11
24.7299509800431316
 21
31.4895353928239565
 31
0.0
  0
LINE
  5
326
100
AcDbEntity
100
AcDbLine
  8
0
 62
256
370
-1
  6
BYLAYER
 10
24.7299509800431316
 20
31.4895353928239565
 30
0.0
 11
24.3185889132455237
 21
31.2520353928239558
 31
0.0
  0
LINE
  5
327
100
AcDbEntity
100
AcDbLine
  8
0
 62
256
370
-1
  6
BYLAYER
 10
24.3185889132455237
 20
31.2520353928239558
 30
0.0
 11
24.7435889132455245
 21
30.5159137996071799
 31
0.0
  0
LINE
  5
328
100
AcDbEntity
100
AcDbLine
  8
0
 62
256
370
-1
  6
BYLAYER
 10
24.7435889132455245
 20
30.5159137996071799
 30
0.0
 11
25.1549509800431323
 21
30.7534137996071841
 31
0.0
  0
LINE
  5
329
100
AcDbEntity
100
AcDbLine
  8
0
 62
256
370
-1
  6
BYLAYER
 10
27.2299509800431281
 20
27.1594083739017549
 30
0.0
 11
26.8185889132455166
 21
26.9219083739017542
 31
0.0
  0
LINE
  5
32A
100
AcDbEntity
100
AcDbLine
  8
0
 62
256
370
-1
  6
BYLAYER
 10
26.8185889132455166
 20
26.9219083739017542
 30
0.0
 11
27.2435889132455173
 21
26.1857867806849818
 31
0.0
  0
LINE
  5
32B
100
AcDbEntity
100
AcDbLine
  8
0
 62
256
370
-1
  6
BYLAYER
 10
27.2435889132455173
 20
26.1857867806849818
 30
0.0
 11
27.6549509800431288
 21
26.4232867806849825
 31
0.0
  0
LINE
  5
32C
100
AcDbEntity
100
AcDbLine
  8
0
 62
256
370
-1
  6
BYLAYER
 10
28.7700490199568648
 20
27.1594083739017513
 30
0.0
 11
28.3450490199568605
 21
26.4232867806849754
 31
0.0
  0
LINE
  5
32D
100
AcDbEntity
100
AcDbLine
  8
0
 62
256
370
-1
  6
BYLAYER
 10
28.3450490199568605
 20
26.4232867806849754
 30
0.0
 11
28.7564110867544684
 21
26.1857867806849747
 31
0.0
  0
LINE
  5
32E
100
AcDbEntity
100
AcDbLine
  8
0
 62
256
370
-1
  6
BYLAYER
 10
28.7564110867544684
 20
26.1857867806849747
 30
0.0
 11
29.1814110867544656
 21
26.9219083739017506
 31
0.0
  0
LINE
  5
32F
100
AcDbEntity
100
AcDbLine
  8
0
 62
256
370
-1
  6
BYLAYER
 10
29.1814110867544656
 20
26.9219083739017506
 30
0.0
 11
28.7700490199568648
 21
27.1594083739017513
 31
0.0
  0
LINE
  5
330
100
AcDbEntity
100
AcDbLine
  8
0
 62
256
370
-1
  6
BYLAYER
 10
27.2299509800431316
 20
27.1594083739017584
 30
0.0
 11
27.6549509800431288
 21
26.4232867806849825
 31
0.0
  0
LINE
  5
331
100
AcDbEntity
100
AcDbLine
  8
0
 62
256
370
-1
  6
BYLAYER
 10
22.8479822110639503
 20
28.8154187016028658
 30
0.0
 11
22.3967322110639486
 21
29.5970066285183186
 31
0.0
  0
LINE
  5
332
100
AcDbEntity
100
AcDbLine
  8
0
 62
256
370
-1
  6
BYLAYER
 10
22.3492322110639527
 20
29.6792790418778409
 30
0.0
 11
21.8979822110639617
 21
30.4608669687933045
 31
0.0
  0
LINE
  5
333
100
AcDbEntity
100
AcDbLine
  8
0
 62
256
370
-1
  6
BYLAYER
 10
25.3479822110639503
 20
24.4852916826806677
 30
0.0
 11
24.8967322110639522
 21
25.2668796095961206
 31
0.0
  0
LINE
  5
334
100
AcDbEntity
100
AcDbLine
  8
0
 62
256
370
-1
  6
BYLAYER
 10
24.8492322110639421
 20
25.3491520229556393
 30
0.0
 11
24.3979822110639475
 21
26.1307399498710922
 31
0.0
  0
LINE
  5
335
100
AcDbEntity
100
AcDbLine
  8
0
 62
256
370
-1
  6
BYLAYER
 10
31.6020177889360419
 20
26.1307399498710886
 30
0.0
 11
31.1507677889360366
 21
25.3491520229556286
 31
0.0
  0
LINE
  5
336
100
AcDbEntity
100
AcDbLine
  8
0
 62
256
370
-1
  6
BYLAYER
 10
31.1032677889360514
 20
25.2668796095961135
 30
0.0
 11
30.652017788936039
 21
24.485291682680657
 31
0.0
  0
LINE
  5
337
100
AcDbEntity
100
AcDbLine
  8
0
 62
256
370
-1
  6
BYLAYER
 10
34.1020177889360383
 20
30.460866968793308
 30
0.0
 11
33.6507677889360295
 21
29.6792790418778445
 31
0.0
  0
LINE
  5
338
100
AcDbEntity
100
AcDbLine
  8
0
 62
256
370
-1
  6
BYLAYER
 10
33.6032677889360443
 20
29.5970066285183222
 30
0.0
 11
33.1520177889360284
 21
28.8154187016028729
 31
0.0
  0
LINE
  5
339
100
AcDbEntity
100
AcDbLine
  8
0
 62
256
370
-1
  6
BYLAYER
 10
29.5499999999999972
 20
35.0559600438419565
 30
0.0
 11
30.4524999999999864
 21
35.0559600438419565
 31
0.0
  0
LINE
  5
33A
100
AcDbEntity
100
AcDbLine
  8
0
 62
256
370
-1
  6
BYLAYER
 10
30.5474999999999781
 20
35.0559600438419636
 30
0.0
 11
31.4499999999999993
 21
35.0559600438419636
 31
0.0
  0
LINE
  5
33B
100
AcDbEntity
100
AcDbLine
  8
0
 62
256
370
-1
  6
BYLAYER
 10
24.5499999999999901
 20
35.0459600438419656
 30
0.0
 11
25.4524999999999793
 21
35.0459600438419585
 31
0.0
  0
LINE
  5
33C
100
AcDbEntity
100
AcDbLine
  8
0
 62
256
370
-1
  6
BYLAYER
 10
25.5474999999999852
 20
35.0459600438419656
 30
0.0
 11
26.4499999999999851
 21
35.0459600438419656
 31
0.0
  0
CIRCLE
  5
33D
100
AcDbEntity
100
AcDbCircle
  8
0
 62
256
370
-1
  6
BYLAYER
 10
27.9999999999999929
 20
25.3378221735089255
 30
0.0
 40
0.2
  0
CIRCLE
  5
33E
100
AcDbEntity
100
AcDbCircle
  8
0
 62
256
370
-1
  6
BYLAYER
 10
27.2260343171004244
 20
24.4388972359444772
 30
0.0
 40
0.15
  0
CIRCLE
  5
33F
100
AcDbEntity
100
AcDbCircle
  8
0
 62
256
370
-1
  6
BYLAYER
 10
28.7760343171004216
 20
24.4388972359444772
 30
0.0
 40
0.15
  0
CIRCLE
  5
340
100
AcDbEntity
100
AcDbCircle
  8
0
 62
256
370
-1
  6
BYLAYER
 10
24.2499999999999893
 20
28.4378221735089269
 30
0.0
 40
0.1
  0
CIRCLE
  5
341
100
AcDbEntity
100
AcDbCircle
  8
0
 62
256
370
-1
  6
BYLAYER
 10
31.75
 20
28.4378221735089305
 30
0.0
 40
0.1
  0
CIRCLE
  5
342
100
AcDbEntity
100
AcDbCircle
  8
0
 62
256
370
-1
  6
BYLAYER
 10
26.7750492284114117
 20
33.838236946085388
 30
0.0
 40
0.075
  0
CIRCLE
  5
343
100
AcDbEntity
100
AcDbCircle
  8
0
 62
256
370
-1
  6
BYLAYER
 10
26.6999999999999886
 20
28.9378221735089305
 30
0.0
 40
0.075
  0
CIRCLE
  5
344
100
AcDbEntity
100
AcDbCircle
  8
0
 62
256
370
-1
  6
BYLAYER
 10
31.8999999999999844
 20
29.4378221735089269
 30
0.0
 40
0.075
  0
CIRCLE
  5
345
100
AcDbEntity
100
AcDbCircle
  8
0
 62
256
370
-1
  6
BYLAYER
 10
31.8999999999999844
 20
32.2378221735089312
 30
0.0
 40
0.075
  0
LINE
  5
346
100
AcDbEntity
100
AcDbLine
  8
0
 62
256
370
-1
  6
BYLAYER
 10
27.9800000000000004
 20
26.7100000000000009
 30
0.0
 11
27.8323990489831168
 21
27.5470865900603847
 31
0.0
  0
LINE
  5
347
100
AcDbEntity
100
AcDbLine
  8
0
 62
256
370
-1
  6
BYLAYER
 10
27.8323990489831168
 20
27.5470865900603847
 30
0.0
 11
27.5369567230794594
 21
27.4949921367603025
 31
0.0
  0
LINE
  5
348
100
AcDbEntity
100
AcDbLine
  8
0
 62
256
370
-1
  6
BYLAYER
 10
27.5369567230794594
 20
27.4949921367603025
 30
0.0
 11
27.6845576740963537
 21
26.6579055466999257
 31
0.0
  0
LINE
  5
349
100
AcDbEntity
100
AcDbLine
  8
0
 62
256
370
-1
  6
BYLAYER
 10
27.6845576740963537
 20
26.6579055466999257
 30
0.0
 11
27.9800000000000004
 21
26.7100000000000009
 31
0.0
  0
LINE
  5
34A
100
AcDbEntity
100
AcDbLine
  8
0
 62
256
370
-1
  6
BYLAYER
 10
28.1676009510168974
 20
27.5470865900603812
 30
0.0
 11
28.0199999999999996
 21
26.7100000000000009
 31
0.0
  0
LINE
  5
34B
100
AcDbEntity
100
AcDbLine
  8
0
 62
256
370
-1
  6
BYLAYER
 10
28.0199999999999996
 20
26.7100000000000009
 30
0.0
 11
28.3154423259036605
 21
26.6579055466999222
 31
0.0
  0
LINE
  5
34C
100
AcDbEntity
100
AcDbLine
  8
0
 62
256
370
-1
  6
BYLAYER
 10
28.3154423259036605
 20
26.6579055466999222
 30
0.0
 11
28.4630432769205548
 21
27.494992136760299
 31
0.0
  0
LINE
  5
34D
100
AcDbEntity
100
AcDbLine
  8
0
 62
256
370
-1
  6
BYLAYER
 10
28.4630432769205548
 20
27.494992136760299
 30
0.0
 11
28.1676009510168974
 21
27.5470865900603812
 31
0.0
  0
LINE
  5
34E
100
AcDbEntity
100
AcDbLine
  8
0
 62
256
370
-1
  6
BYLAYER
 10
30.8136808057330285
 20
31.5624122951685528
 30
0.0
 11
30.0775592125162561
 21
31.1374122951685592
 31
0.0
  0
LINE
  5
34F
100
AcDbEntity
100
AcDbLine
  8
0
 62
256
370
-1
  6
BYLAYER
 10
30.0775592125162561
 20
31.1374122951685592
 30
0.0
 11
30.2275592125162547
 21
30.8776046740332326
 31
0.0
  0
LINE
  5
350
100
AcDbEntity
100
AcDbLine
  8
0
 62
256
370
-1
  6
BYLAYER
 10
30.2275592125162547
 20
30.8776046740332326
 30
0.0
 11
30.9636808057330271
 21
31.3026046740332369
 31
0.0
  0
LINE
  5
351
100
AcDbEntity
100
AcDbLine
  8
0
 62
256
370
-1
  6
BYLAYER
 10
30.9636808057330271
 20
31.3026046740332369
 30
0.0
 11
30.8136808057330285
 21
31.5624122951685528
 31
0.0
  0
LINE
  5
352
100
AcDbEntity
100
AcDbLine
  8
0
 62
256
370
-1
  6
BYLAYER
 10
29.9629134099396275
 20
31.4523990489831036
 30
0.0
 11
30.7999999999999972
 21
31.5999999999999979
 31
0.0
  0
LINE
  5
353
100
AcDbEntity
100
AcDbLine
  8
0
 62
256
370
-1
  6
BYLAYER
 10
30.7999999999999972
 20
31.5999999999999979
 30
0.0
 11
30.7479055466999291
 21
31.8954423259036517
 31
0.0
  0
LINE
  5
354
100
AcDbEntity
100
AcDbLine
  8
0
 62
256
370
-1
  6
BYLAYER
 10
30.7479055466999291
 20
31.8954423259036517
 30
0.0
 11
29.9108189566395559
 21
31.7478413748867645
 31
0.0
  0
LINE
  5
355
100
AcDbEntity
100
AcDbLine
  8
0
 62
256
370
-1
  6
BYLAYER
 10
29.9108189566395559
 20
31.7478413748867645
 30
0.0
 11
29.9629134099396275
 21
31.4523990489831036
 31
0.0
  0
LINE
  5
356
100
AcDbEntity
100
AcDbLine
  8
0
 62
256
370
-1
  6
BYLAYER
 10
25.190708010262572
 20
31.6160436254022699
 30
0.0
 11
26.0277946003229523
 21
31.468442674385372
 31
0.0
  0
LINE
  5
357
100
AcDbEntity
100
AcDbLine
  8
0
 62
256
370
-1
  6
BYLAYER
 10
26.0277946003229523
 20
31.468442674385372
 30
0.0
 11
26.0798890536230203
 21
31.7638850002890294
 31
0.0
  0
LINE
  5
358
100
AcDbEntity
100
AcDbLine
  8
0
 62
256
370
-1
  6
BYLAYER
 10
26.0798890536230203
 20
31.7638850002890294
 30
0.0
 11
25.2428024635626436
 21
31.9114859513059201
 31
0.0
  0
ENDBLK
  5
359
100
AcDbEntity
  8
0
100
AcDbBlockEnd
  0
ENDSEC
  0
SECTION
  2
ENTITIES
  0
LINE
  5
35A
100
AcDbEntity
100
AcDbLine
  8
0
 62
256
370
-1
  6
BYLAYER
 10
2.7740737571368466
 20
1.4903273211332964
 30
0.0
 11
2.8210574171043072
 21
1.4627858598813468
 31
0.0
  0
LINE
  5
35B
100
AcDbEntity
100
AcDbLine
  8
0
 62
256
370
-1
  6
BYLAYER
 10
2.8184567968355463
 20
1.4131630690603203
 30
0.0
 11
2.8680795876565801
 21
1.4105624487915662
 31
0.0
  0
LINE
  5
35C
100
AcDbEntity
100
AcDbLine
  8
0
 62
256
370
-1
  6
BYLAYER
 10
2.8210574171043001
 20
1.4627858598813468
 30
0.0
 11
2.8184567968355463
 21
1.4131630690603203
 31
0.0
  0
LINE
  5
35D
100
AcDbEntity
100
AcDbLine
  8
0
 62
256
370
-1
  6
BYLAYER
 10
2.8056633741716208
 20
1.7795187608197349
 30
0.0
 11
2.8117191703651288
 21
1.7301982587225981
 31
0.0
  0
LINE
  5
35E
100
AcDbEntity
100
AcDbLine
  8
0
 62
256
370
-1
  6
BYLAYER
 10
2.8117191703651248
 20
1.7301982587226052
 30
0.0
 11
2.7659784645248577
 21
1.6977075711332992
 31
0.0
  0
LINE
  5
35F
100
AcDbEntity
100
AcDbLine
  8
0
 62
256
370
-1
  6
BYLAYER
 10
2.8549838762687392
 20
1.7855745570132386
 30
0.0
 11
2.8056633741716208
 21
1.7795187608197349
 31
0.0
  0
LINE
  5
360
100
AcDbEntity
100
AcDbLine
  8
0
 62
256
370
-1
  6
BYLAYER
 10
2.9328366350260122
 20
1.8719155432555694
 30
0.0
 11
2.9118363572757002
 21
1.8268803022874021
 31
0.0
  0
LINE
  5
361
100
AcDbEntity
100
AcDbLine
  8
0
 62
256
370
-1
  6
BYLAYER
 10
2.8627572441351434
 20
1.834653670153799
 30
0.0
 11
2.8549838762687543
 21
1.7855745570132351
 31
0.0
  0
LINE
  5
362
100
AcDbEntity
100
AcDbLine
  8
0
 62
256
370
-1
  6
BYLAYER
 10
2.9118363572757002
 20
1.8268803022874098
 30
0.0
 11
2.8627572441351434
 21
1.834653670153799
 31
0.0
  0
LINE
  5
363
100
AcDbEntity
100
AcDbLine
  8
0
 62
256
370
-1
  6
BYLAYER
 10
2.9778718759941616
 20
1.850915265505261
 30
0.0
 11
2.9328366350260122
 21
1.8719155432555694
 31
0.0
  0
LINE
  5
364
100
AcDbEntity
100
AcDbLine
  8
0
 62
256
370
-1
  6
BYLAYER
 10
3.0896485117414945
 20
1.8828808978691622
 30
0.0
 11
3.0479742244181689
 21
1.8558172992402995
 31
0.0
  0
LINE
  5
365
100
AcDbEntity
100
AcDbLine
  8
0
 62
256
370
-1
  6
BYLAYER
 10
3.010472033338647
 20
1.8884174565847855
 30
0.0
 11
2.9778718759941682
 21
1.8509152655052539
 31
0.0
  0
LINE
  5
366
100
AcDbEntity
100
AcDbLine
  8
0
 62
256
370
-1
  6
BYLAYER
 10
3.0479742244181725
 20
1.8558172992403064
 30
0.0
 11
3.010472033338647
 21
1.8884174565847855
 31
0.0
  0
LINE
  5
367
100
AcDbEntity
100
AcDbLine
  8
0
 62
256
370
-1
  6
BYLAYER
 10
3.1167121103703432
 20
1.8412066105458542
 30
0.0
 11
3.0896485117414945
 21
1.8828808978691622
 31
0.0
  0
LINE
  5
368
100
AcDbEntity
100
AcDbLine
  8
0
 62
256
370
-1
  6
BYLAYER
 10
3.2284432778936663
 20
1.8090824116408022
 30
0.0
 11
3.178759955597533
 21
1.8082151860242768
 31
0.0
  0
LINE
  5
369
100
AcDbEntity
100
AcDbLine
  8
0
 62
256
370
-1
  6
BYLAYER
 10
3.1642317452447304
 20
1.8557348208986533
 30
0.0
 11
3.1167121103703432
 21
1.8412066105458398
 31
0.0
  0
LINE
  5
36A
100
AcDbEntity
100
AcDbLine
  8
0
 62
256
370
-1
  6
BYLAYER
 10
3.178759955597541
 20
1.8082151860242803
 30
0.0
 11
3.1642317452447304
 21
1.8557348208986533
 31
0.0
  0
LINE
  5
36B
100
AcDbEntity
100
AcDbLine
  8
0
 62
256
370
-1
  6
BYLAYER
 10
3.3070406755618373
 20
1.6729477255368392
 30
0.0
 11
3.2644472691172388
 21
1.6985404260996328
 31
0.0
  0
POINT
  5
36C
100
AcDbEntity
100
AcDbPoint
  8
0
 62
256
370
-1
  6
BYLAYER
 10
3.030362941414392
 20
1.6039642186506791
 30
0.0
  0
LINE
  5
36D
100
AcDbEntity
100
AcDbLine
  8
0
 62
256
370
-1
  6
BYLAYER
 10
3.2773082179362483
 20
1.7465381405256786
 30
0.0
 11
3.2293105035101846
 21
1.7593990893446798
 31
0.0
  0
LINE
  5
36E
100
AcDbEntity
100
AcDbLine
  8
0
 62
256
370
-1
  6
BYLAYER
 10
3.2644472691172473
 20
1.6985404260996328
 30
0.0
 11
3.2773082179362483
 21
1.7465381405256786
 31
0.0
  0
LINE
  5
36F
100
AcDbEntity
100
AcDbLine
  8
0
 62
256
370
-1
  6
BYLAYER
 10
3.2293105035101912
 20
1.7593990893446909
 30
0.0
 11
3.2284432778936663
 21
1.8090824116408022
 31
0.0
  0
LINE
  5
370
100
AcDbEntity
100
AcDbLine
  8
0
 62
256
370
-1
  6
BYLAYER
 10
3.3015546563203437
 20
1.5158486890225586
 30
0.0
 11
3.2789954641281618
 21
1.560123596614639
 31
0.0
  0
LINE
  5
371
100
AcDbEntity
100
AcDbLine
  8
0
 62
256
370
-1
  6
BYLAYER
 10
3.3153370808024167
 20
1.5940127024180015
 30
0.0
 11
3.2814479749990388
 21
1.6303543190922565
 31
0.0
  0
LINE
  5
372
100
AcDbEntity
100
AcDbLine
  8
0
 62
256
370
-1
  6
BYLAYER
 10
3.2789954641281733
 20
1.5601235966146352
 30
0.0
 11
3.3153370808024167
 21
1.5940127024180015
 31
0.0
  0
LINE
  5
373
100
AcDbEntity
100
AcDbLine
  8
0
 62
256
370
-1
  6
BYLAYER
 10
3.2814479749990513
 20
1.6303543190922603
 30
0.0
 11
3.3070406755618373
 21
1.6729477255368392
 31
0.0
  0
LINE
  5
374
100
AcDbEntity
100
AcDbLine
  8
0
 62
256
370
-1
  6
BYLAYER
 10
3.2136524423057313
 20
1.3855282974786312
 30
0.0
 11
3.2179832887715092
 21
1.4350300990977758
 31
0.0
  0
LINE
  5
375
100
AcDbEntity
100
AcDbLine
  8
0
 62
256
370
-1
  6
BYLAYER
 10
3.2667612176161995
 20
1.4445115679856935
 30
0.0
 11
3.2572797487282634
 21
1.4932894968303914
 31
0.0
  0
LINE
  5
376
100
AcDbEntity
100
AcDbLine
  8
0
 62
256
370
-1
  6
BYLAYER
 10
3.2179832887715136
 20
1.4350300990977682
 30
0.0
 11
3.2667612176161995
 21
1.4445115679856935
 31
0.0
  0
LINE
  5
377
100
AcDbEntity
100
AcDbLine
  8
0
 62
256
370
-1
  6
BYLAYER
 10
3.2572797487282745
 20
1.4932894968303874
 30
0.0
 11
3.3015546563203437
 21
1.5158486890225586
 31
0.0
  0
LINE
  5
378
100
AcDbEntity
100
AcDbLine
  8
0
 62
256
370
-1
  6
BYLAYER
 10
3.0700478510611551
 20
1.3215914141145377
 30
0.0
 11
3.0999525754534432
 21
1.3612763237613157
 31
0.0
  0
LINE
  5
379
100
AcDbEntity
100
AcDbLine
  8
0
 62
256
370
-1
  6
BYLAYER
 10
3.1463430181615699
 20
1.3434687012362847
 30
0.0
 11
3.1641506406865929
 21
1.389859143944429
 31
0.0
  0
LINE
  5
37A
100
AcDbEntity
100
AcDbLine
  8
0
 62
256
370
-1
  6
BYLAYER
 10
3.0999525754534432
 20
1.3612763237613081
 30
0.0
 11
3.1463430181615699
 21
1.3434687012362847
 31
0.0
  0
LINE
  5
37B
100
AcDbEntity
100
AcDbLine
  8
0
 62
256
370
-1
  6
BYLAYER
 10
3.1641506406865996
 20
1.3898591439444179
 30
0.0
 11
3.2136524423057313
 21
1.3855282974786312
 31
0.0
  0
LINE
  5
37C
100
AcDbEntity
100
AcDbLine
  8
0
 62
256
370
-1
  6
BYLAYER
 10
3.0303629414143991
 20
1.3514961385068227
 30
0.0
 11
3.0700478510611551
 21
1.3215914141145377
 31
0.0
  0
LINE
  5
37D
100
AcDbEntity
100
AcDbLine
  8
0
 62
256
370
-1
  6
BYLAYER
 10
2.9952261758073404
 20
1.3539531405077281
 30
0.0
 11
3.0113534899825227
 21
1.3159236443205176
 31
0.0
  0
LINE
  5
37E
100
AcDbEntity
100
AcDbLine
  8
0
 62
256
370
-1
  6
BYLAYER
 10
3.0303629414143991
 20
1.3514961385068227
 30
0.0
 11
3.0113534899825227
 21
1.3159236443205176
 31
0.0
  0
LINE
  5
37F
100
AcDbEntity
100
AcDbLine
  8
0
 62
256
370
-1
  6
BYLAYER
 10
2.8792576058567083
 20
1.3621451326353782
 30
0.0
 11
2.9276749220128968
 21
1.3733231508355113
 31
0.0
  0
LINE
  5
380
100
AcDbEntity
100
AcDbLine
  8
0
 62
256
370
-1
  6
BYLAYER
 10
2.9517655437462254
 20
1.3298625187743998
 30
0.0
 11
2.9952261758073404
 21
1.353953140507739
 31
0.0
  0
LINE
  5
381
100
AcDbEntity
100
AcDbLine
  8
0
 62
256
370
-1
  6
BYLAYER
 10
2.9276749220128924
 20
1.3733231508355077
 30
0.0
 11
2.9517655437462254
 21
1.3298625187743998
 31
0.0
  0
ARC
  5
382
100
AcDbEntity
  8
0
 62
256
370
-1
  6
BYLAYER
100
AcDbCircle
 10
5.0803639954584341
 20
1.6039590115329625
 30
0.0
 40
0.3
100
AcDbArc
 50
269.9999999999986358
 51
89.99999999999865
  0
LINE
  5
383
100
AcDbEntity
100
AcDbLine
  8
0
 62
256
370
-1
  6
BYLAYER
 10
2.8680795876565757
 20
1.4105624487915551
 30
0.0
 11
2.8792576058567083
 21
1.3621451326353782
 31
0.0
  0
POINT
  5
384
100
AcDbEntity
100
AcDbPoint
  8
0
 62
256
370
-1
  6
BYLAYER
 10
5.0803639954584341
 20
1.6039590115329625
 30
0.0
  0
LINE
  5
385
100
AcDbEntity
100
AcDbLine
  8
0
 62
256
370
-1
  6
BYLAYER
 10
2.1498898254079384
 20
1.703412153283685
 30
0.0
 11
2.7659784645248577
 21
1.6977075711332992
 31
0.0
  0
LINE
  5
386
100
AcDbEntity
100
AcDbLine
  8
0
 62
256
370
-1
  6
BYLAYER
 10
2.1498898254079384
 20
1.4834121532836819
 30
0.0
 11
2.7740737571368466
 21
1.4903273211332964
 31
0.0
  0
LINE
  5
387
100
AcDbEntity
100
AcDbLine
  8
0
 62
256
370
-1
  6
BYLAYER
 10
2.1498898254079384
 20
1.1834121532836819
 30
0.0
 11
2.1498898254079384
 21
1.4834121532836819
 31
0.0
  0
LINE
  5
388
100
AcDbEntity
100
AcDbLine
  8
0
 62
256
370
-1
  6
BYLAYER
 10
2.1498898254079384
 20
1.703412153283685
 30
0.0
 11
2.1498898254079384
 21
2.0034121532836853
 31
0.0
  0
LINE
  5
389
100
AcDbEntity
100
AcDbLine
  8
0
 62
256
370
-1
  6
BYLAYER
 10
2.1498898254079384
 20
2.0034121532836853
 30
0.0
 11
2.2550645832148319
 21
2.0034121532836853
 31
0.0
  0
LINE
  5
38A
100
AcDbEntity
100
AcDbLine
  8
0
 62
256
370
-1
  6
BYLAYER
 10
2.1498898254079384
 20
1.1834121532836819
 30
0.0
 11
2.2673498886107142
 21
1.1834121532836819
 31
0.0
  0
LINE
  5
38B
100
AcDbEntity
100
AcDbLine
  8
0
 62
256
370
-1
  6
BYLAYER
 10
2.6143629456877786
 20
1.1042324764003586
 30
0.0
 11
2.7909438746350439
 21
1.0192239298730432
 31
0.0
  0
LINE
  5
38C
100
AcDbEntity
100
AcDbLine
  8
0
 62
256
370
-1
  6
BYLAYER
 10
3.2911632220760803
 20
0.9548513896797495
 30
0.0
 11
5.080363995458427
 21
1.3039590115329625
 31
0.0
  0
LINE
  5
38D
100
AcDbEntity
100
AcDbLine
  8
0
 62
256
370
-1
  6
BYLAYER
 10
5.0803639954584412
 20
1.9039590115329625
 30
0.0
 11
3.3039100884921231
 21
2.2505884981809583
 31
0.0
  0
LINE
  5
38E
100
AcDbEntity
100
AcDbLine
  8
0
 62
256
370
-1
  6
BYLAYER
 10
2.7828648922902728
 20
2.1758169405298289
 30
0.0
 11
2.6228996464831162
 21
2.0929915973941355
 31
0.0
  0
ARC
  5
38F
100
AcDbEntity
  8
0
 62
256
370
-1
  6
BYLAYER
100
AcDbCircle
 10
3.1379569317121083
 20
1.7400442529897204
 30
0.0
 40
0.8
100
AcDbArc
 50
244.2931810605280987
 51
281.0407944460133649
  0
ARC
  5
390
100
AcDbEntity
  8
0
 62
256
370
-1
  6
BYLAYER
100
AcDbCircle
 10
3.150699955558558
 20
1.4653963846402789
 30
0.0
 40
0.8
100
AcDbArc
 50
78.9589251602954221
 51
117.3738044715262987
  0
ARC
  5
391
100
AcDbEntity
  8
0
 62
256
370
-1
  6
BYLAYER
100
AcDbCircle
 10
2.2550645832148319
 20
2.8034121532836851
 30
0.0
 40
0.8
100
AcDbArc
 50
270.0
 51
297.3738044715262845
  0
ARC
  5
392
100
AcDbEntity
  8
0
 62
256
370
-1
  6
BYLAYER
100
AcDbCircle
 10
2.2673498886107142
 20
0.3834121532836818
 30
0.0
 40
0.8
100
AcDbArc
 50
64.2931810605281129
 51
90.0
  0
LINE
  5
393
100
AcDbEntity
100
AcDbLine
  8
0
 62
256
370
-1
  6
BYLAYER
 10
2.1367589437096202
 20
2.4541527955275146
 30
0.0
 11
6.1367589437096202
 21
2.4541527955275146
 31
0.0
  0
LINE
  5
394
100
AcDbEntity
100
AcDbLine
  8
0
 62
256
370
-1
  6
BYLAYER
 10
6.1367589437096202
 20
2.4541527955275146
 30
0.0
 11
6.1367589437096202
 21
3.0541527955275143
 31
0.0
  0
LINE
  5
395
100
AcDbEntity
100
AcDbLine
  8
0
 62
256
370
-1
  6
BYLAYER
 10
6.1367589437096202
 20
3.0541527955275143
 30
0.0
 11
2.1367589437096202
 21
3.0541527955275143
 31
0.0
  0
LINE
  5
396
100
AcDbEntity
100
AcDbLine
  8
0
 62
256
370
-1
  6
BYLAYER
 10
2.1367589437096202
 20
3.0541527955275143
 30
0.0
 11
2.1367589437096202
 21
2.4541527955275146
 31
0.0
  0
ENDSEC
  0
SECTION
  2
OBJECTS
  0
DICTIONARY
  5
C
100
AcDbDictionary
280
0
281
1
  3
ACAD_GROUP
350
D
  3
ACAD_LAYOUT
350
1A
  3
ACAD_MLINESTYLE
350
17
  3
ACAD_PLOTSETTINGS
350
19
  3
ACAD_PLOTSTYLENAME
350
E
  3
AcDbVariableDictionary
350
397
  3
QCAD_OBJECTS
350
398
  0
DICTIONARY
  5
D
100
AcDbDictionary
280
0
281
1
  0
ACDBDICTIONARYWDFLT
  5
E
100
AcDbDictionary
281
1
  3
Normal
350
F
100
AcDbDictionaryWithDefault
340
F
  0
ACDBPLACEHOLDER
  5
F
  0
DICTIONARY
  5
17
100
AcDbDictionary
280
0
281
1
  3
Standard
350
18
  0
MLINESTYLE
  5
18
100
AcDbMlineStyle
  2
STANDARD
 70
0
  3

 62
256
 51
90.0
 52
90.0
 71
2
 49
0.5
 62
256
  6
BYLAYER
 49
-0.5
 62
256
  6
BYLAYER
  0
DICTIONARY
  5
19
100
AcDbDictionary
280
0
281
1
  0
DICTIONARY
  5
1A
100
AcDbDictionary
281
1
  3
Layout1
350
1E
  3
Layout2
350
26
  3
Model
350
22
  0
LAYOUT
  5
1E
100
AcDbPlotSettings
  1

  2
none_device
  4

  6

 40
0.0
 41
0.0
 42
0.0
 43
0.0
 44
0.0
 45
0.0
 46
0.0
 47
0.0
 48
0.0
 49
0.0
140
0.0
141
0.0
142
1.0
143
1.0
 70
688
 72
0
 73
0
 74
5
  7

 75
16
147
1.0
148
0.0
149
0.0
100
AcDbLayout
  1
Layout1
 70
1
 71
1
 10
0.0
 20
0.0
 11
420.0
 21
297.0
 12
0.0
 22
0.0
 32
0.0
 14
100000000000000000000.0
 24
100000000000000000000.0
 34
100000000000000000000.0
 15
-100000000000000000000.0
 25
-100000000000000000000.0
 35
-100000000000000000000.0
146
0.0
 13
0.0
 23
0.0
 33
0.0
 16
1.0
 26
0.0
 36
0.0
 17
0.0
 27
1.0
 37
0.0
 76
0
330
1B
  0
LAYOUT
  5
22
100
AcDbPlotSettings
  1

  2
none_device
  4

  6

 40
0.0
 41
0.0
 42
0.0
 43
0.0
 44
0.0
 45
0.0
 46
0.0
 47
0.0
 48
0.0
 49
0.0
140
0.0
141
0.0
142
1.0
143
1.0
 70
1712
 72
0
 73
0
 74
0
  7

 75
0
147
1.0
148
0.0
149
0.0
100
AcDbLayout
  1
Model
 70
1
 71
0
 10
0.0
 20
0.0
 11
12.0
 21
9.0
 12
0.0
 22
0.0
 32
0.0
 14
0.0
 24
0.0
 34
0.0
 15
0.0
 25
0.0
 35
0.0
146
0.0
 13
0.0
 23
0.0
 33
0.0
 16
1.0
 26
0.0
 36
0.0
 17
0.0
 27
1.0
 37
0.0
 76
0
330
1F
  0
LAYOUT
  5
26
100
AcDbPlotSettings
  1

  2
none_device
  4

  6

 40
0.0
 41
0.0
 42
0.0
 43
0.0
 44
0.0
 45
0.0
 46
0.0
 47
0.0
 48
0.0
 49
0.0
140
0.0
141
0.0
142
1.0
143
1.0
 70
688
 72
0
 73
0
 74
5
  7

 75
16
147
1.0
148
0.0
149
0.0
100
AcDbLayout
  1
Layout2
 70
1
 71
2
 10
0.0
 20
0.0
 11
12.0
 21
9.0
 12
0.0
 22
0.0
 32
0.0
 14
0.0
 24
0.0
 34
0.0
 15
0.0
 25
0.0
 35
0.0
146
0.0
 13
0.0
 23
0.0
 33
0.0
 16
1.0
 26
0.0
 36
0.0
 17
0.0
 27
1.0
 37
0.0
 76
0
330
23
  0
DICTIONARY
  5
397
100
AcDbDictionary
281
1
  3
DIMASSOC
350
39A
  3
HIDETEXT
350
399
  0
DICTIONARYVAR
  5
399
100
DictionaryVariables
280
0
  1
2
  0
DICTIONARYVAR
  5
39A
100
DictionaryVariables
280
0
  1
1
  0
DICTIONARY
  5
398
100
AcDbDictionary
281
1
  3
Grid/DisplayGrid00
350
39B
  3
Grid/DisplayGrid01
350
39C
  3
Grid/DisplayGrid02
350
39D
  3
Grid/DisplayGrid03
350
39E
  3
Grid/GridSpacingX00
350
39F
  3
Grid/GridSpacingX01
350
3A0
  3
Grid/GridSpacingX02
350
3A1
  3
Grid/GridSpacingX03
350
3A2
  3
Grid/GridSpacingY00
350
3A3
  3
Grid/GridSpacingY01
350
3A4
  3
Grid/GridSpacingY02
350
3A5
  3
Grid/GridSpacingY03
350
3A6
  3
Grid/IsometricGrid00
350
3A7
  3
Grid/IsometricGrid01
350
3A8
  3
Grid/IsometricGrid02
350
3A9
  3
Grid/IsometricGrid03
350
3AA
  3
Grid/IsometricProjection00
350
3AB
  3
Grid/IsometricProjection01
350
3AC
  3
Grid/IsometricProjection02
350
3AD
  3
Grid/IsometricProjection03
350
3AE
  3
Grid/MetaGridSpacingX00
350
3AF
  3
Grid/MetaGridSpacingX01
350
3B0
  3
Grid/MetaGridSpacingX02
350
3B1
  3
Grid/MetaGridSpacingX03
350
3B2
  3
Grid/MetaGridSpacingY00
350
3B3
  3
Grid/MetaGridSpacingY01
350
3B4
  3
Grid/MetaGridSpacingY02
350
3B5
  3
Grid/MetaGridSpacingY03
350
3B6
  3
MultiPageSettings/Columns
350
3B7
  3
MultiPageSettings/GlueMarginsBottom
350
3B8
  3
MultiPageSettings/GlueMarginsLeft
350
3B9
  3
MultiPageSettings/GlueMarginsRight
350
3BA
  3
MultiPageSettings/GlueMarginsTop
350
3BB
  3
MultiPageSettings/PrintCropMarks
350
3BC
  3
MultiPageSettings/Rows
350
3BD
  3
PageSettings/OffsetX
350
3BE
  3
PageSettings/OffsetY
350
3BF
  3
PageSettings/PageOrientation
350
3C0
  3
PageSettings/PaperHeight
350
3C1
  3
PageSettings/PaperSizeName
350
3C2
  3
PageSettings/PaperWidth
350
3C3
  3
PageSettings/Scale
350
3C4
  3
PageSettings/ShowPaperBorders
350
3C5
  3
UnitSettings/PaperUnit
350
3C6
  0
XRECORD
  5
39B
330
398
100
AcDbXrecord
280
1
290
1
  0
XRECORD
  5
39C
330
398
100
AcDbXrecord
280
1
290
1
  0
XRECORD
  5
39D
330
398
100
AcDbXrecord
280
1
290
1
  0
XRECORD
  5
39E
330
398
100
AcDbXrecord
280
1
290
1
  0
XRECORD
  5
39F
330
398
100
AcDbXrecord
280
1
1000
auto
  0
XRECORD
  5
3A0
330
398
100
AcDbXrecord
280
1
1000
auto
  0
XRECORD
  5
3A1
330
398
100
AcDbXrecord
280
1
1000
auto
  0
XRECORD
  5
3A2
330
398
100
AcDbXrecord
280
1
1000
auto
  0
XRECORD
  5
3A3
330
398
100
AcDbXrecord
280
1
1000
auto
  0
XRECORD
  5
3A4
330
398
100
AcDbXrecord
280
1
1000
auto
  0
XRECORD
  5
3A5
330
398
100
AcDbXrecord
280
1
1000
auto
  0
XRECORD
  5
3A6
330
398
100
AcDbXrecord
280
1
1000
auto
  0
XRECORD
  5
3A7
330
398
100
AcDbXrecord
280
1
290
0
  0
XRECORD
  5
3A8
330
398
100
AcDbXrecord
280
1
290
0
  0
XRECORD
  5
3A9
330
398
100
AcDbXrecord
280
1
290
0
  0
XRECORD
  5
3AA
330
398
100
AcDbXrecord
280
1
290
0
  0
XRECORD
  5
3AB
330
398
100
AcDbXrecord
280
1
 90
0
  0
XRECORD
  5
3AC
330
398
100
AcDbXrecord
280
1
 90
0
  0
XRECORD
  5
3AD
330
398
100
AcDbXrecord
280
1
 90
0
  0
XRECORD
  5
3AE
330
398
100
AcDbXrecord
280
1
 90
0
  0
XRECORD
  5
3AF
330
398
100
AcDbXrecord
280
1
1000
auto
  0
XRECORD
  5
3B0
330
398
100
AcDbXrecord
280
1
1000
auto
  0
XRECORD
  5
3B1
330
398
100
AcDbXrecord
280
1
1000
auto
  0
XRECORD
  5
3B2
330
398
100
AcDbXrecord
280
1
1000
auto
  0
XRECORD
  5
3B3
330
398
100
AcDbXrecord
280
1
1000
auto
  0
XRECORD
  5
3B4
330
398
100
AcDbXrecord
280
1
1000
auto
  0
XRECORD
  5
3B5
330
398
100
AcDbXrecord
280
1
1000
auto
  0
XRECORD
  5
3B6
330
398
100
AcDbXrecord
280
1
1000
auto
  0
XRECORD
  5
3B7
330
398
100
AcDbXrecord
280
1
 90
1
  0
XRECORD
  5
3B8
330
398
100
AcDbXrecord
280
1
 40
10.0
  0
XRECORD
  5
3B9
330
398
100
AcDbXrecord
280
1
 40
10.0
  0
XRECORD
  5
3BA
330
398
100
AcDbXrecord
280
1
 40
10.0
  0
XRECORD
  5
3BB
330
398
100
AcDbXrecord
280
1
 40
10.0
  0
XRECORD
  5
3BC
330
398
100
AcDbXrecord
280
1
290
0
  0
XRECORD
  5
3BD
330
398
100
AcDbXrecord
280
1
 90
1
  0
XRECORD
  5
3BE
330
398
100
AcDbXrecord
280
1
 40
0.0
  0
XRECORD
  5
3BF
330
398
100
AcDbXrecord
280
1
 40
0.0
  0
XRECORD
  5
3C0
330
398
100
AcDbXrecord
280
1
1000
Landscape
  0
XRECORD
  5
3C1
330
398
100
AcDbXrecord
280
1
1000
420
  0
XRECORD
  5
3C2
330
398
100
AcDbXrecord
280
1
1000
ISO A3
  0
XRECORD
  5
3C3
330
398
100
AcDbXrecord
280
1
1000
297
  0
XRECORD
  5
3C4
330
398
100
AcDbXrecord
280
1
1000
1:1
  0
XRECORD
  5
3C5
330
398
100
AcDbXrecord
280
1
290
1
  0
XRECORD
  5
3C6
330
398
100
AcDbXrecord
280
1
 90
4
  0
ENDSEC
  0
EOF
