999
dxflib 3.3.4.0
  0
SECTION
  2
HEADER
  9
$ACADVER
  1
AC1015
  9
$HANDSEED
  5
FFFF
  9
$DIMADEC
 70
0
  9
$DIMASZ
 40
2.5
  9
$DIMAUNIT
 70
0
  9
$DIMAZIN
 70
2
  9
$DIMDEC
 70
4
  9
$DIMEXE
 40
1.25
  9
$DIMEXO
 40
0.625
  9
$DIMGAP
 40
0.625
  9
$DIMLUNIT
 70
2
  9
$DIMSCALE
 40
1.0
  9
$DIMTSZ
 40
0.0
  9
$DIMTXT
 40
2.5
  9
$DIMZIN
 70
8
  9
$DWGCODEPAGE
  3
ANSI_1252
  9
$INSUNITS
 70
5
  9
$LTSCALE
 40
1.0
  0
ENDSEC
  0
SECTION
  2
TABLES
  0
TABLE
  2
VPORT
  5
8
100
AcDbSymbolTable
 70
1
  0
VPORT
  5
30
100
AcDbSymbolTableRecord
100
AcDbViewportTableRecord
  2
*Active
 70
0
 10
0.0
 20
0.0
 11
1.0
 21
1.0
 12
286.3055555555554861
 22
148.5
 13
0.0
 23
0.0
 14
10.0
 24
10.0
 15
10.0
 25
10.0
 16
0.0
 26
0.0
 36
1.0
 17
0.0
 27
0.0
 37
0.0
 40
297.0
 41
1.92798353909465
 42
50.0
 43
0.0
 44
0.0
 50
0.0
 51
0.0
 71
0
 72
100
 73
1
 74
3
 75
1
 76
1
 77
0
 78
0
281
0
 65
1
110
0.0
120
0.0
130
0.0
111
1.0
121
0.0
131
0.0
112
0.0
122
1.0
132
0.0
 79
0
146
0.0
  0
ENDTAB
  0
TABLE
  2
LTYPE
  5
5
100
AcDbSymbolTable
 70
21
  0
LTYPE
  5
16
100
AcDbSymbolTableRecord
100
AcDbLinetypeTableRecord
  2
CONTINUOUS
 70
0
  3
Solid line
 72
65
 73
0
 40
0.0
  0
LTYPE
  5
31
100
AcDbSymbolTableRecord
100
AcDbLinetypeTableRecord
  2
CENTER2
 70
0
  3
Center (.5x) ___ _ ___ _ ___ _ ___ _ ___ _ ___
 72
65
 73
4
 40
28.5749999999999993
 49
19.0500000000000007
 74
0
 49
-3.1749999999999998
 74
0
 49
3.1749999999999998
 74
0
 49
-3.1749999999999998
 74
0
  0
LTYPE
  5
32
100
AcDbSymbolTableRecord
100
AcDbLinetypeTableRecord
  2
DIVIDEX2
 70
0
  3
Divide (2x) ________  .  .  ________  .  .  _
 72
65
 73
6
 40
63.5
 49
25.3999999999999986
 74
0
 49
-12.6999999999999993
 74
0
 49
0.0
 74
0
 49
-12.6999999999999993
 74
0
 49
0.0
 74
0
 49
-12.6999999999999993
 74
0
  0
LTYPE
  5
33
100
AcDbSymbolTableRecord
100
AcDbLinetypeTableRecord
  2
DOT2
 70
0
  3
Dot (.5x) .....................................
 72
65
 73
2
 40
3.1749999999999998
 49
0.0
 74
0
 49
-3.1749999999999998
 74
0
  0
LTYPE
  5
34
100
AcDbSymbolTableRecord
100
AcDbLinetypeTableRecord
  2
DASHDOT2
 70
0
  3
Dash dot (.5x) _._._._._._._._._._._._._._._.
 72
65
 73
4
 40
12.6999999999999993
 49
6.3499999999999996
 74
0
 49
-3.1749999999999998
 74
0
 49
0.0
 74
0
 49
-3.1749999999999998
 74
0
  0
LTYPE
  5
35
100
AcDbSymbolTableRecord
100
AcDbLinetypeTableRecord
  2
DIVIDE
 70
0
  3
Divide ____ . . ____ . . ____ . . ____ . . ____
 72
65
 73
6
 40
31.75
 49
12.6999999999999993
 74
0
 49
-6.3499999999999996
 74
0
 49
0.0
 74
0
 49
-6.3499999999999996
 74
0
 49
0.0
 74
0
 49
-6.3499999999999996
 74
0
  0
LTYPE
  5
36
100
AcDbSymbolTableRecord
100
AcDbLinetypeTableRecord
  2
DASHDOT
 70
0
  3
Dash dot __ . __ . __ . __ . __ . __ . __ . __
 72
65
 73
4
 40
25.3999999999999986
 49
12.6999999999999993
 74
0
 49
-6.3499999999999996
 74
0
 49
0.0
 74
0
 49
-6.3499999999999996
 74
0
  0
LTYPE
  5
37
100
AcDbSymbolTableRecord
100
AcDbLinetypeTableRecord
  2
BORDER
 70
0
  3
Border __ __ . __ __ . __ __ . __ __ . __ __ .
 72
65
 73
6
 40
44.4500000000000028
 49
12.6999999999999993
 74
0
 49
-6.3499999999999996
 74
0
 49
12.6999999999999993
 74
0
 49
-6.3499999999999996
 74
0
 49
0.0
 74
0
 49
-6.3499999999999996
 74
0
  0
LTYPE
  5
38
100
AcDbSymbolTableRecord
100
AcDbLinetypeTableRecord
  2
DASHDOTX2
 70
0
  3
Dash dot (2x) ____  .  ____  .  ____  .  ___
 72
65
 73
4
 40
50.7999999999999972
 49
25.3999999999999986
 74
0
 49
-12.6999999999999993
 74
0
 49
0.0
 74
0
 49
-12.6999999999999993
 74
0
  0
LTYPE
  5
39
100
AcDbSymbolTableRecord
100
AcDbLinetypeTableRecord
  2
CENTERX2
 70
0
  3
Center (2x) ________  __  ________  __  _____
 72
65
 73
4
 40
101.5999999999999943
 49
63.5
 74
0
 49
-12.6999999999999993
 74
0
 49
12.6999999999999993
 74
0
 49
-12.6999999999999993
 74
0
  0
LTYPE
  5
3A
100
AcDbSymbolTableRecord
100
AcDbLinetypeTableRecord
  2
BORDER2
 70
0
  3
Border (.5x) __.__.__.__.__.__.__.__.__.__.__.
 72
65
 73
6
 40
22.2250000000000014
 49
6.3499999999999996
 74
0
 49
-3.1749999999999998
 74
0
 49
6.3499999999999996
 74
0
 49
-3.1749999999999998
 74
0
 49
0.0
 74
0
 49
-3.1749999999999998
 74
0
  0
LTYPE
  5
3B
100
AcDbSymbolTableRecord
100
AcDbLinetypeTableRecord
  2
BORDERX2
 70
0
  3
Border (2x) ____  ____  .  ____  ____  .  ___
 72
65
 73
6
 40
88.9000000000000057
 49
25.3999999999999986
 74
0
 49
-12.6999999999999993
 74
0
 49
25.3999999999999986
 74
0
 49
-12.6999999999999993
 74
0
 49
0.0
 74
0
 49
-12.6999999999999993
 74
0
  0
LTYPE
  5
14
100
AcDbSymbolTableRecord
100
AcDbLinetypeTableRecord
  2
BYBLOCK
 70
0
  3

 72
65
 73
0
 40
0.0
  0
LTYPE
  5
15
100
AcDbSymbolTableRecord
100
AcDbLinetypeTableRecord
  2
BYLAYER
 70
0
  3

 72
65
 73
0
 40
0.0
  0
LTYPE
  5
3C
100
AcDbSymbolTableRecord
100
AcDbLinetypeTableRecord
  2
DASHED2
 70
0
  3
Dashed (.5x) _ _ _ _ _ _ _ _ _ _ _ _ _ _ _ _ _
 72
65
 73
2
 40
9.5250000000000004
 49
6.3499999999999996
 74
0
 49
-3.1749999999999998
 74
0
  0
LTYPE
  5
3D
100
AcDbSymbolTableRecord
100
AcDbLinetypeTableRecord
  2
CENTER
 70
0
  3
Center ____ _ ____ _ ____ _ ____ _ ____ _ ____
 72
65
 73
4
 40
50.7999999999999972
 49
31.75
 74
0
 49
-6.3499999999999996
 74
0
 49
6.3499999999999996
 74
0
 49
-6.3499999999999996
 74
0
  0
LTYPE
  5
3E
100
AcDbSymbolTableRecord
100
AcDbLinetypeTableRecord
  2
DIVIDE2
 70
0
  3
Divide (.5x) __..__..__..__..__..__..__..__.._
 72
65
 73
6
 40
15.875
 49
6.3499999999999996
 74
0
 49
-3.1749999999999998
 74
0
 49
0.0
 74
0
 49
-3.1749999999999998
 74
0
 49
0.0
 74
0
 49
-3.1749999999999998
 74
0
  0
LTYPE
  5
3F
100
AcDbSymbolTableRecord
100
AcDbLinetypeTableRecord
  2
DASHED
 70
0
  3
Dashed __ __ __ __ __ __ __ __ __ __ __ __ __ _
 72
65
 73
2
 40
19.0500000000000007
 49
12.6999999999999993
 74
0
 49
-6.3499999999999996
 74
0
  0
LTYPE
  5
40
100
AcDbSymbolTableRecord
100
AcDbLinetypeTableRecord
  2
DOTX2
 70
0
  3
Dot (2x) .  .  .  .  .  .  .  .  .  .  .  .  .
 72
65
 73
2
 40
12.6999999999999993
 49
0.0
 74
0
 49
-12.6999999999999993
 74
0
  0
LTYPE
  5
41
100
AcDbSymbolTableRecord
100
AcDbLinetypeTableRecord
  2
DASHEDX2
 70
0
  3
Dashed (2x) ____  ____  ____  ____  ____  ___
 72
65
 73
2
 40
38.1000000000000014
 49
25.3999999999999986
 74
0
 49
-12.6999999999999993
 74
0
  0
LTYPE
  5
42
100
AcDbSymbolTableRecord
100
AcDbLinetypeTableRecord
  2
DOT
 70
0
  3
Dot . . . . . . . . . . . . . . . . . . . . . .
 72
65
 73
2
 40
6.3499999999999996
 49
0.0
 74
0
 49
-6.3499999999999996
 74
0
  0
ENDTAB
  0
TABLE
  2
LAYER
  5
2
100
AcDbSymbolTable
 70
1
  0
LAYER
  5
10
100
AcDbSymbolTableRecord
100
AcDbLayerTableRecord
  2
0
 70
0
 62
7
420
16777215
  6
CONTINUOUS
370
25
390
F
  0
ENDTAB
  0
TABLE
  2
STYLE
  5
3
100
AcDbSymbolTable
 70
1
  0
STYLE
  5
43
100
AcDbSymbolTableRecord
100
AcDbTextStyleTableRecord
  2
Standard
 70
0
 40
0.0
 41
1.0
 50
0.0
 71
0
 42
2.5
  3

  4

1001
ACAD
1000
txt
1071
0
  0
ENDTAB
  0
TABLE
  2
VIEW
  5
6
100
AcDbSymbolTable
 70
0
  0
ENDTAB
  0
TABLE
  2
UCS
  5
7
100
AcDbSymbolTable
 70
0
  0
ENDTAB
  0
TABLE
  2
APPID
  5
9
100
AcDbSymbolTable
 70
1
  0
APPID
  5
12
100
AcDbSymbolTableRecord
100
AcDbRegAppTableRecord
  2
ACAD
 70
0
  0
APPID
  5
44
100
AcDbSymbolTableRecord
100
AcDbRegAppTableRecord
  2
QCAD
 70
0
  0
ENDTAB
  0
TABLE
  2
DIMSTYLE
  5
A
100
AcDbSymbolTable
 70
1
100
AcDbDimStyleTable
 71
0
  0
DIMSTYLE
105
27
100
AcDbSymbolTableRecord
100
AcDbDimStyleTableRecord
  2
Standard
 41
2.5
 42
0.625
 43
3.75
 44
1.25
 70
0
 73
0
 74
0
 77
1
 78
8
140
2.5
141
2.5
143
0.03937007874016
147
0.625
171
3
172
1
271
2
272
2
274
3
278
44
283
0
284
8
340
43
  0
ENDTAB
  0
TABLE
  2
BLOCK_RECORD
  5
1
100
AcDbSymbolTable
 70
1
  0
BLOCK_RECORD
  5
1F
100
AcDbSymbolTableRecord
100
AcDbBlockTableRecord
  2
*Model_Space
340
22
  0
BLOCK_RECORD
  5
1B
100
AcDbSymbolTableRecord
100
AcDbBlockTableRecord
  2
*Paper_Space
340
1E
  0
BLOCK_RECORD
  5
23
100
AcDbSymbolTableRecord
100
AcDbBlockTableRecord
  2
*Paper_Space0
340
26
  0
ENDTAB
  0
ENDSEC
  0
SECTION
  2
BLOCKS
  0
BLOCK
  5
20
100
AcDbEntity
  8
0
100
AcDbBlockBegin
  2
*Model_Space
 70
0
 10
0.0
 20
0.0
 30
0.0
  3
*Model_Space
  1

  0
ENDBLK
  5
21
100
AcDbEntity
  8
0
100
AcDbBlockEnd
  0
BLOCK
  5
1C
100
AcDbEntity
 67
1
  8
0
100
AcDbBlockBegin
  2
*Paper_Space
 70
0
 10
0.0
 20
0.0
 30
0.0
  3
*Paper_Space
  1

  0
ENDBLK
  5
1D
100
AcDbEntity
 67
1
  8
0
100
AcDbBlockEnd
  0
BLOCK
  5
24
100
AcDbEntity
  8
0
100
AcDbBlockBegin
  2
*Paper_Space0
 70
0
 10
0.0
 20
0.0
 30
0.0
  3
*Paper_Space0
  1

  0
ENDBLK
  5
25
100
AcDbEntity
  8
0
100
AcDbBlockEnd
  0
ENDSEC
  0
SECTION
  2
ENTITIES
  0
LINE
  5
45
100
AcDbEntity
100
AcDbLine
  8
0
 62
256
370
-1
  6
BYLAYER
 10
2.7740737571368466
 20
1.4903273211332964
 30
0.0
 11
2.8210574171043072
 21
1.4627858598813468
 31
0.0
  0
LINE
  5
46
100
AcDbEntity
100
AcDbLine
  8
0
 62
256
370
-1
  6
BYLAYER
 10
2.8184567968355463
 20
1.4131630690603203
 30
0.0
 11
2.8680795876565801
 21
1.4105624487915662
 31
0.0
  0
LINE
  5
47
100
AcDbEntity
100
AcDbLine
  8
0
 62
256
370
-1
  6
BYLAYER
 10
2.8210574171043001
 20
1.4627858598813468
 30
0.0
 11
2.8184567968355463
 21
1.4131630690603203
 31
0.0
  0
LINE
  5
48
100
AcDbEntity
100
AcDbLine
  8
0
 62
256
370
-1
  6
BYLAYER
 10
2.8056633741716208
 20
1.7795187608197349
 30
0.0
 11
2.8117191703651288
 21
1.7301982587225981
 31
0.0
  0
LINE
  5
49
100
AcDbEntity
100
AcDbLine
  8
0
 62
256
370
-1
  6
BYLAYER
 10
2.8117191703651248
 20
1.7301982587226052
 30
0.0
 11
2.7659784645248577
 21
1.6977075711332992
 31
0.0
  0
LINE
  5
4A
100
AcDbEntity
100
AcDbLine
  8
0
 62
256
370
-1
  6
BYLAYER
 10
2.8549838762687392
 20
1.7855745570132386
 30
0.0
 11
2.8056633741716208
 21
1.7795187608197349
 31
0.0
  0
LINE
  5
4B
100
AcDbEntity
100
AcDbLine
  8
0
 62
256
370
-1
  6
BYLAYER
 10
2.9328366350260122
 20
1.8719155432555694
 30
0.0
 11
2.9118363572757002
 21
1.8268803022874021
 31
0.0
  0
LINE
  5
4C
100
AcDbEntity
100
AcDbLine
  8
0
 62
256
370
-1
  6
BYLAYER
 10
2.8627572441351434
 20
1.834653670153799
 30
0.0
 11
2.8549838762687543
 21
1.7855745570132351
 31
0.0
  0
LINE
  5
4D
100
AcDbEntity
100
AcDbLine
  8
0
 62
256
370
-1
  6
BYLAYER
 10
2.9118363572757002
 20
1.8268803022874098
 30
0.0
 11
2.8627572441351434
 21
1.834653670153799
 31
0.0
  0
LINE
  5
4E
100
AcDbEntity
100
AcDbLine
  8
0
 62
256
370
-1
  6
BYLAYER
 10
2.9778718759941616
 20
1.850915265505261
 30
0.0
 11
2.9328366350260122
 21
1.8719155432555694
 31
0.0
  0
LINE
  5
4F
100
AcDbEntity
100
AcDbLine
  8
0
 62
256
370
-1
  6
BYLAYER
 10
3.0896485117414945
 20
1.8828808978691622
 30
0.0
 11
3.0479742244181689
 21
1.8558172992402995
 31
0.0
  0
LINE
  5
50
100
AcDbEntity
100
AcDbLine
  8
0
 62
256
370
-1
  6
BYLAYER
 10
3.010472033338647
 20
1.8884174565847855
 30
0.0
 11
2.9778718759941682
 21
1.8509152655052539
 31
0.0
  0
LINE
  5
51
100
AcDbEntity
100
AcDbLine
  8
0
 62
256
370
-1
  6
BYLAYER
 10
3.0479742244181725
 20
1.8558172992403064
 30
0.0
 11
3.010472033338647
 21
1.8884174565847855
 31
0.0
  0
LINE
  5
52
100
AcDbEntity
100
AcDbLine
  8
0
 62
256
370
-1
  6
BYLAYER
 10
3.1167121103703432
 20
1.8412066105458542
 30
0.0
 11
3.0896485117414945
 21
1.8828808978691622
 31
0.0
  0
LINE
  5
53
100
AcDbEntity
100
AcDbLine
  8
0
 62
256
370
-1
  6
BYLAYER
 10
3.2284432778936663
 20
1.8090824116408022
 30
0.0
 11
3.178759955597533
 21
1.8082151860242768
 31
0.0
  0
LINE
  5
54
100
AcDbEntity
100
AcDbLine
  8
0
 62
256
370
-1
  6
BYLAYER
 10
3.1642317452447304
 20
1.8557348208986533
 30
0.0
 11
3.1167121103703432
 21
1.8412066105458398
 31
0.0
  0
LINE
  5
55
100
AcDbEntity
100
AcDbLine
  8
0
 62
256
370
-1
  6
BYLAYER
 10
3.178759955597541
 20
1.8082151860242803
 30
0.0
 11
3.1642317452447304
 21
1.8557348208986533
 31
0.0
  0
LINE
  5
56
100
AcDbEntity
100
AcDbLine
  8
0
 62
256
370
-1
  6
BYLAYER
 10
3.3070406755618373
 20
1.6729477255368392
 30
0.0
 11
3.2644472691172388
 21
1.6985404260996328
 31
0.0
  0
POINT
  5
57
100
AcDbEntity
100
AcDbPoint
  8
0
 62
256
370
-1
  6
BYLAYER
 10
3.030362941414392
 20
1.6039642186506791
 30
0.0
  0
LINE
  5
58
100
AcDbEntity
100
AcDbLine
  8
0
 62
256
370
-1
  6
BYLAYER
 10
3.2773082179362483
 20
1.7465381405256786
 30
0.0
 11
3.2293105035101846
 21
1.7593990893446798
 31
0.0
  0
LINE
  5
59
100
AcDbEntity
100
AcDbLine
  8
0
 62
256
370
-1
  6
BYLAYER
 10
3.2644472691172473
 20
1.6985404260996328
 30
0.0
 11
3.2773082179362483
 21
1.7465381405256786
 31
0.0
  0
LINE
  5
5A
100
AcDbEntity
100
AcDbLine
  8
0
 62
256
370
-1
  6
BYLAYER
 10
3.2293105035101912
 20
1.7593990893446909
 30
0.0
 11
3.2284432778936663
 21
1.8090824116408022
 31
0.0
  0
LINE
  5
5B
100
AcDbEntity
100
AcDbLine
  8
0
 62
256
370
-1
  6
BYLAYER
 10
3.3015546563203437
 20
1.5158486890225586
 30
0.0
 11
3.2789954641281618
 21
1.560123596614639
 31
0.0
  0
LINE
  5
5C
100
AcDbEntity
100
AcDbLine
  8
0
 62
256
370
-1
  6
BYLAYER
 10
3.3153370808024167
 20
1.5940127024180015
 30
0.0
 11
3.2814479749990388
 21
1.6303543190922565
 31
0.0
  0
LINE
  5
5D
100
AcDbEntity
100
AcDbLine
  8
0
 62
256
370
-1
  6
BYLAYER
 10
3.2789954641281733
 20
1.5601235966146352
 30
0.0
 11
3.3153370808024167
 21
1.5940127024180015
 31
0.0
  0
LINE
  5
5E
100
AcDbEntity
100
AcDbLine
  8
0
 62
256
370
-1
  6
BYLAYER
 10
3.2814479749990513
 20
1.6303543190922603
 30
0.0
 11
3.3070406755618373
 21
1.6729477255368392
 31
0.0
  0
LINE
  5
5F
100
AcDbEntity
100
AcDbLine
  8
0
 62
256
370
-1
  6
BYLAYER
 10
3.2136524423057313
 20
1.3855282974786312
 30
0.0
 11
3.2179832887715092
 21
1.4350300990977758
 31
0.0
  0
LINE
  5
60
100
AcDbEntity
100
AcDbLine
  8
0
 62
256
370
-1
  6
BYLAYER
 10
3.2667612176161995
 20
1.4445115679856935
 30
0.0
 11
3.2572797487282634
 21
1.4932894968303914
 31
0.0
  0
LINE
  5
61
100
AcDbEntity
100
AcDbLine
  8
0
 62
256
370
-1
  6
BYLAYER
 10
3.2179832887715136
 20
1.4350300990977682
 30
0.0
 11
3.2667612176161995
 21
1.4445115679856935
 31
0.0
  0
LINE
  5
62
100
AcDbEntity
100
AcDbLine
  8
0
 62
256
370
-1
  6
BYLAYER
 10
3.2572797487282745
 20
1.4932894968303874
 30
0.0
 11
3.3015546563203437
 21
1.5158486890225586
 31
0.0
  0
LINE
  5
63
100
AcDbEntity
100
AcDbLine
  8
0
 62
256
370
-1
  6
BYLAYER
 10
3.0700478510611551
 20
1.3215914141145377
 30
0.0
 11
3.0999525754534432
 21
1.3612763237613157
 31
0.0
  0
LINE
  5
64
100
AcDbEntity
100
AcDbLine
  8
0
 62
256
370
-1
  6
BYLAYER
 10
3.1463430181615699
 20
1.3434687012362847
 30
0.0
 11
3.1641506406865929
 21
1.389859143944429
 31
0.0
  0
LINE
  5
65
100
AcDbEntity
100
AcDbLine
  8
0
 62
256
370
-1
  6
BYLAYER
 10
3.0999525754534432
 20
1.3612763237613081
 30
0.0
 11
3.1463430181615699
 21
1.3434687012362847
 31
0.0
  0
LINE
  5
66
100
AcDbEntity
100
AcDbLine
  8
0
 62
256
370
-1
  6
BYLAYER
 10
3.1641506406865996
 20
1.3898591439444179
 30
0.0
 11
3.2136524423057313
 21
1.3855282974786312
 31
0.0
  0
LINE
  5
67
100
AcDbEntity
100
AcDbLine
  8
0
 62
256
370
-1
  6
BYLAYER
 10
3.0303629414143991
 20
1.3514961385068227
 30
0.0
 11
3.0700478510611551
 21
1.3215914141145377
 31
0.0
  0
LINE
  5
68
100
AcDbEntity
100
AcDbLine
  8
0
 62
256
370
-1
  6
BYLAYER
 10
2.9952261758073404
 20
1.3539531405077281
 30
0.0
 11
3.0113534899825227
 21
1.3159236443205176
 31
0.0
  0
LINE
  5
69
100
AcDbEntity
100
AcDbLine
  8
0
 62
256
370
-1
  6
BYLAYER
 10
3.0303629414143991
 20
1.3514961385068227
 30
0.0
 11
3.0113534899825227
 21
1.3159236443205176
 31
0.0
  0
LINE
  5
6A
100
AcDbEntity
100
AcDbLine
  8
0
 62
256
370
-1
  6
BYLAYER
 10
2.8792576058567083
 20
1.3621451326353782
 30
0.0
 11
2.9276749220128968
 21
1.3733231508355113
 31
0.0
  0
LINE
  5
6B
100
AcDbEntity
100
AcDbLine
  8
0
 62
256
370
-1
  6
BYLAYER
 10
2.9517655437462254
 20
1.3298625187743998
 30
0.0
 11
2.9952261758073404
 21
1.353953140507739
 31
0.0
  0
LINE
  5
6C
100
AcDbEntity
100
AcDbLine
  8
0
 62
256
370
-1
  6
BYLAYER
 10
2.9276749220128924
 20
1.3733231508355077
 30
0.0
 11
2.9517655437462254
 21
1.3298625187743998
 31
0.0
  0
ARC
  5
6D
100
AcDbEntity
  8
0
 62
256
370
-1
  6
BYLAYER
100
AcDbCircle
 10
5.0803639954584341
 20
1.6039590115329625
 30
0.0
 40
0.3
100
AcDbArc
 50
269.9999999999986358
 51
89.99999999999865
  0
LINE
  5
6E
100
AcDbEntity
100
AcDbLine
  8
0
 62
256
370
-1
  6
BYLAYER
 10
2.8680795876565757
 20
1.4105624487915551
 30
0.0
 11
2.8792576058567083
 21
1.3621451326353782
 31
0.0
  0
POINT
  5
6F
100
AcDbEntity
100
AcDbPoint
  8
0
 62
256
370
-1
  6
BYLAYER
 10
5.0803639954584341
 20
1.6039590115329625
 30
0.0
  0
LINE
  5
70
100
AcDbEntity
100
AcDbLine
  8
0
 62
256
370
-1
  6
BYLAYER
 10
2.1498898254079384
 20
1.703412153283685
 30
0.0
 11
2.7659784645248577
 21
1.6977075711332992
 31
0.0
  0
LINE
  5
71
100
AcDbEntity
100
AcDbLine
  8
0
 62
256
370
-1
  6
BYLAYER
 10
2.1498898254079384
 20
1.4834121532836819
 30
0.0
 11
2.7740737571368466
 21
1.4903273211332964
 31
0.0
  0
LINE
  5
72
100
AcDbEntity
100
AcDbLine
  8
0
 62
256
370
-1
  6
BYLAYER
 10
2.1498898254079384
 20
1.1834121532836819
 30
0.0
 11
2.1498898254079384
 21
1.4834121532836819
 31
0.0
  0
LINE
  5
73
100
AcDbEntity
100
AcDbLine
  8
0
 62
256
370
-1
  6
BYLAYER
 10
2.1498898254079384
 20
1.703412153283685
 30
0.0
 11
2.1498898254079384
 21
2.0034121532836853
 31
0.0
  0
LINE
  5
74
100
AcDbEntity
100
AcDbLine
  8
0
 62
256
370
-1
  6
BYLAYER
 10
2.1498898254079384
 20
2.0034121532836853
 30
0.0
 11
2.2550645832148319
 21
2.0034121532836853
 31
0.0
  0
LINE
  5
75
100
AcDbEntity
100
AcDbLine
  8
0
 62
256
370
-1
  6
BYLAYER
 10
2.1498898254079384
 20
1.1834121532836819
 30
0.0
 11
2.2673498886107142
 21
1.1834121532836819
 31
0.0
  0
LINE
  5
76
100
AcDbEntity
100
AcDbLine
  8
0
 62
256
370
-1
  6
BYLAYER
 10
2.6143629456877786
 20
1.1042324764003586
 30
0.0
 11
2.7909438746350439
 21
1.0192239298730432
 31
0.0
  0
LINE
  5
77
100
AcDbEntity
100
AcDbLine
  8
0
 62
256
370
-1
  6
BYLAYER
 10
3.2911632220760803
 20
0.9548513896797495
 30
0.0
 11
5.080363995458427
 21
1.3039590115329625
 31
0.0
  0
LINE
  5
78
100
AcDbEntity
100
AcDbLine
  8
0
 62
256
370
-1
  6
BYLAYER
 10
5.0803639954584412
 20
1.9039590115329625
 30
0.0
 11
3.3039100884921231
 21
2.2505884981809583
 31
0.0
  0
LINE
  5
79
100
AcDbEntity
100
AcDbLine
  8
0
 62
256
370
-1
  6
BYLAYER
 10
2.7828648922902728
 20
2.1758169405298289
 30
0.0
 11
2.6228996464831162
 21
2.0929915973941355
 31
0.0
  0
ARC
  5
7A
100
AcDbEntity
  8
0
 62
256
370
-1
  6
BYLAYER
100
AcDbCircle
 10
3.1379569317121083
 20
1.7400442529897204
 30
0.0
 40
0.8
100
AcDbArc
 50
244.2931810605280987
 51
281.0407944460133649
  0
ARC
  5
7B
100
AcDbEntity
  8
0
 62
256
370
-1
  6
BYLAYER
100
AcDbCircle
 10
3.150699955558558
 20
1.4653963846402789
 30
0.0
 40
0.8
100
AcDbArc
 50
78.9589251602954221
 51
117.3738044715262987
  0
ARC
  5
7C
100
AcDbEntity
  8
0
 62
256
370
-1
  6
BYLAYER
100
AcDbCircle
 10
2.2550645832148319
 20
2.8034121532836851
 30
0.0
 40
0.8
100
AcDbArc
 50
270.0
 51
297.3738044715262845
  0
ARC
  5
7D
100
AcDbEntity
  8
0
 62
256
370
-1
  6
BYLAYER
100
AcDbCircle
 10
2.2673498886107142
 20
0.3834121532836818
 30
0.0
 40
0.8
100
AcDbArc
 50
64.2931810605281129
 51
90.0
  0
ENDSEC
  0
SECTION
  2
OBJECTS
  0
DICTIONARY
  5
C
100
AcDbDictionary
280
0
281
1
  3
ACAD_GROUP
350
D
  3
ACAD_LAYOUT
350
1A
  3
ACAD_MLINESTYLE
350
17
  3
ACAD_PLOTSETTINGS
350
19
  3
ACAD_PLOTSTYLENAME
350
E
  3
AcDbVariableDictionary
350
7E
  3
QCAD_OBJECTS
350
7F
  0
DICTIONARY
  5
D
100
AcDbDictionary
280
0
281
1
  0
ACDBDICTIONARYWDFLT
  5
E
100
AcDbDictionary
281
1
  3
Normal
350
F
100
AcDbDictionaryWithDefault
340
F
  0
ACDBPLACEHOLDER
  5
F
  0
DICTIONARY
  5
17
100
AcDbDictionary
280
0
281
1
  3
Standard
350
18
  0
MLINESTYLE
  5
18
100
AcDbMlineStyle
  2
STANDARD
 70
0
  3

 62
256
 51
90.0
 52
90.0
 71
2
 49
0.5
 62
256
  6
BYLAYER
 49
-0.5
 62
256
  6
BYLAYER
  0
DICTIONARY
  5
19
100
AcDbDictionary
280
0
281
1
  0
DICTIONARY
  5
1A
100
AcDbDictionary
281
1
  3
Layout1
350
1E
  3
Layout2
350
26
  3
Model
350
22
  0
LAYOUT
  5
1E
100
AcDbPlotSettings
  1

  2
none_device
  4

  6

 40
0.0
 41
0.0
 42
0.0
 43
0.0
 44
0.0
 45
0.0
 46
0.0
 47
0.0
 48
0.0
 49
0.0
140
0.0
141
0.0
142
1.0
143
1.0
 70
688
 72
0
 73
0
 74
5
  7

 75
16
147
1.0
148
0.0
149
0.0
100
AcDbLayout
  1
Layout1
 70
1
 71
1
 10
0.0
 20
0.0
 11
420.0
 21
297.0
 12
0.0
 22
0.0
 32
0.0
 14
100000000000000000000.0
 24
100000000000000000000.0
 34
100000000000000000000.0
 15
-100000000000000000000.0
 25
-100000000000000000000.0
 35
-100000000000000000000.0
146
0.0
 13
0.0
 23
0.0
 33
0.0
 16
1.0
 26
0.0
 36
0.0
 17
0.0
 27
1.0
 37
0.0
 76
0
330
1B
  0
LAYOUT
  5
22
100
AcDbPlotSettings
  1

  2
none_device
  4

  6

 40
0.0
 41
0.0
 42
0.0
 43
0.0
 44
0.0
 45
0.0
 46
0.0
 47
0.0
 48
0.0
 49
0.0
140
0.0
141
0.0
142
1.0
143
1.0
 70
1712
 72
0
 73
0
 74
0
  7

 75
0
147
1.0
148
0.0
149
0.0
100
AcDbLayout
  1
Model
 70
1
 71
0
 10
0.0
 20
0.0
 11
12.0
 21
9.0
 12
0.0
 22
0.0
 32
0.0
 14
0.0
 24
0.0
 34
0.0
 15
0.0
 25
0.0
 35
0.0
146
0.0
 13
0.0
 23
0.0
 33
0.0
 16
1.0
 26
0.0
 36
0.0
 17
0.0
 27
1.0
 37
0.0
 76
0
330
1F
  0
LAYOUT
  5
26
100
AcDbPlotSettings
  1

  2
none_device
  4

  6

 40
0.0
 41
0.0
 42
0.0
 43
0.0
 44
0.0
 45
0.0
 46
0.0
 47
0.0
 48
0.0
 49
0.0
140
0.0
141
0.0
142
1.0
143
1.0
 70
688
 72
0
 73
0
 74
5
  7

 75
16
147
1.0
148
0.0
149
0.0
100
AcDbLayout
  1
Layout2
 70
1
 71
2
 10
0.0
 20
0.0
 11
12.0
 21
9.0
 12
0.0
 22
0.0
 32
0.0
 14
0.0
 24
0.0
 34
0.0
 15
0.0
 25
0.0
 35
0.0
146
0.0
 13
0.0
 23
0.0
 33
0.0
 16
1.0
 26
0.0
 36
0.0
 17
0.0
 27
1.0
 37
0.0
 76
0
330
23
  0
DICTIONARY
  5
7E
100
AcDbDictionary
281
1
  3
DIMASSOC
350
81
  3
HIDETEXT
350
80
  0
DICTIONARYVAR
  5
80
100
DictionaryVariables
280
0
  1
2
  0
DICTIONARYVAR
  5
81
100
DictionaryVariables
280
0
  1
1
  0
DICTIONARY
  5
7F
100
AcDbDictionary
281
1
  3
Grid/DisplayGrid00
350
82
  3
Grid/DisplayGrid01
350
83
  3
Grid/DisplayGrid02
350
84
  3
Grid/DisplayGrid03
350
85
  3
Grid/GridSpacingX00
350
86
  3
Grid/GridSpacingX01
350
87
  3
Grid/GridSpacingX02
350
88
  3
Grid/GridSpacingX03
350
89
  3
Grid/GridSpacingY00
350
8A
  3
Grid/GridSpacingY01
350
8B
  3
Grid/GridSpacingY02
350
8C
  3
Grid/GridSpacingY03
350
8D
  3
Grid/IsometricGrid00
350
8E
  3
Grid/IsometricGrid01
350
8F
  3
Grid/IsometricGrid02
350
90
  3
Grid/IsometricGrid03
350
91
  3
Grid/IsometricProjection00
350
92
  3
Grid/IsometricProjection01
350
93
  3
Grid/IsometricProjection02
350
94
  3
Grid/IsometricProjection03
350
95
  3
Grid/MetaGridSpacingX00
350
96
  3
Grid/MetaGridSpacingX01
350
97
  3
Grid/MetaGridSpacingX02
350
98
  3
Grid/MetaGridSpacingX03
350
99
  3
Grid/MetaGridSpacingY00
350
9A
  3
Grid/MetaGridSpacingY01
350
9B
  3
Grid/MetaGridSpacingY02
350
9C
  3
Grid/MetaGridSpacingY03
350
9D
  3
MultiPageSettings/Columns
350
9E
  3
MultiPageSettings/GlueMarginsBottom
350
9F
  3
MultiPageSettings/GlueMarginsLeft
350
A0
  3
MultiPageSettings/GlueMarginsRight
350
A1
  3
MultiPageSettings/GlueMarginsTop
350
A2
  3
MultiPageSettings/PrintCropMarks
350
A3
  3
MultiPageSettings/Rows
350
A4
  3
PageSettings/OffsetX
350
A5
  3
PageSettings/OffsetY
350
A6
  3
PageSettings/PageOrientation
350
A7
  3
PageSettings/PaperHeight
350
A8
  3
PageSettings/PaperSizeName
350
A9
  3
PageSettings/PaperWidth
350
AA
  3
PageSettings/Scale
350
AB
  3
PageSettings/ShowPaperBorders
350
AC
  3
UnitSettings/PaperUnit
350
AD
  0
XRECORD
  5
82
330
7F
100
AcDbXrecord
280
1
290
1
  0
XRECORD
  5
83
330
7F
100
AcDbXrecord
280
1
290
1
  0
XRECORD
  5
84
330
7F
100
AcDbXrecord
280
1
290
1
  0
XRECORD
  5
85
330
7F
100
AcDbXrecord
280
1
290
1
  0
XRECORD
  5
86
330
7F
100
AcDbXrecord
280
1
1000
auto
  0
XRECORD
  5
87
330
7F
100
AcDbXrecord
280
1
1000
auto
  0
XRECORD
  5
88
330
7F
100
AcDbXrecord
280
1
1000
auto
  0
XRECORD
  5
89
330
7F
100
AcDbXrecord
280
1
1000
auto
  0
XRECORD
  5
8A
330
7F
100
AcDbXrecord
280
1
1000
auto
  0
XRECORD
  5
8B
330
7F
100
AcDbXrecord
280
1
1000
auto
  0
XRECORD
  5
8C
330
7F
100
AcDbXrecord
280
1
1000
auto
  0
XRECORD
  5
8D
330
7F
100
AcDbXrecord
280
1
1000
auto
  0
XRECORD
  5
8E
330
7F
100
AcDbXrecord
280
1
290
0
  0
XRECORD
  5
8F
330
7F
100
AcDbXrecord
280
1
290
0
  0
XRECORD
  5
90
330
7F
100
AcDbXrecord
280
1
290
0
  0
XRECORD
  5
91
330
7F
100
AcDbXrecord
280
1
290
0
  0
XRECORD
  5
92
330
7F
100
AcDbXrecord
280
1
 90
0
  0
XRECORD
  5
93
330
7F
100
AcDbXrecord
280
1
 90
0
  0
XRECORD
  5
94
330
7F
100
AcDbXrecord
280
1
 90
0
  0
XRECORD
  5
95
330
7F
100
AcDbXrecord
280
1
 90
0
  0
XRECORD
  5
96
330
7F
100
AcDbXrecord
280
1
1000
auto
  0
XRECORD
  5
97
330
7F
100
AcDbXrecord
280
1
1000
auto
  0
XRECORD
  5
98
330
7F
100
AcDbXrecord
280
1
1000
auto
  0
XRECORD
  5
99
330
7F
100
AcDbXrecord
280
1
1000
auto
  0
XRECORD
  5
9A
330
7F
100
AcDbXrecord
280
1
1000
auto
  0
XRECORD
  5
9B
330
7F
100
AcDbXrecord
280
1
1000
auto
  0
XRECORD
  5
9C
330
7F
100
AcDbXrecord
280
1
1000
auto
  0
XRECORD
  5
9D
330
7F
100
AcDbXrecord
280
1
1000
auto
  0
XRECORD
  5
9E
330
7F
100
AcDbXrecord
280
1
 90
1
  0
XRECORD
  5
9F
330
7F
100
AcDbXrecord
280
1
 40
10.0
  0
XRECORD
  5
A0
330
7F
100
AcDbXrecord
280
1
 40
10.0
  0
XRECORD
  5
A1
330
7F
100
AcDbXrecord
280
1
 40
10.0
  0
XRECORD
  5
A2
330
7F
100
AcDbXrecord
280
1
 40
10.0
  0
XRECORD
  5
A3
330
7F
100
AcDbXrecord
280
1
290
0
  0
XRECORD
  5
A4
330
7F
100
AcDbXrecord
280
1
 90
1
  0
XRECORD
  5
A5
330
7F
100
AcDbXrecord
280
1
 40
0.0
  0
XRECORD
  5
A6
330
7F
100
AcDbXrecord
280
1
 40
0.0
  0
XRECORD
  5
A7
330
7F
100
AcDbXrecord
280
1
1000
Landscape
  0
XRECORD
  5
A8
330
7F
100
AcDbXrecord
280
1
1000
420
  0
XRECORD
  5
A9
330
7F
100
AcDbXrecord
280
1
1000
ISO A3
  0
XRECORD
  5
AA
330
7F
100
AcDbXrecord
280
1
1000
297
  0
XRECORD
  5
AB
330
7F
100
AcDbXrecord
280
1
1000
1:1
  0
XRECORD
  5
AC
330
7F
100
AcDbXrecord
280
1
290
1
  0
XRECORD
  5
AD
330
7F
100
AcDbXrecord
280
1
 90
4
  0
ENDSEC
  0
EOF
